# Blender 5.0.0
# www.blender.org
mtllib body.mtl
o body
v 0.651860 -1.083025 13.457870
v 0.765880 -0.955474 15.126522
v 0.625712 0.380434 13.546176
v 0.742096 0.653852 15.173409
v 0.323804 0.463060 13.420280
v -0.000000 0.500597 13.348487
v -0.000000 0.880021 15.348876
v 0.446903 0.802330 15.290431
v 0.829271 0.743305 14.856556
v 0.848824 0.730827 14.385358
v 0.757384 0.572420 13.897238
v 0.739131 -0.813906 13.344831
v 0.776664 -0.401028 13.307147
v 0.722914 0.044901 13.400491
v 0.859478 0.311527 15.277570
v 0.923397 -0.175905 15.320759
v 0.874072 -0.644584 15.250065
v 0.858704 -1.074698 14.794477
v 0.882124 -1.155977 14.305179
v 0.788566 -1.146999 13.806930
v -0.000000 -1.258796 13.240062
v 0.350681 -1.199240 13.317605
v 0.471016 -1.058024 15.241802
v -0.000000 -1.109110 15.301130
v -0.000000 0.900324 13.835896
v -0.000000 1.143035 14.385614
v -0.000000 1.145625 14.918264
v 0.381936 0.822520 13.869970
v 0.443573 1.037758 14.389916
v 0.452206 1.037042 14.892428
v 0.984228 0.157659 13.844306
v 1.105019 0.270361 14.366093
v 1.065598 0.306024 14.872482
v 1.066265 -0.327334 13.787646
v 1.198511 -0.254338 14.340116
v 1.153626 -0.204117 14.880017
v 1.003461 -0.785713 13.791166
v 1.125969 -0.755811 14.318733
v 1.083674 -0.693553 14.836204
v 0.416258 -1.366869 13.759587
v 0.479910 -1.395053 14.132803
v 0.484475 -1.293586 14.820024
v -0.000000 -1.445869 13.788710
v -0.000000 -1.472924 14.126332
v -0.000000 -1.363488 14.845755
v -0.000000 0.021654 12.999015
v 0.334916 0.018136 13.111269
v -0.000000 -0.470340 12.847487
v 0.358349 -0.451474 12.977661
v -0.000000 -0.916813 12.934004
v 0.349904 -0.878878 13.049128
v 0.490043 0.371185 15.522573
v -0.000000 0.413002 15.606412
v 0.524400 -0.154316 15.591666
v -0.000000 -0.142718 15.683215
v 0.503262 -0.661850 15.497581
v -0.000000 -0.681683 15.582354
v -0.000000 -1.634581 13.878331
v 1.180459 0.184851 14.352101
v 1.266053 0.093675 14.379786
v 1.277328 0.221574 14.112679
v 1.362921 0.130398 14.140363
v 1.196011 0.085275 13.793450
v 1.281605 -0.005902 13.821135
v 1.017827 -0.087749 13.713645
v 1.103421 -0.178925 13.741329
v 0.920958 -0.124472 13.953069
v 1.006552 -0.215649 13.980753
v 1.002274 0.011828 14.272297
v 1.087868 -0.079348 14.299981
v -0.000000 0.878323 9.602792
v -0.000000 0.878920 12.415854
v 0.658411 0.686668 9.576084
v 1.216684 0.549955 12.216754
v 0.800749 0.223971 9.511604
v 1.269113 0.166842 12.382856
v 0.645020 -0.238725 9.447126
v 1.188671 -0.258462 12.218618
v -0.000000 -0.430381 9.420418
v -0.000000 -0.683903 12.000491
v -0.000000 0.878921 10.433952
v 0.806942 0.671398 10.433952
v 1.119568 0.170396 10.433952
v 0.806942 -0.330606 10.433952
v -0.000000 -0.538128 10.433952
v -0.000000 0.998552 11.826576
v 1.205405 0.547798 11.377524
v 1.273563 0.172863 11.212066
v 1.186949 -0.260599 11.378361
v -0.000000 -0.862974 11.541228
v -0.000000 0.692680 12.647915
v 0.566659 0.542324 12.578916
v 0.825676 0.141959 12.578916
v 0.564656 -0.258406 12.578917
v -0.000000 -0.424242 12.375329
v 1.264630 0.170396 12.394423
v 0.965159 0.671398 12.415854
v 0.965159 -0.330607 12.415854
v 0.957516 0.671398 11.183764
v 0.918889 -0.697489 11.444891
v 1.241266 0.170396 11.183763
v 2.797811 0.423930 10.237530
v 2.903374 0.162468 10.292181
v 2.785220 -0.127787 10.251972
v 2.386602 0.422458 9.838778
v 2.339429 0.166577 9.726130
v 2.378117 -0.129246 9.848103
v 4.131318 0.348982 8.866169
v 4.207672 0.159867 8.905699
v 4.122211 -0.050074 8.876616
v 3.833892 0.347917 8.577751
v 3.799772 0.162840 8.496275
v 3.827755 -0.051129 8.584497
v 4.213897 0.438775 8.791534
v 4.273455 0.174328 8.922266
v 4.211824 -0.185792 8.841314
v 4.138450 0.426791 8.517798
v 4.109146 0.178319 8.490541
v 4.133180 -0.246030 8.523791
v 4.802126 0.523858 8.491348
v 4.867705 0.174328 8.526470
v 4.794304 -0.244614 8.500631
v 4.732701 0.426791 8.189856
v 4.703397 0.178319 8.162596
v 4.727430 -0.246030 8.195848
v 5.114592 0.408297 7.791936
v 5.151357 0.170317 7.757667
v 5.110206 -0.124790 7.799709
v 4.971375 0.311858 7.802656
v 4.954946 0.172555 7.762069
v 4.968420 -0.125583 7.806016
v 3.929401 0.097276 8.247057
v 3.931428 -0.085874 8.326254
v 4.185151 0.110526 8.315922
v 4.197004 -0.252702 8.348980
v 4.129254 0.029445 8.039299
v 4.130915 -0.120627 8.104193
v 4.338814 0.040302 8.095726
v 4.348527 -0.257326 8.122814
v 4.362276 -0.042147 7.834507
v 4.352593 -0.149132 7.879761
v 4.498097 -0.034407 7.908599
v 4.500307 -0.246584 7.928994
v -0.000000 0.546318 12.819307
v 0.208467 0.393299 12.782026
v 0.331803 0.148446 12.698627
v 0.239098 0.006251 12.698627
v -0.000000 -0.137221 12.648702
v 2.688437 -0.135709 10.371191
v 2.804305 0.162733 10.418919
v 2.274816 0.166958 9.816209
v 2.305908 -0.137208 9.940868
v 2.701962 0.431569 10.357512
v 2.314998 0.430055 9.932056
v 2.993125 0.162289 10.196775
v 2.889572 0.418772 10.143165
v 2.486192 0.417328 9.752005
v 2.439917 0.166320 9.641502
v 2.477869 -0.123870 9.761152
v 2.877221 -0.122440 10.157332
v 0.663737 0.872715 5.330168
v 0.680958 1.237154 7.448513
v 1.205066 0.536976 5.321424
v 1.454241 0.747450 7.747169
v 1.205066 -0.097425 5.339676
v 1.456445 -0.013068 7.643239
v 0.663707 -0.407292 5.355859
v 0.671939 -0.392153 7.439851
v 0.122234 -0.077891 5.358431
v 0.110016 -0.008826 7.493960
v 0.122408 0.567860 5.351192
v -0.000000 1.154156 7.410040
v 0.669763 1.321809 7.916144
v 1.441049 0.743190 8.050560
v 1.444036 -0.030473 7.933139
v 0.675240 -0.408866 7.600517
v 0.097823 -0.025042 7.627186
v -0.000000 1.352097 7.806363
v 0.527718 1.337172 8.209692
v 1.229632 0.698476 8.751534
v 1.225004 -0.101395 8.608181
v 0.573745 -0.454385 7.996361
v 0.093852 -0.045569 7.803966
v -0.000000 1.411768 7.975029
v 0.545870 0.965186 1.699836
v 0.942776 0.736992 1.678889
v 0.942776 0.280603 1.636992
v 0.545870 0.052409 1.616044
v 0.148965 0.280603 1.636992
v 0.148965 0.736992 1.678889
v 1.143411 0.059616 4.344098
v 1.143411 0.649323 4.360036
v 0.121636 0.585032 4.360037
v 0.121636 -0.004675 4.344098
v 0.632524 1.040612 4.421581
v 0.632524 -0.320958 4.861168
v -0.000000 -0.003949 7.808247
v -0.000000 -0.421758 8.007385
v -0.000000 -0.480941 8.499491
v 0.000000 1.196910 8.853102
v -0.000000 1.367206 8.456413
v 0.976045 0.626285 9.214466
v 0.970840 -0.173155 9.073110
v -0.000000 -0.413884 8.977492
v 0.000000 0.908298 9.275867
v 0.545870 1.046705 0.288287
v 0.972246 0.800563 0.246328
v 0.972246 0.308277 0.253356
v 0.545870 0.062134 0.256869
v 0.119495 0.308277 0.253356
v 0.119495 0.800563 0.246328
v 1.193920 0.557286 5.147626
v 0.122126 -0.064655 5.175061
v 0.658094 0.903067 5.165914
v 1.193920 -0.069036 5.159697
v 0.122268 0.570964 5.172012
v 0.658070 -0.391685 5.266430
v 1.180467 -0.034770 4.942465
v 0.122100 0.574711 4.955745
v 0.651266 -0.372847 5.158490
v 1.180467 0.581800 4.937856
v 0.121995 -0.048680 4.953736
v 0.651283 0.939702 4.967664
v -0.000000 0.448765 13.660767
v 0.239809 0.290642 13.660767
v 0.331803 0.148446 13.660768
v 0.239098 0.006251 13.660768
v -0.000000 -0.151751 13.588459
v -0.651860 -1.083025 13.457870
v -0.765880 -0.955474 15.126522
v -0.625712 0.380434 13.546176
v -0.742096 0.653852 15.173409
v -0.323804 0.463060 13.420280
v -0.446903 0.802330 15.290431
v -0.829271 0.743305 14.856556
v -0.848824 0.730827 14.385358
v -0.757384 0.572420 13.897238
v -0.739131 -0.813906 13.344831
v -0.776664 -0.401028 13.307147
v -0.722914 0.044901 13.400491
v -0.859478 0.311527 15.277570
v -0.923397 -0.175905 15.320759
v -0.874072 -0.644584 15.250065
v -0.858704 -1.074698 14.794477
v -0.882124 -1.155977 14.305179
v -0.788566 -1.146999 13.806930
v -0.350681 -1.199240 13.317605
v -0.471016 -1.058024 15.241802
v -0.381936 0.822520 13.869970
v -0.443573 1.037758 14.389916
v -0.452206 1.037042 14.892428
v -0.984228 0.157659 13.844306
v -1.105019 0.270361 14.366093
v -1.065598 0.306024 14.872482
v -1.066265 -0.327334 13.787646
v -1.198511 -0.254338 14.340116
v -1.153626 -0.204117 14.880017
v -1.003461 -0.785713 13.791166
v -1.125969 -0.755811 14.318733
v -1.083674 -0.693553 14.836204
v -0.416258 -1.366869 13.759587
v -0.479910 -1.395053 14.132803
v -0.484475 -1.293586 14.820024
v -0.334916 0.018136 13.111269
v -0.358349 -0.451474 12.977661
v -0.349904 -0.878878 13.049128
v -0.490043 0.371185 15.522573
v -0.524400 -0.154316 15.591666
v -0.503262 -0.661850 15.497581
v -1.180459 0.184851 14.352101
v -1.266053 0.093675 14.379786
v -1.277328 0.221574 14.112679
v -1.362921 0.130398 14.140363
v -1.196011 0.085275 13.793450
v -1.281605 -0.005902 13.821135
v -1.017827 -0.087749 13.713645
v -1.103421 -0.178925 13.741329
v -0.920958 -0.124472 13.953069
v -1.006552 -0.215649 13.980753
v -1.002274 0.011828 14.272297
v -1.087868 -0.079348 14.299981
v -0.658411 0.686668 9.576084
v -1.216684 0.549955 12.216754
v -0.800749 0.223971 9.511604
v -1.269113 0.166842 12.382856
v -0.645020 -0.238725 9.447126
v -1.188671 -0.258462 12.218618
v -0.806942 0.671398 10.433952
v -1.119568 0.170396 10.433952
v -0.806942 -0.330606 10.433952
v -1.205405 0.547798 11.377525
v -1.273563 0.172863 11.212067
v -1.186949 -0.260599 11.378361
v -0.566659 0.542324 12.578916
v -0.825676 0.141959 12.578915
v -0.564657 -0.258406 12.578917
v -1.264630 0.170396 12.394423
v -0.965159 0.671398 12.415854
v -0.965159 -0.330607 12.415854
v -0.957516 0.671398 11.183764
v -0.918889 -0.697489 11.444891
v -1.241266 0.170396 11.183764
v -2.797811 0.423930 10.237530
v -2.903374 0.162468 10.292181
v -2.785220 -0.127787 10.251972
v -2.386602 0.422458 9.838778
v -2.339429 0.166577 9.726130
v -2.378117 -0.129246 9.848103
v -4.131319 0.348982 8.866169
v -4.207673 0.159867 8.905699
v -4.122211 -0.050075 8.876616
v -3.833891 0.347917 8.577751
v -3.799771 0.162840 8.496275
v -3.827754 -0.051129 8.584497
v -4.213898 0.438775 8.791534
v -4.273456 0.174328 8.922265
v -4.211825 -0.185792 8.841314
v -4.138451 0.426791 8.517797
v -4.109145 0.178319 8.490541
v -4.133180 -0.246030 8.523791
v -4.802127 0.523858 8.491348
v -4.867706 0.174328 8.526470
v -4.794305 -0.244614 8.500631
v -4.732701 0.426791 8.189856
v -4.703396 0.178319 8.162597
v -4.727430 -0.246030 8.195848
v -5.114591 0.408297 7.791936
v -5.151357 0.170317 7.757668
v -5.110205 -0.124789 7.799709
v -4.971375 0.311858 7.802657
v -4.954945 0.172555 7.762069
v -4.968420 -0.125583 7.806016
v -3.929400 0.097276 8.247057
v -3.931427 -0.085874 8.326254
v -4.185150 0.110526 8.315922
v -4.197004 -0.252702 8.348980
v -4.129254 0.029445 8.039299
v -4.130915 -0.120627 8.104193
v -4.338814 0.040302 8.095726
v -4.348527 -0.257326 8.122814
v -4.362277 -0.042147 7.834507
v -4.352593 -0.149132 7.879761
v -4.498097 -0.034407 7.908599
v -4.500307 -0.246584 7.928994
v -0.208467 0.393299 12.782026
v -0.331803 0.148446 12.698627
v -0.239098 0.006251 12.698627
v -2.688437 -0.135709 10.371191
v -2.804305 0.162733 10.418919
v -2.274816 0.166958 9.816208
v -2.305908 -0.137208 9.940868
v -2.701962 0.431569 10.357512
v -2.314998 0.430055 9.932056
v -2.993125 0.162289 10.196775
v -2.889572 0.418772 10.143165
v -2.486192 0.417328 9.752005
v -2.439917 0.166320 9.641502
v -2.477869 -0.123870 9.761152
v -2.877221 -0.122440 10.157332
v -0.663737 0.872715 5.330168
v -0.680958 1.237154 7.448513
v -1.205066 0.536976 5.321425
v -1.454241 0.747450 7.747169
v -1.205066 -0.097425 5.339676
v -1.456445 -0.013068 7.643239
v -0.663707 -0.407291 5.355860
v -0.671939 -0.392153 7.439851
v -0.122234 -0.077891 5.358431
v -0.110016 -0.008826 7.493960
v -0.122408 0.567860 5.351193
v -0.669763 1.321810 7.916144
v -1.441049 0.743190 8.050560
v -1.444036 -0.030473 7.933139
v -0.675240 -0.408866 7.600518
v -0.097823 -0.025042 7.627186
v -0.527718 1.337172 8.209692
v -1.229632 0.698476 8.751534
v -1.225004 -0.101395 8.608181
v -0.573745 -0.454385 7.996361
v -0.093852 -0.045569 7.803966
v -0.545871 0.906103 1.694414
v -0.891394 0.707450 1.676177
v -0.891394 0.310145 1.639704
v -0.545871 0.111493 1.621469
v -0.200347 0.310146 1.639704
v -0.200347 0.707451 1.676177
v -1.143411 0.059616 4.344099
v -1.143411 0.649322 4.360037
v -0.121636 0.585032 4.360037
v -0.121636 -0.004674 4.344099
v -0.632524 1.040612 4.421581
v -0.632524 -0.320958 4.861169
v -0.976045 0.626285 9.214466
v -0.970840 -0.173155 9.073110
v -0.545871 1.046706 0.288288
v -0.972246 0.800562 0.246329
v -0.972246 0.308276 0.253356
v -0.545871 0.062134 0.256870
v -0.119495 0.308276 0.253356
v -0.119495 0.800562 0.246329
v -1.193920 0.557286 5.147627
v -0.122126 -0.064655 5.175061
v -0.658094 0.903067 5.165915
v -1.193920 -0.069036 5.159698
v -0.122268 0.570964 5.172012
v -0.658070 -0.391684 5.266431
v -1.180467 -0.034770 4.942465
v -0.122100 0.574711 4.955746
v -0.651266 -0.372846 5.158490
v -1.180467 0.581800 4.937856
v -0.121996 -0.048679 4.953737
v -0.651283 0.939702 4.967664
v -0.239809 0.290642 13.660767
v -0.331803 0.148446 13.660768
v -0.239098 0.006251 13.660768
vn 0.2164 0.8929 -0.3948
vn 0.2321 0.9727 -0.0037
vn 0.2202 0.8344 0.5052
vn 0.5654 0.7212 0.4002
vn 0.6089 0.7932 -0.0028
vn 0.5483 0.7536 -0.3626
vn 0.4618 0.6756 -0.5747
vn 0.2163 0.7520 -0.6227
vn 0.9487 0.1859 -0.2556
vn 0.9831 0.1713 0.0652
vn 0.9675 -0.1324 -0.2156
vn 0.9842 -0.1479 0.0969
vn 0.7195 0.4506 -0.5285
vn 0.8239 0.4796 -0.3019
vn 0.8764 0.4807 0.0292
vn 0.8179 0.4300 0.3823
vn 0.8802 0.1568 0.4478
vn 0.8710 -0.1638 0.4631
vn 0.7741 -0.4731 0.4206
vn 0.8463 -0.5169 0.1289
vn 0.8443 -0.5091 -0.1674
vn 0.7840 -0.4608 -0.4160
vn 0.8578 -0.1224 -0.4992
vn 0.8219 0.2055 -0.5313
vn 0.3413 -0.9359 -0.0872
vn 0.1527 -0.9774 0.1461
vn 0.4949 -0.7916 -0.3583
vn 0.5327 -0.8360 -0.1318
vn 0.4828 -0.8641 0.1420
vn 0.4629 -0.7751 0.4301
vn 0.1522 -0.8619 0.4837
vn 0.1879 -0.9207 -0.3421
vn 0.3117 0.2771 -0.9089
vn 0.3347 -0.1708 -0.9267
vn 0.2547 0.5633 -0.7860
vn 0.4780 0.4907 -0.7285
vn 0.5760 0.2421 -0.7808
vn 0.6186 -0.1344 -0.7742
vn 0.5511 -0.5089 -0.6613
vn 0.2864 -0.6276 -0.7239
vn 0.1758 0.1371 0.9748
vn 0.1677 -0.1838 0.9686
vn 0.5320 0.4281 0.7306
vn 0.1911 0.4769 0.8579
vn 0.1614 -0.5434 0.8238
vn 0.4840 -0.4864 0.7274
vn 0.5490 -0.1775 0.8167
vn 0.5620 0.1448 0.8143
vn 0.6237 0.6944 0.3588
vn 0.7220 0.5506 -0.4190
vn 0.3616 0.0569 -0.9306
vn -0.6237 -0.6944 -0.3588
vn 0.6532 -0.7421 0.1505
vn -0.7220 -0.5506 0.4190
vn -0.3616 -0.0569 0.9306
vn -0.6532 0.7421 -0.1505
vn 0.2865 0.9561 0.0616
vn 0.1946 -0.9185 0.3443
vn 0.2653 -0.9571 -0.1170
vn 0.8769 -0.4093 -0.2520
vn 0.8778 0.4287 -0.2139
vn 0.2626 0.9648 -0.0147
vn 0.1838 -0.9315 -0.3139
vn 0.8715 -0.4440 -0.2082
vn 0.8490 0.5053 -0.1542
vn 0.2650 0.9615 -0.0723
vn 0.3452 0.1920 0.9187
vn 0.1882 0.6663 0.7215
vn 0.3652 -0.2055 0.9080
vn 0.0572 -0.8301 0.5547
vn 0.6913 0.3761 0.6169
vn 0.6847 -0.3770 0.6238
vn 0.4404 0.8978 -0.0050
vn 0.7436 -0.6587 0.1145
vn 0.4995 -0.4080 -0.7642
vn 0.6696 0.3886 -0.6329
vn 0.7307 -0.3756 0.5701
vn -0.7510 -0.3239 -0.5754
vn 0.0386 0.9984 -0.0410
vn 0.7234 0.4059 0.5585
vn -0.7372 0.3723 -0.5639
vn 0.0449 -0.9982 -0.0390
vn 0.6677 0.4007 0.6274
vn -0.5856 0.4146 -0.6966
vn 0.0303 -0.9992 -0.0270
vn 0.6779 -0.3644 0.6384
vn -0.5988 -0.3710 -0.7098
vn 0.0254 0.9992 -0.0299
vn -0.0246 -0.1833 0.9827
vn -0.9015 -0.2242 -0.3702
vn -0.3324 0.9219 0.1991
vn 0.0972 0.3752 0.9218
vn -0.1422 0.2603 -0.9550
vn -0.5294 -0.7485 0.3993
vn 0.4638 0.3179 0.8269
vn -0.4776 0.1513 -0.8655
vn 0.0055 -0.9952 0.0973
vn 0.5121 -0.2032 0.8345
vn -0.4810 -0.0955 -0.8715
vn -0.1489 0.9777 -0.1479
vn -0.8377 -0.1008 -0.5367
vn -0.3220 0.8797 -0.3499
vn 0.9190 0.1606 0.3600
vn -0.8200 0.1911 -0.5396
vn 0.1836 -0.9755 -0.1211
vn 0.9207 -0.1394 0.3646
vn -0.7362 -0.2755 -0.6182
vn -0.0142 0.9518 -0.3064
vn 0.9312 0.0725 0.3572
vn -0.5368 -0.8340 -0.1279
vn -0.4520 -0.8121 -0.3691
vn -0.4867 -0.8169 -0.3094
vn 0.8290 0.0775 0.5538
vn 0.0275 0.9578 -0.2863
vn 0.3379 -0.1972 -0.9203
vn 0.7786 0.0762 0.6229
vn 0.0603 0.9534 -0.2955
vn -0.6920 -0.2660 -0.6711
vn 0.2310 -0.1506 0.9612
vn 0.3254 0.5659 0.7576
vn -0.0271 -0.5906 0.8065
vn 0.3412 0.0812 0.9365
vn -0.0319 -0.1419 -0.9894
vn -0.0959 0.1887 -0.9773
vn 0.0706 -0.9973 -0.0185
vn -0.7775 0.2249 -0.5874
vn 0.7340 0.3724 0.5679
vn 0.0622 0.9978 -0.0225
vn -0.7847 -0.1754 -0.5945
vn 0.7333 -0.3666 0.5725
vn 0.5482 0.8251 -0.1365
vn 0.9944 0.0081 -0.1057
vn 0.4619 -0.8869 -0.0072
vn -0.5419 -0.8403 0.0163
vn -0.5605 -0.8210 -0.1089
vn -0.9978 -0.0617 -0.0224
vn -0.2923 0.9309 -0.2192
vn 0.9972 0.0041 -0.0740
vn -0.9977 -0.0670 -0.0039
vn 0.9991 -0.0028 0.0430
vn -0.9966 -0.0817 0.0051
vn 0.5801 0.8118 -0.0663
vn 0.4537 -0.8892 -0.0582
vn -0.0030 0.9504 -0.3109
vn -0.5673 -0.1189 0.8149
vn 0.4396 -0.8975 0.0340
vn 0.5585 0.7992 0.2221
vn 0.1215 0.9850 -0.1226
vn -0.5682 -0.7990 -0.1968
vn 0.9544 -0.0498 0.2944
vn -0.9998 -0.0008 0.0209
vn -0.9999 0.0006 -0.0101
vn 0.5617 0.8269 -0.0280
vn 0.5115 -0.8522 -0.1098
vn -0.6026 0.7978 0.0179
vn -0.4747 -0.8753 -0.0921
vn -0.4806 -0.8731 -0.0822
vn -0.6208 0.7792 0.0864
vn 0.4759 -0.8628 -0.1705
vn 0.5873 0.8042 0.0914
vn -1.0000 0.0001 0.0007
vn 0.9980 0.0006 -0.0628
vn -0.0993 -0.9908 -0.0917
vn -0.0715 -0.4606 -0.8847
vn 0.1791 -0.9719 0.1530
vn 0.0066 0.1170 -0.9931
vn 0.3380 0.8230 0.4566
vn 0.3287 0.8380 0.4355
vn 0.2655 -0.9618 0.0668
vn 0.8795 -0.0886 0.4675
vn -0.0000 0.0165 -0.9999
vn 0.4993 -0.8664 -0.0064
vn 0.5014 0.8638 0.0493
vn -0.5014 0.8638 0.0493
vn -0.4993 -0.8664 -0.0064
vn 0.9998 -0.0008 0.0209
vn 0.9980 -0.0015 -0.0631
vn -1.0000 0.0003 0.0007
vn 0.5338 0.8398 0.0993
vn 0.4844 -0.8581 -0.1703
vn -0.5051 0.8581 0.0921
vn -0.5139 -0.8542 -0.0795
vn 0.9980 -0.0008 -0.0630
vn -1.0000 0.0002 0.0007
vn 0.5517 0.8284 0.0967
vn 0.4817 -0.8596 -0.1704
vn -0.5458 0.8331 0.0903
vn -0.5035 -0.8602 -0.0803
vn 0.2816 0.9555 0.0877
vn 0.2581 -0.9661 0.0059
vn 0.8319 -0.0977 0.5462
vn 0.8749 0.4841 0.0121
vn 0.8377 -0.5461 -0.0000
vn 0.5729 0.8153 0.0844
vn 0.5345 -0.8452 -0.0065
vn -0.2164 0.8929 -0.3948
vn -0.2321 0.9727 -0.0037
vn -0.2202 0.8344 0.5052
vn -0.5654 0.7212 0.4002
vn -0.6089 0.7932 -0.0028
vn -0.5483 0.7536 -0.3626
vn -0.4618 0.6756 -0.5747
vn -0.2163 0.7520 -0.6227
vn -0.9487 0.1859 -0.2556
vn -0.9831 0.1713 0.0652
vn -0.9675 -0.1324 -0.2156
vn -0.9842 -0.1479 0.0969
vn -0.7195 0.4506 -0.5285
vn -0.8239 0.4796 -0.3019
vn -0.8764 0.4807 0.0292
vn -0.8179 0.4300 0.3823
vn -0.8802 0.1568 0.4479
vn -0.8710 -0.1638 0.4631
vn -0.7741 -0.4731 0.4206
vn -0.8463 -0.5169 0.1289
vn -0.8443 -0.5091 -0.1674
vn -0.7840 -0.4608 -0.4160
vn -0.8578 -0.1224 -0.4992
vn -0.8219 0.2055 -0.5313
vn -0.3413 -0.9359 -0.0872
vn -0.1527 -0.9774 0.1461
vn -0.4949 -0.7916 -0.3583
vn -0.5327 -0.8360 -0.1318
vn -0.4828 -0.8641 0.1420
vn -0.4629 -0.7751 0.4301
vn -0.1522 -0.8619 0.4837
vn -0.1879 -0.9207 -0.3421
vn -0.3117 0.2771 -0.9089
vn -0.3347 -0.1708 -0.9267
vn -0.2547 0.5633 -0.7860
vn -0.4780 0.4907 -0.7285
vn -0.5760 0.2421 -0.7808
vn -0.6186 -0.1344 -0.7742
vn -0.5511 -0.5089 -0.6613
vn -0.2864 -0.6276 -0.7239
vn -0.1758 0.1371 0.9748
vn -0.1677 -0.1838 0.9686
vn -0.5320 0.4281 0.7306
vn -0.1911 0.4769 0.8579
vn -0.1614 -0.5434 0.8238
vn -0.4840 -0.4864 0.7274
vn -0.5490 -0.1775 0.8167
vn -0.5620 0.1448 0.8143
vn -0.6237 0.6944 0.3588
vn -0.7220 0.5506 -0.4190
vn -0.3616 0.0569 -0.9306
vn 0.6237 -0.6944 -0.3588
vn -0.6532 -0.7421 0.1505
vn 0.7220 -0.5506 0.4190
vn 0.3616 -0.0569 0.9306
vn 0.6532 0.7421 -0.1505
vn -0.2865 0.9561 0.0616
vn -0.1946 -0.9185 0.3443
vn -0.2653 -0.9571 -0.1170
vn -0.8769 -0.4093 -0.2520
vn -0.8778 0.4287 -0.2139
vn -0.2626 0.9648 -0.0147
vn -0.1838 -0.9315 -0.3139
vn -0.8715 -0.4440 -0.2082
vn -0.8490 0.5053 -0.1542
vn -0.2650 0.9615 -0.0723
vn -0.3452 0.1920 0.9187
vn -0.1882 0.6663 0.7215
vn -0.3652 -0.2055 0.9080
vn -0.0572 -0.8301 0.5547
vn -0.6913 0.3761 0.6169
vn -0.6847 -0.3770 0.6238
vn -0.4404 0.8978 -0.0050
vn -0.7436 -0.6588 0.1145
vn -0.4995 -0.4080 -0.7642
vn -0.6696 0.3886 -0.6329
vn -0.7307 -0.3756 0.5701
vn 0.7510 -0.3239 -0.5754
vn -0.0386 0.9984 -0.0410
vn -0.7234 0.4059 0.5585
vn 0.7372 0.3723 -0.5639
vn -0.0449 -0.9982 -0.0390
vn -0.6677 0.4007 0.6274
vn 0.5856 0.4146 -0.6966
vn -0.0303 -0.9992 -0.0270
vn -0.6779 -0.3644 0.6384
vn 0.5988 -0.3710 -0.7098
vn -0.0254 0.9992 -0.0299
vn 0.0246 -0.1833 0.9827
vn 0.9015 -0.2242 -0.3702
vn 0.3324 0.9219 0.1991
vn -0.0972 0.3752 0.9218
vn 0.1422 0.2603 -0.9550
vn 0.5294 -0.7485 0.3993
vn -0.4638 0.3179 0.8269
vn 0.4776 0.1513 -0.8655
vn -0.0055 -0.9952 0.0973
vn -0.5121 -0.2032 0.8345
vn 0.4810 -0.0955 -0.8715
vn 0.1489 0.9777 -0.1479
vn 0.8377 -0.1008 -0.5367
vn 0.3220 0.8797 -0.3499
vn -0.9190 0.1606 0.3600
vn 0.8200 0.1911 -0.5396
vn -0.1836 -0.9755 -0.1211
vn -0.9207 -0.1394 0.3646
vn 0.7362 -0.2755 -0.6182
vn 0.0142 0.9518 -0.3064
vn -0.9312 0.0725 0.3572
vn 0.5368 -0.8340 -0.1279
vn 0.4520 -0.8121 -0.3691
vn 0.4867 -0.8169 -0.3094
vn -0.8290 0.0775 0.5538
vn -0.0275 0.9578 -0.2863
vn -0.3379 -0.1972 -0.9203
vn -0.7786 0.0762 0.6229
vn -0.0603 0.9534 -0.2955
vn 0.6920 -0.2660 -0.6711
vn -0.2310 -0.1506 0.9612
vn -0.3254 0.5659 0.7576
vn 0.0271 -0.5906 0.8065
vn -0.3412 0.0812 0.9365
vn 0.0319 -0.1419 -0.9894
vn 0.0959 0.1887 -0.9773
vn -0.0706 -0.9973 -0.0185
vn 0.7775 0.2249 -0.5874
vn -0.7340 0.3724 0.5679
vn -0.0622 0.9978 -0.0225
vn 0.7847 -0.1754 -0.5945
vn -0.7333 -0.3666 0.5725
vn -0.5482 0.8251 -0.1365
vn -0.9944 0.0081 -0.1057
vn -0.4619 -0.8869 -0.0072
vn 0.5419 -0.8403 0.0163
vn 0.5605 -0.8210 -0.1089
vn 0.9978 -0.0617 -0.0224
vn 0.2923 0.9309 -0.2192
vn -0.9957 0.0049 -0.0929
vn 0.9977 -0.0670 -0.0039
vn -0.9991 -0.0028 0.0430
vn 0.9966 -0.0817 0.0051
vn -0.5801 0.8118 -0.0663
vn -0.4537 -0.8892 -0.0582
vn 0.0030 0.9504 -0.3109
vn 0.5673 -0.1189 0.8149
vn -0.4396 -0.8975 0.0340
vn -0.5585 0.7992 0.2221
vn -0.1215 0.9850 -0.1226
vn 0.5682 -0.7990 -0.1968
vn -0.9544 -0.0498 0.2944
vn 0.9984 -0.0019 0.0573
vn 0.9996 0.0015 -0.0291
vn -0.5637 0.8247 -0.0469
vn -0.5039 -0.8544 -0.1269
vn 0.6070 0.7947 -0.0009
vn 0.4644 -0.8788 -0.1099
vn 0.4806 -0.8731 -0.0822
vn 0.6208 0.7792 0.0864
vn -0.4759 -0.8628 -0.1705
vn -0.5873 0.8042 0.0914
vn 1.0000 0.0001 0.0007
vn -0.9980 0.0006 -0.0628
vn 0.0993 -0.9908 -0.0917
vn 0.0715 -0.4606 -0.8847
vn -0.1791 -0.9719 0.1530
vn -0.0066 0.1170 -0.9931
vn -0.3380 0.8230 0.4566
vn -0.3287 0.8380 0.4355
vn -0.2655 -0.9618 0.0668
vn -0.8795 -0.0886 0.4675
vn -0.4986 -0.8663 0.0308
vn -0.5024 0.8604 0.0852
vn 0.5024 0.8604 0.0852
vn 0.4986 -0.8663 0.0308
vn -0.9984 -0.0019 0.0573
vn -0.9980 -0.0015 -0.0631
vn 1.0000 0.0003 0.0007
vn -0.5338 0.8398 0.0993
vn -0.4844 -0.8581 -0.1703
vn 0.5051 0.8581 0.0921
vn 0.5139 -0.8542 -0.0795
vn -0.9980 -0.0008 -0.0630
vn 1.0000 0.0002 0.0007
vn -0.5517 0.8284 0.0967
vn -0.4817 -0.8596 -0.1704
vn 0.5458 0.8331 0.0903
vn 0.5035 -0.8602 -0.0803
vn -0.2816 0.9555 0.0877
vn -0.2581 -0.9661 0.0059
vn -0.8319 -0.0977 0.5462
vn -0.8749 0.4841 0.0121
vn -0.8377 -0.5461 -0.0000
vn -0.5729 0.8153 0.0844
vn -0.5345 -0.8452 -0.0065
vt 0.437500 0.375000
vt 0.500000 0.375000
vt 0.500000 0.437500
vt 0.437500 0.437500
vt 0.562500 0.375000
vt 0.562500 0.437500
vt 0.625000 0.375000
vt 0.625000 0.437500
vt 0.625000 0.500000
vt 0.562500 0.500000
vt 0.500000 0.500000
vt 0.437500 0.500000
vt 0.375000 0.437500
vt 0.375000 0.500000
vt 0.375000 0.375000
vt 0.437500 0.562500
vt 0.500000 0.562500
vt 0.500000 0.625000
vt 0.437500 0.625000
vt 0.562500 0.562500
vt 0.562500 0.625000
vt 0.500000 0.687500
vt 0.437500 0.687500
vt 0.562500 0.687500
vt 0.375000 0.562500
vt 0.625000 0.562500
vt 0.625000 0.625000
vt 0.625000 0.687500
vt 0.625000 0.750000
vt 0.562500 0.750000
vt 0.500000 0.750000
vt 0.437500 0.750000
vt 0.375000 0.687500
vt 0.375000 0.750000
vt 0.375000 0.625000
vt 0.437500 0.812500
vt 0.500000 0.812500
vt 0.500000 0.875000
vt 0.468750 0.875000
vt 0.437500 0.875000
vt 0.562500 0.812500
vt 0.562500 0.875000
vt 0.375000 0.812500
vt 0.625000 0.812500
vt 0.625000 0.875000
vt 0.375000 0.875000
vt 0.250000 0.562500
vt 0.312500 0.562500
vt 0.312500 0.625000
vt 0.250000 0.625000
vt 0.312500 0.687500
vt 0.250000 0.687500
vt 0.250000 0.500000
vt 0.312500 0.500000
vt 0.312500 0.750000
vt 0.250000 0.750000
vt 0.687500 0.562500
vt 0.750000 0.562500
vt 0.750000 0.625000
vt 0.687500 0.625000
vt 0.750000 0.687500
vt 0.687500 0.687500
vt 0.687500 0.500000
vt 0.750000 0.500000
vt 0.750000 0.750000
vt 0.687500 0.750000
vt 1.000000 0.500000
vt 1.000000 1.000000
vt 0.833333 1.000000
vt 0.833333 0.500000
vt 0.666667 1.000000
vt 0.666667 0.500000
vt 0.500000 1.000000
vt 0.500000 0.500000
vt 0.333333 1.000000
vt 0.333333 0.500000
vt 0.457846 0.370000
vt 0.250000 0.490000
vt 0.042154 0.370000
vt 0.042154 0.130000
vt 0.250000 0.010000
vt 0.457846 0.130000
vt 0.166667 1.000000
vt 0.166667 0.500000
vt -0.000000 1.000000
vt -0.000000 0.500000
vt 0.750000 0.490000
vt 0.957846 0.370000
vt 0.957846 0.130000
vt 0.750000 0.010000
vt 0.542154 0.130000
vt 0.542154 0.370000
vt 1.000000 0.828637
vt 0.875000 1.000000
vt 0.875000 0.828637
vt 0.625000 0.828637
vt 0.625000 1.000000
vt 0.500000 1.000000
vt 0.500000 0.828637
vt 0.625000 0.645722
vt 0.500000 0.645722
vt 0.500000 0.500000
vt 0.750000 0.500000
vt 0.750000 0.645722
vt 0.875000 0.500000
vt 0.875000 0.645722
vt 1.000000 0.645722
vt 0.750000 0.828637
vt 0.750000 1.000000
vt 0.749520 0.964446
vt 0.844268 0.965118
vt 0.653402 0.965669
vt 0.844587 0.863513
vt 0.647775 0.863148
vt 0.750840 0.864057
vt 0.749520 0.964446
vt 0.653402 0.965669
vt 0.647775 0.863149
vt 0.750840 0.864057
vt 0.844587 0.863513
vt 0.844267 0.965117
vt 0.844268 0.965117
vt 0.749520 0.964446
vt 0.750840 0.864057
vt 0.844587 0.863513
vt 0.653402 0.965669
vt 0.833333 0.500000
vt 0.250000 0.490000
vt 0.500000 0.500000
vt -0.000000 0.500000
vt 0.500000 0.500000
vt 0.166667 0.500000
vt 0.833333 0.500000
vt 0.000000 0.000000
vt 0.750000 0.490000
vt 0.333333 0.500000
vt 0.457846 0.250000
s 0
usemtl skin
f 25/1/1 26/2/1 29/3/1 28/4/1
f 26/2/2 27/5/2 30/6/2 29/3/2
f 27/5/3 7/7/3 8/8/3 30/6/3
f 30/6/4 8/8/4 4/9/4 9/10/4
f 29/3/5 30/6/5 9/10/5 10/11/5
f 28/4/6 29/3/6 10/11/6 11/12/6
f 5/13/7 28/4/7 11/12/7 3/14/7
f 6/15/8 25/1/8 28/4/8 5/13/8
f 31/16/9 32/17/9 35/18/9 34/19/9
f 32/17/10 33/20/10 36/21/10 35/18/10
f 34/19/11 35/18/11 38/22/11 37/23/11
f 35/18/12 36/21/12 39/24/12 38/22/12
f 3/14/13 11/12/13 31/16/13 14/25/13
f 11/12/14 10/11/14 32/17/14 31/16/14
f 10/11/15 9/10/15 33/20/15 32/17/15
f 9/10/16 4/9/16 15/26/16 33/20/16
f 33/20/17 15/26/17 16/27/17 36/21/17
f 36/21/18 16/27/18 17/28/18 39/24/18
f 39/24/19 17/28/19 2/29/19 18/30/19
f 38/22/20 39/24/20 18/30/20 19/31/20
f 37/23/21 38/22/21 19/31/21 20/32/21
f 12/33/22 37/23/22 20/32/22 1/34/22
f 13/35/23 34/19/23 37/23/23 12/33/23
f 14/25/24 31/16/24 34/19/24 13/35/24
f 40/36/25 41/37/25 44/38/25 58/39/25 43/40/25
f 41/37/26 42/41/26 45/42/26 44/38/26
f 1/34/27 20/32/27 40/36/27 22/43/27
f 20/32/28 19/31/28 41/37/28 40/36/28
f 19/31/29 18/30/29 42/41/29 41/37/29
f 18/30/30 2/29/30 23/44/30 42/41/30
f 42/41/31 23/44/31 24/45/31 45/42/31
f 22/43/32 40/36/32 43/40/32 21/46/32
f 46/47/33 47/48/33 49/49/33 48/50/33
f 48/50/34 49/49/34 51/51/34 50/52/34
f 6/53/35 5/54/35 47/48/35 46/47/35
f 5/54/36 3/14/36 14/25/36 47/48/36
f 47/48/37 14/25/37 13/35/37 49/49/37
f 49/49/38 13/35/38 12/33/38 51/51/38
f 51/51/39 12/33/39 1/34/39 22/55/39
f 50/52/40 51/51/40 22/55/40 21/56/40
f 52/57/41 53/58/41 55/59/41 54/60/41
f 54/60/42 55/59/42 57/61/42 56/62/42
f 4/9/43 8/63/43 52/57/43 15/26/43
f 8/63/44 7/64/44 53/58/44 52/57/44
f 56/62/45 57/61/45 24/65/45 23/66/45
f 17/28/46 56/62/46 23/66/46 2/29/46
f 16/27/47 54/60/47 56/62/47 17/28/47
f 15/26/48 52/57/48 54/60/48 16/27/48
f 59/67/49 60/68/49 62/69/49 61/70/49
f 61/70/50 62/69/50 64/71/50 63/72/50
f 63/72/51 64/71/51 66/73/51 65/74/51
f 65/74/52 66/73/52 68/75/52 67/76/52
f 62/77/53 60/78/53 70/79/53 68/80/53 66/81/53 64/82/53
f 67/76/54 68/75/54 70/83/54 69/84/54
f 69/84/55 70/83/55 60/85/55 59/86/55
f 59/87/56 61/88/56 63/89/56 65/90/56 67/91/56 69/92/56
f 86/93/57 72/68/57 97/94/57 99/95/57
f 100/96/58 98/97/58 80/98/58 90/99/58
f 77/9/59 84/100/59 85/101/59 79/102/59
f 75/103/60 83/104/60 84/100/60 77/9/60
f 73/105/61 82/106/61 83/104/61 75/103/61
f 71/67/62 81/107/62 82/106/62 73/105/62
f 84/100/63 100/96/63 90/99/63 85/101/63
f 83/104/64 101/108/64 100/96/64 84/100/64
f 82/106/65 99/95/65 101/108/65 83/104/65
f 81/107/66 86/93/66 99/95/66 82/106/66
f 96/109/67 97/94/67 92/94/67 93/109/67
f 97/94/68 72/68/68 91/68/68 92/94/68
f 98/97/69 96/109/69 93/109/69 94/97/69
f 80/98/70 98/97/70 94/97/70 95/98/70
f 76/110/71 74/111/71 97/94/71 96/109/71
f 78/112/72 76/110/72 96/109/72 98/97/72
f 74/111/73 87/113/73 99/95/73 97/94/73
f 89/114/74 78/112/74 98/97/74 100/96/74
f 88/115/75 89/114/75 100/96/75 101/108/75
f 87/113/76 88/115/76 101/108/76 99/95/76
f 150/116/77 149/117/77 104/112/77 103/110/77
f 152/118/78 151/119/78 106/115/78 107/114/78
f 154/120/79 153/121/79 102/111/79 105/113/79
f 153/121/80 150/116/80 103/110/80 102/111/80
f 151/119/81 154/120/81 105/113/81 106/115/81
f 149/117/82 152/118/82 107/114/82 104/112/82
f 156/122/83 155/123/83 109/110/83 108/111/83
f 158/124/84 157/125/84 111/113/84 112/115/84
f 160/126/85 159/118/85 113/114/85 110/112/85
f 155/123/86 160/126/86 110/112/86 109/110/86
f 159/118/87 158/124/87 112/115/87 113/114/87
f 157/125/88 156/122/88 108/111/88 111/113/88
f 109/110/89 110/112/89 116/112/89 115/110/89
f 113/114/90 112/115/90 132/115/90 133/114/90
f 111/113/91 108/111/91 114/111/91 117/113/91
f 108/111/92 109/110/92 115/110/92 114/111/92
f 112/115/93 111/113/93 117/113/93 118/115/93
f 110/112/94 113/114/94 119/114/94 116/112/94
f 114/111/95 115/110/95 121/110/95 120/111/95
f 118/115/96 117/113/96 123/113/96 124/115/96
f 116/112/97 119/114/97 125/114/97 122/112/97
f 115/110/98 116/112/98 122/112/98 121/110/98
f 119/114/99 118/115/99 124/115/99 125/114/99
f 117/113/100 114/111/100 120/111/100 123/113/100
f 125/114/101 124/115/101 130/115/101 131/114/101
f 123/113/102 120/111/102 126/111/102 129/113/102
f 120/111/103 121/110/103 127/110/103 126/111/103
f 124/115/104 123/113/104 129/113/104 130/115/104
f 122/112/105 125/114/105 131/114/105 128/112/105
f 121/110/106 122/112/106 128/112/106 127/110/106
f 133/114/107 132/115/107 136/115/107 137/114/107
f 112/115/108 118/115/108 134/115/108 132/115/108
f 118/115/109 119/114/109 135/114/109 134/115/109
f 119/114/110 113/114/110 133/114/110 135/114/110
f 139/114/111 137/114/111 141/114/111 143/114/111
f 135/114/112 133/114/112 137/114/112 139/114/112
f 134/115/113 135/114/113 139/114/113 138/115/113
f 132/115/114 134/115/114 138/115/114 136/115/114
f 141/114/115 140/115/115 142/115/115 143/114/115
f 138/115/116 139/114/116 143/114/116 142/115/116
f 136/115/117 138/115/117 142/115/117 140/115/117
f 137/114/118 136/115/118 140/115/118 141/114/118
f 94/97/119 93/109/119 146/109/119 147/97/119
f 92/94/120 91/68/120 144/68/120 145/94/120
f 95/98/121 94/97/121 147/97/121 148/98/121
f 93/109/122 92/94/122 145/94/122 146/109/122
f 128/112/123 131/114/123 130/115/123 127/110/123
f 127/110/124 130/115/124 129/113/124 126/111/124
f 78/112/125 89/114/125 152/118/125 149/117/125
f 88/115/126 87/113/126 154/120/126 151/119/126
f 74/111/127 76/110/127 150/116/127 153/121/127
f 87/113/128 74/111/128 153/121/128 154/120/128
f 89/114/129 88/115/129 151/119/129 152/118/129
f 76/110/130 78/112/130 149/117/130 150/116/130
f 105/113/88 102/111/88 156/122/88 157/125/88
f 107/114/87 106/115/87 158/124/87 159/118/87
f 103/110/86 104/112/86 160/126/86 155/123/86
f 104/112/85 107/114/85 159/118/85 160/126/85
f 106/115/84 105/113/84 157/125/84 158/124/84
f 102/111/83 103/110/83 155/123/83 156/122/83
f 146/109/192 145/94/192 225/94/192 226/109/192
f 147/97/193 146/109/193 226/109/193 227/97/193
f 145/94/194 144/68/194 224/68/194 225/94/194
f 148/98/195 147/97/195 227/97/195 228/98/195
f 25/1/196 249/4/196 250/3/196 26/2/196
f 26/2/197 250/3/197 251/6/197 27/5/197
f 27/5/198 251/6/198 234/8/198 7/7/198
f 251/6/199 235/10/199 232/9/199 234/8/199
f 250/3/200 236/11/200 235/10/200 251/6/200
f 249/4/201 237/12/201 236/11/201 250/3/201
f 233/13/202 231/14/202 237/12/202 249/4/202
f 6/15/203 233/13/203 249/4/203 25/1/203
f 252/16/204 255/19/204 256/18/204 253/17/204
f 253/17/205 256/18/205 257/21/205 254/20/205
f 255/19/206 258/23/206 259/22/206 256/18/206
f 256/18/207 259/22/207 260/24/207 257/21/207
f 231/14/208 240/25/208 252/16/208 237/12/208
f 237/12/209 252/16/209 253/17/209 236/11/209
f 236/11/210 253/17/210 254/20/210 235/10/210
f 235/10/211 254/20/211 241/26/211 232/9/211
f 254/20/212 257/21/212 242/27/212 241/26/212
f 257/21/213 260/24/213 243/28/213 242/27/213
f 260/24/214 244/30/214 230/29/214 243/28/214
f 259/22/215 245/31/215 244/30/215 260/24/215
f 258/23/216 246/32/216 245/31/216 259/22/216
f 238/33/217 229/34/217 246/32/217 258/23/217
f 239/35/218 238/33/218 258/23/218 255/19/218
f 240/25/219 239/35/219 255/19/219 252/16/219
f 261/36/220 43/40/220 58/39/220 44/38/220 262/37/220
f 262/37/221 44/38/221 45/42/221 263/41/221
f 229/34/222 247/43/222 261/36/222 246/32/222
f 246/32/223 261/36/223 262/37/223 245/31/223
f 245/31/224 262/37/224 263/41/224 244/30/224
f 244/30/225 263/41/225 248/44/225 230/29/225
f 263/41/226 45/42/226 24/45/226 248/44/226
f 247/43/227 21/46/227 43/40/227 261/36/227
f 46/47/228 48/50/228 265/49/228 264/48/228
f 48/50/229 50/52/229 266/51/229 265/49/229
f 6/53/230 46/47/230 264/48/230 233/54/230
f 233/54/231 264/48/231 240/25/231 231/14/231
f 264/48/232 265/49/232 239/35/232 240/25/232
f 265/49/233 266/51/233 238/33/233 239/35/233
f 266/51/234 247/55/234 229/34/234 238/33/234
f 50/52/235 21/56/235 247/55/235 266/51/235
f 267/57/236 268/60/236 55/59/236 53/58/236
f 268/60/237 269/62/237 57/61/237 55/59/237
f 232/9/238 241/26/238 267/57/238 234/63/238
f 234/63/239 267/57/239 53/58/239 7/64/239
f 269/62/240 248/66/240 24/65/240 57/61/240
f 243/28/241 230/29/241 248/66/241 269/62/241
f 242/27/242 243/28/242 269/62/242 268/60/242
f 241/26/243 242/27/243 268/60/243 267/57/243
f 270/67/244 272/70/244 273/69/244 271/68/244
f 272/70/245 274/72/245 275/71/245 273/69/245
f 274/72/246 276/74/246 277/73/246 275/71/246
f 276/74/247 278/76/247 279/75/247 277/73/247
f 273/77/248 275/82/248 277/81/248 279/80/248 281/79/248 271/78/248
f 278/76/249 280/84/249 281/83/249 279/75/249
f 280/84/250 270/86/250 271/85/250 281/83/250
f 270/87/251 280/92/251 278/91/251 276/90/251 274/89/251 272/88/251
f 86/93/252 300/95/252 298/94/252 72/68/252
f 301/96/253 90/99/253 80/98/253 299/97/253
f 286/9/254 79/102/254 85/101/254 290/100/254
f 284/103/255 286/9/255 290/100/255 289/104/255
f 282/105/256 284/103/256 289/104/256 288/106/256
f 71/67/257 282/105/257 288/106/257 81/107/257
f 290/100/258 85/101/258 90/99/258 301/96/258
f 289/104/259 290/100/259 301/96/259 302/108/259
f 288/106/260 289/104/260 302/108/260 300/95/260
f 81/107/261 288/106/261 300/95/261 86/93/261
f 297/109/262 295/109/262 294/94/262 298/94/262
f 298/94/263 294/94/263 91/68/263 72/68/263
f 299/97/264 296/97/264 295/109/264 297/109/264
f 80/98/265 95/98/265 296/97/265 299/97/265
f 285/110/266 297/109/266 298/94/266 283/111/266
f 287/112/267 299/97/267 297/109/267 285/110/267
f 283/111/268 298/94/268 300/95/268 291/113/268
f 293/114/269 301/96/269 299/97/269 287/112/269
f 292/115/270 302/108/270 301/96/270 293/114/270
f 291/113/271 300/95/271 302/108/271 292/115/271
f 349/116/272 304/110/272 305/112/272 348/117/272
f 351/118/273 308/114/273 307/115/273 350/119/273
f 353/120/274 306/113/274 303/111/274 352/121/274
f 352/121/275 303/111/275 304/110/275 349/116/275
f 350/119/276 307/115/276 306/113/276 353/120/276
f 348/117/277 305/112/277 308/114/277 351/118/277
f 355/122/278 309/111/278 310/110/278 354/123/278
f 357/124/279 313/115/279 312/113/279 356/125/279
f 359/126/280 311/112/280 314/114/280 358/118/280
f 354/123/281 310/110/281 311/112/281 359/126/281
f 358/118/282 314/114/282 313/115/282 357/124/282
f 356/125/283 312/113/283 309/111/283 355/122/283
f 310/110/284 316/110/284 317/112/284 311/112/284
f 314/114/285 334/114/285 333/115/285 313/115/285
f 312/113/286 318/113/286 315/111/286 309/111/286
f 309/111/287 315/111/287 316/110/287 310/110/287
f 313/115/288 319/115/288 318/113/288 312/113/288
f 311/112/289 317/112/289 320/114/289 314/114/289
f 315/111/290 321/111/290 322/110/290 316/110/290
f 319/115/291 325/115/291 324/113/291 318/113/291
f 317/112/292 323/112/292 326/114/292 320/114/292
f 316/110/293 322/110/293 323/112/293 317/112/293
f 320/114/294 326/114/294 325/115/294 319/115/294
f 318/113/295 324/113/295 321/111/295 315/111/295
f 326/114/296 332/114/296 331/115/296 325/115/296
f 324/113/297 330/113/297 327/111/297 321/111/297
f 321/111/298 327/111/298 328/110/298 322/110/298
f 325/115/299 331/115/299 330/113/299 324/113/299
f 323/112/300 329/112/300 332/114/300 326/114/300
f 322/110/301 328/110/301 329/112/301 323/112/301
f 334/114/302 338/114/302 337/115/302 333/115/302
f 313/115/303 333/115/303 335/115/303 319/115/303
f 319/115/304 335/115/304 336/114/304 320/114/304
f 320/114/305 336/114/305 334/114/305 314/114/305
f 340/114/306 344/114/306 342/114/306 338/114/306
f 336/114/307 340/114/307 338/114/307 334/114/307
f 335/115/308 339/115/308 340/114/308 336/114/308
f 333/115/309 337/115/309 339/115/309 335/115/309
f 342/114/310 344/114/310 343/115/310 341/115/310
f 339/115/311 343/115/311 344/114/311 340/114/311
f 337/115/312 341/115/312 343/115/312 339/115/312
f 338/114/313 342/114/313 341/115/313 337/115/313
f 296/97/314 347/97/314 346/109/314 295/109/314
f 294/94/315 345/94/315 144/68/315 91/68/315
f 95/98/316 148/98/316 347/97/316 296/97/316
f 295/109/317 346/109/317 345/94/317 294/94/317
f 329/112/318 328/110/318 331/115/318 332/114/318
f 328/110/319 327/111/319 330/113/319 331/115/319
f 287/112/320 348/117/320 351/118/320 293/114/320
f 292/115/321 350/119/321 353/120/321 291/113/321
f 283/111/322 352/121/322 349/116/322 285/110/322
f 291/113/323 353/120/323 352/121/323 283/111/323
f 293/114/324 351/118/324 350/119/324 292/115/324
f 285/110/325 349/116/325 348/117/325 287/112/325
f 306/113/283 356/125/283 355/122/283 303/111/283
f 308/114/282 358/118/282 357/124/282 307/115/282
f 304/110/281 354/123/281 359/126/281 305/112/281
f 305/112/280 359/126/280 358/118/280 308/114/280
f 307/115/279 357/124/279 356/125/279 306/113/279
f 303/111/278 355/122/278 354/123/278 304/110/278
f 346/109/386 414/109/386 413/94/386 345/94/386
f 347/97/387 415/97/387 414/109/387 346/109/387
f 345/94/388 413/94/388 224/68/388 144/68/388
f 148/98/389 228/98/389 415/97/389 347/97/389
usemtl pants
f 161/67/131 162/68/131 164/69/131 163/70/131
f 163/70/132 164/69/132 166/71/132 165/72/132
f 165/72/133 166/71/133 168/73/133 167/74/133
f 167/74/134 168/73/134 170/75/134 169/76/134
f 170/75/135 168/73/135 176/73/135 177/75/135
f 169/76/136 170/75/136 172/83/136 171/84/136
f 171/84/137 172/83/137 162/85/137 161/86/137
f 192/127/138 191/72/138 187/72/138 186/70/138
f 178/83/139 177/75/139 183/75/139 184/83/139
f 166/71/140 164/69/140 174/69/140 175/71/140
f 172/83/141 170/75/141 177/75/141 178/83/141
f 164/69/142 162/68/142 173/68/142 174/69/142
f 168/73/143 166/71/143 175/71/143 176/73/143
f 162/85/144 172/83/144 178/83/144 173/85/144
f 180/77/145 179/128/145 184/79/145 183/80/145 182/81/145 181/82/145
f 176/73/146 175/71/146 181/71/146 182/73/146
f 174/69/147 173/68/147 179/68/147 180/69/147
f 173/85/148 178/83/148 184/83/148 179/85/148
f 177/75/149 176/73/149 182/73/149 183/75/149
f 175/71/150 174/69/150 180/69/150 181/71/150
f 189/76/151 190/84/151 211/84/151 210/76/151
f 194/76/152 193/84/152 190/84/152 189/76/152
f 195/67/153 192/127/153 186/70/153 185/67/153
f 191/72/154 196/129/154 188/74/154 187/72/154
f 193/84/155 195/130/155 185/86/155 190/84/155
f 196/129/156 194/76/156 189/76/156 188/74/156
f 220/131/157 222/76/157 194/76/157 196/129/157
f 219/132/158 223/86/158 195/130/158 193/84/158
f 218/72/159 220/131/159 196/129/159 191/72/159
f 223/67/160 221/133/160 192/127/160 195/67/160
f 222/76/161 219/132/161 193/84/161 194/76/161
f 221/133/162 218/72/162 191/72/162 192/127/162
f 184/83/163 179/85/163 201/134/163
f 197/134/164 183/134/164 182/134/164 198/134/164
f 198/134/165 182/134/165 181/134/165 199/134/165
f 197/134/166 184/79/166 183/80/166
f 200/134/167 180/134/167 179/134/167 201/134/167
f 180/134/168 200/134/168 205/134/168 202/134/168
f 199/134/169 181/134/169 203/134/169 204/134/169
f 181/82/170 180/77/170 202/77/170 203/82/170
f 206/135/171 207/88/171 208/89/171 209/90/171 210/91/171 211/92/171
f 187/72/172 188/74/172 209/74/172 208/72/172
f 185/67/173 186/70/173 207/70/173 206/67/173
f 190/84/174 185/86/174 206/86/174 211/84/174
f 188/74/175 189/76/175 210/76/175 209/74/175
f 186/70/176 187/72/176 208/72/176 207/70/176
f 163/70/177 165/72/177 215/72/177 212/133/177
f 169/76/178 171/84/178 216/132/178 213/136/178
f 161/67/179 163/70/179 212/133/179 214/67/179
f 165/72/180 167/74/180 217/74/180 215/72/180
f 171/84/181 161/86/181 214/86/181 216/132/181
f 167/74/182 169/76/182 213/136/182 217/74/182
f 212/133/183 215/72/183 218/72/183 221/133/183
f 213/136/184 216/132/184 219/132/184 222/76/184
f 214/67/185 212/133/185 221/133/185 223/67/185
f 215/72/186 217/74/186 220/131/186 218/72/186
f 216/132/187 214/86/187 223/86/187 219/132/187
f 217/74/188 213/136/188 222/76/188 220/131/188
f 202/134/189 205/134/189 71/134/189 73/134/189
f 204/134/190 203/134/190 77/134/190 79/134/190
f 203/82/191 202/77/191 73/77/191 75/137/191 77/82/191
f 360/67/326 362/70/326 363/69/326 361/68/326
f 362/70/327 364/72/327 365/71/327 363/69/327
f 364/72/328 366/74/328 367/73/328 365/71/328
f 366/74/329 368/76/329 369/75/329 367/73/329
f 369/75/330 375/75/330 374/73/330 367/73/330
f 368/76/331 370/84/331 172/83/331 369/75/331
f 370/84/332 360/86/332 361/85/332 172/83/332
f 388/127/333 382/70/333 383/72/333 387/72/333
f 178/83/334 184/83/334 380/75/334 375/75/334
f 365/71/335 373/71/335 372/69/335 363/69/335
f 172/83/336 178/83/336 375/75/336 369/75/336
f 363/69/337 372/69/337 371/68/337 361/68/337
f 367/73/338 374/73/338 373/71/338 365/71/338
f 361/85/339 371/85/339 178/83/339 172/83/339
f 377/77/340 378/82/340 379/81/340 380/80/340 184/79/340 376/128/340
f 374/73/341 379/73/341 378/71/341 373/71/341
f 372/69/342 377/69/342 376/68/342 371/68/342
f 371/85/343 376/85/343 184/83/343 178/83/343
f 375/75/344 380/75/344 379/73/344 374/73/344
f 373/71/345 378/71/345 377/69/345 372/69/345
f 385/76/346 399/76/346 400/84/346 386/84/346
f 390/76/347 385/76/347 386/84/347 389/84/347
f 391/67/348 381/67/348 382/70/348 388/127/348
f 387/72/349 383/72/349 384/74/349 392/129/349
f 389/84/350 386/84/350 381/86/350 391/130/350
f 392/129/351 384/74/351 385/76/351 390/76/351
f 409/131/352 392/129/352 390/76/352 411/76/352
f 408/132/353 389/84/353 391/130/353 412/86/353
f 407/72/354 387/72/354 392/129/354 409/131/354
f 412/67/355 391/67/355 388/127/355 410/133/355
f 411/76/356 390/76/356 389/84/356 408/132/356
f 410/133/357 388/127/357 387/72/357 407/72/357
f 184/83/358 201/134/358 376/85/358
f 197/134/359 198/134/359 379/134/359 380/134/359
f 198/134/360 199/134/360 378/134/360 379/134/360
f 197/134/361 380/80/361 184/79/361
f 200/134/362 201/134/362 376/134/362 377/134/362
f 377/134/363 393/134/363 205/134/363 200/134/363
f 199/134/364 204/134/364 394/134/364 378/134/364
f 378/82/365 394/82/365 393/77/365 377/77/365
f 395/135/171 400/92/171 399/91/171 398/90/171 397/89/171 396/88/171
f 383/72/366 397/72/366 398/74/366 384/74/366
f 381/67/367 395/67/367 396/70/367 382/70/367
f 386/84/368 400/84/368 395/86/368 381/86/368
f 384/74/369 398/74/369 399/76/369 385/76/369
f 382/70/370 396/70/370 397/72/370 383/72/370
f 362/70/371 401/133/371 404/72/371 364/72/371
f 368/76/372 402/136/372 405/132/372 370/84/372
f 360/67/373 403/67/373 401/133/373 362/70/373
f 364/72/374 404/72/374 406/74/374 366/74/374
f 370/84/375 405/132/375 403/86/375 360/86/375
f 366/74/376 406/74/376 402/136/376 368/76/376
f 401/133/377 410/133/377 407/72/377 404/72/377
f 402/136/378 411/76/378 408/132/378 405/132/378
f 403/67/379 412/67/379 410/133/379 401/133/379
f 404/72/380 407/72/380 409/131/380 406/74/380
f 405/132/381 408/132/381 412/86/381 403/86/381
f 406/74/382 409/131/382 411/76/382 402/136/382
f 393/134/383 282/134/383 71/134/383 205/134/383
f 204/134/384 79/134/384 286/134/384 394/134/384
f 394/82/385 286/82/385 284/137/385 282/77/385 393/77/385
