# Blender 5.0.0
# www.blender.org
mtllib hair1.mtl
o hair1
v 0.791161 -1.092618 15.090270
v 0.633534 0.409690 13.394044
v 0.764415 0.717164 15.223965
v 0.294021 0.502607 13.283628
v -0.000000 0.544821 13.265717
v -0.000000 0.971506 15.421288
v 0.432453 0.884137 15.355564
v 0.862449 0.817760 14.867644
v 0.884437 0.803728 14.337754
v 0.781607 0.625590 13.788834
v 0.896418 0.332200 15.341100
v 0.968298 -0.215947 15.389668
v 0.912829 -0.743003 15.310167
v 0.895548 -1.068281 14.797834
v 0.459570 -1.207941 15.219910
v -0.000000 -1.265391 15.286628
v -0.000000 0.994336 13.719852
v -0.000000 1.267280 14.338043
v -0.000000 1.270193 14.937037
v 0.359393 0.906842 13.758170
v 0.428708 1.148889 14.342881
v 0.438417 1.148085 14.907986
v 1.036707 0.159166 13.729310
v 1.172544 0.285906 14.316091
v 1.128212 0.326011 14.885554
v 1.217421 -0.086800 14.286878
v 1.227205 -0.247673 14.894028
v 1.152966 -0.868085 14.262831
v 1.148539 -0.798072 14.844758
v 0.480966 0.399288 15.616621
v -0.000000 0.446315 15.710903
v 0.519603 -0.191668 15.694319
v -0.000000 -0.178626 15.797273
v 0.495832 -0.762420 15.588516
v -0.000000 -0.784723 15.683848
v 1.225113 0.074856 14.402684
v 0.778246 -0.910287 14.894527
v 0.658772 0.228398 13.608860
v 0.401435 0.298826 13.525168
v -0.000000 0.330822 13.511594
v 0.857367 -0.853499 14.672874
v 0.526914 -0.997697 14.992788
v -0.000000 -1.041242 15.043358
v 0.964360 0.038512 13.862977
v 1.067318 0.134576 14.307732
v 1.105402 -0.095312 14.285589
v 1.046312 -0.740101 14.267365
v 1.107163 -0.005065 14.362993
v 1.137983 -0.234751 13.940301
v 1.177019 -0.258351 14.237819
v 1.025964 -0.243263 13.939013
v 1.078501 -0.227901 14.242352
v -0.791161 -1.092618 15.090270
v -0.633534 0.409690 13.394044
v -0.764415 0.717164 15.223965
v -0.294021 0.502607 13.283628
v -0.432453 0.884137 15.355564
v -0.862449 0.817760 14.867644
v -0.884437 0.803728 14.337754
v -0.781607 0.625590 13.788834
v -0.896418 0.332200 15.341100
v -0.968298 -0.215947 15.389668
v -0.912829 -0.743003 15.310167
v -0.895548 -1.068281 14.797834
v -0.459570 -1.207941 15.219910
v -0.359393 0.906842 13.758170
v -0.428708 1.148889 14.342881
v -0.438417 1.148085 14.907986
v -1.036707 0.159166 13.729310
v -1.172544 0.285906 14.316091
v -1.128212 0.326011 14.885554
v -1.217421 -0.086800 14.286878
v -1.227205 -0.247673 14.894028
v -1.152966 -0.868085 14.262831
v -1.148539 -0.798072 14.844758
v -0.480966 0.399288 15.616621
v -0.519603 -0.191668 15.694319
v -0.495832 -0.762420 15.588516
v -1.225113 0.074856 14.402684
v -0.778247 -0.910287 14.894527
v -0.658772 0.228398 13.608860
v -0.401435 0.298826 13.525168
v -0.857367 -0.853499 14.672874
v -0.526914 -0.997697 14.992788
v -0.964360 0.038512 13.862977
v -1.067318 0.134576 14.307732
v -1.105402 -0.095312 14.285589
v -1.046312 -0.740101 14.267365
v -1.107163 -0.005065 14.362993
v -1.137983 -0.234751 13.940301
v -1.177019 -0.258351 14.237819
v -1.025964 -0.243263 13.939013
v -1.078501 -0.227901 14.242352
vn 0.2525 0.8842 -0.3931
vn 0.2672 0.9636 -0.0040
vn 0.2536 0.8274 0.5012
vn 0.5654 0.7212 0.4002
vn 0.6089 0.7932 -0.0028
vn 0.5483 0.7536 -0.3626
vn 0.4413 0.6758 -0.5904
vn 0.1995 0.7143 -0.6708
vn 0.9865 0.1497 0.0667
vn 0.9943 -0.1062 -0.0126
vn 0.8239 0.4796 -0.3019
vn 0.8764 0.4807 0.0292
vn 0.8179 0.4300 0.3823
vn 0.8802 0.1568 0.4479
vn 0.8710 -0.1638 0.4631
vn 0.7272 -0.5903 0.3503
vn 0.1995 0.1373 0.9702
vn 0.1900 -0.1835 0.9645
vn 0.5320 0.4281 0.7306
vn 0.2192 0.4751 0.8522
vn 0.1806 -0.6309 0.7545
vn 0.4670 -0.5841 0.6639
vn 0.5490 -0.1775 0.8167
vn 0.5620 0.1448 0.8143
vn 0.7194 -0.6889 0.0884
vn 0.7190 0.4598 -0.5211
vn -0.0117 -0.7321 -0.6811
vn 0.0006 -0.7642 -0.6450
vn 0.9422 -0.1341 -0.3071
vn -0.7195 -0.4803 -0.5016
vn -0.0934 0.6081 -0.7883
vn -0.0055 -0.7343 -0.6789
vn -0.0524 -0.7639 -0.6432
vn 0.0676 -0.7585 -0.6481
vn 0.8209 -0.5671 -0.0676
vn -0.8406 -0.4017 -0.3634
vn 0.4333 -0.2375 -0.8694
vn -0.1036 -0.9946 0.0022
vn -0.0754 -0.0406 -0.9963
vn -0.9640 0.1179 0.2382
vn -0.0658 0.9231 -0.3790
vn -0.2525 0.8842 -0.3931
vn -0.2672 0.9636 -0.0040
vn -0.2536 0.8274 0.5012
vn -0.5654 0.7212 0.4002
vn -0.6089 0.7932 -0.0028
vn -0.5483 0.7536 -0.3626
vn -0.4413 0.6758 -0.5904
vn -0.1995 0.7143 -0.6708
vn -0.9865 0.1497 0.0667
vn -0.9943 -0.1062 -0.0126
vn -0.8239 0.4796 -0.3019
vn -0.8764 0.4807 0.0292
vn -0.8179 0.4300 0.3823
vn -0.8802 0.1568 0.4479
vn -0.8710 -0.1638 0.4631
vn -0.7272 -0.5903 0.3503
vn -0.1995 0.1373 0.9702
vn -0.1900 -0.1835 0.9645
vn -0.5320 0.4281 0.7306
vn -0.2192 0.4751 0.8522
vn -0.1806 -0.6309 0.7545
vn -0.4670 -0.5841 0.6639
vn -0.5490 -0.1775 0.8167
vn -0.5620 0.1448 0.8143
vn -0.7194 -0.6889 0.0884
vn -0.7190 0.4598 -0.5211
vn 0.0117 -0.7321 -0.6811
vn -0.0006 -0.7642 -0.6450
vn -0.9422 -0.1341 -0.3071
vn 0.7195 -0.4803 -0.5016
vn 0.0934 0.6081 -0.7883
vn 0.0055 -0.7343 -0.6789
vn 0.0524 -0.7639 -0.6432
vn -0.0676 -0.7585 -0.6481
vn -0.8209 -0.5671 -0.0676
vn 0.8406 -0.4017 -0.3634
vn -0.4333 -0.2375 -0.8694
vn 0.1036 -0.9946 0.0022
vn 0.0754 -0.0406 -0.9963
vn 0.9640 0.1179 0.2382
vn 0.0658 0.9231 -0.3790
vt 0.437500 0.375000
vt 0.500000 0.375000
vt 0.500000 0.437500
vt 0.437500 0.437500
vt 0.562500 0.375000
vt 0.562500 0.437500
vt 0.625000 0.375000
vt 0.625000 0.437500
vt 0.625000 0.500000
vt 0.562500 0.500000
vt 0.500000 0.500000
vt 0.437500 0.500000
vt 0.375000 0.437500
vt 0.375000 0.500000
vt 0.375000 0.375000
vt 0.500000 0.562500
vt 0.562500 0.562500
vt 0.562500 0.625000
vt 0.500000 0.625000
vt 0.500000 0.593750
vt 0.562500 0.687500
vt 0.500000 0.687500
vt 0.437500 0.562500
vt 0.625000 0.562500
vt 0.625000 0.625000
vt 0.625000 0.687500
vt 0.625000 0.750000
vt 0.562500 0.750000
vt 0.687500 0.562500
vt 0.750000 0.562500
vt 0.750000 0.625000
vt 0.687500 0.625000
vt 0.750000 0.687500
vt 0.687500 0.687500
vt 0.687500 0.500000
vt 0.750000 0.500000
vt 0.750000 0.750000
vt 0.687500 0.750000
vt 0.000000 0.000000
s 0
f 17/1/1 18/2/1 21/3/1 20/4/1
f 18/2/2 19/5/2 22/6/2 21/3/2
f 19/5/3 6/7/3 7/8/3 22/6/3
f 22/6/4 7/8/4 3/9/4 8/10/4
f 21/3/5 22/6/5 8/10/5 9/11/5
f 20/4/6 21/3/6 9/11/6 10/12/6
f 4/13/7 20/4/7 10/12/7 2/14/7
f 5/15/8 17/1/8 20/4/8 4/13/8
f 24/16/9 25/17/9 27/18/9 26/19/9 36/20/9
f 26/19/10 27/18/10 29/21/10 28/22/10
f 10/12/11 9/11/11 24/16/11 23/23/11
f 9/11/12 8/10/12 25/17/12 24/16/12
f 8/10/13 3/9/13 11/24/13 25/17/13
f 25/17/14 11/24/14 12/25/14 27/18/14
f 27/18/15 12/25/15 13/26/15 29/21/15
f 29/21/16 13/26/16 1/27/16 14/28/16
f 30/29/17 31/30/17 33/31/17 32/32/17
f 32/32/18 33/31/18 35/33/18 34/34/18
f 3/9/19 7/35/19 30/29/19 11/24/19
f 7/35/20 6/36/20 31/30/20 30/29/20
f 34/34/21 35/33/21 16/37/21 15/38/21
f 13/26/22 34/34/22 15/38/22 1/27/22
f 12/25/23 32/32/23 34/34/23 13/26/23
f 11/24/24 30/29/24 32/32/24 12/25/24
f 29/21/25 14/28/25 28/22/25
f 2/14/26 10/12/26 23/23/26
f 1/27/27 15/38/27 42/38/27 37/27/27
f 4/13/28 2/14/28 38/14/28 39/13/28
f 26/19/29 28/22/29 50/22/29 49/19/29
f 28/22/30 14/28/30 41/28/30 47/22/30
f 36/20/31 26/19/31 46/19/31 48/20/31
f 15/38/32 16/37/32 43/37/32 42/38/32
f 5/15/33 4/13/33 39/13/33 40/15/33
f 2/14/34 23/23/34 44/23/34 38/14/34
f 23/23/35 24/16/35 45/16/35 44/23/35
f 14/28/36 1/27/36 37/27/36 41/28/36
f 24/16/37 36/20/37 48/20/37 45/16/37
f 49/19/38 50/22/38 52/22/38 51/19/38
f 28/22/39 47/22/39 52/22/39 50/22/39
f 47/39/40 46/39/40 51/39/40 52/39/40
f 46/19/41 26/19/41 49/19/41 51/19/41
f 17/1/42 66/4/42 67/3/42 18/2/42
f 18/2/43 67/3/43 68/6/43 19/5/43
f 19/5/44 68/6/44 57/8/44 6/7/44
f 68/6/45 58/10/45 55/9/45 57/8/45
f 67/3/46 59/11/46 58/10/46 68/6/46
f 66/4/47 60/12/47 59/11/47 67/3/47
f 56/13/48 54/14/48 60/12/48 66/4/48
f 5/15/49 56/13/49 66/4/49 17/1/49
f 70/16/50 79/20/50 72/19/50 73/18/50 71/17/50
f 72/19/51 74/22/51 75/21/51 73/18/51
f 60/12/52 69/23/52 70/16/52 59/11/52
f 59/11/53 70/16/53 71/17/53 58/10/53
f 58/10/54 71/17/54 61/24/54 55/9/54
f 71/17/55 73/18/55 62/25/55 61/24/55
f 73/18/56 75/21/56 63/26/56 62/25/56
f 75/21/57 64/28/57 53/27/57 63/26/57
f 76/29/58 77/32/58 33/31/58 31/30/58
f 77/32/59 78/34/59 35/33/59 33/31/59
f 55/9/60 61/24/60 76/29/60 57/35/60
f 57/35/61 76/29/61 31/30/61 6/36/61
f 78/34/62 65/38/62 16/37/62 35/33/62
f 63/26/63 53/27/63 65/38/63 78/34/63
f 62/25/64 63/26/64 78/34/64 77/32/64
f 61/24/65 62/25/65 77/32/65 76/29/65
f 75/21/66 74/22/66 64/28/66
f 54/14/67 69/23/67 60/12/67
f 53/27/68 80/27/68 84/38/68 65/38/68
f 56/13/69 82/13/69 81/14/69 54/14/69
f 72/19/70 90/19/70 91/22/70 74/22/70
f 74/22/71 88/22/71 83/28/71 64/28/71
f 79/20/72 89/20/72 87/19/72 72/19/72
f 65/38/73 84/38/73 43/37/73 16/37/73
f 5/15/74 40/15/74 82/13/74 56/13/74
f 54/14/75 81/14/75 85/23/75 69/23/75
f 69/23/76 85/23/76 86/16/76 70/16/76
f 64/28/77 83/28/77 80/27/77 53/27/77
f 70/16/78 86/16/78 89/20/78 79/20/78
f 90/19/79 92/19/79 93/22/79 91/22/79
f 74/22/80 91/22/80 93/22/80 88/22/80
f 88/39/81 93/39/81 92/39/81 87/39/81
f 87/19/82 92/19/82 90/19/82 72/19/82
