# Blender 5.0.0
# www.blender.org
mtllib hair2.mtl
o hair4
v -0.461761 1.521154 12.738066
v -0.482140 0.915813 15.268202
v -0.429629 1.926136 12.900906
v -0.444235 2.247420 15.137268
v 0.524499 1.521475 12.727024
v 0.505339 0.915797 15.265623
v 0.557847 1.926746 12.900513
v 0.543160 2.247440 15.136482
v -0.549264 1.607355 12.418911
v -0.587395 1.617723 14.104448
v -0.572905 1.632248 15.413857
v -0.543510 2.529852 13.999846
v 0.069587 2.260606 12.591185
v 0.052269 2.353169 15.336390
v 0.659359 2.530285 13.998756
v 0.654524 1.608012 12.413256
v 0.631301 1.632156 15.412228
v 0.614068 1.617892 14.093115
v 0.030925 1.466085 12.412041
v 0.002853 0.750825 15.493324
v -0.791753 1.828346 14.031521
v 0.064798 2.790874 13.964291
v 0.863910 1.828789 14.023096
v 0.001720 1.353328 14.091480
v 0.066085 2.211865 11.766258
v 0.023260 1.589812 15.806002
v 0.791161 -1.214311 14.684599
v 0.633534 0.409690 13.394045
v 0.764415 0.717165 15.223965
v 0.294021 0.502607 13.283627
v -0.000000 0.544821 13.265718
v -0.000000 0.971505 15.421288
v 0.432453 0.884136 15.355564
v 0.862449 0.817760 14.867643
v 0.884437 0.803728 14.337753
v 0.781607 0.625590 13.788834
v 0.896418 0.332201 15.341099
v 0.968298 -0.215947 15.389669
v 0.912829 -0.743003 15.310167
v 0.948209 -1.150926 14.516768
v 0.459570 -1.332015 14.885836
v -0.000000 -1.369123 15.036976
v -0.000000 0.994336 13.719854
v -0.000000 1.267281 14.338043
v -0.000000 1.270193 14.937038
v 0.359393 0.906842 13.758169
v 0.428708 1.148890 14.342880
v 0.438417 1.148085 14.907986
v 1.036707 0.159167 13.729311
v 1.172544 0.285907 14.316090
v 1.128212 0.326011 14.885553
v 1.217421 -0.086799 14.286879
v 1.227205 -0.247672 14.894028
v 1.152966 -0.868085 14.262831
v 1.148539 -0.798072 14.844757
v 0.480966 0.399288 15.616621
v -0.000000 0.446315 15.710903
v 0.519603 -0.191668 15.694321
v -0.000000 -0.178626 15.797272
v 0.495832 -0.901254 15.479746
v -0.000000 -0.784723 15.683847
v 1.225113 0.074856 14.402683
v 0.778247 -0.910287 14.488853
v 0.658772 0.228399 13.608860
v 0.401435 0.298826 13.525167
v -0.000000 0.330822 13.511593
v 0.857367 -0.853498 14.391806
v 0.515484 -0.997431 14.698658
v -0.000000 -1.041490 14.882191
v 0.964360 0.038513 13.862978
v 1.067318 0.134576 14.307732
v 1.105402 -0.095311 14.285587
v 1.046313 -0.740101 14.267365
v 1.107163 -0.005066 14.362993
v 1.137983 -0.234751 13.940300
v 1.177019 -0.258351 14.237820
v 1.025964 -0.243263 13.939014
v 1.078501 -0.227900 14.242352
v -0.684385 -1.264051 14.839531
v -0.633534 0.409690 13.394045
v -0.764415 0.717165 15.223965
v -0.294021 0.502607 13.283627
v -0.432453 0.884136 15.355564
v -0.862449 0.817760 14.867643
v -0.884437 0.803728 14.337753
v -0.781607 0.625590 13.788834
v -0.896418 0.332201 15.341099
v -0.968298 -0.215947 15.389669
v -0.912829 -0.743003 15.310167
v -0.965947 -1.068281 14.540068
v -0.459570 -1.149459 15.219908
v -0.359393 0.906842 13.758169
v -0.428708 1.148890 14.342880
v -0.438417 1.148085 14.907986
v -1.036707 0.159167 13.729311
v -1.172544 0.285907 14.316090
v -1.128212 0.326011 14.885553
v -1.217421 -0.086799 14.286879
v -1.227205 -0.247672 14.894028
v -1.152966 -0.868085 14.262831
v -1.148539 -0.798072 14.844755
v -0.480966 0.399288 15.616621
v -0.519603 -0.191668 15.694321
v -0.495832 -0.762420 15.588518
v -1.225113 0.074856 14.402683
v -0.649597 -0.910287 14.714682
v -0.658772 0.228399 13.608860
v -0.401435 0.298826 13.525167
v -0.857367 -0.853498 14.415108
v -0.526914 -0.997697 14.992786
v -0.964360 0.038513 13.862978
v -1.067318 0.134576 14.307732
v -1.105402 -0.095311 14.285587
v -1.046313 -0.740101 14.267365
v -1.107163 -0.005066 14.362993
v -1.137983 -0.234751 13.940300
v -1.177019 -0.258351 14.237820
v -1.025964 -0.243263 13.939014
v -1.078501 -0.227900 14.242352
vn -0.7053 -0.7088 -0.0116
vn -0.9525 -0.3043 0.0139
vn -0.9346 0.3089 0.1766
vn -0.8733 0.4222 -0.2432
vn -0.5270 0.7626 -0.3751
vn -0.3391 0.9011 0.2703
vn 0.3448 0.8974 0.2753
vn 0.5346 0.7600 -0.3696
vn 0.9058 0.3650 -0.2151
vn 0.9510 0.2522 0.1791
vn 0.9270 -0.3750 -0.0081
vn 0.6286 -0.7774 0.0197
vn 0.2807 -0.9597 -0.0107
vn 0.2474 -0.8684 -0.4297
vn -0.2610 -0.8648 -0.4289
vn -0.2889 -0.9572 -0.0198
vn -0.7023 0.6998 -0.1306
vn 0.7181 0.6818 -0.1399
vn 0.1739 -0.7585 -0.6280
vn -0.1898 -0.7487 -0.6352
vn 0.4463 0.4403 0.7791
vn -0.4419 0.4656 0.7668
vn -0.5159 -0.2635 0.8151
vn 0.5080 -0.2876 0.8119
vn 0.2525 0.8842 -0.3931
vn 0.2672 0.9636 -0.0040
vn 0.2536 0.8274 0.5012
vn 0.5654 0.7212 0.4002
vn 0.6089 0.7932 -0.0028
vn 0.5483 0.7536 -0.3626
vn 0.4413 0.6758 -0.5904
vn 0.1995 0.7143 -0.6708
vn 0.9865 0.1497 0.0667
vn 0.9943 -0.1062 -0.0126
vn 0.8239 0.4796 -0.3019
vn 0.8764 0.4807 0.0292
vn 0.8179 0.4300 0.3823
vn 0.8802 0.1568 0.4478
vn 0.8710 -0.1638 0.4631
vn 0.6251 -0.6825 0.3788
vn 0.1995 0.1373 0.9702
vn 0.2531 -0.2383 0.9376
vn 0.5320 0.4281 0.7306
vn 0.2192 0.4751 0.8522
vn 0.1674 -0.7654 0.6214
vn 0.5011 -0.7255 0.4718
vn 0.4947 -0.2309 0.8378
vn 0.5620 0.1448 0.8143
vn 0.8374 -0.5419 0.0716
vn 0.7190 0.4598 -0.5211
vn -0.3966 -0.4523 -0.7988
vn 0.0006 -0.7642 -0.6450
vn 0.9422 -0.1341 -0.3071
vn -0.3815 -0.4114 -0.8278
vn -0.0934 0.6081 -0.7883
vn -0.2620 -0.4252 -0.8663
vn -0.0524 -0.7639 -0.6432
vn 0.0676 -0.7585 -0.6481
vn 0.8209 -0.5671 -0.0676
vn -0.5449 -0.4658 -0.6972
vn 0.4333 -0.2375 -0.8694
vn -0.1036 -0.9946 0.0022
vn -0.0754 -0.0406 -0.9963
vn -0.9640 0.1179 0.2382
vn -0.0658 0.9231 -0.3790
vn -0.2525 0.8842 -0.3931
vn -0.2672 0.9636 -0.0040
vn -0.2536 0.8274 0.5012
vn -0.5654 0.7212 0.4002
vn -0.6089 0.7932 -0.0028
vn -0.5483 0.7536 -0.3626
vn -0.4413 0.6758 -0.5904
vn -0.1995 0.7143 -0.6708
vn -0.9865 0.1497 0.0667
vn -0.9943 -0.1062 -0.0126
vn -0.8239 0.4796 -0.3019
vn -0.8764 0.4807 0.0292
vn -0.8179 0.4300 0.3823
vn -0.8802 0.1568 0.4478
vn -0.8710 -0.1638 0.4631
vn -0.6674 -0.6684 0.3284
vn -0.1995 0.1373 0.9702
vn -0.1900 -0.1835 0.9645
vn -0.5320 0.4281 0.7306
vn -0.2192 0.4751 0.8522
vn -0.1195 -0.7196 0.6841
vn -0.4840 -0.6658 0.5678
vn -0.5490 -0.1775 0.8167
vn -0.5620 0.1448 0.8143
vn -0.7815 -0.6187 0.0804
vn -0.7190 0.4598 -0.5211
vn 0.8598 -0.2533 -0.4433
vn -0.0006 -0.7642 -0.6450
vn -0.9422 -0.1341 -0.3071
vn 0.4111 -0.5210 -0.7481
vn 0.0934 0.6081 -0.7883
vn -0.3712 -0.6099 -0.7001
vn 0.0524 -0.7639 -0.6432
vn -0.0676 -0.7585 -0.6481
vn -0.8209 -0.5671 -0.0676
vn 0.5927 -0.4446 -0.6716
vn -0.4333 -0.2375 -0.8694
vn 0.1036 -0.9946 0.0022
vn 0.0754 -0.0406 -0.9963
vn 0.9640 0.1179 0.2382
vn 0.0658 0.9231 -0.3790
vt 0.375000 0.000000
vt 0.500000 0.000000
vt 0.500000 0.125000
vt 0.375000 0.125000
vt 0.625000 0.000000
vt 0.625000 0.125000
vt 0.625000 0.250000
vt 0.500000 0.250000
vt 0.375000 0.250000
vt 0.500000 0.375000
vt 0.375000 0.375000
vt 0.625000 0.375000
vt 0.625000 0.500000
vt 0.500000 0.500000
vt 0.375000 0.500000
vt 0.500000 0.625000
vt 0.375000 0.625000
vt 0.625000 0.625000
vt 0.625000 0.750000
vt 0.500000 0.750000
vt 0.375000 0.750000
vt 0.500000 0.875000
vt 0.375000 0.875000
vt 0.625000 0.875000
vt 0.625000 1.000000
vt 0.500000 1.000000
vt 0.375000 1.000000
vt 0.125000 0.500000
vt 0.250000 0.500000
vt 0.250000 0.625000
vt 0.125000 0.625000
vt 0.250000 0.750000
vt 0.125000 0.750000
vt 0.750000 0.500000
vt 0.750000 0.625000
vt 0.875000 0.500000
vt 0.875000 0.625000
vt 0.875000 0.750000
vt 0.750000 0.750000
vt 0.437500 0.375000
vt 0.500000 0.437500
vt 0.437500 0.437500
vt 0.562500 0.375000
vt 0.562500 0.437500
vt 0.625000 0.437500
vt 0.562500 0.500000
vt 0.437500 0.500000
vt 0.375000 0.437500
vt 0.500000 0.562500
vt 0.562500 0.562500
vt 0.562500 0.625000
vt 0.500000 0.593750
vt 0.562500 0.687500
vt 0.500000 0.687500
vt 0.437500 0.562500
vt 0.625000 0.562500
vt 0.625000 0.687500
vt 0.562500 0.750000
vt 0.687500 0.562500
vt 0.750000 0.562500
vt 0.687500 0.625000
vt 0.750000 0.687500
vt 0.687500 0.687500
vt 0.687500 0.500000
vt 0.687500 0.750000
vt 0.000000 0.000000
s 0
usemtl hair
f 1/1/1 10/2/1 21/3/1 9/4/1
f 10/2/2 2/5/2 11/6/2 21/3/2
f 21/3/3 11/6/3 4/7/3 12/8/3
f 9/4/4 21/3/4 12/8/4 3/9/4
f 3/9/5 12/8/5 22/10/5 13/11/5
f 12/8/6 4/7/6 14/12/6 22/10/6
f 22/10/7 14/12/7 8/13/7 15/14/7
f 13/11/8 22/10/8 15/14/8 7/15/8
f 7/15/9 15/14/9 23/16/9 16/17/9
f 15/14/10 8/13/10 17/18/10 23/16/10
f 23/16/11 17/18/11 6/19/11 18/20/11
f 16/17/12 23/16/12 18/20/12 5/21/12
f 5/21/13 18/20/13 24/22/13 19/23/13
f 18/20/14 6/19/14 20/24/14 24/22/14
f 24/22/15 20/24/15 2/25/15 10/26/15
f 19/23/16 24/22/16 10/26/16 1/27/16
f 3/28/17 13/29/17 25/30/17 9/31/17
f 13/29/18 7/15/18 16/17/18 25/30/18
f 25/30/19 16/17/19 5/21/19 19/32/19
f 9/31/20 25/30/20 19/32/20 1/33/20
f 8/13/21 14/34/21 26/35/21 17/18/21
f 14/34/22 4/36/22 11/37/22 26/35/22
f 26/35/23 11/37/23 2/38/23 20/39/23
f 17/18/24 26/35/24 20/39/24 6/19/24
f 43/40/25 44/10/25 47/41/25 46/42/25
f 44/10/26 45/43/26 48/44/26 47/41/26
f 45/43/27 32/12/27 33/45/27 48/44/27
f 48/44/28 33/45/28 29/13/28 34/46/28
f 47/41/29 48/44/29 34/46/29 35/14/29
f 46/42/30 47/41/30 35/14/30 36/47/30
f 30/48/31 46/42/31 36/47/31 28/15/31
f 31/11/32 43/40/32 46/42/32 30/48/32
f 50/49/33 51/50/33 53/51/33 52/16/33 62/52/33
f 52/16/34 53/51/34 55/53/34 54/54/34
f 36/47/35 35/14/35 50/49/35 49/55/35
f 35/14/36 34/46/36 51/50/36 50/49/36
f 34/46/37 29/13/37 37/56/37 51/50/37
f 51/50/38 37/56/38 38/18/38 53/51/38
f 53/51/39 38/18/39 39/57/39 55/53/39
f 55/53/40 39/57/40 27/19/40 40/58/40
f 56/59/41 57/60/41 59/35/41 58/61/41
f 58/61/42 59/35/42 61/62/42 60/63/42
f 29/13/43 33/64/43 56/59/43 37/56/43
f 33/64/44 32/34/44 57/60/44 56/59/44
f 60/63/45 61/62/45 42/39/45 41/65/45
f 39/57/46 60/63/46 41/65/46 27/19/46
f 38/18/47 58/61/47 60/63/47 39/57/47
f 37/56/48 56/59/48 58/61/48 38/18/48
f 55/53/49 40/58/49 54/54/49
f 28/15/50 36/47/50 49/55/50
f 27/19/51 41/65/51 68/65/51 63/19/51
f 30/48/52 28/15/52 64/15/52 65/48/52
f 52/16/53 54/54/53 76/54/53 75/16/53
f 54/54/54 40/58/54 67/58/54 73/54/54
f 62/52/55 52/16/55 72/16/55 74/52/55
f 41/65/56 42/39/56 69/39/56 68/65/56
f 31/11/57 30/48/57 65/48/57 66/11/57
f 28/15/58 49/55/58 70/55/58 64/15/58
f 49/55/59 50/49/59 71/49/59 70/55/59
f 40/58/60 27/19/60 63/19/60 67/58/60
f 50/49/61 62/52/61 74/52/61 71/49/61
f 75/16/62 76/54/62 78/54/62 77/16/62
f 54/54/63 73/54/63 78/54/63 76/54/63
f 73/66/64 72/66/64 77/66/64 78/66/64
f 72/16/65 52/16/65 75/16/65 77/16/65
f 43/40/66 92/42/66 93/41/66 44/10/66
f 44/10/67 93/41/67 94/44/67 45/43/67
f 45/43/68 94/44/68 83/45/68 32/12/68
f 94/44/69 84/46/69 81/13/69 83/45/69
f 93/41/70 85/14/70 84/46/70 94/44/70
f 92/42/71 86/47/71 85/14/71 93/41/71
f 82/48/72 80/15/72 86/47/72 92/42/72
f 31/11/73 82/48/73 92/42/73 43/40/73
f 96/49/74 105/52/74 98/16/74 99/51/74 97/50/74
f 98/16/75 100/54/75 101/53/75 99/51/75
f 86/47/76 95/55/76 96/49/76 85/14/76
f 85/14/77 96/49/77 97/50/77 84/46/77
f 84/46/78 97/50/78 87/56/78 81/13/78
f 97/50/79 99/51/79 88/18/79 87/56/79
f 99/51/80 101/53/80 89/57/80 88/18/80
f 101/53/81 90/58/81 79/19/81 89/57/81
f 102/59/82 103/61/82 59/35/82 57/60/82
f 103/61/83 104/63/83 61/62/83 59/35/83
f 81/13/84 87/56/84 102/59/84 83/64/84
f 83/64/85 102/59/85 57/60/85 32/34/85
f 104/63/86 91/65/86 42/39/86 61/62/86
f 89/57/87 79/19/87 91/65/87 104/63/87
f 88/18/88 89/57/88 104/63/88 103/61/88
f 87/56/89 88/18/89 103/61/89 102/59/89
f 101/53/90 100/54/90 90/58/90
f 80/15/91 95/55/91 86/47/91
f 79/19/92 106/19/92 110/65/92 91/65/92
f 82/48/93 108/48/93 107/15/93 80/15/93
f 98/16/94 116/16/94 117/54/94 100/54/94
f 100/54/95 114/54/95 109/58/95 90/58/95
f 105/52/96 115/52/96 113/16/96 98/16/96
f 91/65/97 110/65/97 69/39/97 42/39/97
f 31/11/98 66/11/98 108/48/98 82/48/98
f 80/15/99 107/15/99 111/55/99 95/55/99
f 95/55/100 111/55/100 112/49/100 96/49/100
f 90/58/101 109/58/101 106/19/101 79/19/101
f 96/49/102 112/49/102 115/52/102 105/52/102
f 116/16/103 118/16/103 119/54/103 117/54/103
f 100/54/104 117/54/104 119/54/104 114/54/104
f 114/66/105 119/66/105 118/66/105 113/66/105
f 113/16/106 118/16/106 116/16/106 98/16/106
