# Blender 5.0.0
# www.blender.org
mtllib shirt2.mtl
o long_sleeve
v -0.000000 0.963735 9.585128
v -0.000000 0.897975 12.462325
v 0.820387 0.804136 9.554970
v 1.441040 0.776389 12.138922
v 0.989241 0.224871 9.482164
v 1.258858 0.167285 12.428465
v 0.791585 -0.297584 9.409357
v 1.176313 -0.269136 12.259935
v -0.000000 -0.513992 9.379200
v -0.000000 -0.789161 12.036106
v -0.000000 0.897976 10.428620
v 0.943586 0.736657 10.428620
v 1.145543 0.170932 10.428620
v 0.888389 -0.343166 10.428620
v -0.000000 -0.556112 10.428620
v -0.000000 1.119445 11.857646
v 1.361335 0.919519 10.960928
v 1.263425 0.173464 11.108058
v 1.174547 -0.357503 11.309422
v -0.000000 -0.998966 11.564838
v -0.000000 0.787222 12.714369
v 0.564423 0.611120 12.633555
v 0.730286 0.142201 12.633555
v 0.562077 -0.326719 12.633555
v -0.000000 -0.641161 12.395108
v 1.254258 0.170931 12.440334
v 0.946959 0.685029 12.462326
v 0.946959 -0.401342 12.462325
v 1.098095 0.939507 11.198030
v 0.980874 -0.807782 11.465982
v 1.270422 0.170931 11.033389
v 2.827513 0.431092 10.227064
v 2.935836 0.162797 10.283143
v 2.814593 -0.135045 10.241884
v 2.385351 0.429582 9.769476
v 2.336945 0.167014 9.653884
v 2.376644 -0.136542 9.779045
v 4.007660 0.000071 8.921765
v 3.764683 0.160514 8.635157
v 4.014522 0.300783 8.913893
v 3.785770 -0.000724 8.701637
v 3.790394 0.299981 8.696554
v 4.072060 0.158274 8.943681
v 2.715280 -0.143174 10.364219
v 2.834177 0.163069 10.413194
v 2.270643 0.167405 9.746317
v 2.302548 -0.144713 9.874235
v 2.729159 0.438932 10.350182
v 2.311875 0.437379 9.865193
v 3.027933 0.162613 10.185244
v 2.921673 0.425800 10.130232
v 2.487545 0.424318 9.680434
v 2.440059 0.166750 9.567044
v 2.479003 -0.131026 9.689821
v 2.908998 -0.129558 10.144770
v 4.212924 0.162617 9.063658
v 3.692546 0.424420 8.607091
v 3.684002 -0.131132 8.616482
v 4.106624 0.425903 9.008625
v 3.645044 0.166755 8.493658
v 4.093946 -0.129664 9.023169
v -0.000000 0.757251 9.555904
v 0.729498 0.642951 9.534306
v 0.850427 0.228096 9.482164
v 0.708871 -0.146073 9.430022
v -0.000000 -0.301059 9.408423
v -0.000000 0.598039 12.596626
v 0.508114 0.473298 12.539383
v 0.625602 0.141143 12.539383
v 0.506452 -0.191012 12.539383
v -0.000000 -0.328595 12.370480
v -0.820387 0.804136 9.554970
v -1.441040 0.776389 12.138922
v -0.989241 0.224871 9.482164
v -1.258858 0.167285 12.428465
v -0.791585 -0.297584 9.409357
v -1.176313 -0.269136 12.259935
v -0.943586 0.736657 10.428620
v -1.145543 0.170932 10.428620
v -0.888389 -0.343166 10.428620
v -1.361335 0.919519 10.960928
v -1.263425 0.173464 11.108059
v -1.174547 -0.357503 11.309423
v -0.564423 0.611120 12.633555
v -0.730286 0.142201 12.633555
v -0.562077 -0.326719 12.633555
v -1.254258 0.170931 12.440335
v -0.946959 0.685029 12.462325
v -0.946959 -0.401342 12.462325
v -1.098095 0.939507 11.198030
v -0.980874 -0.807782 11.465982
v -1.270422 0.170931 11.033389
v -2.827513 0.431092 10.227064
v -2.935836 0.162797 10.283143
v -2.814593 -0.135045 10.241884
v -2.385351 0.429582 9.769476
v -2.336945 0.167014 9.653884
v -2.376644 -0.136542 9.779045
v -4.007660 0.000071 8.921765
v -3.764683 0.160514 8.635157
v -4.014522 0.300783 8.913894
v -3.785770 -0.000724 8.701637
v -3.790394 0.299980 8.696554
v -4.072060 0.158274 8.943681
v -2.715280 -0.143174 10.364219
v -2.834177 0.163069 10.413194
v -2.270643 0.167404 9.746317
v -2.302548 -0.144713 9.874234
v -2.729159 0.438932 10.350181
v -2.311875 0.437379 9.865193
v -3.027933 0.162613 10.185244
v -2.921673 0.425800 10.130232
v -2.487545 0.424318 9.680434
v -2.440059 0.166750 9.567044
v -2.479003 -0.131026 9.689822
v -2.908998 -0.129558 10.144770
v -4.212924 0.162617 9.063658
v -3.692546 0.424420 8.607091
v -3.684002 -0.131132 8.616482
v -4.106624 0.425903 9.008625
v -3.645044 0.166755 8.493658
v -4.093946 -0.129664 9.023169
v -0.729498 0.642951 9.534306
v -0.850427 0.228096 9.482164
v -0.708871 -0.146073 9.430022
v -0.508114 0.473298 12.539382
v -0.625602 0.141143 12.539382
v -0.506452 -0.191012 12.539382
vn 0.2619 0.9300 0.2580
vn 0.2055 -0.9006 0.3829
vn 0.2482 -0.9673 -0.0526
vn 0.9106 -0.3899 -0.1370
vn 0.9417 0.3128 -0.1237
vn 0.1797 0.9817 0.0633
vn 0.1754 -0.9058 -0.3856
vn 0.8908 -0.3926 -0.2290
vn 0.9289 0.2891 -0.2315
vn 0.1000 0.9756 -0.1953
vn 0.3542 0.1498 0.9231
vn 0.2346 0.7953 0.5590
vn 0.3619 -0.1458 0.9208
vn 0.1812 -0.8529 0.4896
vn 0.5088 0.2527 0.8229
vn 0.7299 -0.3660 0.5774
vn 0.0265 0.9865 0.1614
vn 0.8411 -0.5207 0.1462
vn 0.7576 -0.4049 -0.5120
vn -0.5361 -0.0166 -0.8440
vn 0.7307 -0.3756 0.5701
vn -0.7510 -0.3239 -0.5754
vn 0.0401 0.9984 -0.0398
vn 0.7234 0.4059 0.5585
vn -0.7372 0.3723 -0.5639
vn 0.0461 -0.9982 -0.0380
vn 0.7494 -0.1663 -0.6409
vn 0.6431 -0.1580 -0.7493
vn 0.6958 0.0312 -0.7176
vn 0.6433 0.1011 -0.7589
vn 0.7592 0.1399 -0.6357
vn 0.7018 -0.0859 -0.7071
vn 0.1491 -0.9886 0.0188
vn -0.7705 0.0880 -0.6313
vn 0.7952 0.1633 0.5839
vn 0.3248 0.9456 -0.0166
vn -0.7747 -0.1839 -0.6050
vn 0.7333 -0.3666 0.5725
vn 0.0264 0.9992 -0.0288
vn -0.5988 -0.3710 -0.7098
vn 0.6779 -0.3644 0.6384
vn 0.0311 -0.9992 -0.0262
vn -0.5856 0.4146 -0.6966
vn 0.6677 0.4007 0.6274
vn -0.0017 1.0000 -0.0018
vn -0.6187 -0.3673 -0.6945
vn 0.6425 -0.3556 0.6788
vn 0.0016 -1.0000 0.0018
vn -0.6063 0.4114 -0.6806
vn 0.6317 0.3945 0.6674
vn -0.0089 0.1366 -0.9906
vn 0.0032 0.1368 -0.9906
vn 0.0006 0.1358 -0.9907
vn 0.0029 0.1255 -0.9921
vn -0.4172 0.1841 0.8900
vn -0.6496 -0.2298 0.7247
vn -0.6516 0.2337 0.7217
vn -0.0426 -0.5382 0.8418
vn -0.2619 0.9300 0.2580
vn -0.2055 -0.9006 0.3829
vn -0.2482 -0.9673 -0.0526
vn -0.9106 -0.3899 -0.1370
vn -0.9417 0.3128 -0.1237
vn -0.1797 0.9817 0.0633
vn -0.1754 -0.9058 -0.3856
vn -0.8908 -0.3926 -0.2290
vn -0.9289 0.2891 -0.2315
vn -0.1000 0.9756 -0.1953
vn -0.3542 0.1498 0.9231
vn -0.2346 0.7953 0.5590
vn -0.3619 -0.1458 0.9208
vn -0.1812 -0.8529 0.4896
vn -0.5088 0.2527 0.8229
vn -0.7299 -0.3660 0.5774
vn -0.0265 0.9865 0.1614
vn -0.8411 -0.5207 0.1462
vn -0.7576 -0.4049 -0.5120
vn 0.5361 -0.0166 -0.8440
vn -0.7307 -0.3756 0.5701
vn 0.7510 -0.3239 -0.5754
vn -0.0401 0.9984 -0.0398
vn -0.7234 0.4059 0.5585
vn 0.7372 0.3723 -0.5639
vn -0.0461 -0.9982 -0.0380
vn -0.7494 -0.1663 -0.6409
vn -0.6431 -0.1580 -0.7493
vn -0.6958 0.0312 -0.7176
vn -0.6433 0.1011 -0.7589
vn -0.7592 0.1399 -0.6357
vn -0.7018 -0.0859 -0.7071
vn -0.1491 -0.9886 0.0188
vn 0.7705 0.0880 -0.6313
vn -0.7952 0.1633 0.5839
vn -0.3248 0.9456 -0.0166
vn 0.7747 -0.1839 -0.6050
vn -0.7333 -0.3666 0.5725
vn -0.0264 0.9992 -0.0288
vn 0.5988 -0.3710 -0.7098
vn -0.6779 -0.3644 0.6384
vn -0.0311 -0.9992 -0.0262
vn 0.5856 0.4146 -0.6966
vn -0.6677 0.4007 0.6274
vn 0.0017 1.0000 -0.0018
vn 0.6187 -0.3673 -0.6945
vn -0.6425 -0.3556 0.6788
vn -0.0016 -1.0000 0.0018
vn 0.6063 0.4114 -0.6806
vn -0.6317 0.3945 0.6674
vn 0.0089 0.1366 -0.9906
vn -0.0032 0.1368 -0.9906
vn -0.0006 0.1358 -0.9907
vn -0.0029 0.1255 -0.9921
vn 0.4172 0.1841 0.8900
vn 0.6496 -0.2298 0.7247
vn 0.6516 0.2337 0.7217
vn 0.0426 -0.5382 0.8418
vt 1.000000 0.828637
vt 1.000000 1.000000
vt 0.875000 1.000000
vt 0.875000 0.828637
vt 0.625000 0.828637
vt 0.625000 1.000000
vt 0.500000 1.000000
vt 0.500000 0.828637
vt 0.625000 0.500000
vt 0.625000 0.645722
vt 0.500000 0.645722
vt 0.500000 0.500000
vt 0.750000 0.500000
vt 0.750000 0.645722
vt 0.875000 0.500000
vt 0.875000 0.645722
vt 1.000000 0.500000
vt 1.000000 0.645722
vt 0.750000 0.828637
vt 0.750000 1.000000
vt 0.749520 0.964446
vt 0.844268 0.965118
vt 0.653402 0.965669
vt 0.844587 0.863513
vt 0.647775 0.863148
vt 0.750840 0.864057
vt 0.749520 0.964446
vt 0.653402 0.965669
vt 0.647775 0.863149
vt 0.750840 0.864057
vt 0.844587 0.863513
vt 0.844267 0.965117
vt 0.750840 0.864057
vt 0.749520 0.964446
vt 0.653402 0.965669
vt 0.844268 0.965117
vt 0.844587 0.863513
vt 0.750840 0.864057
vt 0.653402 0.965669
vt 0.749520 0.964446
s 0
usemtl shirt
f 16/1/1 2/2/1 27/3/1 29/4/1
f 30/5/2 28/6/2 10/7/2 20/8/2
f 7/9/3 14/10/3 15/11/3 9/12/3
f 5/13/4 13/14/4 14/10/4 7/9/4
f 3/15/5 12/16/5 13/14/5 5/13/5
f 1/17/6 11/18/6 12/16/6 3/15/6
f 14/10/7 30/5/7 20/8/7 15/11/7
f 13/14/8 31/19/8 30/5/8 14/10/8
f 12/16/9 29/4/9 31/19/9 13/14/9
f 11/18/10 16/1/10 29/4/10 12/16/10
f 26/20/11 27/3/11 22/3/11 23/20/11
f 27/3/12 2/2/12 21/2/12 22/3/12
f 28/6/13 26/20/13 23/20/13 24/6/13
f 10/7/14 28/6/14 24/6/14 25/7/14
f 6/21/15 4/22/15 27/3/15 26/20/15
f 8/23/16 6/21/16 26/20/16 28/6/16
f 4/22/17 17/24/17 29/4/17 27/3/17
f 19/25/18 8/23/18 28/6/18 30/5/18
f 18/26/19 19/25/19 30/5/19 31/19/19
f 17/24/20 18/26/20 31/19/20 29/4/20
f 45/27/21 44/28/21 34/23/21 33/21/21
f 47/29/22 46/30/22 36/26/22 37/25/22
f 49/31/23 48/32/23 32/22/23 35/24/23
f 48/32/24 45/27/24 33/21/24 32/22/24
f 46/30/25 49/31/25 35/24/25 36/26/25
f 44/28/26 47/29/26 37/25/26 34/23/26
f 58/25/27 60/33/27 39/33/27 41/25/27
f 56/34/28 61/35/28 38/35/28 43/34/28
f 57/24/29 59/32/29 40/32/29 42/24/29
f 59/32/30 56/34/30 43/34/30 40/32/30
f 60/33/31 57/24/31 42/24/31 39/33/31
f 61/35/32 58/25/32 41/25/32 38/35/32
f 8/23/33 19/25/33 47/29/33 44/28/33
f 18/26/34 17/24/34 49/31/34 46/30/34
f 4/22/35 6/21/35 45/27/35 48/32/35
f 17/24/36 4/22/36 48/32/36 49/31/36
f 19/25/37 18/26/37 46/30/37 47/29/37
f 6/21/38 8/23/38 44/28/38 45/27/38
f 35/24/39 32/22/39 51/36/39 52/37/39
f 37/25/40 36/26/40 53/38/40 54/29/40
f 33/21/41 34/23/41 55/39/41 50/40/41
f 34/23/42 37/25/42 54/29/42 55/39/42
f 36/26/43 35/24/43 52/37/43 53/38/43
f 32/22/44 33/21/44 50/40/44 51/36/44
f 52/37/45 51/36/45 59/32/45 57/24/45
f 54/29/46 53/38/46 60/33/46 58/25/46
f 50/40/47 55/39/47 61/35/47 56/34/47
f 55/39/48 54/29/48 58/25/48 61/35/48
f 53/38/49 52/37/49 57/24/49 60/33/49
f 51/36/50 50/40/50 56/34/50 59/32/50
f 1/17/51 3/15/51 63/15/51 62/17/51
f 5/13/52 7/9/52 65/9/52 64/13/52
f 7/9/53 9/12/53 66/12/53 65/9/53
f 3/15/54 5/13/54 64/13/54 63/15/54
f 25/7/55 24/6/55 70/6/55 71/7/55
f 23/20/56 22/3/56 68/3/56 69/20/56
f 24/6/57 23/20/57 69/20/57 70/6/57
f 22/3/58 21/2/58 67/2/58 68/3/58
f 16/1/59 90/4/59 88/3/59 2/2/59
f 91/5/60 20/8/60 10/7/60 89/6/60
f 76/9/61 9/12/61 15/11/61 80/10/61
f 74/13/62 76/9/62 80/10/62 79/14/62
f 72/15/63 74/13/63 79/14/63 78/16/63
f 1/17/64 72/15/64 78/16/64 11/18/64
f 80/10/65 15/11/65 20/8/65 91/5/65
f 79/14/66 80/10/66 91/5/66 92/19/66
f 78/16/67 79/14/67 92/19/67 90/4/67
f 11/18/68 78/16/68 90/4/68 16/1/68
f 87/20/69 85/20/69 84/3/69 88/3/69
f 88/3/70 84/3/70 21/2/70 2/2/70
f 89/6/71 86/6/71 85/20/71 87/20/71
f 10/7/72 25/7/72 86/6/72 89/6/72
f 75/21/73 87/20/73 88/3/73 73/22/73
f 77/23/74 89/6/74 87/20/74 75/21/74
f 73/22/75 88/3/75 90/4/75 81/24/75
f 83/25/76 91/5/76 89/6/76 77/23/76
f 82/26/77 92/19/77 91/5/77 83/25/77
f 81/24/78 90/4/78 92/19/78 82/26/78
f 106/27/79 94/21/79 95/23/79 105/28/79
f 108/29/80 98/25/80 97/26/80 107/30/80
f 110/31/81 96/24/81 93/22/81 109/32/81
f 109/32/82 93/22/82 94/21/82 106/27/82
f 107/30/83 97/26/83 96/24/83 110/31/83
f 105/28/84 95/23/84 98/25/84 108/29/84
f 119/25/85 102/25/85 100/33/85 121/33/85
f 117/34/86 104/34/86 99/35/86 122/35/86
f 118/24/87 103/24/87 101/32/87 120/32/87
f 120/32/88 101/32/88 104/34/88 117/34/88
f 121/33/89 100/33/89 103/24/89 118/24/89
f 122/35/90 99/35/90 102/25/90 119/25/90
f 77/23/91 105/28/91 108/29/91 83/25/91
f 82/26/92 107/30/92 110/31/92 81/24/92
f 73/22/93 109/32/93 106/27/93 75/21/93
f 81/24/94 110/31/94 109/32/94 73/22/94
f 83/25/95 108/29/95 107/30/95 82/26/95
f 75/21/96 106/27/96 105/28/96 77/23/96
f 96/24/97 113/37/97 112/36/97 93/22/97
f 98/25/98 115/29/98 114/38/98 97/26/98
f 94/21/99 111/40/99 116/39/99 95/23/99
f 95/23/100 116/39/100 115/29/100 98/25/100
f 97/26/101 114/38/101 113/37/101 96/24/101
f 93/22/102 112/36/102 111/40/102 94/21/102
f 113/37/103 118/24/103 120/32/103 112/36/103
f 115/29/104 119/25/104 121/33/104 114/38/104
f 111/40/105 117/34/105 122/35/105 116/39/105
f 116/39/106 122/35/106 119/25/106 115/29/106
f 114/38/107 121/33/107 118/24/107 113/37/107
f 112/36/108 120/32/108 117/34/108 111/40/108
f 1/17/109 62/17/109 123/15/109 72/15/109
f 74/13/110 124/13/110 125/9/110 76/9/110
f 76/9/111 125/9/111 66/12/111 9/12/111
f 72/15/112 123/15/112 124/13/112 74/13/112
f 25/7/113 71/7/113 128/6/113 86/6/113
f 85/20/114 127/20/114 126/3/114 84/3/114
f 86/6/115 128/6/115 127/20/115 85/20/115
f 84/3/116 126/3/116 67/2/116 21/2/116
