# Blender 5.0.0
# www.blender.org
mtllib shirt1.mtl
o short_sleeve
v -0.000000 0.963735 9.585128
v -0.000000 0.897975 12.462325
v 0.820387 0.804136 9.554970
v 1.205059 0.560412 12.258022
v 0.989241 0.224871 9.482164
v 1.258858 0.167285 12.428465
v 0.791585 -0.297584 9.409357
v 1.176313 -0.269136 12.259935
v -0.000000 -0.513992 9.379200
v -0.000000 -0.705697 12.036106
v -0.000000 0.897976 10.428620
v 0.943586 0.736657 10.428620
v 1.145543 0.170932 10.428620
v 0.888389 -0.343166 10.428620
v -0.000000 -0.556112 10.428620
v -0.000000 1.020734 11.857646
v 1.138406 0.597557 11.283685
v 1.263425 0.173464 11.108058
v 1.174547 -0.357503 11.309422
v -0.000000 -0.889449 11.564838
v -0.000000 0.787222 12.714369
v 0.564423 0.611120 12.633555
v 0.730286 0.142201 12.633555
v 0.562077 -0.326719 12.633555
v -0.000000 -0.520951 12.395107
v 1.254258 0.170931 12.440334
v 0.946959 0.685029 12.462326
v 0.946959 -0.343166 12.462326
v 1.098095 0.736657 11.198030
v 0.980874 -0.698265 11.465982
v 1.270422 0.170931 11.033389
v 1.950155 0.367748 11.199828
v 1.642544 0.162310 10.727063
v 1.939343 -0.072674 11.209107
v 1.648896 0.379670 10.823621
v 1.661745 -0.102514 10.830456
v 2.021982 0.159030 11.251350
v -0.000000 0.757251 9.555904
v 0.729498 0.642951 9.534306
v 0.850427 0.228096 9.482164
v 0.708871 -0.146073 9.430022
v -0.000000 -0.301059 9.408423
v -0.000000 0.598039 12.596626
v 0.508114 0.473298 12.539383
v 0.625602 0.141143 12.539383
v 0.506452 -0.191012 12.539383
v -0.000000 -0.328595 12.370480
v 2.139724 0.164661 11.387624
v 1.578663 -0.321467 10.732089
v 1.558650 0.636902 10.721444
v 2.011015 -0.274991 11.321831
v 1.548758 0.169770 10.571058
v 2.027855 0.618333 11.307378
v -0.820387 0.804136 9.554970
v -1.205059 0.560412 12.258022
v -0.989241 0.224871 9.482164
v -1.258858 0.167285 12.428465
v -0.791585 -0.297584 9.409357
v -1.176313 -0.269136 12.259935
v -0.943586 0.736657 10.428620
v -1.145543 0.170932 10.428620
v -0.888389 -0.343166 10.428620
v -1.138406 0.597557 11.283685
v -1.263425 0.173464 11.108059
v -1.174547 -0.357503 11.309423
v -0.564423 0.611120 12.633555
v -0.730286 0.142201 12.633555
v -0.562077 -0.326719 12.633555
v -1.254258 0.170931 12.440335
v -0.946959 0.685029 12.462325
v -0.946959 -0.343166 12.462325
v -1.098095 0.736657 11.198030
v -0.980874 -0.698265 11.465982
v -1.270422 0.170931 11.033389
v -1.950155 0.367748 11.199828
v -1.642544 0.162310 10.727063
v -1.939343 -0.072674 11.209107
v -1.648896 0.379670 10.823621
v -1.661745 -0.102514 10.830456
v -2.021982 0.159030 11.251350
v -0.729498 0.642951 9.534306
v -0.850427 0.228096 9.482164
v -0.708871 -0.146073 9.430022
v -0.508114 0.473298 12.539382
v -0.625602 0.141143 12.539382
v -0.506452 -0.191012 12.539382
v -2.139724 0.164661 11.387624
v -1.578663 -0.321467 10.732089
v -1.558650 0.636902 10.721444
v -2.011015 -0.274992 11.321831
v -1.548758 0.169770 10.571058
v -2.027855 0.618333 11.307379
vn 0.2684 0.9569 0.1110
vn 0.2054 -0.9172 0.3415
vn 0.2482 -0.9673 -0.0526
vn 0.9106 -0.3899 -0.1370
vn 0.9417 0.3128 -0.1237
vn 0.1797 0.9817 0.0633
vn 0.1859 -0.9344 -0.3039
vn 0.8860 -0.4149 -0.2070
vn 0.9240 0.3330 -0.1879
vn 0.1916 0.9791 -0.0681
vn 0.3542 0.1498 0.9231
vn 0.2346 0.7953 0.5590
vn 0.3693 -0.1582 0.9157
vn 0.1360 -0.8895 0.4362
vn 0.6913 0.3761 0.6169
vn 0.6847 -0.3770 0.6238
vn 0.6733 0.7373 0.0546
vn 0.7562 -0.6352 0.1572
vn 0.5464 -0.4635 -0.6976
vn 0.9604 0.2762 0.0357
vn 0.7399 0.0721 -0.6689
vn 0.7390 -0.1261 -0.6618
vn 0.8709 0.1484 -0.4686
vn 0.7807 0.0259 -0.6244
vn 0.8074 -0.0419 -0.5886
vn 0.8587 -0.1186 -0.4985
vn -0.0089 0.1366 -0.9906
vn 0.0032 0.1368 -0.9906
vn 0.0006 0.1358 -0.9907
vn 0.0029 0.1255 -0.9921
vn -0.4114 0.2479 0.8771
vn -0.6496 -0.2298 0.7247
vn -0.6516 0.2337 0.7217
vn -0.0426 -0.5382 0.8418
vn 0.7108 -0.3366 0.6176
vn -0.8406 -0.1373 -0.5240
vn -0.0245 0.9987 0.0441
vn 0.7146 0.3234 0.6203
vn -0.8396 0.0876 -0.5361
vn 0.0971 -0.9935 0.0596
vn -0.2684 0.9569 0.1110
vn -0.2054 -0.9172 0.3415
vn -0.2482 -0.9673 -0.0526
vn -0.9106 -0.3899 -0.1370
vn -0.9417 0.3128 -0.1237
vn -0.1797 0.9817 0.0633
vn -0.1859 -0.9344 -0.3039
vn -0.8860 -0.4149 -0.2070
vn -0.9240 0.3330 -0.1879
vn -0.1916 0.9791 -0.0681
vn -0.3542 0.1498 0.9231
vn -0.2346 0.7953 0.5590
vn -0.3693 -0.1582 0.9157
vn -0.1360 -0.8895 0.4362
vn -0.6913 0.3761 0.6169
vn -0.6847 -0.3770 0.6238
vn -0.6733 0.7373 0.0546
vn -0.7562 -0.6352 0.1572
vn -0.5464 -0.4635 -0.6976
vn -0.9604 0.2762 0.0357
vn -0.7399 0.0721 -0.6689
vn -0.7390 -0.1261 -0.6618
vn -0.8709 0.1484 -0.4686
vn -0.7807 0.0259 -0.6244
vn -0.8074 -0.0419 -0.5886
vn -0.8587 -0.1186 -0.4985
vn 0.0089 0.1366 -0.9906
vn -0.0032 0.1368 -0.9906
vn -0.0006 0.1358 -0.9907
vn -0.0029 0.1255 -0.9921
vn 0.4114 0.2479 0.8771
vn 0.6496 -0.2298 0.7247
vn 0.6516 0.2337 0.7217
vn 0.0426 -0.5382 0.8418
vn -0.7108 -0.3366 0.6176
vn 0.8406 -0.1373 -0.5240
vn 0.0245 0.9987 0.0441
vn -0.7146 0.3234 0.6203
vn 0.8396 0.0876 -0.5361
vn -0.0971 -0.9935 0.0596
vt 1.000000 0.828637
vt 1.000000 1.000000
vt 0.875000 1.000000
vt 0.875000 0.828637
vt 0.625000 0.828637
vt 0.625000 1.000000
vt 0.500000 1.000000
vt 0.500000 0.828637
vt 0.625000 0.500000
vt 0.625000 0.645722
vt 0.500000 0.645722
vt 0.500000 0.500000
vt 0.750000 0.500000
vt 0.750000 0.645722
vt 0.875000 0.500000
vt 0.875000 0.645722
vt 1.000000 0.500000
vt 1.000000 0.645722
vt 0.750000 0.828637
vt 0.750000 1.000000
vt 0.749520 0.964446
vt 0.844268 0.965118
vt 0.653402 0.965669
vt 0.844587 0.863513
vt 0.647775 0.863148
vt 0.750840 0.864057
vt 0.844267 0.965117
vt 0.749520 0.964446
vt 0.653402 0.965669
vt 0.750840 0.864057
vt 0.844587 0.863513
vt 0.647775 0.863148
s 0
usemtl shirt
f 16/1/1 2/2/1 27/3/1 29/4/1
f 30/5/2 28/6/2 10/7/2 20/8/2
f 7/9/3 14/10/3 15/11/3 9/12/3
f 5/13/4 13/14/4 14/10/4 7/9/4
f 3/15/5 12/16/5 13/14/5 5/13/5
f 1/17/6 11/18/6 12/16/6 3/15/6
f 14/10/7 30/5/7 20/8/7 15/11/7
f 13/14/8 31/19/8 30/5/8 14/10/8
f 12/16/9 29/4/9 31/19/9 13/14/9
f 11/18/10 16/1/10 29/4/10 12/16/10
f 26/20/11 27/3/11 22/3/11 23/20/11
f 27/3/12 2/2/12 21/2/12 22/3/12
f 28/6/13 26/20/13 23/20/13 24/6/13
f 10/7/14 28/6/14 24/6/14 25/7/14
f 6/21/15 4/22/15 27/3/15 26/20/15
f 8/23/16 6/21/16 26/20/16 28/6/16
f 4/22/17 17/24/17 29/4/17 27/3/17
f 19/25/18 8/23/18 28/6/18 30/5/18
f 18/26/19 19/25/19 30/5/19 31/19/19
f 17/24/20 18/26/20 31/19/20 29/4/20
f 53/27/21 48/28/21 37/28/21 32/27/21
f 48/28/22 51/29/22 34/29/22 37/28/22
f 52/30/23 50/31/23 35/31/23 33/30/23
f 50/31/24 53/27/24 32/27/24 35/31/24
f 51/29/25 49/32/25 36/32/25 34/29/25
f 49/32/26 52/30/26 33/30/26 36/32/26
f 1/17/27 3/15/27 39/15/27 38/17/27
f 5/13/28 7/9/28 41/9/28 40/13/28
f 7/9/29 9/12/29 42/12/29 41/9/29
f 3/15/30 5/13/30 40/13/30 39/15/30
f 25/7/31 24/6/31 46/6/31 47/7/31
f 23/20/32 22/3/32 44/3/32 45/20/32
f 24/6/33 23/20/33 45/20/33 46/6/33
f 22/3/34 21/2/34 43/2/34 44/3/34
f 6/21/35 8/23/35 51/29/35 48/28/35
f 19/25/36 18/26/36 52/30/36 49/32/36
f 17/24/37 4/22/37 53/27/37 50/31/37
f 4/22/38 6/21/38 48/28/38 53/27/38
f 18/26/39 17/24/39 50/31/39 52/30/39
f 8/23/40 19/25/40 49/32/40 51/29/40
f 16/1/41 72/4/41 70/3/41 2/2/41
f 73/5/42 20/8/42 10/7/42 71/6/42
f 58/9/43 9/12/43 15/11/43 62/10/43
f 56/13/44 58/9/44 62/10/44 61/14/44
f 54/15/45 56/13/45 61/14/45 60/16/45
f 1/17/46 54/15/46 60/16/46 11/18/46
f 62/10/47 15/11/47 20/8/47 73/5/47
f 61/14/48 62/10/48 73/5/48 74/19/48
f 60/16/49 61/14/49 74/19/49 72/4/49
f 11/18/50 60/16/50 72/4/50 16/1/50
f 69/20/51 67/20/51 66/3/51 70/3/51
f 70/3/52 66/3/52 21/2/52 2/2/52
f 71/6/53 68/6/53 67/20/53 69/20/53
f 10/7/54 25/7/54 68/6/54 71/6/54
f 57/21/55 69/20/55 70/3/55 55/22/55
f 59/23/56 71/6/56 69/20/56 57/21/56
f 55/22/57 70/3/57 72/4/57 63/24/57
f 65/25/58 73/5/58 71/6/58 59/23/58
f 64/26/59 74/19/59 73/5/59 65/25/59
f 63/24/60 72/4/60 74/19/60 64/26/60
f 92/27/61 75/27/61 80/28/61 87/28/61
f 87/28/62 80/28/62 77/29/62 90/29/62
f 91/30/63 76/30/63 78/31/63 89/31/63
f 89/31/64 78/31/64 75/27/64 92/27/64
f 90/29/65 77/29/65 79/32/65 88/32/65
f 88/32/66 79/32/66 76/30/66 91/30/66
f 1/17/67 38/17/67 81/15/67 54/15/67
f 56/13/68 82/13/68 83/9/68 58/9/68
f 58/9/69 83/9/69 42/12/69 9/12/69
f 54/15/70 81/15/70 82/13/70 56/13/70
f 25/7/71 47/7/71 86/6/71 68/6/71
f 67/20/72 85/20/72 84/3/72 66/3/72
f 68/6/73 86/6/73 85/20/73 67/20/73
f 66/3/74 84/3/74 43/2/74 21/2/74
f 57/21/75 87/28/75 90/29/75 59/23/75
f 65/25/76 88/32/76 91/30/76 64/26/76
f 63/24/77 89/31/77 92/27/77 55/22/77
f 55/22/78 92/27/78 87/28/78 57/21/78
f 64/26/79 91/30/79 89/31/79 63/24/79
f 59/23/80 90/29/80 88/32/80 65/25/80
