# Blender 5.0.0
# www.blender.org
mtllib shoes.mtl
o shoes
v 0.545870 1.055963 1.355315
v 1.023695 0.781246 1.330096
v 1.023695 0.231812 1.279657
v 0.545870 -0.042904 1.254438
v 0.068046 0.231812 1.279657
v 0.068046 0.781246 1.330096
v 0.545870 1.132145 0.229551
v 1.009658 0.864405 0.183909
v 1.009658 0.288681 0.191555
v 0.082083 -0.418340 0.174826
v 0.082083 0.288681 0.191555
v 0.082083 0.864405 0.183909
v 0.068046 0.799801 1.188970
v 0.068046 0.249566 1.086771
v 0.545870 -0.025551 1.071906
v 1.023695 0.249566 1.086771
v 1.023695 0.799801 1.188970
v 0.545870 1.074917 1.221931
v 1.009658 -1.125360 0.158098
v 0.545870 -1.393100 0.161922
v 0.082083 -1.125360 0.158098
v 0.545870 -1.307106 0.584028
v 0.135123 -1.105764 0.406001
v 0.956618 -1.105764 0.406001
v 0.545870 1.136773 0.012053
v 1.009658 0.869032 -0.033587
v 1.009658 0.293309 -0.025942
v 0.545870 0.025568 -0.022120
v 0.082083 0.293309 -0.025942
v 0.082083 0.869032 -0.033587
v 1.009658 -1.120732 -0.059401
v 0.545870 -1.388473 -0.055577
v 0.082083 -1.120732 -0.059401
v 0.135123 -0.484656 0.518047
v 0.545870 -0.535586 0.746468
v 0.956618 -0.484656 0.518047
v 1.009658 -0.418340 0.174826
v 0.545871 -0.681452 -0.038848
v 0.082083 -0.413712 -0.042671
v 1.009658 -0.413712 -0.042671
v 0.135123 -0.809656 0.523430
v 0.956618 -0.809656 0.523430
v 0.545871 -1.051406 -0.047604
v 0.082083 -0.788294 0.166073
v 0.545871 -0.936081 0.704540
v 1.009658 -0.788294 0.166073
v 0.082083 -0.783665 -0.051425
v 1.009658 -0.783665 -0.051425
v 0.545870 1.007221 1.348407
v 0.981074 0.757009 1.325438
v 0.981074 0.256584 1.279497
v 0.545870 0.006371 1.256528
v 0.110667 0.256584 1.279497
v 0.110667 0.757009 1.325438
v 0.545870 1.007221 1.759205
v 0.981074 0.757009 1.736234
v 0.981074 0.256584 1.690295
v 0.545870 0.006371 1.667326
v 0.110667 0.256584 1.690295
v 0.110667 0.757009 1.736234
v 0.545870 1.051196 1.922420
v 1.019318 0.778996 1.897431
v 1.019318 0.234596 1.847455
v 0.545870 -0.037604 1.822467
v 0.072424 0.234596 1.847455
v 0.072424 0.778996 1.897431
v 1.023695 0.130517 1.509345
v 0.545870 -0.144200 1.484128
v 0.068046 0.130517 1.509345
v 0.981074 0.155288 1.509187
v 0.545870 -0.094925 1.486217
v 0.110667 0.155288 1.509187
v 0.545870 0.933101 1.911579
v 0.916615 0.719949 1.892011
v 0.916615 0.293643 1.852877
v 0.545870 0.080490 1.833308
v 0.175126 0.293643 1.852877
v 0.175126 0.719949 1.892011
v -0.545871 1.055963 1.355315
v -1.023695 0.781247 1.330096
v -1.023695 0.231813 1.279657
v -0.545871 -0.042903 1.254438
v -0.068046 0.231813 1.279657
v -0.068046 0.781247 1.330096
v -0.545871 1.132145 0.229551
v -1.009658 0.864405 0.183911
v -1.009658 0.288681 0.191555
v -0.082083 -0.418340 0.174828
v -0.082083 0.288681 0.191555
v -0.082083 0.864405 0.183911
v -0.068046 0.799801 1.188972
v -0.068046 0.249567 1.086771
v -0.545871 -0.025550 1.071907
v -1.023695 0.249567 1.086771
v -1.023695 0.799800 1.188972
v -0.545871 1.074918 1.221931
v -1.009658 -1.125360 0.158098
v -0.545871 -1.393101 0.161922
v -0.082083 -1.125360 0.158098
v -0.545871 -1.307106 0.584028
v -0.135123 -1.105764 0.406001
v -0.956618 -1.105764 0.406001
v -0.545871 1.136773 0.012053
v -1.009658 0.869032 -0.033587
v -1.009658 0.293308 -0.025941
v -0.545871 0.025569 -0.022120
v -0.082083 0.293308 -0.025941
v -0.082083 0.869032 -0.033587
v -1.009658 -1.120732 -0.059399
v -0.545871 -1.388473 -0.055576
v -0.082083 -1.120732 -0.059399
v -0.135123 -0.484656 0.518047
v -0.545871 -0.535586 0.746468
v -0.956618 -0.484656 0.518047
v -1.009658 -0.418340 0.174828
v -0.545871 -0.681453 -0.038848
v -0.082083 -0.413712 -0.042670
v -1.009658 -0.413712 -0.042670
v -0.135123 -0.809656 0.523430
v -0.956618 -0.809656 0.523430
v -0.545871 -1.051406 -0.047604
v -0.082083 -0.788294 0.166073
v -0.545871 -0.936082 0.704541
v -1.009658 -0.788294 0.166073
v -0.082083 -0.783665 -0.051425
v -1.009658 -0.783665 -0.051425
v -0.545871 1.007222 1.348407
v -0.981074 0.757009 1.325438
v -0.981074 0.256584 1.279499
v -0.545871 0.006371 1.256530
v -0.110667 0.256584 1.279499
v -0.110667 0.757010 1.325438
v -0.545871 1.007221 1.759205
v -0.981074 0.757009 1.736236
v -0.981074 0.256584 1.690297
v -0.545871 0.006371 1.667328
v -0.110667 0.256584 1.690297
v -0.110667 0.757009 1.736236
v -0.545871 1.051196 1.922421
v -1.019318 0.778996 1.897431
v -1.019318 0.234596 1.847456
v -0.545871 -0.037604 1.822470
v -0.072424 0.234596 1.847456
v -0.072424 0.778997 1.897431
v -1.023695 0.130517 1.509347
v -0.545871 -0.144200 1.484129
v -0.068046 0.130517 1.509347
v -0.981074 0.155288 1.509189
v -0.545871 -0.094925 1.486219
v -0.110667 0.155288 1.509189
v -0.545871 0.933102 1.911579
v -0.916615 0.719949 1.892012
v -0.916615 0.293643 1.852877
v -0.545871 0.080491 1.833309
v -0.175127 0.293643 1.852877
v -0.175127 0.719949 1.892012
vn -0.9999 0.0012 -0.0147
vn 1.0000 -0.0000 -0.0000
vn -0.4791 -0.2949 0.8268
vn 0.5019 0.8635 0.0491
vn -0.5019 0.8635 0.0491
vn -0.4998 -0.8660 -0.0184
vn 0.9999 0.0012 -0.0147
vn -0.4996 -0.8625 -0.0807
vn -0.5006 0.8577 0.1172
vn 0.5006 0.8577 0.1172
vn 0.4996 -0.8625 -0.0807
vn -1.0000 -0.0000 -0.0000
vn 0.4933 -0.8524 0.1734
vn -0.4933 -0.8524 0.1734
vn 0.9844 -0.0342 0.1724
vn -0.5012 0.8651 0.0184
vn -0.9844 -0.0342 0.1724
vn 0.4791 -0.2949 0.8268
vn -0.0000 0.0157 -0.9999
vn 0.0219 0.0236 -0.9995
vn -0.0219 0.0236 -0.9995
vn 0.4998 -0.8660 -0.0184
vn 0.5012 0.8651 0.0184
vn 0.3810 -0.5530 0.7410
vn -0.9980 -0.0572 0.0266
vn 0.9980 -0.0572 0.0266
vn -0.3810 -0.5530 0.7410
vn -0.0219 0.0237 -0.9995
vn 0.0219 0.0237 -0.9995
vn 0.4534 -0.0448 0.8902
vn -0.9887 -0.0007 0.1496
vn 0.9887 -0.0007 0.1496
vn -0.4534 -0.0448 0.8902
vn -0.0284 -0.1403 0.9897
vn 0.0284 -0.1403 0.9897
vn 0.4685 0.8084 0.3565
vn -0.0568 -0.0913 0.9942
vn 0.0568 -0.0913 0.9942
vn -0.4801 0.8026 0.3540
vn -0.4984 0.8669 -0.0000
vn -0.4984 -0.8669 -0.0000
vn 0.4984 -0.8669 -0.0000
vn 0.4984 0.8669 -0.0000
vn -0.9721 0.0214 -0.2336
vn 0.4936 -0.8367 -0.2372
vn 0.4761 0.8491 -0.2288
vn -0.4761 0.8491 -0.2288
vn -0.4936 -0.8367 -0.2372
vn 0.9721 0.0214 -0.2336
vn 0.0283 -0.0424 0.9987
vn -0.0284 -0.0424 0.9987
vn 0.4801 -0.8026 -0.3540
vn 0.4801 0.8026 0.3540
vn -0.4801 -0.8026 -0.3540
vn -0.4685 0.8084 0.3565
vn -0.0000 -0.0914 0.9958
vn 0.0284 -0.0424 0.9987
vt 0.333333 0.500000
vt 0.166667 0.500000
vt 0.166667 0.500000
vt 0.333333 0.500000
vt 0.833333 0.500000
vt 0.666667 0.500000
vt 0.500000 0.500000
vt 0.333333 0.500000
vt 1.000000 0.500000
vt 0.833333 0.500000
vt -0.000000 0.500000
vt 0.666667 0.500000
vt 0.750000 0.490000
vt 0.957846 0.370000
vt 0.957846 0.130000
vt 0.750000 0.010000
vt 0.542154 0.130000
vt 0.542154 0.370000
vt 0.666667 0.500000
vt 0.957846 0.130000
vt 0.333333 0.500000
s 0
usemtl shoe
f 14/1/1 13/2/1 12/3/1 11/4/1
f 45/7/3 41/8/3 23/1/3 22/7/3
f 18/9/4 17/10/4 8/5/4 7/9/4
f 13/2/5 18/11/5 7/11/5 12/3/5
f 17/10/7 16/6/7 9/6/7 8/5/7
f 2/5/2 3/6/2 16/6/2 17/10/2
f 4/7/8 5/4/8 14/1/8 15/7/8
f 6/3/9 1/11/9 18/11/9 13/2/9
f 1/9/10 2/5/10 17/10/10 18/9/10
f 3/6/11 4/7/11 15/7/11 16/6/11
f 5/4/12 6/3/12 13/2/12 14/1/12
f 24/6/13 22/7/13 20/7/13 19/6/13
f 22/7/14 23/1/14 21/4/14 20/7/14
f 46/12/15 42/6/15 24/6/15 19/6/15
f 41/8/17 44/4/17 21/4/17 23/1/17
f 42/6/18 45/7/18 22/7/18 24/6/18
f 16/6/24 15/7/24 35/7/24 36/6/24
f 14/1/25 11/4/25 10/4/25 34/21/25
f 9/6/26 16/6/26 36/6/26 37/19/26
f 15/7/27 14/1/27 34/21/27 35/7/27
f 36/6/30 35/7/30 45/7/30 42/6/30
f 34/21/31 10/4/31 44/4/31 41/8/31
f 37/19/32 36/6/32 42/6/32 46/12/32
f 35/7/33 34/21/33 41/8/33 45/7/33
f 2/5/34 1/9/34 49/9/34 50/5/34
f 1/11/35 6/3/35 54/3/35 49/11/35
f 3/6/36 51/6/36 70/6/36 67/6/36
f 3/6/37 2/5/37 50/5/37 51/6/37
f 6/3/38 5/4/38 53/4/38 54/3/38
f 51/6/39 52/7/39 71/7/39 70/6/39
f 69/4/50 68/7/50 71/7/50 72/4/50
f 68/7/51 67/6/51 70/6/51 71/7/51
f 4/7/52 3/6/52 67/6/52 68/7/52
f 52/7/53 53/4/53 72/4/53 71/7/53
f 5/4/54 4/7/54 68/7/54 69/4/54
f 53/4/55 5/4/55 69/4/55 72/4/55
f 92/1/7 89/4/7 90/3/7 91/2/7
f 123/7/18 100/7/18 101/1/18 119/8/18
f 96/9/5 85/9/5 86/5/5 95/10/5
f 91/2/4 90/3/4 85/11/4 96/11/4
f 95/10/1 86/5/1 87/6/1 94/6/1
f 80/5/12 95/10/12 94/6/12 81/6/12
f 82/7/11 93/7/11 92/1/11 83/4/11
f 84/3/10 91/2/10 96/11/10 79/11/10
f 79/9/9 96/9/9 95/10/9 80/5/9
f 81/6/8 94/6/8 93/7/8 82/7/8
f 83/4/2 92/1/2 91/2/2 84/3/2
f 102/6/14 97/6/14 98/7/14 100/7/14
f 100/7/13 98/7/13 99/4/13 101/1/13
f 124/12/17 97/6/17 102/6/17 120/6/17
f 119/8/15 101/1/15 99/4/15 122/4/15
f 120/6/3 102/6/3 100/7/3 123/7/3
f 94/6/27 114/6/27 113/7/27 93/7/27
f 92/1/26 112/21/26 88/4/26 89/4/26
f 87/6/25 115/19/25 114/6/25 94/6/25
f 93/7/24 113/7/24 112/21/24 92/1/24
f 114/6/33 120/6/33 123/7/33 113/7/33
f 112/21/32 119/8/32 122/4/32 88/4/32
f 115/19/31 124/12/31 120/6/31 114/6/31
f 113/7/30 123/7/30 119/8/30 112/21/30
f 80/5/35 128/5/35 127/9/35 79/9/35
f 79/11/34 127/11/34 132/3/34 84/3/34
f 81/6/55 145/6/55 148/6/55 129/6/55
f 81/6/38 129/6/38 128/5/38 80/5/38
f 84/3/37 132/3/37 131/4/37 83/4/37
f 129/6/53 148/6/53 149/7/53 130/7/53
f 147/4/51 150/4/51 149/7/51 146/7/51
f 146/7/57 149/7/57 148/6/57 145/6/57
f 82/7/54 146/7/54 145/6/54 81/6/54
f 130/7/39 149/7/39 150/4/39 131/4/39
f 83/4/52 147/4/52 146/7/52 82/7/52
f 131/4/36 150/4/36 147/4/36 83/4/36
usemtl sock
f 8/5/2 9/6/2 27/6/2 26/5/2
f 20/7/6 21/4/6 33/4/6 32/7/6
f 12/3/16 7/11/16 25/11/16 30/3/16
f 25/13/19 26/14/19 27/15/19 28/16/19 29/17/19 30/18/19
f 47/17/20 43/16/20 32/16/20 33/17/20
f 43/16/21 48/15/21 31/15/21 32/16/21
f 11/4/12 12/3/12 30/3/12 29/4/12
f 46/12/2 19/6/2 31/6/2 48/6/2
f 19/6/22 20/7/22 32/7/22 31/6/22
f 7/9/23 8/5/23 26/5/23 25/9/23
f 10/4/12 11/4/12 29/4/12 39/4/12
f 44/4/12 10/4/12 39/4/12 47/4/12
f 9/6/2 37/19/2 40/6/2 27/6/2
f 28/16/21 27/15/21 40/20/21 38/16/21
f 29/17/20 28/16/20 38/16/20 39/17/20
f 21/4/12 44/4/12 47/4/12 33/4/12
f 37/19/2 46/12/2 48/6/2 40/6/2
f 38/16/28 40/20/28 48/15/28 43/16/28
f 39/17/29 38/16/29 43/16/29 47/17/29
f 49/11/40 54/3/40 60/3/40 55/11/40
f 53/4/41 52/7/41 58/7/41 59/4/41
f 51/6/2 50/5/2 56/5/2 57/6/2
f 54/3/12 53/4/12 59/4/12 60/3/12
f 52/7/42 51/6/42 57/6/42 58/7/42
f 50/5/43 49/9/43 55/9/43 56/5/43
f 60/3/44 59/4/44 65/4/44 66/3/44
f 58/7/45 57/6/45 63/6/45 64/7/45
f 56/5/46 55/9/46 61/9/46 62/5/46
f 55/11/47 60/3/47 66/3/47 61/11/47
f 59/4/48 58/7/48 64/7/48 65/4/48
f 57/6/49 56/5/49 62/5/49 63/6/49
f 62/5/56 61/9/56 73/9/56 74/5/56
f 61/11/56 66/3/56 78/3/56 73/11/56
f 65/4/56 64/7/56 76/7/56 77/4/56
f 63/6/56 62/5/56 74/5/56 75/6/56
f 66/3/56 65/4/56 77/4/56 78/3/56
f 64/7/56 63/6/56 75/6/56 76/7/56
f 86/5/12 104/5/12 105/6/12 87/6/12
f 98/7/22 110/7/22 111/4/22 99/4/22
f 90/3/23 108/3/23 103/11/23 85/11/23
f 103/13/19 108/18/19 107/17/19 106/16/19 105/15/19 104/14/19
f 125/17/21 111/17/21 110/16/21 121/16/21
f 121/16/20 110/16/20 109/15/20 126/15/20
f 89/4/2 107/4/2 108/3/2 90/3/2
f 124/12/12 126/6/12 109/6/12 97/6/12
f 97/6/6 109/6/6 110/7/6 98/7/6
f 85/9/16 103/9/16 104/5/16 86/5/16
f 88/4/2 117/4/2 107/4/2 89/4/2
f 122/4/2 125/4/2 117/4/2 88/4/2
f 87/6/12 105/6/12 118/6/12 115/19/12
f 106/16/20 116/16/20 118/20/20 105/15/20
f 107/17/21 117/17/21 116/16/21 106/16/21
f 99/4/2 111/4/2 125/4/2 122/4/2
f 115/19/12 118/6/12 126/6/12 124/12/12
f 116/16/29 121/16/29 126/15/29 118/20/29
f 117/17/28 125/17/28 121/16/28 116/16/28
f 127/11/43 133/11/43 138/3/43 132/3/43
f 131/4/42 137/4/42 136/7/42 130/7/42
f 129/6/12 135/6/12 134/5/12 128/5/12
f 132/3/2 138/3/2 137/4/2 131/4/2
f 130/7/41 136/7/41 135/6/41 129/6/41
f 128/5/40 134/5/40 133/9/40 127/9/40
f 138/3/49 144/3/49 143/4/49 137/4/49
f 136/7/48 142/7/48 141/6/48 135/6/48
f 134/5/47 140/5/47 139/9/47 133/9/47
f 133/11/46 139/11/46 144/3/46 138/3/46
f 137/4/45 143/4/45 142/7/45 136/7/45
f 135/6/44 141/6/44 140/5/44 134/5/44
f 140/5/56 152/5/56 151/9/56 139/9/56
f 139/11/56 151/11/56 156/3/56 144/3/56
f 143/4/56 155/4/56 154/7/56 142/7/56
f 141/6/56 153/6/56 152/5/56 140/5/56
f 144/3/56 156/3/56 155/4/56 143/4/56
f 142/7/56 154/7/56 153/6/56 141/6/56
