# Blender 5.0.0
# www.blender.org
mtllib bob.mtl
o hair5
v 0.589199 -0.825598 11.579271
v 0.582221 0.552832 11.690584
v -0.000000 0.746553 11.840876
v 0.329380 0.680008 11.790815
v 0.656888 0.629452 11.419189
v 0.673636 0.618764 11.015596
v 0.665231 0.502597 10.581944
v 0.682761 0.259623 11.779800
v 0.737509 -0.157877 11.816793
v 0.695261 -0.559312 11.756241
v 0.682098 -0.807062 11.366018
v 0.350033 -0.913434 11.650896
v -0.000000 -1.079272 11.495081
v -0.000000 0.865288 10.514097
v -0.000000 0.971831 11.015818
v -0.000000 0.974050 11.472044
v 0.334014 0.779231 10.551785
v 0.326528 0.881658 11.019501
v 0.333922 0.881046 11.449915
v 0.893074 0.183597 10.999096
v 0.859308 0.254908 11.432833
v 0.972705 -0.121824 10.976846
v 0.934707 -0.182042 11.439285
v 0.835282 -0.654581 10.958531
v 0.874791 -0.601255 11.401758
v 0.366330 0.310720 11.989653
v -0.000000 0.346539 12.061462
v 0.395758 -0.139385 12.048834
v -0.000000 -0.129451 12.127247
v 0.377653 -0.574101 11.968246
v -0.000000 -0.737394 11.945591
v 0.933113 0.063615 11.065051
v 0.579362 -0.686725 11.430183
v 0.653018 -0.643471 11.270842
v 0.401327 -0.753301 11.477909
v -0.000000 -0.908548 11.309795
v 0.806676 -0.024106 10.991678
v 0.842930 -0.228162 10.136766
v 0.722329 -0.596362 9.950141
v 0.665599 0.416603 10.185421
v -0.000000 0.858966 10.068327
v 0.336142 0.761793 10.185568
v 0.757584 -0.646429 10.973362
v 0.722352 -0.220012 10.151599
v 0.626449 -0.588210 9.916082
v 0.899359 0.074953 10.523399
v 0.893074 0.183597 10.999096
v 0.933113 0.063615 11.065051
v 0.832809 -0.141088 10.098251
v 0.738421 0.124990 10.558456
v 0.732136 0.184203 11.034153
v 0.600419 0.258626 10.185421
v 0.772175 0.064220 11.100109
v 0.671871 -0.071788 10.133307
v -0.000000 0.700988 10.068325
v 0.369721 0.603815 10.185568
v 0.567814 0.456739 10.584491
v 0.368754 0.708792 10.542210
v -0.000000 0.724408 10.514635
v -0.589199 -0.825598 11.579271
v -0.582221 0.552832 11.690584
v -0.329380 0.680008 11.790815
v -0.656888 0.629452 11.419189
v -0.673636 0.618764 11.015596
v -0.665231 0.502597 10.581944
v -0.682761 0.259623 11.779800
v -0.737509 -0.157877 11.816793
v -0.695261 -0.559312 11.756241
v -0.682098 -0.807062 11.366018
v -0.350033 -0.913434 11.650896
v -0.334014 0.779231 10.551785
v -0.326528 0.881658 11.019501
v -0.333922 0.881046 11.449915
v -0.893074 0.183597 10.999096
v -0.859308 0.254908 11.432833
v -0.972705 -0.121824 10.976846
v -0.934707 -0.182042 11.439285
v -0.835282 -0.654581 10.958531
v -0.874791 -0.601255 11.401758
v -0.366330 0.310720 11.989653
v -0.395758 -0.139385 12.048834
v -0.377653 -0.574101 11.968246
v -0.933113 0.063615 11.065051
v -0.579362 -0.686725 11.430183
v -0.653018 -0.643471 11.270842
v -0.401327 -0.753301 11.477909
v -0.806676 -0.024106 10.991678
v -0.842930 -0.228162 10.136766
v -0.722329 -0.596362 9.950141
v -0.665599 0.416603 10.185421
v -0.336142 0.761793 10.185568
v -0.757584 -0.646429 10.973362
v -0.722352 -0.220012 10.151599
v -0.626449 -0.588210 9.916082
v -0.899359 0.074953 10.523399
v -0.893074 0.183597 10.999096
v -0.933113 0.063615 11.065051
v -0.832809 -0.141088 10.098251
v -0.738421 0.124990 10.558456
v -0.732136 0.184203 11.034153
v -0.600419 0.258626 10.185421
v -0.772175 0.064220 11.100109
v -0.671871 -0.071788 10.133307
v -0.369721 0.603815 10.185568
v -0.567814 0.456739 10.584491
v -0.368754 0.708792 10.542210
vn 0.5518 -0.1809 0.8141
vn 0.1864 -0.1866 0.9646
vn 0.6038 0.7971 0.0039
vn 0.4878 -0.7080 -0.5107
vn 0.1958 0.1404 0.9705
vn 0.2137 0.4796 0.8511
vn 0.8717 -0.1659 0.4611
vn 0.9817 0.1612 0.1017
vn 0.9872 -0.1467 0.0620
vn 0.6379 0.7407 -0.2108
vn 0.5934 0.7171 0.3657
vn 0.2623 0.8213 0.5066
vn 0.4589 -0.6113 0.6448
vn 0.8928 0.4504 -0.0045
vn 0.2489 -0.6723 0.6972
vn 0.5611 0.1458 0.8148
vn 0.2629 0.9438 -0.2004
vn 0.8823 0.4501 -0.1377
vn 0.8793 0.1584 0.4492
vn 0.7284 -0.6850 0.0175
vn 0.0886 -0.7259 -0.6820
vn 0.5492 0.4099 0.7283
vn 0.6875 -0.6854 0.2399
vn -0.7787 -0.4131 -0.4721
vn 0.8176 0.4547 0.3533
vn 0.9450 0.3263 0.0199
vn 0.9794 0.1706 0.1078
vn -0.7930 -0.4710 -0.3864
vn 0.2662 0.9639 -0.0032
vn 0.6424 0.7656 -0.0327
vn 0.2821 0.9593 -0.0136
vn -0.0505 -0.9898 0.1331
vn -0.3331 -0.4450 0.8313
vn 0.1127 0.9926 0.0447
vn -0.8890 -0.3379 -0.3091
vn -0.9625 0.2442 0.1178
vn -0.0000 -0.0000 1.0000
vn -0.1897 -0.4545 0.8703
vn 0.9937 -0.0760 -0.0820
vn -0.2609 -0.8435 0.4695
vn -0.1837 -0.5199 -0.8342
vn -0.2476 -0.9453 0.2126
vn -0.0006 -0.0001 -1.0000
vn 0.3293 -0.0000 -0.9442
vn -0.1619 0.1195 -0.9795
vn -0.9349 -0.2430 0.2588
vn -0.8140 -0.5441 0.2036
vn -0.2688 -0.9619 0.0505
vn 0.8992 0.3168 -0.3017
vn 0.5466 -0.1746 0.8190
vn 0.0662 -0.2857 0.9560
vn 0.6140 0.7893 -0.0094
vn 0.5450 -0.6166 -0.5681
vn 0.2032 0.1340 0.9699
vn 0.2247 0.4705 0.8533
vn 0.8704 -0.1617 0.4650
vn 0.9672 -0.2476 -0.0564
vn 0.5945 0.7874 -0.1629
vn 0.5362 0.7239 0.4341
vn 0.2437 0.8340 0.4951
vn 0.4262 -0.6362 0.6431
vn 0.8791 0.4760 0.0239
vn 0.1077 -0.7920 0.6010
vn 0.5630 0.1438 0.8139
vn 0.2657 0.9426 -0.2022
vn 0.8669 0.4883 -0.1001
vn 0.8813 0.1551 0.4463
vn 0.0734 -0.7426 -0.6657
vn 0.5146 0.4458 0.7324
vn 0.7076 -0.5644 0.4252
vn 0.8171 0.4050 0.4103
vn 0.2680 0.9634 -0.0047
vn 0.7155 0.6829 -0.1474
vn 0.2540 0.9662 -0.0445
vn -0.4755 -0.8450 0.2448
vn 0.0763 -0.4706 0.8791
vn 0.0682 0.9966 0.0464
vn -0.1710 -0.9000 -0.4010
vn -0.9599 0.2525 0.1221
vn 0.9766 -0.1709 -0.1305
vn -0.1792 -0.8818 0.4362
vn -0.1837 -0.5199 -0.8343
vn 0.0232 -0.9920 0.1238
vn -0.0004 0.0002 -1.0000
vn 0.3177 0.0675 -0.9458
vn -0.2135 0.0881 -0.9730
vn -0.8731 -0.4614 0.1577
vn -0.7869 -0.5926 0.1723
vn -0.0616 -0.9575 0.2817
vn 0.8661 0.4886 -0.1052
vn -0.5518 -0.1809 0.8141
vn -0.1864 -0.1866 0.9646
vn -0.6038 0.7971 0.0039
vn -0.4878 -0.7080 -0.5107
vn -0.1958 0.1404 0.9705
vn -0.2137 0.4796 0.8511
vn -0.8717 -0.1659 0.4611
vn -0.9817 0.1612 0.1017
vn -0.9872 -0.1467 0.0620
vn -0.6379 0.7407 -0.2108
vn -0.5934 0.7171 0.3657
vn -0.2623 0.8213 0.5066
vn -0.4589 -0.6113 0.6448
vn -0.8928 0.4504 -0.0045
vn -0.2489 -0.6723 0.6972
vn -0.5611 0.1458 0.8148
vn -0.2629 0.9438 -0.2004
vn -0.8823 0.4501 -0.1377
vn -0.8793 0.1584 0.4492
vn -0.7284 -0.6850 0.0175
vn -0.0886 -0.7259 -0.6820
vn -0.5492 0.4099 0.7283
vn -0.6875 -0.6854 0.2399
vn 0.7787 -0.4131 -0.4721
vn -0.8176 0.4547 0.3533
vn -0.9450 0.3263 0.0199
vn -0.9794 0.1706 0.1078
vn 0.7930 -0.4710 -0.3864
vn -0.2662 0.9639 -0.0032
vn -0.6424 0.7656 -0.0327
vn -0.2821 0.9593 -0.0136
vn 0.0505 -0.9898 0.1331
vn 0.3331 -0.4450 0.8313
vn -0.1127 0.9926 0.0447
vn 0.8890 -0.3379 -0.3091
vn 0.9625 0.2442 0.1178
vn 0.1897 -0.4545 0.8703
vn -0.9937 -0.0760 -0.0820
vn 0.2609 -0.8435 0.4695
vn 0.1837 -0.5199 -0.8342
vn 0.2476 -0.9453 0.2126
vn 0.0006 -0.0001 -1.0000
vn -0.3293 -0.0000 -0.9442
vn 0.1619 0.1195 -0.9795
vn 0.9349 -0.2430 0.2588
vn 0.8140 -0.5441 0.2036
vn 0.2688 -0.9619 0.0505
vn -0.8992 0.3168 -0.3017
vn -0.5466 -0.1746 0.8190
vn -0.0662 -0.2857 0.9560
vn -0.6140 0.7893 -0.0094
vn -0.5450 -0.6166 -0.5681
vn -0.2032 0.1340 0.9699
vn -0.2247 0.4705 0.8533
vn -0.8704 -0.1617 0.4650
vn -0.9672 -0.2476 -0.0564
vn -0.5945 0.7874 -0.1629
vn -0.5362 0.7239 0.4341
vn -0.2437 0.8340 0.4951
vn -0.4262 -0.6362 0.6431
vn -0.8791 0.4760 0.0239
vn -0.1077 -0.7920 0.6010
vn -0.5630 0.1438 0.8139
vn -0.2657 0.9426 -0.2022
vn -0.8669 0.4883 -0.1001
vn -0.8813 0.1551 0.4463
vn -0.0734 -0.7426 -0.6657
vn -0.5146 0.4458 0.7324
vn -0.7076 -0.5644 0.4252
vn -0.8171 0.4050 0.4103
vn -0.2680 0.9634 -0.0047
vn -0.7155 0.6829 -0.1474
vn -0.2540 0.9662 -0.0445
vn 0.4755 -0.8450 0.2448
vn -0.0763 -0.4706 0.8791
vn -0.0682 0.9966 0.0464
vn 0.1710 -0.9000 -0.4010
vn 0.9599 0.2525 0.1221
vn -0.9766 -0.1709 -0.1305
vn 0.1792 -0.8818 0.4362
vn 0.1837 -0.5199 -0.8343
vn -0.0232 -0.9920 0.1238
vn 0.0004 0.0002 -1.0000
vn -0.3177 0.0675 -0.9458
vn 0.2135 0.0881 -0.9730
vn 0.8731 -0.4614 0.1577
vn 0.7869 -0.5926 0.1723
vn 0.0616 -0.9575 0.2817
vn -0.8661 0.4886 -0.1052
vt 0.625000 0.625000
vt 0.687500 0.687500
vt 0.625000 0.687500
vt 0.750000 0.625000
vt 0.687500 0.625000
vt 0.500000 0.437500
vt 0.562500 0.500000
vt 0.500000 0.500000
vt 0.687500 0.750000
vt 0.750000 0.750000
vt 0.687500 0.562500
vt 0.687500 0.500000
vt 0.750000 0.562500
vt 0.562500 0.625000
vt 0.562500 0.687500
vt 0.500000 0.625000
vt 0.500000 0.593750
vt 0.437500 0.437500
vt 0.437500 0.500000
vt 0.562500 0.437500
vt 0.625000 0.500000
vt 0.625000 0.375000
vt 0.562500 0.375000
vt 0.625000 0.750000
vt 0.562500 0.562500
vt 0.500000 0.562500
vt 0.750000 0.687500
vt 0.625000 0.562500
vt 0.437500 0.375000
vt 0.500000 0.375000
vt 0.562500 0.750000
vt 0.500000 0.687500
vt 0.000000 0.000000
vt 0.437500 0.562500
vt 0.750000 0.500000
vt 0.625000 0.437500
s 0
f 9/1/1 30/2/1 10/3/1
f 29/4/2 30/2/2 28/5/2
f 18/6/3 5/7/3 6/8/3
f 12/9/4 36/10/4 35/9/4
f 26/11/5 29/4/5 28/5/5
f 4/12/6 27/13/6 26/11/6
f 23/14/7 10/3/7 25/15/7
f 23/14/8 22/16/8 32/17/8
f 25/15/9 22/16/9 23/14/9
f 17/18/10 6/8/10 7/19/10
f 19/20/11 2/21/11 5/7/11
f 3/22/12 19/20/12 16/23/12
f 30/2/13 1/24/13 10/3/13
f 6/8/14 21/25/14 20/26/14
f 31/27/15 12/9/15 30/2/15
f 8/28/16 28/5/16 9/1/16
f 18/6/17 14/29/17 15/30/17
f 47/26/18 7/19/18 6/8/18
f 21/25/19 9/1/19 23/14/19
f 25/15/20 11/31/20 24/32/20
f 1/24/21 35/9/21 33/24/21
f 2/21/22 26/11/22 8/28/22
f 25/15/23 1/24/23 11/31/23
f 11/31/24 33/24/24 34/31/24
f 2/21/25 21/25/25 5/7/25
f 32/17/26 20/26/26 21/25/26
f 21/25/27 23/14/27 32/17/27
f 11/31/28 1/24/28 33/24/28
f 15/30/29 19/20/29 18/6/29
f 7/19/30 42/18/30 17/18/30
f 14/29/31 42/18/31 41/29/31
f 22/33/32 44/33/32 38/33/32
f 39/33/33 44/33/33 45/33/33
f 39/33/34 43/33/34 24/33/34
f 43/33/35 11/33/35 34/33/35
f 38/33/36 24/33/36 22/33/36
f 20/26/37 48/17/37 47/26/37
f 48/33/38 37/33/38 22/33/38
f 43/33/39 44/33/39 37/33/39
f 46/34/40 54/34/40 49/34/40
f 47/26/41 53/17/41 51/26/41
f 47/26/42 50/34/42 46/34/42
f 40/19/43 56/18/43 42/18/43
f 42/18/44 55/29/44 41/29/44
f 52/19/45 49/34/45 54/34/45
f 50/34/46 52/19/46 54/34/46
f 57/33/47 56/18/47 52/19/47
f 56/18/48 59/33/48 55/29/48
f 40/19/49 46/34/49 49/34/49
f 9/1/50 28/5/50 30/2/50
f 29/4/51 31/27/51 30/2/51
f 18/6/52 19/20/52 5/7/52
f 12/9/53 13/10/53 36/10/53
f 26/11/54 27/13/54 29/4/54
f 4/12/55 3/35/55 27/13/55
f 23/14/56 9/1/56 10/3/56
f 25/15/57 24/32/57 22/16/57
f 17/18/58 18/6/58 6/8/58
f 19/20/59 4/36/59 2/21/59
f 3/22/60 4/36/60 19/20/60
f 30/2/61 12/9/61 1/24/61
f 6/8/62 5/7/62 21/25/62
f 31/27/63 13/10/63 12/9/63
f 8/28/64 26/11/64 28/5/64
f 18/6/65 17/18/65 14/29/65
f 47/26/66 46/34/66 7/19/66
f 21/25/67 8/28/67 9/1/67
f 1/24/68 12/9/68 35/9/68
f 2/21/69 4/12/69 26/11/69
f 25/15/70 10/3/70 1/24/70
f 2/21/71 8/28/71 21/25/71
f 15/30/72 16/23/72 19/20/72
f 7/19/73 40/19/73 42/18/73
f 14/29/74 17/18/74 42/18/74
f 22/33/75 37/33/75 44/33/75
f 39/33/76 38/33/76 44/33/76
f 39/33/77 45/33/77 43/33/77
f 43/33/78 24/33/78 11/33/78
f 38/33/79 39/33/79 24/33/79
f 20/26/37 32/17/37 48/17/37
f 43/33/80 45/33/80 44/33/80
f 46/34/81 50/34/81 54/34/81
f 47/26/82 48/17/82 53/17/82
f 47/26/83 51/26/83 50/34/83
f 40/19/84 52/19/84 56/18/84
f 42/18/85 56/18/85 55/29/85
f 52/19/86 40/19/86 49/34/86
f 50/34/87 57/33/87 52/19/87
f 57/33/88 58/33/88 56/18/88
f 56/18/89 58/33/89 59/33/89
f 40/19/90 7/19/90 46/34/90
f 67/1/91 68/3/91 82/2/91
f 29/4/92 81/5/92 82/2/92
f 72/6/93 64/8/93 63/7/93
f 70/9/94 86/9/94 36/10/94
f 80/11/95 81/5/95 29/4/95
f 62/12/96 80/11/96 27/13/96
f 77/14/97 79/15/97 68/3/97
f 77/14/98 83/17/98 76/16/98
f 79/15/99 77/14/99 76/16/99
f 71/18/100 65/19/100 64/8/100
f 73/20/101 63/7/101 61/21/101
f 3/22/102 16/23/102 73/20/102
f 82/2/103 68/3/103 60/24/103
f 64/8/104 74/26/104 75/25/104
f 31/27/105 82/2/105 70/9/105
f 66/28/106 67/1/106 81/5/106
f 72/6/107 15/30/107 14/29/107
f 96/26/108 64/8/108 65/19/108
f 75/25/109 77/14/109 67/1/109
f 79/15/110 78/32/110 69/31/110
f 60/24/111 84/24/111 86/9/111
f 61/21/112 66/28/112 80/11/112
f 79/15/113 69/31/113 60/24/113
f 69/31/114 85/31/114 84/24/114
f 61/21/115 63/7/115 75/25/115
f 83/17/116 75/25/116 74/26/116
f 75/25/117 83/17/117 77/14/117
f 69/31/118 84/24/118 60/24/118
f 15/30/119 72/6/119 73/20/119
f 65/19/120 71/18/120 91/18/120
f 14/29/121 41/29/121 91/18/121
f 76/33/122 88/33/122 93/33/122
f 89/33/123 94/33/123 93/33/123
f 89/33/124 78/33/124 92/33/124
f 92/33/125 85/33/125 69/33/125
f 88/33/126 76/33/126 78/33/126
f 74/26/37 96/26/37 97/17/37
f 97/33/127 76/33/127 87/33/127
f 92/33/128 87/33/128 93/33/128
f 95/34/129 98/34/129 103/34/129
f 96/26/130 100/26/130 102/17/130
f 96/26/131 95/34/131 99/34/131
f 90/19/132 91/18/132 104/18/132
f 91/18/133 41/29/133 55/29/133
f 101/19/134 103/34/134 98/34/134
f 99/34/135 103/34/135 101/19/135
f 105/33/136 101/19/136 104/18/136
f 104/18/137 55/29/137 59/33/137
f 90/19/138 98/34/138 95/34/138
f 67/1/139 82/2/139 81/5/139
f 29/4/140 82/2/140 31/27/140
f 72/6/141 63/7/141 73/20/141
f 70/9/142 36/10/142 13/10/142
f 80/11/143 29/4/143 27/13/143
f 62/12/144 27/13/144 3/35/144
f 77/14/145 68/3/145 67/1/145
f 79/15/146 76/16/146 78/32/146
f 71/18/147 64/8/147 72/6/147
f 73/20/148 61/21/148 62/36/148
f 3/22/149 73/20/149 62/36/149
f 82/2/150 60/24/150 70/9/150
f 64/8/151 75/25/151 63/7/151
f 31/27/152 70/9/152 13/10/152
f 66/28/153 81/5/153 80/11/153
f 72/6/154 14/29/154 71/18/154
f 96/26/155 65/19/155 95/34/155
f 75/25/156 67/1/156 66/28/156
f 60/24/157 86/9/157 70/9/157
f 61/21/158 80/11/158 62/12/158
f 79/15/159 60/24/159 68/3/159
f 61/21/160 75/25/160 66/28/160
f 15/30/161 73/20/161 16/23/161
f 65/19/162 91/18/162 90/19/162
f 14/29/163 91/18/163 71/18/163
f 76/33/164 93/33/164 87/33/164
f 89/33/165 93/33/165 88/33/165
f 89/33/166 92/33/166 94/33/166
f 92/33/167 69/33/167 78/33/167
f 88/33/168 78/33/168 89/33/168
f 74/26/37 97/17/37 83/17/37
f 92/33/169 93/33/169 94/33/169
f 95/34/170 103/34/170 99/34/170
f 96/26/171 102/17/171 97/17/171
f 96/26/172 99/34/172 100/26/172
f 90/19/173 104/18/173 101/19/173
f 91/18/174 55/29/174 104/18/174
f 101/19/175 98/34/175 90/19/175
f 99/34/176 101/19/176 105/33/176
f 105/33/177 104/18/177 106/33/177
f 104/18/178 59/33/178 106/33/178
f 90/19/179 95/34/179 65/19/179
l 37 53
l 7 57
l 17 58
l 14 59
l 87 102
l 65 105
l 71 106
