# Blender 5.0.0
# www.blender.org
mtllib bun.mtl
o hair2
v -0.360918 0.513444 11.755375
v -0.360918 0.513444 12.385096
v -0.360918 1.143162 11.755375
v -0.360918 1.143162 12.385093
v 0.268800 0.513444 11.755375
v 0.268800 0.513444 12.385096
v 0.268800 1.143163 11.755375
v 0.268800 1.143162 12.385093
v -0.429915 0.828303 11.686378
v -0.429915 0.444447 12.070237
v -0.429915 0.828303 12.454094
v -0.429915 1.212159 12.070235
v -0.046059 1.212159 11.686378
v -0.046059 1.212159 12.454094
v 0.337797 1.212159 12.070235
v 0.337797 0.828303 11.686378
v 0.337797 0.828303 12.454094
v 0.337797 0.444447 12.070235
v -0.046059 0.444447 11.686378
v -0.046059 0.444447 12.454094
v -0.574711 0.828303 12.070237
v -0.046059 1.356956 12.070237
v 0.482593 0.828303 12.070237
v -0.046059 0.299651 12.070237
v -0.046059 0.828303 11.541582
v -0.046059 0.828303 12.598890
v 0.602592 -0.918286 11.279773
v 0.482535 0.318643 10.296815
v 0.582221 0.552832 11.690582
v 0.223942 0.389414 10.212715
v -0.000000 0.421565 10.199075
v -0.000000 0.746553 11.840877
v 0.329380 0.680007 11.790815
v 0.656888 0.629452 11.419190
v 0.673636 0.618763 11.015597
v 0.595315 0.483084 10.597509
v 0.682761 0.259623 11.779800
v 0.737509 -0.157877 11.816793
v 0.695261 -0.559312 11.756240
v 0.722208 -0.870010 11.151942
v 0.350033 -1.007936 11.433047
v -0.000000 -1.036200 11.548162
v -0.000000 0.763941 10.544969
v -0.000000 0.971831 11.015817
v -0.000000 0.974050 11.472045
v 0.273734 0.697300 10.574154
v 0.326528 0.881657 11.019501
v 0.333922 0.881045 11.449915
v 0.789613 0.127830 10.552174
v 0.893074 0.224362 10.999097
v 0.859308 0.254908 11.432830
v 0.927255 -0.059511 10.976848
v 0.934707 -0.182041 11.439284
v 0.878163 -0.654582 10.958532
v 0.874791 -0.601256 11.401759
v 0.366330 0.310720 11.989652
v -0.000000 0.346539 12.061463
v 0.395758 -0.139385 12.048832
v -0.000000 -0.129450 12.127248
v 0.377653 -0.679845 11.885401
v -0.000000 -0.591088 12.040854
v 0.933113 0.063614 11.065050
v 0.592755 -0.686725 11.130685
v 0.501757 0.180561 10.460433
v 0.305755 0.234202 10.396687
v -0.000000 0.258572 10.386349
v 0.653018 -0.643473 11.056766
v 0.392621 -0.753099 11.290483
v -0.000000 -0.786656 11.430269
v 0.734509 0.035933 10.653981
v 0.812928 0.109101 10.992731
v 0.841935 -0.065994 10.975865
v 0.796929 -0.557102 10.961985
v 0.843276 0.002742 11.034822
v 0.866751 -0.172199 10.712875
v 0.896483 -0.190174 10.939483
v 0.781431 -0.178683 10.711895
v 0.821446 -0.166982 10.942932
v -0.521266 -0.956171 11.397778
v -0.482535 0.318643 10.296815
v -0.582221 0.552832 11.690582
v -0.223942 0.389413 10.212715
v -0.329380 0.680007 11.790815
v -0.656888 0.629452 11.419190
v -0.673636 0.618763 11.015597
v -0.595315 0.483084 10.597509
v -0.682761 0.259623 11.779800
v -0.737509 -0.157877 11.816793
v -0.695261 -0.559313 11.756240
v -0.735719 -0.807062 11.169690
v -0.350033 -0.868893 11.687497
v -0.273734 0.697300 10.574154
v -0.326528 0.881657 11.019501
v -0.333922 0.881045 11.449915
v -0.789613 0.127830 10.552174
v -0.893074 0.224362 10.999097
v -0.859308 0.254908 11.432830
v -0.927255 -0.059511 10.976848
v -0.934707 -0.182041 11.439284
v -0.878163 -0.654582 10.958529
v -0.874791 -0.601256 11.401757
v -0.366330 0.310720 11.989652
v -0.395758 -0.139385 12.048832
v -0.377653 -0.574101 11.968246
v -0.933113 0.063614 11.065050
v -0.494769 -0.686725 11.302685
v -0.501757 0.180561 10.460433
v -0.305755 0.234202 10.396687
v -0.653018 -0.643471 11.074513
v -0.401327 -0.753301 11.514505
v -0.734509 0.035933 10.653981
v -0.812928 0.109101 10.992731
v -0.841935 -0.065994 10.975865
v -0.796929 -0.557102 10.961985
v -0.843276 0.002742 11.034822
v -0.866751 -0.172199 10.712875
v -0.896483 -0.190174 10.939483
v -0.781431 -0.178683 10.711895
v -0.821446 -0.166982 10.942932
vn -0.9004 -0.2717 -0.3397
vn -0.9004 -0.3397 0.2717
vn -0.9004 0.3397 0.2717
vn -0.9004 0.2717 -0.3397
vn -0.2718 0.9004 -0.3397
vn -0.3397 0.9004 0.2717
vn 0.3397 0.9004 0.2718
vn 0.2717 0.9004 -0.3397
vn 0.9004 0.2717 -0.3397
vn 0.9004 0.3397 0.2718
vn 0.9004 -0.3397 0.2717
vn 0.9004 -0.2717 -0.3397
vn 0.2717 -0.9004 -0.3397
vn 0.3397 -0.9004 0.2717
vn -0.3397 -0.9004 0.2718
vn -0.2717 -0.9004 -0.3397
vn -0.3397 0.2717 -0.9004
vn 0.2717 0.3397 -0.9004
vn 0.2717 -0.3397 -0.9004
vn -0.3397 -0.2717 -0.9004
vn 0.3397 0.2718 0.9004
vn -0.2718 0.3397 0.9004
vn -0.2718 -0.3397 0.9004
vn 0.3397 -0.2718 0.9004
vn 0.2569 0.8841 -0.3904
vn 0.2662 0.9639 -0.0032
vn 0.2623 0.8213 0.5066
vn 0.5934 0.7171 0.3657
vn 0.6038 0.7971 0.0039
vn 0.5368 0.7678 -0.3497
vn 0.3887 0.6743 -0.6279
vn 0.1465 0.7430 -0.6531
vn 0.9993 -0.0303 -0.0241
vn 0.9960 -0.0810 -0.0375
vn 0.8218 0.4872 -0.2955
vn 0.8739 0.4848 0.0339
vn 0.8176 0.4547 0.3533
vn 0.8793 0.1584 0.4492
vn 0.8717 -0.1659 0.4611
vn 0.6432 -0.6844 0.3434
vn 0.1958 0.1404 0.9705
vn 0.3069 -0.2849 0.9081
vn 0.5492 0.4099 0.7283
vn 0.2137 0.4796 0.8510
vn 0.2477 -0.7914 0.5589
vn 0.5267 -0.7250 0.4438
vn 0.5457 -0.1809 0.8182
vn 0.5611 0.1458 0.8148
vn 0.8374 -0.5419 0.0716
vn 0.7190 0.4598 -0.5211
vn -0.4324 -0.5010 -0.7497
vn 0.0006 -0.7642 -0.6450
vn 0.9718 -0.1881 -0.1424
vn -0.3941 -0.2976 -0.8696
vn -0.1237 0.5818 -0.8039
vn -0.2686 -0.4357 -0.8591
vn -0.0682 -0.7526 -0.6550
vn 0.0676 -0.7585 -0.6481
vn 0.8209 -0.5671 -0.0676
vn -0.5364 -0.4609 -0.7070
vn 0.4281 -0.2497 -0.8685
vn 0.0753 -0.9965 0.0374
vn -0.0872 -0.0374 -0.9955
vn -0.9341 0.0757 0.3489
vn -0.0658 0.9231 -0.3790
vn -0.2569 0.8841 -0.3904
vn -0.2680 0.9634 -0.0047
vn -0.2623 0.8213 0.5066
vn -0.5362 0.7239 0.4341
vn -0.6140 0.7893 -0.0094
vn -0.5575 0.7416 -0.3731
vn -0.3887 0.6743 -0.6279
vn -0.2407 0.6898 -0.6828
vn -0.9794 0.1706 0.1078
vn -0.9960 -0.0810 -0.0375
vn -0.8258 0.4724 -0.3080
vn -0.8791 0.4760 0.0239
vn -0.8176 0.4547 0.3533
vn -0.8813 0.1551 0.4463
vn -0.8704 -0.1617 0.4650
vn -0.6459 -0.6479 0.4038
vn -0.2032 0.1340 0.9699
vn -0.1868 -0.1807 0.9656
vn -0.5146 0.4458 0.7324
vn -0.2247 0.4705 0.8533
vn -0.1667 -0.6881 0.7062
vn -0.4477 -0.6383 0.6262
vn -0.5466 -0.1746 0.8190
vn -0.5630 0.1438 0.8139
vn -0.7815 -0.6187 0.0804
vn -0.7190 0.4598 -0.5211
vn 0.8633 -0.2623 -0.4312
vn -0.0006 -0.7642 -0.6450
vn -0.8564 -0.0548 -0.5135
vn 0.3889 -0.6022 -0.6972
vn 0.1237 0.5818 -0.8039
vn -0.4913 -0.3721 -0.7875
vn 0.0682 -0.7526 -0.6550
vn -0.0676 -0.7585 -0.6481
vn -0.8209 -0.5671 -0.0676
vn 0.5757 -0.3219 -0.7517
vn -0.4281 -0.2497 -0.8685
vn 0.2966 -0.9543 -0.0368
vn 0.0872 -0.0374 -0.9955
vn 0.9341 0.0757 0.3489
vn 0.0658 0.9231 -0.3790
vn -0.9004 -0.3397 -0.2717
vn -0.9004 -0.2718 0.3397
vn -0.9004 0.2718 0.3397
vn -0.9004 0.3397 -0.2717
vn -0.3397 0.9004 -0.2717
vn -0.2718 0.9004 0.3397
vn 0.2718 0.9004 0.3397
vn 0.3397 0.9004 -0.2717
vn 0.9004 0.3397 -0.2717
vn 0.9004 0.2718 0.3397
vn 0.9004 -0.2718 0.3397
vn 0.9004 -0.3397 -0.2717
vn 0.3397 -0.9004 -0.2717
vn 0.2718 -0.9004 0.3397
vn -0.2718 -0.9004 0.3397
vn -0.3397 -0.9004 -0.2717
vn -0.2717 0.3397 -0.9004
vn 0.3397 0.2717 -0.9004
vn 0.3397 -0.2717 -0.9004
vn -0.2717 -0.3397 -0.9004
vn 0.2718 0.3397 0.9004
vn -0.3397 0.2718 0.9004
vn -0.3397 -0.2718 0.9004
vn 0.2718 -0.3397 0.9004
vn 0.2486 0.8842 -0.3955
vn 0.2680 0.9634 -0.0047
vn 0.2437 0.8340 0.4951
vn 0.5362 0.7239 0.4341
vn 0.6140 0.7893 -0.0094
vn 0.5575 0.7416 -0.3731
vn 0.4895 0.6746 -0.5525
vn 0.2407 0.6898 -0.6828
vn 0.9631 0.2631 0.0565
vn 0.9794 0.1706 0.1078
vn 0.9893 -0.1436 0.0248
vn 0.8258 0.4724 -0.3080
vn 0.8791 0.4760 0.0239
vn 0.8171 0.4050 0.4103
vn 0.8813 0.1551 0.4463
vn 0.8704 -0.1617 0.4650
vn 0.6173 -0.6814 0.3933
vn 0.2032 0.1340 0.9699
vn 0.1868 -0.1807 0.9656
vn 0.5146 0.4458 0.7324
vn 0.2247 0.4705 0.8533
vn 0.1010 -0.7382 0.6669
vn 0.4771 -0.7250 0.4967
vn 0.4494 -0.2723 0.8508
vn 0.5630 0.1438 0.8139
vn -0.3636 -0.4078 -0.8376
vn 0.8564 -0.0548 -0.5135
vn -0.3750 -0.4541 -0.8082
vn -0.0407 0.6510 -0.7580
vn -0.2542 -0.4131 -0.8745
vn -0.0401 -0.7724 -0.6338
vn -0.5498 -0.4686 -0.6915
vn 0.4410 -0.2186 -0.8704
vn -0.2966 -0.9543 -0.0368
vn -0.0597 -0.0449 -0.9972
vn -0.9761 0.1453 0.1617
vn -0.2486 0.8842 -0.3955
vn -0.2662 0.9639 -0.0032
vn -0.2437 0.8340 0.4951
vn -0.5934 0.7171 0.3657
vn -0.6038 0.7971 0.0039
vn -0.5368 0.7678 -0.3497
vn -0.4895 0.6746 -0.5525
vn -0.1465 0.7430 -0.6531
vn -0.9631 0.2631 0.0565
vn -0.9993 -0.0303 -0.0241
vn -0.9893 -0.1436 0.0248
vn -0.8218 0.4872 -0.2955
vn -0.8739 0.4848 0.0339
vn -0.8171 0.4050 0.4103
vn -0.8793 0.1584 0.4492
vn -0.8717 -0.1659 0.4611
vn -0.6932 -0.6927 0.1989
vn -0.1958 0.1404 0.9705
vn -0.1936 -0.1866 0.9632
vn -0.5492 0.4099 0.7283
vn -0.2137 0.4796 0.8510
vn -0.0875 -0.7392 0.6678
vn -0.5150 -0.6878 0.5116
vn -0.5518 -0.1809 0.8141
vn -0.5611 0.1458 0.8148
vn 0.8564 -0.2447 -0.4547
vn -0.9718 -0.1881 -0.1424
vn 0.4438 -0.3405 -0.8289
vn 0.0407 0.6510 -0.7580
vn -0.1770 -0.8418 -0.5100
vn 0.0401 -0.7724 -0.6338
vn 0.5943 -0.6072 -0.5273
vn -0.4410 -0.2186 -0.8705
vn -0.0753 -0.9965 0.0374
vn 0.0597 -0.0449 -0.9972
vn 0.9761 0.1453 0.1617
vt 0.375000 0.000000
vt 0.500000 0.125000
vt 0.375000 0.125000
vt 0.625000 0.000000
vt 0.500000 0.000000
vt 0.625000 0.250000
vt 0.500000 0.250000
vt 0.375000 0.250000
vt 0.500000 0.375000
vt 0.375000 0.375000
vt 0.625000 0.500000
vt 0.500000 0.500000
vt 0.375000 0.500000
vt 0.500000 0.625000
vt 0.375000 0.625000
vt 0.625000 0.750000
vt 0.500000 0.750000
vt 0.375000 0.750000
vt 0.500000 0.875000
vt 0.375000 0.875000
vt 0.625000 1.000000
vt 0.500000 1.000000
vt 0.375000 1.000000
vt 0.125000 0.500000
vt 0.250000 0.625000
vt 0.125000 0.625000
vt 0.250000 0.500000
vt 0.250000 0.750000
vt 0.125000 0.750000
vt 0.750000 0.625000
vt 0.625000 0.625000
vt 0.875000 0.500000
vt 0.750000 0.500000
vt 0.875000 0.750000
vt 0.750000 0.750000
vt 0.437500 0.437500
vt 0.437500 0.375000
vt 0.562500 0.437500
vt 0.500000 0.437500
vt 0.625000 0.375000
vt 0.562500 0.375000
vt 0.562500 0.500000
vt 0.437500 0.500000
vt 0.375000 0.437500
vt 0.562500 0.625000
vt 0.500000 0.593750
vt 0.500000 0.687500
vt 0.500000 0.562500
vt 0.437500 0.562500
vt 0.562500 0.562500
vt 0.625000 0.687500
vt 0.562500 0.687500
vt 0.562500 0.750000
vt 0.687500 0.562500
vt 0.687500 0.625000
vt 0.750000 0.687500
vt 0.687500 0.687500
vt 0.625000 0.562500
vt 0.687500 0.500000
vt 0.750000 0.562500
vt 0.687500 0.750000
vt 0.000000 0.000000
vt 0.625000 0.437500
vt 0.625000 0.125000
vt 0.625000 0.875000
vt 0.875000 0.625000
s 0
f 1/1/1 21/2/1 9/3/1
f 2/4/2 21/2/2 10/5/2
f 21/2/3 4/6/3 12/7/3
f 21/2/4 3/8/4 9/3/4
f 3/8/5 22/9/5 13/10/5
f 4/6/6 22/9/6 12/7/6
f 22/9/7 8/11/7 15/12/7
f 22/9/8 7/13/8 13/10/8
f 7/13/9 23/14/9 16/15/9
f 8/11/10 23/14/10 15/12/10
f 23/14/11 6/16/11 18/17/11
f 23/14/12 5/18/12 16/15/12
f 5/18/13 24/19/13 19/20/13
f 6/16/14 24/19/14 18/17/14
f 24/19/15 2/21/15 10/22/15
f 24/19/16 1/23/16 19/20/16
f 3/24/17 25/25/17 9/26/17
f 7/13/18 25/25/18 13/27/18
f 25/25/19 5/18/19 19/28/19
f 25/25/20 1/29/20 9/26/20
f 8/11/21 26/30/21 17/31/21
f 4/32/22 26/30/22 14/33/22
f 26/30/23 2/34/23 20/35/23
f 26/30/24 6/16/24 17/31/24
f 44/9/25 46/36/25 43/37/25
f 44/9/26 48/38/26 47/39/26
f 32/40/27 48/38/27 45/41/27
f 48/38/28 29/11/28 34/42/28
f 47/39/29 34/42/29 35/12/29
f 46/36/30 35/12/30 36/43/30
f 46/36/31 28/13/31 30/44/31
f 31/10/32 46/36/32 30/44/32
f 53/45/33 52/14/33 62/46/33
f 53/45/34 54/47/34 52/14/34
f 36/43/35 50/48/35 49/49/35
f 35/12/36 51/50/36 50/48/36
f 29/11/37 51/50/37 34/42/37
f 51/50/38 38/31/38 53/45/38
f 53/45/39 39/51/39 55/52/39
f 55/52/40 27/16/40 40/53/40
f 56/54/41 59/30/41 58/55/41
f 58/55/42 61/56/42 60/57/42
f 29/11/43 56/54/43 37/58/43
f 33/59/44 57/60/44 56/54/44
f 60/57/45 42/35/45 41/61/45
f 39/51/46 41/61/46 27/16/46
f 58/55/47 39/51/47 38/31/47
f 37/58/48 58/55/48 38/31/48
f 55/52/49 40/53/49 54/47/49
f 28/13/50 36/43/50 49/49/50
f 27/16/51 68/61/51 63/16/51
f 28/13/52 65/44/52 30/44/52
f 52/14/53 76/47/53 75/14/53
f 54/47/54 67/53/54 73/47/54
f 52/14/55 74/46/55 62/46/55
f 41/61/56 69/35/56 68/61/56
f 30/44/57 66/10/57 31/10/57
f 49/49/58 64/13/58 28/13/58
f 50/48/59 70/49/59 49/49/59
f 40/53/60 63/16/60 67/53/60
f 62/46/61 71/48/61 50/48/61
f 75/14/62 78/47/62 77/14/62
f 73/47/63 76/47/63 54/47/63
f 72/62/64 78/62/64 73/62/64
f 72/14/65 75/14/65 77/14/65
f 92/36/66 44/9/66 43/37/66
f 44/9/67 94/38/67 45/41/67
f 94/38/68 32/40/68 45/41/68
f 94/38/69 81/11/69 83/63/69
f 93/39/70 84/42/70 94/38/70
f 92/36/71 85/12/71 93/39/71
f 80/13/72 92/36/72 82/44/72
f 31/10/73 92/36/73 43/37/73
f 105/46/74 99/45/74 97/50/74
f 100/47/75 99/45/75 98/14/75
f 86/43/76 96/48/76 85/12/76
f 85/12/77 97/50/77 84/42/77
f 97/50/78 81/11/78 84/42/78
f 97/50/79 88/31/79 87/58/79
f 99/45/80 89/51/80 88/31/80
f 101/52/81 79/16/81 89/51/81
f 102/54/82 59/30/82 57/60/82
f 103/55/83 61/56/83 59/30/83
f 81/11/84 102/54/84 83/59/84
f 83/59/85 57/60/85 32/33/85
f 91/61/86 61/56/86 104/57/86
f 89/51/87 91/61/87 104/57/87
f 88/31/88 104/57/88 103/55/88
f 87/58/89 103/55/89 102/54/89
f 101/52/90 100/47/90 90/53/90
f 80/13/91 95/49/91 86/43/91
f 79/16/92 110/61/92 91/61/92
f 108/44/93 80/13/93 82/44/93
f 98/14/94 117/47/94 100/47/94
f 100/47/95 109/53/95 90/53/95
f 115/46/96 98/14/96 105/46/96
f 91/61/97 69/35/97 42/35/97
f 66/10/98 82/44/98 31/10/98
f 107/13/99 95/49/99 80/13/99
f 111/49/100 96/48/100 95/49/100
f 90/53/101 106/16/101 79/16/101
f 112/48/102 105/46/102 96/48/102
f 116/14/103 119/47/103 117/47/103
f 117/47/104 114/47/104 100/47/104
f 119/62/105 113/62/105 114/62/105
f 113/14/106 116/14/106 98/14/106
f 1/1/107 10/5/107 21/2/107
f 2/4/108 11/64/108 21/2/108
f 21/2/109 11/64/109 4/6/109
f 21/2/110 12/7/110 3/8/110
f 3/8/111 12/7/111 22/9/111
f 4/6/112 14/40/112 22/9/112
f 22/9/113 14/40/113 8/11/113
f 22/9/114 15/12/114 7/13/114
f 7/13/115 15/12/115 23/14/115
f 8/11/116 17/31/116 23/14/116
f 23/14/117 17/31/117 6/16/117
f 23/14/118 18/17/118 5/18/118
f 5/18/119 18/17/119 24/19/119
f 6/16/120 20/65/120 24/19/120
f 24/19/121 20/65/121 2/21/121
f 24/19/122 10/22/122 1/23/122
f 3/24/123 13/27/123 25/25/123
f 7/13/124 16/15/124 25/25/124
f 25/25/125 16/15/125 5/18/125
f 25/25/126 19/28/126 1/29/126
f 8/11/127 14/33/127 26/30/127
f 4/32/128 11/66/128 26/30/128
f 26/30/129 11/66/129 2/34/129
f 26/30/130 20/35/130 6/16/130
f 44/9/131 47/39/131 46/36/131
f 44/9/132 45/41/132 48/38/132
f 32/40/133 33/63/133 48/38/133
f 48/38/134 33/63/134 29/11/134
f 47/39/135 48/38/135 34/42/135
f 46/36/136 47/39/136 35/12/136
f 46/36/137 36/43/137 28/13/137
f 31/10/138 43/37/138 46/36/138
f 62/46/139 50/48/139 51/50/139
f 51/50/140 53/45/140 62/46/140
f 53/45/141 55/52/141 54/47/141
f 36/43/142 35/12/142 50/48/142
f 35/12/143 34/42/143 51/50/143
f 29/11/144 37/58/144 51/50/144
f 51/50/145 37/58/145 38/31/145
f 53/45/146 38/31/146 39/51/146
f 55/52/147 39/51/147 27/16/147
f 56/54/148 57/60/148 59/30/148
f 58/55/149 59/30/149 61/56/149
f 29/11/150 33/59/150 56/54/150
f 33/59/151 32/33/151 57/60/151
f 60/57/152 61/56/152 42/35/152
f 39/51/153 60/57/153 41/61/153
f 58/55/154 60/57/154 39/51/154
f 37/58/155 56/54/155 58/55/155
f 27/16/156 41/61/156 68/61/156
f 28/13/52 64/13/52 65/44/52
f 52/14/157 54/47/157 76/47/157
f 54/47/158 40/53/158 67/53/158
f 52/14/159 72/14/159 74/46/159
f 41/61/160 42/35/160 69/35/160
f 30/44/161 65/44/161 66/10/161
f 49/49/58 70/49/58 64/13/58
f 50/48/59 71/48/59 70/49/59
f 40/53/162 27/16/162 63/16/162
f 62/46/163 74/46/163 71/48/163
f 75/14/164 76/47/164 78/47/164
f 73/47/165 78/47/165 76/47/165
f 72/62/166 77/62/166 78/62/166
f 72/14/65 52/14/65 75/14/65
f 92/36/167 93/39/167 44/9/167
f 44/9/168 93/39/168 94/38/168
f 94/38/169 83/63/169 32/40/169
f 94/38/170 84/42/170 81/11/170
f 93/39/171 85/12/171 84/42/171
f 92/36/172 86/43/172 85/12/172
f 80/13/173 86/43/173 92/36/173
f 31/10/174 82/44/174 92/36/174
f 97/50/175 96/48/175 105/46/175
f 105/46/176 98/14/176 99/45/176
f 100/47/177 101/52/177 99/45/177
f 86/43/178 95/49/178 96/48/178
f 85/12/179 96/48/179 97/50/179
f 97/50/180 87/58/180 81/11/180
f 97/50/181 99/45/181 88/31/181
f 99/45/182 101/52/182 89/51/182
f 101/52/183 90/53/183 79/16/183
f 102/54/184 103/55/184 59/30/184
f 103/55/185 104/57/185 61/56/185
f 81/11/186 87/58/186 102/54/186
f 83/59/187 102/54/187 57/60/187
f 91/61/188 42/35/188 61/56/188
f 89/51/189 79/16/189 91/61/189
f 88/31/190 89/51/190 104/57/190
f 87/58/191 88/31/191 103/55/191
f 79/16/192 106/16/192 110/61/192
f 108/44/93 107/13/93 80/13/93
f 98/14/193 116/14/193 117/47/193
f 100/47/194 114/47/194 109/53/194
f 115/46/195 113/14/195 98/14/195
f 91/61/196 110/61/196 69/35/196
f 66/10/197 108/44/197 82/44/197
f 107/13/99 111/49/99 95/49/99
f 111/49/100 112/48/100 96/48/100
f 90/53/198 109/53/198 106/16/198
f 112/48/199 115/46/199 105/46/199
f 116/14/200 118/14/200 119/47/200
f 117/47/201 119/47/201 114/47/201
f 119/62/202 118/62/202 113/62/202
f 113/14/106 118/14/106 116/14/106
