# Blender 5.0.0
# www.blender.org
mtllib pigtails.mtl
o hair4
v 0.816314 0.888801 10.021505
v 0.557247 0.688818 11.388646
v 0.996005 1.014892 10.109495
v 1.124750 1.131620 11.317898
v 1.156101 0.478257 10.015539
v 0.897313 0.277649 11.387252
v 1.336331 0.603941 10.109283
v 1.464803 0.720498 11.317473
v 0.822072 0.954922 9.849051
v 0.813257 0.974369 10.759820
v 0.824295 0.973338 11.467348
v 1.208159 1.270220 10.703300
v 1.307193 0.922217 9.942139
v 1.339770 0.961305 11.425491
v 1.622590 0.769523 10.702711
v 1.236912 0.453920 9.845996
v 1.238967 0.471904 11.466471
v 1.227093 0.474167 10.753697
v 0.963059 0.664695 9.845341
v 0.655574 0.430058 11.510287
v 0.830578 1.131995 10.720414
v 1.526335 1.106828 10.684086
v 1.400947 0.442769 10.715862
v 0.906052 0.638023 10.752812
v 1.285693 0.906889 9.496396
v 1.011936 0.710495 11.679243
v -0.816315 0.888800 10.021507
v -0.557247 0.688817 11.388646
v -0.996006 1.014891 10.109495
v -1.124750 1.131618 11.317898
v -1.156101 0.478256 10.015540
v -0.897313 0.277648 11.387254
v -1.336331 0.603940 10.109284
v -1.464803 0.720498 11.317473
v -0.822072 0.954921 9.849052
v -0.813258 0.974369 10.759822
v -0.824295 0.973338 11.467351
v -1.208160 1.270220 10.703300
v -1.307193 0.922217 9.942140
v -1.339770 0.961304 11.425491
v -1.622590 0.769522 10.702714
v -1.236912 0.453919 9.845998
v -1.238967 0.471903 11.466471
v -1.227093 0.474166 10.753699
v -0.963059 0.664693 9.845341
v -0.655574 0.430058 11.510290
v -0.830579 1.131994 10.720416
v -1.526335 1.106827 10.684086
v -1.400948 0.442767 10.715862
v -0.906052 0.638022 10.752815
v -1.285693 0.906889 9.496397
v -1.011937 0.710494 11.679243
v 0.602592 -0.918286 11.279773
v 0.482535 0.318643 10.296815
v 0.582221 0.552832 11.690582
v 0.223942 0.389414 10.212715
v -0.000000 0.421565 10.199075
v -0.000000 0.746553 11.840877
v 0.329380 0.680007 11.790815
v 0.656888 0.629452 11.419190
v 0.673636 0.618763 11.015597
v 0.595315 0.483084 10.597509
v 0.682761 0.259623 11.779800
v 0.737509 -0.157877 11.816793
v 0.695261 -0.559312 11.756240
v 0.722208 -0.870010 11.151942
v 0.350033 -1.007936 11.433047
v -0.000000 -1.036200 11.548162
v -0.000000 0.763941 10.544969
v -0.000000 0.971831 11.015817
v -0.000000 0.974050 11.472045
v 0.273734 0.697300 10.574154
v 0.326528 0.881657 11.019501
v 0.333922 0.881045 11.449915
v 0.789613 0.127830 10.552174
v 0.893074 0.224362 10.999097
v 0.859308 0.254908 11.432830
v 0.927255 -0.059511 10.976848
v 0.934707 -0.182041 11.439284
v 0.878163 -0.654582 10.958532
v 0.874791 -0.601256 11.401759
v 0.366330 0.310720 11.989652
v -0.000000 0.346539 12.061463
v 0.395758 -0.139385 12.048832
v -0.000000 -0.129450 12.127248
v 0.377653 -0.679845 11.885401
v -0.000000 -0.591088 12.040854
v 0.933113 0.063614 11.065050
v 0.592755 -0.686725 11.130685
v 0.501757 0.180561 10.460433
v 0.305755 0.234202 10.396687
v -0.000000 0.258572 10.386349
v 0.653018 -0.643473 11.056766
v 0.392621 -0.753099 11.290483
v -0.000000 -0.786656 11.430269
v 0.734509 0.035933 10.653981
v 0.812928 0.109101 10.992731
v 0.841935 -0.065994 10.975865
v 0.796929 -0.557102 10.961985
v 0.843276 0.002742 11.034822
v 0.866751 -0.172199 10.712875
v 0.896483 -0.190174 10.939483
v 0.781431 -0.178683 10.711895
v 0.821446 -0.166982 10.942932
v -0.521266 -0.956171 11.397778
v -0.482535 0.318643 10.296815
v -0.582221 0.552832 11.690582
v -0.223942 0.389413 10.212715
v -0.329380 0.680007 11.790815
v -0.656888 0.629452 11.419190
v -0.673636 0.618763 11.015597
v -0.595315 0.483084 10.597509
v -0.682761 0.259623 11.779800
v -0.737509 -0.157877 11.816793
v -0.695261 -0.559313 11.756240
v -0.735719 -0.807062 11.169690
v -0.350033 -0.868893 11.687497
v -0.273734 0.697300 10.574154
v -0.326528 0.881657 11.019501
v -0.333922 0.881045 11.449915
v -0.789613 0.127830 10.552174
v -0.893074 0.224362 10.999097
v -0.859308 0.254908 11.432830
v -0.927255 -0.059511 10.976848
v -0.934707 -0.182041 11.439284
v -0.878163 -0.654582 10.958529
v -0.874791 -0.601256 11.401757
v -0.366330 0.310720 11.989652
v -0.395758 -0.139385 12.048832
v -0.377653 -0.574101 11.968246
v -0.933113 0.063614 11.065050
v -0.494769 -0.686725 11.302685
v -0.501757 0.180561 10.460433
v -0.305755 0.234202 10.396687
v -0.653018 -0.643471 11.074513
v -0.401327 -0.753301 11.514505
v -0.734509 0.035933 10.653981
v -0.812928 0.109101 10.992731
v -0.841935 -0.065994 10.975865
v -0.796929 -0.557102 10.961985
v -0.843276 0.002742 11.034822
v -0.866751 -0.172199 10.712875
v -0.896483 -0.190174 10.939483
v -0.781431 -0.178683 10.711895
v -0.821446 -0.166982 10.942932
vn -0.9973 0.0734 -0.0052
vn -0.9935 0.1131 0.0157
vn -0.3325 0.9287 0.1643
vn -0.0402 0.9793 -0.1986
vn 0.1347 0.9515 -0.2765
vn 0.4539 0.8540 0.2542
vn 0.9248 0.2782 0.2595
vn 0.9612 -0.0540 -0.2705
vn 0.9356 -0.3036 -0.1803
vn 0.8191 -0.5489 0.1665
vn -0.1778 -0.9841 -0.0002
vn -0.2287 -0.9730 0.0307
vn -0.6637 -0.7453 -0.0636
vn -0.4036 -0.7932 -0.4561
vn -0.8612 -0.2281 -0.4542
vn -0.8586 -0.5081 -0.0689
vn 0.1212 0.9466 -0.2989
vn 0.9893 -0.1397 -0.0429
vn -0.4065 -0.5304 -0.7440
vn -0.8835 -0.4267 -0.1931
vn 0.5908 -0.0543 0.8050
vn 0.0762 0.6582 0.7490
vn -0.5355 0.1840 0.8242
vn 0.1433 -0.5793 0.8024
vn 0.9943 0.1052 -0.0163
vn 0.7308 0.6825 0.0124
vn 0.3825 0.9044 0.1889
vn 0.0403 0.9793 -0.1986
vn -0.3787 0.7935 -0.4765
vn -0.4539 0.8540 0.2542
vn -0.8962 0.3347 0.2912
vn -0.9612 -0.0540 -0.2705
vn -0.8006 -0.5524 -0.2321
vn -0.8191 -0.5489 0.1665
vn 0.1778 -0.9841 -0.0002
vn 0.2287 -0.9730 0.0307
vn 0.4543 -0.8900 0.0388
vn 0.4036 -0.7932 -0.4561
vn 0.7839 -0.4819 -0.3915
vn 0.8586 -0.5081 -0.0689
vn -0.1212 0.9466 -0.2989
vn -0.9465 -0.0778 -0.3131
vn 0.4064 -0.5304 -0.7440
vn 0.5992 -0.2815 -0.7494
vn -0.5908 -0.0543 0.8050
vn -0.0786 0.6015 0.7950
vn 0.5274 0.2723 0.8048
vn -0.1433 -0.5793 0.8024
vn 0.2569 0.8841 -0.3904
vn 0.2662 0.9639 -0.0032
vn 0.2623 0.8213 0.5066
vn 0.5934 0.7171 0.3657
vn 0.6038 0.7971 0.0039
vn 0.5368 0.7678 -0.3497
vn 0.3887 0.6743 -0.6279
vn 0.1465 0.7430 -0.6531
vn 0.9993 -0.0303 -0.0241
vn 0.9960 -0.0810 -0.0375
vn 0.8218 0.4872 -0.2955
vn 0.8739 0.4848 0.0339
vn 0.8176 0.4547 0.3533
vn 0.8793 0.1584 0.4492
vn 0.8717 -0.1659 0.4611
vn 0.6432 -0.6844 0.3434
vn 0.1958 0.1404 0.9705
vn 0.3069 -0.2849 0.9081
vn 0.5492 0.4099 0.7283
vn 0.2137 0.4796 0.8510
vn 0.2477 -0.7914 0.5589
vn 0.5267 -0.7250 0.4438
vn 0.5457 -0.1809 0.8182
vn 0.5611 0.1458 0.8148
vn 0.8374 -0.5419 0.0716
vn 0.7190 0.4598 -0.5211
vn -0.4324 -0.5010 -0.7497
vn 0.0006 -0.7642 -0.6450
vn 0.9718 -0.1881 -0.1424
vn -0.3941 -0.2976 -0.8696
vn -0.1237 0.5818 -0.8039
vn -0.2686 -0.4357 -0.8591
vn -0.0682 -0.7526 -0.6550
vn 0.0676 -0.7585 -0.6481
vn 0.8209 -0.5671 -0.0676
vn -0.5364 -0.4609 -0.7070
vn 0.4281 -0.2497 -0.8685
vn 0.0753 -0.9965 0.0374
vn -0.0872 -0.0374 -0.9955
vn -0.9341 0.0757 0.3489
vn -0.0658 0.9231 -0.3790
vn -0.2569 0.8841 -0.3904
vn -0.2680 0.9634 -0.0047
vn -0.2623 0.8213 0.5066
vn -0.5362 0.7239 0.4341
vn -0.6140 0.7893 -0.0094
vn -0.5575 0.7416 -0.3731
vn -0.3887 0.6743 -0.6279
vn -0.2407 0.6898 -0.6828
vn -0.9794 0.1706 0.1078
vn -0.9960 -0.0810 -0.0375
vn -0.8258 0.4724 -0.3080
vn -0.8791 0.4760 0.0239
vn -0.8176 0.4547 0.3533
vn -0.8813 0.1551 0.4463
vn -0.8704 -0.1617 0.4650
vn -0.6459 -0.6479 0.4038
vn -0.2032 0.1340 0.9699
vn -0.1868 -0.1807 0.9656
vn -0.5146 0.4458 0.7324
vn -0.2247 0.4705 0.8533
vn -0.1667 -0.6881 0.7062
vn -0.4477 -0.6383 0.6262
vn -0.5466 -0.1746 0.8190
vn -0.5630 0.1438 0.8139
vn -0.7815 -0.6187 0.0804
vn -0.7190 0.4598 -0.5211
vn 0.8633 -0.2623 -0.4312
vn -0.0006 -0.7642 -0.6450
vn -0.8564 -0.0548 -0.5135
vn 0.3889 -0.6022 -0.6972
vn 0.1237 0.5818 -0.8039
vn -0.4913 -0.3721 -0.7875
vn 0.0682 -0.7526 -0.6550
vn -0.0676 -0.7585 -0.6481
vn -0.8209 -0.5671 -0.0676
vn 0.5757 -0.3219 -0.7517
vn -0.4281 -0.2497 -0.8685
vn 0.2966 -0.9543 -0.0368
vn 0.0872 -0.0374 -0.9955
vn 0.9341 0.0757 0.3489
vn 0.0658 0.9231 -0.3790
vn -0.9943 0.1052 -0.0163
vn -0.7308 0.6825 0.0124
vn -0.3825 0.9044 0.1889
vn -0.3420 0.9014 -0.2654
vn 0.3787 0.7935 -0.4765
vn 0.5026 0.8156 0.2866
vn 0.8962 0.3347 0.2912
vn 0.8540 0.2176 -0.4727
vn 0.8006 -0.5524 -0.2321
vn 0.7809 -0.5946 0.1916
vn 0.4962 -0.8682 -0.0110
vn -0.1753 -0.9844 0.0114
vn -0.4543 -0.8900 0.0388
vn -0.6251 -0.6750 -0.3920
vn -0.7839 -0.4819 -0.3915
vn -0.9635 -0.2664 0.0269
vn 0.0744 0.9965 -0.0379
vn 0.9465 -0.0778 -0.3131
vn -0.6003 -0.7806 -0.1741
vn -0.5992 -0.2815 -0.7494
vn 0.6429 -0.0685 0.7629
vn 0.0786 0.6015 0.7950
vn -0.5274 0.2723 0.8048
vn 0.0588 -0.5689 0.8203
vn 0.9973 0.0734 -0.0052
vn 0.9935 0.1131 0.0157
vn 0.3325 0.9287 0.1643
vn 0.3420 0.9014 -0.2654
vn -0.1347 0.9515 -0.2765
vn -0.5026 0.8156 0.2866
vn -0.9248 0.2782 0.2595
vn -0.8540 0.2176 -0.4726
vn -0.9356 -0.3036 -0.1803
vn -0.7809 -0.5946 0.1916
vn -0.4962 -0.8682 -0.0110
vn 0.1753 -0.9844 0.0114
vn 0.6637 -0.7453 -0.0636
vn 0.6251 -0.6750 -0.3920
vn 0.8612 -0.2281 -0.4542
vn 0.9635 -0.2664 0.0269
vn -0.0744 0.9965 -0.0379
vn -0.9893 -0.1397 -0.0429
vn 0.6003 -0.7806 -0.1741
vn 0.8835 -0.4267 -0.1931
vn -0.6429 -0.0685 0.7629
vn -0.0762 0.6582 0.7490
vn 0.5355 0.1840 0.8242
vn -0.0588 -0.5689 0.8203
vn 0.2486 0.8842 -0.3955
vn 0.2680 0.9634 -0.0047
vn 0.2437 0.8340 0.4951
vn 0.5362 0.7239 0.4341
vn 0.6140 0.7893 -0.0094
vn 0.5575 0.7416 -0.3731
vn 0.4895 0.6746 -0.5525
vn 0.2407 0.6898 -0.6828
vn 0.9631 0.2631 0.0565
vn 0.9794 0.1706 0.1078
vn 0.9893 -0.1436 0.0248
vn 0.8258 0.4724 -0.3080
vn 0.8791 0.4760 0.0239
vn 0.8171 0.4050 0.4103
vn 0.8813 0.1551 0.4463
vn 0.8704 -0.1617 0.4650
vn 0.6173 -0.6814 0.3933
vn 0.2032 0.1340 0.9699
vn 0.1868 -0.1807 0.9656
vn 0.5146 0.4458 0.7324
vn 0.2247 0.4705 0.8533
vn 0.1010 -0.7382 0.6669
vn 0.4771 -0.7250 0.4967
vn 0.4494 -0.2723 0.8508
vn 0.5630 0.1438 0.8139
vn -0.3636 -0.4078 -0.8376
vn 0.8564 -0.0548 -0.5135
vn -0.3750 -0.4541 -0.8082
vn -0.0407 0.6510 -0.7580
vn -0.2542 -0.4131 -0.8745
vn -0.0401 -0.7724 -0.6338
vn -0.5498 -0.4686 -0.6915
vn 0.4410 -0.2186 -0.8704
vn -0.2966 -0.9543 -0.0368
vn -0.0597 -0.0449 -0.9972
vn -0.9761 0.1453 0.1617
vn -0.2486 0.8842 -0.3955
vn -0.2662 0.9639 -0.0032
vn -0.2437 0.8340 0.4951
vn -0.5934 0.7171 0.3657
vn -0.6038 0.7971 0.0039
vn -0.5368 0.7678 -0.3497
vn -0.4895 0.6746 -0.5525
vn -0.1465 0.7430 -0.6531
vn -0.9631 0.2631 0.0565
vn -0.9993 -0.0303 -0.0241
vn -0.9893 -0.1436 0.0248
vn -0.8218 0.4872 -0.2955
vn -0.8739 0.4848 0.0339
vn -0.8171 0.4050 0.4103
vn -0.8793 0.1584 0.4492
vn -0.8717 -0.1659 0.4611
vn -0.6932 -0.6927 0.1989
vn -0.1958 0.1404 0.9705
vn -0.1936 -0.1866 0.9632
vn -0.5492 0.4099 0.7283
vn -0.2137 0.4796 0.8510
vn -0.0875 -0.7392 0.6678
vn -0.5150 -0.6878 0.5116
vn -0.5518 -0.1809 0.8141
vn -0.5611 0.1458 0.8148
vn 0.8564 -0.2447 -0.4547
vn -0.9718 -0.1881 -0.1424
vn 0.4438 -0.3405 -0.8289
vn 0.0407 0.6510 -0.7580
vn -0.1770 -0.8418 -0.5100
vn 0.0401 -0.7724 -0.6338
vn 0.5943 -0.6072 -0.5273
vn -0.4410 -0.2186 -0.8705
vn -0.0753 -0.9965 0.0374
vn 0.0597 -0.0449 -0.9972
vn 0.9761 0.1453 0.1617
vt 0.375000 0.000000
vt 0.500000 0.125000
vt 0.375000 0.125000
vt 0.500000 0.000000
vt 0.625000 0.125000
vt 0.625000 0.250000
vt 0.500000 0.250000
vt 0.375000 0.250000
vt 0.500000 0.375000
vt 0.375000 0.375000
vt 0.625000 0.500000
vt 0.500000 0.500000
vt 0.375000 0.500000
vt 0.500000 0.625000
vt 0.375000 0.625000
vt 0.625000 0.625000
vt 0.500000 0.750000
vt 0.375000 0.750000
vt 0.500000 0.875000
vt 0.375000 0.875000
vt 0.625000 0.750000
vt 0.625000 1.000000
vt 0.500000 1.000000
vt 0.375000 1.000000
vt 0.250000 0.500000
vt 0.125000 0.625000
vt 0.125000 0.500000
vt 0.250000 0.625000
vt 0.250000 0.750000
vt 0.125000 0.750000
vt 0.750000 0.500000
vt 0.875000 0.625000
vt 0.750000 0.625000
vt 0.875000 0.750000
vt 0.750000 0.750000
vt 0.625000 0.000000
vt 0.625000 0.375000
vt 0.625000 0.875000
vt 0.875000 0.500000
vt 0.437500 0.437500
vt 0.437500 0.375000
vt 0.562500 0.437500
vt 0.500000 0.437500
vt 0.562500 0.375000
vt 0.562500 0.500000
vt 0.437500 0.500000
vt 0.375000 0.437500
vt 0.562500 0.625000
vt 0.500000 0.593750
vt 0.500000 0.687500
vt 0.500000 0.562500
vt 0.437500 0.562500
vt 0.562500 0.562500
vt 0.625000 0.687500
vt 0.562500 0.687500
vt 0.562500 0.750000
vt 0.687500 0.562500
vt 0.687500 0.625000
vt 0.750000 0.687500
vt 0.687500 0.687500
vt 0.625000 0.562500
vt 0.687500 0.500000
vt 0.750000 0.562500
vt 0.687500 0.750000
vt 0.000000 0.000000
vt 0.625000 0.437500
s 0
f 1/1/1 21/2/1 9/3/1
f 10/4/2 11/5/2 21/2/2
f 21/2/3 4/6/3 12/7/3
f 21/2/4 3/8/4 9/3/4
f 3/8/5 22/9/5 13/10/5
f 4/6/6 22/9/6 12/7/6
f 22/9/7 8/11/7 15/12/7
f 22/9/8 7/13/8 13/10/8
f 7/13/9 23/14/9 16/15/9
f 8/11/10 23/14/10 15/12/10
f 17/16/11 18/17/11 23/14/11
f 23/14/12 5/18/12 16/15/12
f 5/18/13 24/19/13 19/20/13
f 6/21/14 24/19/14 18/17/14
f 24/19/15 2/22/15 10/23/15
f 24/19/16 1/24/16 19/20/16
f 13/25/17 9/26/17 3/27/17
f 13/25/18 16/15/18 25/28/18
f 16/15/19 19/29/19 25/28/19
f 9/26/20 19/29/20 1/30/20
f 14/31/21 17/16/21 8/11/21
f 14/31/22 11/32/22 26/33/22
f 26/33/23 2/34/23 20/35/23
f 26/33/24 6/21/24 17/16/24
f 27/1/25 47/2/25 36/4/25
f 36/4/26 37/5/26 28/36/26
f 47/2/27 30/6/27 37/5/27
f 29/8/28 47/2/28 35/3/28
f 29/8/29 48/9/29 38/7/29
f 48/9/30 30/6/30 38/7/30
f 48/9/31 34/11/31 40/37/31
f 33/13/32 48/9/32 39/10/32
f 33/13/33 49/14/33 41/12/33
f 49/14/34 34/11/34 41/12/34
f 44/17/35 43/16/35 49/14/35
f 31/18/36 49/14/36 42/15/36
f 31/18/37 50/19/37 44/17/37
f 50/19/38 32/21/38 44/17/38
f 50/19/39 28/22/39 46/38/39
f 27/24/40 50/19/40 45/20/40
f 35/26/41 39/25/41 29/27/41
f 39/25/42 42/15/42 33/13/42
f 45/29/43 42/15/43 51/28/43
f 35/26/44 45/29/44 51/28/44
f 43/16/45 40/31/45 34/11/45
f 40/31/46 37/32/46 30/39/46
f 52/33/47 28/34/47 37/32/47
f 32/21/48 52/33/48 43/16/48
f 70/9/49 72/40/49 69/41/49
f 70/9/50 74/42/50 73/43/50
f 58/37/51 74/42/51 71/44/51
f 74/42/52 55/11/52 60/45/52
f 73/43/53 60/45/53 61/12/53
f 72/40/54 61/12/54 62/46/54
f 72/40/55 54/13/55 56/47/55
f 57/10/56 72/40/56 56/47/56
f 79/48/57 78/14/57 88/49/57
f 79/48/58 80/50/58 78/14/58
f 62/46/59 76/51/59 75/52/59
f 61/12/60 77/53/60 76/51/60
f 55/11/61 77/53/61 60/45/61
f 77/53/62 64/16/62 79/48/62
f 79/48/63 65/54/63 81/55/63
f 81/55/64 53/21/64 66/56/64
f 82/57/65 85/33/65 84/58/65
f 84/58/66 87/59/66 86/60/66
f 55/11/67 82/57/67 63/61/67
f 59/62/68 83/63/68 82/57/68
f 86/60/69 68/35/69 67/64/69
f 65/54/70 67/64/70 53/21/70
f 84/58/71 65/54/71 64/16/71
f 63/61/72 84/58/72 64/16/72
f 81/55/73 66/56/73 80/50/73
f 54/13/74 62/46/74 75/52/74
f 53/21/75 94/64/75 89/21/75
f 54/13/76 91/47/76 56/47/76
f 78/14/77 102/50/77 101/14/77
f 80/50/78 93/56/78 99/50/78
f 78/14/79 100/49/79 88/49/79
f 67/64/80 95/35/80 94/64/80
f 56/47/81 92/10/81 57/10/81
f 75/52/82 90/13/82 54/13/82
f 76/51/83 96/52/83 75/52/83
f 66/56/84 89/21/84 93/56/84
f 88/49/85 97/51/85 76/51/85
f 101/14/86 104/50/86 103/14/86
f 99/50/87 102/50/87 80/50/87
f 98/65/88 104/65/88 99/65/88
f 98/14/89 101/14/89 103/14/89
f 118/40/90 70/9/90 69/41/90
f 70/9/91 120/42/91 71/44/91
f 120/42/92 58/37/92 71/44/92
f 120/42/93 107/11/93 109/66/93
f 119/43/94 110/45/94 120/42/94
f 118/40/95 111/12/95 119/43/95
f 106/13/96 118/40/96 108/47/96
f 57/10/97 118/40/97 69/41/97
f 131/49/98 125/48/98 123/53/98
f 126/50/99 125/48/99 124/14/99
f 112/46/100 122/51/100 111/12/100
f 111/12/101 123/53/101 110/45/101
f 123/53/102 107/11/102 110/45/102
f 123/53/103 114/16/103 113/61/103
f 125/48/104 115/54/104 114/16/104
f 127/55/105 105/21/105 115/54/105
f 128/57/106 85/33/106 83/63/106
f 129/58/107 87/59/107 85/33/107
f 107/11/108 128/57/108 109/62/108
f 109/62/109 83/63/109 58/31/109
f 117/64/110 87/59/110 130/60/110
f 115/54/111 117/64/111 130/60/111
f 114/16/112 130/60/112 129/58/112
f 113/61/113 129/58/113 128/57/113
f 127/55/114 126/50/114 116/56/114
f 106/13/115 121/52/115 112/46/115
f 105/21/116 136/64/116 117/64/116
f 134/47/117 106/13/117 108/47/117
f 124/14/118 143/50/118 126/50/118
f 126/50/119 135/56/119 116/56/119
f 141/49/120 124/14/120 131/49/120
f 117/64/121 95/35/121 68/35/121
f 92/10/122 108/47/122 57/10/122
f 133/13/123 121/52/123 106/13/123
f 137/52/124 122/51/124 121/52/124
f 116/56/125 132/21/125 105/21/125
f 138/51/126 131/49/126 122/51/126
f 142/14/127 145/50/127 143/50/127
f 143/50/128 140/50/128 126/50/128
f 145/65/129 139/65/129 140/65/129
f 139/14/130 142/14/130 124/14/130
f 1/1/131 10/4/131 21/2/131
f 10/4/132 2/36/132 11/5/132
f 21/2/133 11/5/133 4/6/133
f 21/2/134 12/7/134 3/8/134
f 3/8/135 12/7/135 22/9/135
f 4/6/136 14/37/136 22/9/136
f 22/9/137 14/37/137 8/11/137
f 22/9/138 15/12/138 7/13/138
f 7/13/139 15/12/139 23/14/139
f 8/11/140 17/16/140 23/14/140
f 17/16/141 6/21/141 18/17/141
f 23/14/142 18/17/142 5/18/142
f 5/18/143 18/17/143 24/19/143
f 6/21/144 20/38/144 24/19/144
f 24/19/145 20/38/145 2/22/145
f 24/19/146 10/23/146 1/24/146
f 13/25/147 25/28/147 9/26/147
f 13/25/148 7/13/148 16/15/148
f 16/15/149 5/18/149 19/29/149
f 9/26/150 25/28/150 19/29/150
f 14/31/151 26/33/151 17/16/151
f 14/31/152 4/39/152 11/32/152
f 26/33/153 11/32/153 2/34/153
f 26/33/154 20/35/154 6/21/154
f 27/1/155 35/3/155 47/2/155
f 36/4/156 47/2/156 37/5/156
f 47/2/157 38/7/157 30/6/157
f 29/8/158 38/7/158 47/2/158
f 29/8/159 39/10/159 48/9/159
f 48/9/160 40/37/160 30/6/160
f 48/9/161 41/12/161 34/11/161
f 33/13/162 41/12/162 48/9/162
f 33/13/163 42/15/163 49/14/163
f 49/14/164 43/16/164 34/11/164
f 44/17/165 32/21/165 43/16/165
f 31/18/166 44/17/166 49/14/166
f 31/18/167 45/20/167 50/19/167
f 50/19/168 46/38/168 32/21/168
f 50/19/169 36/23/169 28/22/169
f 27/24/170 36/23/170 50/19/170
f 35/26/171 51/28/171 39/25/171
f 39/25/172 51/28/172 42/15/172
f 45/29/173 31/18/173 42/15/173
f 35/26/174 27/30/174 45/29/174
f 43/16/175 52/33/175 40/31/175
f 40/31/176 52/33/176 37/32/176
f 52/33/177 46/35/177 28/34/177
f 32/21/178 46/35/178 52/33/178
f 70/9/179 73/43/179 72/40/179
f 70/9/180 71/44/180 74/42/180
f 58/37/181 59/66/181 74/42/181
f 74/42/182 59/66/182 55/11/182
f 73/43/183 74/42/183 60/45/183
f 72/40/184 73/43/184 61/12/184
f 72/40/185 62/46/185 54/13/185
f 57/10/186 69/41/186 72/40/186
f 88/49/187 76/51/187 77/53/187
f 77/53/188 79/48/188 88/49/188
f 79/48/189 81/55/189 80/50/189
f 62/46/190 61/12/190 76/51/190
f 61/12/191 60/45/191 77/53/191
f 55/11/192 63/61/192 77/53/192
f 77/53/193 63/61/193 64/16/193
f 79/48/194 64/16/194 65/54/194
f 81/55/195 65/54/195 53/21/195
f 82/57/196 83/63/196 85/33/196
f 84/58/197 85/33/197 87/59/197
f 55/11/198 59/62/198 82/57/198
f 59/62/199 58/31/199 83/63/199
f 86/60/200 87/59/200 68/35/200
f 65/54/201 86/60/201 67/64/201
f 84/58/202 86/60/202 65/54/202
f 63/61/203 82/57/203 84/58/203
f 53/21/204 67/64/204 94/64/204
f 54/13/76 90/13/76 91/47/76
f 78/14/205 80/50/205 102/50/205
f 80/50/206 66/56/206 93/56/206
f 78/14/207 98/14/207 100/49/207
f 67/64/208 68/35/208 95/35/208
f 56/47/209 91/47/209 92/10/209
f 75/52/82 96/52/82 90/13/82
f 76/51/83 97/51/83 96/52/83
f 66/56/210 53/21/210 89/21/210
f 88/49/211 100/49/211 97/51/211
f 101/14/212 102/50/212 104/50/212
f 99/50/213 104/50/213 102/50/213
f 98/65/214 103/65/214 104/65/214
f 98/14/89 78/14/89 101/14/89
f 118/40/215 119/43/215 70/9/215
f 70/9/216 119/43/216 120/42/216
f 120/42/217 109/66/217 58/37/217
f 120/42/218 110/45/218 107/11/218
f 119/43/219 111/12/219 110/45/219
f 118/40/220 112/46/220 111/12/220
f 106/13/221 112/46/221 118/40/221
f 57/10/222 108/47/222 118/40/222
f 123/53/223 122/51/223 131/49/223
f 131/49/224 124/14/224 125/48/224
f 126/50/225 127/55/225 125/48/225
f 112/46/226 121/52/226 122/51/226
f 111/12/227 122/51/227 123/53/227
f 123/53/228 113/61/228 107/11/228
f 123/53/229 125/48/229 114/16/229
f 125/48/230 127/55/230 115/54/230
f 127/55/231 116/56/231 105/21/231
f 128/57/232 129/58/232 85/33/232
f 129/58/233 130/60/233 87/59/233
f 107/11/234 113/61/234 128/57/234
f 109/62/235 128/57/235 83/63/235
f 117/64/236 68/35/236 87/59/236
f 115/54/237 105/21/237 117/64/237
f 114/16/238 115/54/238 130/60/238
f 113/61/239 114/16/239 129/58/239
f 105/21/240 132/21/240 136/64/240
f 134/47/117 133/13/117 106/13/117
f 124/14/241 142/14/241 143/50/241
f 126/50/242 140/50/242 135/56/242
f 141/49/243 139/14/243 124/14/243
f 117/64/244 136/64/244 95/35/244
f 92/10/245 134/47/245 108/47/245
f 133/13/123 137/52/123 121/52/123
f 137/52/124 138/51/124 122/51/124
f 116/56/246 135/56/246 132/21/246
f 138/51/247 141/49/247 131/49/247
f 142/14/248 144/14/248 145/50/248
f 143/50/249 145/50/249 140/50/249
f 145/65/250 144/65/250 139/65/250
f 139/14/130 144/14/130 142/14/130
