# Blender 5.0.0
# www.blender.org
mtllib short.mtl
o hair3
v 0.602592 -0.825598 11.588755
v 0.482535 0.318643 10.296816
v 0.582221 0.552833 11.690584
v 0.223942 0.389414 10.212715
v 0.000000 0.421566 10.199074
v 0.000000 0.746553 11.840878
v 0.329380 0.680008 11.790817
v 0.656888 0.629452 11.419189
v 0.673636 0.618764 11.015596
v 0.595315 0.483084 10.597509
v 0.682762 0.259623 11.779800
v 0.737509 -0.157877 11.816793
v 0.695261 -0.559312 11.756241
v 0.682099 -0.807061 11.366020
v 0.350033 -1.090232 11.687494
v 0.000000 -1.223462 11.774702
v 0.000000 0.763942 10.544970
v 0.000000 0.971832 11.015818
v 0.000000 0.974050 11.472044
v 0.273734 0.697301 10.574154
v 0.326528 0.881658 11.019503
v 0.333922 0.881045 11.449917
v 0.789613 0.127830 10.552174
v 0.893074 0.224363 10.999096
v 0.859308 0.254908 11.432833
v 0.927255 -0.059511 10.976846
v 0.934707 -0.182041 11.439285
v 0.858305 -0.594281 10.964094
v 0.874791 -0.601255 11.401758
v 0.366330 0.310720 11.989653
v 0.000000 0.346539 12.061462
v 0.395758 -0.139385 12.048832
v 0.000000 -0.129451 12.127247
v 0.377653 -0.574101 11.968246
v 0.000000 -0.591088 12.040857
v 0.933113 0.063615 11.065051
v 0.592755 -0.686724 11.439667
v 0.501757 0.180561 10.460430
v 0.305755 0.234203 10.396687
v 0.000000 0.258572 10.386348
v 0.653018 -0.643471 11.270842
v 0.401327 -0.753301 11.514507
v 0.000000 -0.934670 11.411865
v 0.734509 0.035933 10.653980
v 0.812928 0.109101 10.992730
v 0.841935 -0.065995 10.975866
v 0.796929 -0.557101 10.961985
v 0.843276 0.002742 11.034821
v 0.866751 -0.172199 10.712874
v 0.896483 -0.190174 10.939481
v 0.781431 -0.178683 10.711893
v 0.821446 -0.166981 10.942933
v -0.602592 -0.825598 11.588755
v -0.482535 0.318643 10.296816
v -0.582221 0.552833 11.690584
v -0.223942 0.389414 10.212715
v -0.329380 0.680008 11.790817
v -0.656888 0.629452 11.419189
v -0.673636 0.618764 11.015596
v -0.595315 0.483084 10.597509
v -0.682762 0.259623 11.779800
v -0.737509 -0.157877 11.816793
v -0.695261 -0.559312 11.756241
v -0.682099 -0.807061 11.366020
v -0.350033 -1.090232 11.687494
v -0.273734 0.697301 10.574154
v -0.326528 0.881658 11.019503
v -0.333922 0.881045 11.449917
v -0.789613 0.127830 10.552174
v -0.893074 0.224363 10.999096
v -0.859308 0.254908 11.432833
v -0.927255 -0.059511 10.976846
v -0.934707 -0.182041 11.439285
v -0.858305 -0.594281 10.964094
v -0.874791 -0.601255 11.401758
v -0.366330 0.310720 11.989653
v -0.395758 -0.139385 12.048832
v -0.377653 -0.574101 11.968246
v -0.933113 0.063615 11.065051
v -0.592755 -0.686724 11.439667
v -0.501757 0.180561 10.460430
v -0.305755 0.234203 10.396687
v -0.653018 -0.643471 11.270842
v -0.401327 -0.753301 11.514507
v -0.734509 0.035933 10.653980
v -0.812928 0.109101 10.992730
v -0.841935 -0.065995 10.975866
v -0.796929 -0.557101 10.961985
v -0.843276 0.002742 11.034821
v -0.866751 -0.172199 10.712874
v -0.896483 -0.190174 10.939481
v -0.781431 -0.178683 10.711893
v -0.821446 -0.166981 10.942933
vn 0.5518 -0.1809 0.8141
vn 0.1936 -0.1866 0.9632
vn 0.6038 0.7971 0.0039
vn 0.4108 -0.4651 -0.7842
vn 0.1958 0.1404 0.9705
vn 0.2137 0.4796 0.8511
vn -0.0681 -0.7526 -0.6550
vn 0.8717 -0.1659 0.4611
vn 0.9993 -0.0303 -0.0241
vn -0.0658 0.9231 -0.3790
vn 0.9907 -0.1266 -0.0495
vn 0.5368 0.7678 -0.3497
vn 0.5934 0.7171 0.3657
vn 0.2623 0.8213 0.5066
vn 0.4703 -0.5813 0.6640
vn 0.4281 -0.2497 -0.8685
vn 0.8739 0.4848 0.0339
vn 0.1866 -0.4771 0.8588
vn 0.0753 -0.9965 0.0374
vn 0.5611 0.1458 0.8148
vn 0.2569 0.8841 -0.3904
vn 0.8218 0.4872 -0.2955
vn 0.8793 0.1584 0.4492
vn 0.1465 0.7430 -0.6531
vn 0.7328 -0.6794 -0.0384
vn 0.7190 0.4598 -0.5211
vn 0.0006 -0.7642 -0.6450
vn 0.9718 -0.1881 -0.1424
vn -0.1237 0.5818 -0.8039
vn -0.0117 -0.7321 -0.6811
vn 0.3887 0.6743 -0.6279
vn 0.5492 0.4099 0.7283
vn 0.0676 -0.7585 -0.6481
vn 0.6995 -0.6883 0.1924
vn -0.8366 -0.3789 -0.3957
vn -0.4568 -0.7785 -0.4305
vn 0.8209 -0.5671 -0.0676
vn -0.0024 -0.0606 -0.9982
vn -0.9341 0.0757 0.3489
vn 0.8176 0.4547 0.3533
vn 0.9631 0.2631 0.0565
vn 0.9794 0.1706 0.1078
vn 0.9208 -0.1098 -0.3744
vn -0.8429 -0.4203 -0.3359
vn -0.0598 -0.0449 -0.9972
vn -0.9761 0.1453 0.1617
vn 0.2662 0.9639 -0.0032
vn 0.5466 -0.1746 0.8190
vn 0.1868 -0.1807 0.9656
vn 0.6140 0.7893 -0.0094
vn 0.1412 -0.7746 -0.6165
vn 0.2032 0.1340 0.9699
vn 0.2247 0.4705 0.8533
vn -0.0401 -0.7724 -0.6338
vn 0.8704 -0.1617 0.4650
vn 0.9897 -0.1379 -0.0395
vn 0.5575 0.7416 -0.3731
vn 0.5362 0.7239 0.4341
vn 0.2437 0.8340 0.4951
vn 0.6579 -0.3867 0.6462
vn 0.4411 -0.2186 -0.8704
vn 0.8791 0.4760 0.0239
vn 0.3530 -0.3629 0.8624
vn -0.2966 -0.9543 -0.0368
vn 0.5630 0.1438 0.8139
vn 0.2486 0.8842 -0.3955
vn 0.8258 0.4724 -0.3080
vn 0.8813 0.1551 0.4463
vn 0.2407 0.6898 -0.6828
vn -0.0408 0.6509 -0.7580
vn 0.1521 -0.4697 -0.8696
vn 0.4895 0.6746 -0.5525
vn 0.5146 0.4458 0.7324
vn 0.7315 -0.5268 0.4328
vn -0.7101 -0.4441 -0.5464
vn 0.8171 0.4050 0.4103
vn 0.2680 0.9634 -0.0047
vn -0.5518 -0.1809 0.8141
vn -0.1936 -0.1866 0.9632
vn -0.6038 0.7971 0.0039
vn -0.4108 -0.4651 -0.7842
vn -0.1958 0.1404 0.9705
vn -0.2137 0.4796 0.8511
vn 0.0681 -0.7526 -0.6550
vn -0.8717 -0.1659 0.4611
vn -0.9993 -0.0303 -0.0241
vn 0.0658 0.9231 -0.3790
vn -0.9907 -0.1266 -0.0495
vn -0.5368 0.7678 -0.3497
vn -0.5934 0.7171 0.3657
vn -0.2623 0.8213 0.5066
vn -0.4703 -0.5813 0.6640
vn -0.4281 -0.2497 -0.8685
vn -0.8739 0.4848 0.0339
vn -0.1866 -0.4771 0.8588
vn -0.0753 -0.9965 0.0374
vn -0.5611 0.1458 0.8148
vn -0.2569 0.8841 -0.3904
vn -0.8218 0.4872 -0.2955
vn -0.8793 0.1584 0.4492
vn -0.1465 0.7430 -0.6531
vn -0.7328 -0.6794 -0.0384
vn -0.7190 0.4598 -0.5211
vn -0.0006 -0.7642 -0.6450
vn -0.9718 -0.1881 -0.1424
vn 0.1237 0.5818 -0.8039
vn 0.0117 -0.7321 -0.6811
vn -0.3887 0.6743 -0.6279
vn -0.5492 0.4099 0.7283
vn -0.0676 -0.7585 -0.6481
vn -0.6995 -0.6883 0.1924
vn 0.8366 -0.3789 -0.3957
vn 0.4568 -0.7785 -0.4305
vn -0.8209 -0.5671 -0.0676
vn 0.0024 -0.0606 -0.9982
vn 0.9341 0.0757 0.3489
vn -0.8176 0.4547 0.3533
vn -0.9631 0.2631 0.0565
vn -0.9794 0.1706 0.1078
vn -0.9208 -0.1098 -0.3744
vn 0.8429 -0.4203 -0.3359
vn 0.0598 -0.0449 -0.9972
vn 0.9761 0.1453 0.1617
vn -0.2662 0.9639 -0.0032
vn -0.5466 -0.1746 0.8190
vn -0.1868 -0.1807 0.9656
vn -0.6140 0.7893 -0.0094
vn -0.1412 -0.7746 -0.6165
vn -0.2032 0.1340 0.9699
vn -0.2247 0.4705 0.8533
vn 0.0401 -0.7724 -0.6338
vn -0.8704 -0.1617 0.4650
vn -0.9897 -0.1379 -0.0395
vn -0.5575 0.7416 -0.3731
vn -0.5362 0.7239 0.4341
vn -0.2437 0.8340 0.4951
vn -0.6579 -0.3867 0.6462
vn -0.4411 -0.2186 -0.8704
vn -0.8791 0.4760 0.0239
vn -0.3530 -0.3629 0.8624
vn 0.2966 -0.9543 -0.0368
vn -0.5630 0.1438 0.8139
vn -0.2486 0.8842 -0.3955
vn -0.8258 0.4724 -0.3080
vn -0.8813 0.1551 0.4463
vn -0.2407 0.6898 -0.6828
vn 0.0408 0.6509 -0.7580
vn -0.1521 -0.4697 -0.8696
vn -0.4895 0.6746 -0.5525
vn -0.5146 0.4458 0.7324
vn -0.7315 -0.5268 0.4328
vn 0.7101 -0.4441 -0.5464
vn -0.8171 0.4050 0.4103
vn -0.2680 0.9634 -0.0047
vt 0.625000 0.625000
vt 0.687500 0.687500
vt 0.625000 0.687500
vt 0.687500 0.625000
vt 0.750000 0.687500
vt 0.500000 0.437500
vt 0.562500 0.500000
vt 0.500000 0.500000
vt 0.687500 0.750000
vt 0.750000 0.750000
vt 0.687500 0.562500
vt 0.750000 0.625000
vt 0.687500 0.500000
vt 0.750000 0.562500
vt 0.375000 0.437500
vt 0.375000 0.375000
vt 0.562500 0.625000
vt 0.562500 0.687500
vt 0.500000 0.625000
vt 0.500000 0.593750
vt 0.500000 0.687500
vt 0.437500 0.437500
vt 0.437500 0.500000
vt 0.562500 0.437500
vt 0.625000 0.500000
vt 0.625000 0.375000
vt 0.562500 0.375000
vt 0.625000 0.750000
vt 0.500000 0.562500
vt 0.562500 0.562500
vt 0.625000 0.562500
vt 0.500000 0.375000
vt 0.437500 0.375000
vt 0.437500 0.562500
vt 0.562500 0.750000
vt 0.375000 0.500000
vt 0.000000 0.000000
vt 0.750000 0.500000
vt 0.625000 0.437500
s 0
f 12/1/1 34/2/1 13/3/1
f 32/4/2 35/5/2 34/2/2
f 21/6/3 8/7/3 9/8/3
f 15/9/4 43/10/4 42/9/4
f 30/11/5 33/12/5 32/4/5
f 7/13/6 31/14/6 30/11/6
f 4/15/7 40/16/7 5/16/7
f 27/17/8 13/3/8 29/18/8
f 27/17/9 26/19/9 36/20/9
f 46/19/10 49/19/10 51/19/10
f 27/17/11 28/21/11 26/19/11
f 20/22/12 9/8/12 10/23/12
f 22/24/13 3/25/13 8/7/13
f 6/26/14 22/24/14 19/27/14
f 34/2/15 1/28/15 13/3/15
f 36/20/16 45/29/16 24/29/16
f 9/8/17 25/30/17 24/29/17
f 35/5/18 15/9/18 34/2/18
f 49/19/19 52/21/19 51/19/19
f 11/31/20 32/4/20 12/1/20
f 18/32/21 20/22/21 17/33/21
f 10/23/22 24/29/22 23/34/22
f 25/30/23 12/1/23 27/17/23
f 5/16/24 20/22/24 4/15/24
f 29/18/25 14/35/25 28/21/25
f 2/36/26 10/23/26 23/34/26
f 2/36/27 39/15/27 4/15/27
f 26/19/28 50/21/28 49/19/28
f 26/19/29 48/20/29 36/20/29
f 1/28/30 42/9/30 37/28/30
f 20/22/31 2/36/31 4/15/31
f 3/25/32 30/11/32 11/31/32
f 23/34/33 38/36/33 2/36/33
f 29/18/34 1/28/34 14/35/34
f 14/35/35 37/28/35 41/35/35
f 28/21/36 41/35/36 47/21/36
f 24/29/37 44/34/37 23/34/37
f 47/21/38 50/21/38 28/21/38
f 46/37/39 52/37/39 47/37/39
f 3/25/40 25/30/40 8/7/40
f 36/20/41 24/29/41 25/30/41
f 25/30/42 27/17/42 36/20/42
f 2/36/27 38/36/27 39/15/27
f 26/19/43 28/21/43 50/21/43
f 23/34/33 44/34/33 38/36/33
f 14/35/44 1/28/44 37/28/44
f 47/21/45 52/21/45 50/21/45
f 46/37/46 51/37/46 52/37/46
f 18/32/47 22/24/47 21/6/47
f 12/1/48 32/4/48 34/2/48
f 32/4/49 33/12/49 35/5/49
f 21/6/50 22/24/50 8/7/50
f 15/9/51 16/10/51 43/10/51
f 30/11/52 31/14/52 33/12/52
f 7/13/53 6/38/53 31/14/53
f 4/15/54 39/15/54 40/16/54
f 27/17/55 12/1/55 13/3/55
f 46/19/10 26/19/10 49/19/10
f 27/17/56 29/18/56 28/21/56
f 20/22/57 21/6/57 9/8/57
f 22/24/58 7/39/58 3/25/58
f 6/26/59 7/39/59 22/24/59
f 34/2/60 15/9/60 1/28/60
f 36/20/61 48/20/61 45/29/61
f 9/8/62 8/7/62 25/30/62
f 35/5/63 16/10/63 15/9/63
f 49/19/64 50/21/64 52/21/64
f 11/31/65 30/11/65 32/4/65
f 18/32/66 21/6/66 20/22/66
f 10/23/67 9/8/67 24/29/67
f 25/30/68 11/31/68 12/1/68
f 5/16/69 17/33/69 20/22/69
f 26/19/70 46/19/70 48/20/70
f 1/28/71 15/9/71 42/9/71
f 20/22/72 10/23/72 2/36/72
f 3/25/73 7/13/73 30/11/73
f 29/18/74 13/3/74 1/28/74
f 28/21/75 14/35/75 41/35/75
f 24/29/37 45/29/37 44/34/37
f 3/25/76 11/31/76 25/30/76
f 18/32/77 19/27/77 22/24/77
f 62/1/78 63/3/78 78/2/78
f 77/4/79 78/2/79 35/5/79
f 67/6/80 59/8/80 58/7/80
f 65/9/81 84/9/81 43/10/81
f 76/11/82 77/4/82 33/12/82
f 57/13/83 76/11/83 31/14/83
f 56/15/84 5/16/84 40/16/84
f 73/17/85 75/18/85 63/3/85
f 73/17/86 79/20/86 72/19/86
f 87/19/87 92/19/87 90/19/87
f 73/17/88 72/19/88 74/21/88
f 66/22/89 60/23/89 59/8/89
f 68/24/90 58/7/90 55/25/90
f 6/26/91 19/27/91 68/24/91
f 78/2/92 63/3/92 53/28/92
f 79/20/93 70/29/93 86/29/93
f 59/8/94 70/29/94 71/30/94
f 35/5/95 78/2/95 65/9/95
f 90/19/96 92/19/96 93/21/96
f 61/31/97 62/1/97 77/4/97
f 18/32/98 17/33/98 66/22/98
f 60/23/99 69/34/99 70/29/99
f 71/30/100 73/17/100 62/1/100
f 5/16/101 56/15/101 66/22/101
f 75/18/102 74/21/102 64/35/102
f 54/36/103 69/34/103 60/23/103
f 54/36/104 56/15/104 82/15/104
f 72/19/105 90/19/105 91/21/105
f 72/19/106 79/20/106 89/20/106
f 53/28/107 80/28/107 84/9/107
f 66/22/108 56/15/108 54/36/108
f 55/25/109 61/31/109 76/11/109
f 69/34/110 54/36/110 81/36/110
f 75/18/111 64/35/111 53/28/111
f 64/35/112 83/35/112 80/28/112
f 74/21/113 88/21/113 83/35/113
f 70/29/114 69/34/114 85/34/114
f 88/21/115 74/21/115 91/21/115
f 87/37/116 88/37/116 93/37/116
f 55/25/117 58/7/117 71/30/117
f 79/20/118 71/30/118 70/29/118
f 71/30/119 79/20/119 73/17/119
f 54/36/104 82/15/104 81/36/104
f 72/19/120 91/21/120 74/21/120
f 69/34/110 81/36/110 85/34/110
f 64/35/121 80/28/121 53/28/121
f 88/21/122 91/21/122 93/21/122
f 87/37/123 93/37/123 92/37/123
f 18/32/124 67/6/124 68/24/124
f 62/1/125 78/2/125 77/4/125
f 77/4/126 35/5/126 33/12/126
f 67/6/127 58/7/127 68/24/127
f 65/9/128 43/10/128 16/10/128
f 76/11/129 33/12/129 31/14/129
f 57/13/130 31/14/130 6/38/130
f 56/15/131 40/16/131 82/15/131
f 73/17/132 63/3/132 62/1/132
f 87/19/87 90/19/87 72/19/87
f 73/17/133 74/21/133 75/18/133
f 66/22/134 59/8/134 67/6/134
f 68/24/135 55/25/135 57/39/135
f 6/26/136 68/24/136 57/39/136
f 78/2/137 53/28/137 65/9/137
f 79/20/138 86/29/138 89/20/138
f 59/8/139 71/30/139 58/7/139
f 35/5/140 65/9/140 16/10/140
f 90/19/141 93/21/141 91/21/141
f 61/31/142 77/4/142 76/11/142
f 18/32/143 66/22/143 67/6/143
f 60/23/144 70/29/144 59/8/144
f 71/30/145 62/1/145 61/31/145
f 5/16/146 66/22/146 17/33/146
f 72/19/147 89/20/147 87/19/147
f 53/28/148 84/9/148 65/9/148
f 66/22/149 54/36/149 60/23/149
f 55/25/150 76/11/150 57/13/150
f 75/18/151 53/28/151 63/3/151
f 74/21/152 83/35/152 64/35/152
f 70/29/114 85/34/114 86/29/114
f 55/25/153 71/30/153 61/31/153
f 18/32/154 68/24/154 19/27/154
