# Blender 5.0.0
# www.blender.org
mtllib short-fence.mtl
o short_fence
v 0.000000 0.617965 -0.055593
v 0.000000 0.617965 5.987973
v 0.100569 0.608060 -0.055593
v 0.100569 0.608059 5.987973
v 0.197273 0.578725 -0.055593
v 0.197273 0.578725 5.987973
v 0.286396 0.531088 -0.055593
v 0.286396 0.531087 5.987973
v 0.364513 0.466979 -0.055593
v 0.364513 0.466978 5.987973
v 0.428621 0.388862 -0.055593
v 0.428621 0.388862 5.987973
v 0.476259 0.299739 -0.055593
v 0.476259 0.299739 5.987973
v 0.505593 0.203035 -0.055593
v 0.505593 0.203035 5.987973
v 0.515499 0.102466 -0.055593
v 0.515499 0.102466 5.987973
v 0.505593 0.001897 -0.055593
v 0.505593 0.001897 5.987973
v 0.476259 -0.094807 -0.055593
v 0.476259 -0.094807 5.987973
v 0.428621 -0.183930 -0.055593
v 0.428621 -0.183930 5.987973
v 0.364513 -0.262046 -0.055593
v 0.364513 -0.262047 5.987973
v 0.286396 -0.326155 -0.055593
v 0.286396 -0.326156 5.987973
v 0.197273 -0.373793 -0.055593
v 0.197273 -0.373793 5.987973
v 0.100569 -0.403127 -0.055593
v 0.100569 -0.403128 5.987973
v 0.000000 -0.413033 -0.055593
v 0.000000 -0.413033 5.987973
v -0.100569 -0.403127 -0.055593
v -0.100569 -0.403128 5.987973
v -0.197273 -0.373793 -0.055593
v -0.197273 -0.373793 5.987973
v -0.286396 -0.326155 -0.055593
v -0.286396 -0.326156 5.987973
v -0.364513 -0.262046 -0.055593
v -0.364513 -0.262047 5.987973
v -0.428621 -0.183930 -0.055593
v -0.428621 -0.183930 5.987973
v -0.476259 -0.094807 -0.055593
v -0.476259 -0.094807 5.987973
v -0.505593 0.001897 -0.055593
v -0.505593 0.001897 5.987973
v -0.515499 0.102466 -0.055593
v -0.515499 0.102466 5.987973
v -0.505593 0.203035 -0.055593
v -0.505593 0.203035 5.987973
v -0.476259 0.299739 -0.055593
v -0.476259 0.299739 5.987973
v -0.428621 0.388862 -0.055593
v -0.428621 0.388862 5.987973
v -0.364513 0.466979 -0.055593
v -0.364513 0.466978 5.987973
v -0.286396 0.531088 -0.055593
v -0.286396 0.531087 5.987973
v -0.197273 0.578725 -0.055593
v -0.197273 0.578725 5.987973
v -0.100569 0.608060 -0.055593
v -0.100569 0.608059 5.987973
v 10.000000 0.617965 -0.055593
v 10.000000 0.617965 5.987973
v 10.100569 0.608060 -0.055593
v 10.100569 0.608059 5.987973
v 10.197272 0.578725 -0.055593
v 10.197272 0.578725 5.987973
v 10.286396 0.531088 -0.055593
v 10.286396 0.531087 5.987973
v 10.364512 0.466979 -0.055593
v 10.364512 0.466978 5.987973
v 10.428622 0.388862 -0.055593
v 10.428622 0.388862 5.987973
v 10.476258 0.299739 -0.055593
v 10.476258 0.299739 5.987973
v 10.505593 0.203035 -0.055593
v 10.505593 0.203035 5.987973
v 10.515498 0.102466 -0.055593
v 10.515498 0.102466 5.987973
v 10.505593 0.001897 -0.055593
v 10.505593 0.001897 5.987973
v 10.476258 -0.094807 -0.055593
v 10.476258 -0.094807 5.987973
v 10.428622 -0.183930 -0.055593
v 10.428622 -0.183930 5.987973
v 10.364512 -0.262046 -0.055593
v 10.364512 -0.262047 5.987973
v 10.286396 -0.326155 -0.055593
v 10.286396 -0.326156 5.987973
v 10.197272 -0.373793 -0.055593
v 10.197272 -0.373793 5.987973
v 10.100569 -0.403127 -0.055593
v 10.100569 -0.403128 5.987973
v 10.000000 -0.413033 -0.055593
v 10.000000 -0.413033 5.987973
v 9.899430 -0.403127 -0.055593
v 9.899430 -0.403128 5.987973
v 9.802728 -0.373793 -0.055593
v 9.802728 -0.373793 5.987973
v 9.713604 -0.326155 -0.055593
v 9.713604 -0.326156 5.987973
v 9.635487 -0.262046 -0.055593
v 9.635487 -0.262047 5.987973
v 9.571378 -0.183930 -0.055593
v 9.571378 -0.183930 5.987973
v 9.523741 -0.094807 -0.055593
v 9.523741 -0.094807 5.987973
v 9.494407 0.001897 -0.055593
v 9.494407 0.001897 5.987973
v 9.484501 0.102466 -0.055593
v 9.484501 0.102466 5.987973
v 9.494407 0.203035 -0.055593
v 9.494407 0.203035 5.987973
v 9.523741 0.299739 -0.055593
v 9.523741 0.299739 5.987973
v 9.571378 0.388862 -0.055593
v 9.571378 0.388862 5.987973
v 9.635487 0.466979 -0.055593
v 9.635487 0.466978 5.987973
v 9.713604 0.531088 -0.055593
v 9.713604 0.531087 5.987973
v 9.802728 0.578725 -0.055593
v 9.802728 0.578725 5.987973
v 9.899430 0.608060 -0.055593
v 9.899430 0.608059 5.987973
v 20.000000 0.617965 -0.055593
v 20.000000 0.617965 5.987973
v 20.100569 0.608060 -0.055593
v 20.100569 0.608059 5.987973
v 20.197271 0.578725 -0.055593
v 20.197271 0.578725 5.987973
v 20.286394 0.531088 -0.055593
v 20.286394 0.531087 5.987973
v 20.364513 0.466979 -0.055593
v 20.364513 0.466978 5.987973
v 20.428621 0.388862 -0.055593
v 20.428621 0.388862 5.987973
v 20.476257 0.299739 -0.055593
v 20.476257 0.299739 5.987973
v 20.505592 0.203035 -0.055593
v 20.505592 0.203035 5.987973
v 20.515499 0.102466 -0.055593
v 20.515499 0.102466 5.987973
v 20.505592 0.001897 -0.055593
v 20.505592 0.001897 5.987973
v 20.476257 -0.094807 -0.055593
v 20.476257 -0.094807 5.987973
v 20.428621 -0.183930 -0.055593
v 20.428621 -0.183930 5.987973
v 20.364513 -0.262046 -0.055593
v 20.364513 -0.262047 5.987973
v 20.286394 -0.326155 -0.055593
v 20.286394 -0.326156 5.987973
v 20.197271 -0.373793 -0.055593
v 20.197271 -0.373793 5.987973
v 20.100569 -0.403127 -0.055593
v 20.100569 -0.403128 5.987973
v 20.000000 -0.413033 -0.055593
v 20.000000 -0.413033 5.987973
v 19.899431 -0.403127 -0.055593
v 19.899431 -0.403128 5.987973
v 19.802727 -0.373793 -0.055593
v 19.802727 -0.373793 5.987973
v 19.713604 -0.326155 -0.055593
v 19.713604 -0.326156 5.987973
v 19.635487 -0.262046 -0.055593
v 19.635487 -0.262047 5.987973
v 19.571379 -0.183930 -0.055593
v 19.571379 -0.183930 5.987973
v 19.523743 -0.094807 -0.055593
v 19.523743 -0.094807 5.987973
v 19.494406 0.001897 -0.055593
v 19.494406 0.001897 5.987973
v 19.484501 0.102466 -0.055593
v 19.484501 0.102466 5.987973
v 19.494406 0.203035 -0.055593
v 19.494406 0.203035 5.987973
v 19.523743 0.299739 -0.055593
v 19.523743 0.299739 5.987973
v 19.571379 0.388862 -0.055593
v 19.571379 0.388862 5.987973
v 19.635487 0.466979 -0.055593
v 19.635487 0.466978 5.987973
v 19.713604 0.531088 -0.055593
v 19.713604 0.531087 5.987973
v 19.802727 0.578725 -0.055593
v 19.802727 0.578725 5.987973
v 19.899431 0.608060 -0.055593
v 19.899431 0.608059 5.987973
v 0.032673 0.372533 4.413729
v 19.836660 0.372533 4.413727
v 0.032673 0.367344 4.361042
v 19.836660 0.367344 4.361040
v 0.032673 0.351976 4.310379
v 19.836660 0.351976 4.310377
v 0.032673 0.327019 4.263688
v 19.836660 0.327019 4.263685
v 0.032673 0.293432 4.222762
v 19.836660 0.293432 4.222760
v 0.032673 0.252507 4.189176
v 19.836660 0.252507 4.189174
v 0.032673 0.205816 4.164219
v 19.836660 0.205816 4.164217
v 0.032673 0.155153 4.148851
v 19.836660 0.155153 4.148849
v 0.032673 0.102466 4.143661
v 19.836660 0.102466 4.143660
v 0.032673 0.049778 4.148851
v 19.836660 0.049778 4.148849
v 0.032673 -0.000884 4.164219
v 19.836660 -0.000884 4.164217
v 0.032673 -0.047575 4.189176
v 19.836660 -0.047575 4.189174
v 0.032673 -0.088500 4.222762
v 19.836660 -0.088500 4.222760
v 0.032673 -0.122087 4.263688
v 19.836660 -0.122087 4.263685
v 0.032673 -0.147044 4.310379
v 19.836660 -0.147044 4.310377
v 0.032673 -0.162412 4.361042
v 19.836660 -0.162412 4.361040
v 0.032673 -0.167601 4.413729
v 19.836660 -0.167601 4.413727
v 0.032673 -0.162412 4.466417
v 19.836660 -0.162412 4.466414
v 0.032673 -0.147044 4.517079
v 19.836660 -0.147044 4.517077
v 0.032673 -0.122087 4.563770
v 19.836660 -0.122087 4.563768
v 0.032673 -0.088501 4.604695
v 19.836660 -0.088501 4.604693
v 0.032673 -0.047575 4.638282
v 19.836660 -0.047575 4.638280
v 0.032673 -0.000884 4.663239
v 19.836660 -0.000884 4.663237
v 0.032673 0.049778 4.678607
v 19.836660 0.049778 4.678605
v 0.032673 0.102466 4.683796
v 19.836660 0.102466 4.683794
v 0.032673 0.155153 4.678607
v 19.836660 0.155153 4.678605
v 0.032673 0.205816 4.663239
v 19.836660 0.205816 4.663237
v 0.032673 0.252507 4.638282
v 19.836660 0.252507 4.638280
v 0.032673 0.293432 4.604695
v 19.836660 0.293432 4.604693
v 0.032673 0.327019 4.563770
v 19.836660 0.327019 4.563768
v 0.032673 0.351976 4.517079
v 19.836660 0.351976 4.517077
v 0.032673 0.367344 4.466417
v 19.836660 0.367344 4.466414
v 0.032673 0.372533 2.470544
v 19.836660 0.372533 2.470541
v 0.032673 0.367344 2.417856
v 19.836660 0.367344 2.417854
v 0.032673 0.351976 2.367193
v 19.836660 0.351976 2.367191
v 0.032673 0.327019 2.320502
v 19.836660 0.327019 2.320500
v 0.032673 0.293432 2.279577
v 19.836660 0.293432 2.279575
v 0.032673 0.252507 2.245991
v 19.836660 0.252507 2.245989
v 0.032673 0.205816 2.221034
v 19.836660 0.205816 2.221031
v 0.032673 0.155154 2.205665
v 19.836660 0.155154 2.205663
v 0.032673 0.102466 2.200476
v 19.836660 0.102466 2.200474
v 0.032673 0.049778 2.205665
v 19.836660 0.049778 2.205663
v 0.032673 -0.000884 2.221034
v 19.836660 -0.000884 2.221031
v 0.032673 -0.047575 2.245991
v 19.836660 -0.047575 2.245989
v 0.032673 -0.088500 2.279577
v 19.836660 -0.088500 2.279575
v 0.032673 -0.122087 2.320502
v 19.836660 -0.122087 2.320500
v 0.032673 -0.147044 2.367193
v 19.836660 -0.147044 2.367191
v 0.032673 -0.162412 2.417856
v 19.836660 -0.162412 2.417854
v 0.032673 -0.167601 2.470544
v 19.836660 -0.167601 2.470541
v 0.032673 -0.162412 2.523231
v 19.836660 -0.162412 2.523229
v 0.032673 -0.147044 2.573894
v 19.836660 -0.147044 2.573892
v 0.032673 -0.122087 2.620585
v 19.836660 -0.122087 2.620583
v 0.032673 -0.088500 2.661510
v 19.836660 -0.088500 2.661508
v 0.032673 -0.047575 2.695096
v 19.836660 -0.047575 2.695094
v 0.032673 -0.000884 2.720053
v 19.836660 -0.000884 2.720051
v 0.032673 0.049778 2.735422
v 19.836660 0.049778 2.735420
v 0.032673 0.102466 2.740611
v 19.836660 0.102466 2.740609
v 0.032673 0.155153 2.735422
v 19.836660 0.155153 2.735420
v 0.032673 0.205816 2.720053
v 19.836660 0.205816 2.720051
v 0.032673 0.252507 2.695096
v 19.836660 0.252507 2.695094
v 0.032673 0.293432 2.661510
v 19.836660 0.293432 2.661508
v 0.032673 0.327019 2.620585
v 19.836660 0.327019 2.620583
v 0.032673 0.351976 2.573894
v 19.836660 0.351976 2.573892
v 0.032673 0.367344 2.523231
v 19.836660 0.367344 2.523229
vn -0.0000 0.9873 -0.1587
vn -0.0000 0.9873 0.1587
vn 0.1926 0.9684 -0.1587
vn 0.1926 0.9684 0.1587
vn 0.3778 0.9122 -0.1587
vn 0.3778 0.9122 0.1587
vn 0.5485 0.8209 -0.1587
vn 0.5485 0.8209 0.1587
vn 0.6981 0.6981 -0.1587
vn 0.6982 0.6981 0.1587
vn 0.8209 0.5485 -0.1587
vn 0.8209 0.5485 0.1587
vn 0.9122 0.3778 -0.1587
vn 0.9122 0.3778 0.1587
vn 0.9684 0.1926 -0.1587
vn 0.9684 0.1926 0.1587
vn 0.9873 -0.0000 -0.1587
vn 0.9873 -0.0000 0.1587
vn 0.9684 -0.1926 -0.1587
vn 0.9684 -0.1926 0.1587
vn 0.9122 -0.3778 -0.1587
vn 0.9122 -0.3778 0.1587
vn 0.8209 -0.5485 -0.1587
vn 0.8209 -0.5485 0.1587
vn 0.6981 -0.6981 -0.1587
vn 0.6981 -0.6982 0.1587
vn 0.5485 -0.8209 -0.1587
vn 0.5485 -0.8209 0.1587
vn 0.3778 -0.9122 -0.1587
vn 0.3778 -0.9122 0.1587
vn 0.1926 -0.9684 -0.1587
vn 0.1926 -0.9684 0.1587
vn -0.0000 -0.9873 -0.1587
vn -0.0000 -0.9873 0.1587
vn -0.1926 -0.9684 -0.1587
vn -0.1926 -0.9684 0.1587
vn -0.3778 -0.9122 -0.1587
vn -0.3778 -0.9122 0.1587
vn -0.5485 -0.8209 -0.1587
vn -0.5485 -0.8209 0.1587
vn -0.6981 -0.6981 -0.1587
vn -0.6982 -0.6981 0.1587
vn -0.8209 -0.5485 -0.1587
vn -0.8209 -0.5485 0.1587
vn -0.9122 -0.3778 -0.1587
vn -0.9122 -0.3778 0.1587
vn -0.9684 -0.1926 -0.1587
vn -0.9684 -0.1926 0.1587
vn -0.9873 -0.0000 -0.1587
vn -0.9873 -0.0000 0.1587
vn -0.9684 0.1926 -0.1587
vn -0.9684 0.1926 0.1587
vn -0.9122 0.3778 -0.1587
vn -0.9122 0.3778 0.1587
vn -0.8209 0.5485 -0.1587
vn -0.8209 0.5485 0.1587
vn -0.6981 0.6981 -0.1587
vn -0.6981 0.6982 0.1587
vn -0.5485 0.8209 -0.1587
vn -0.5485 0.8209 0.1587
vn -0.3778 0.9122 -0.1587
vn -0.3778 0.9122 0.1587
vn -0.1926 0.9684 -0.1587
vn -0.1926 0.9684 0.1587
vn 0.6981 0.6982 -0.1587
vn 0.6981 0.6981 0.1587
vn 0.6982 -0.6981 -0.1587
vn -0.6981 -0.6982 -0.1587
vn -0.6981 -0.6981 0.1587
vn -0.6982 0.6981 -0.1587
vn 0.6981 0.6982 0.1587
vn 0.6981 -0.6982 -0.1587
vn -0.6981 -0.6982 0.1587
vn -0.6981 0.6982 -0.1587
vn -0.6100 0.7924 -0.0000
vn 0.6100 0.7924 -0.0000
vn -0.7697 0.6291 -0.1085
vn 0.7697 0.6292 -0.1085
vn -0.9099 0.3863 -0.1514
vn 0.9099 0.3863 -0.1514
vn -0.9544 0.2505 -0.1626
vn 0.9544 0.2505 -0.1626
vn -0.9713 0.1697 -0.1667
vn 0.9713 0.1697 -0.1667
vn -0.9791 0.1141 -0.1685
vn 0.9791 0.1141 -0.1685
vn -0.9830 0.0709 -0.1694
vn 0.9830 0.0709 -0.1694
vn -0.9849 0.0341 -0.1698
vn 0.9849 0.0341 -0.1698
vn -0.9855 -0.0000 -0.1699
vn 0.9855 -0.0000 -0.1699
vn -0.9849 -0.0341 -0.1698
vn 0.9849 -0.0341 -0.1698
vn -0.9830 -0.0709 -0.1693
vn 0.9830 -0.0709 -0.1694
vn -0.9791 -0.1141 -0.1685
vn 0.9791 -0.1141 -0.1685
vn -0.9713 -0.1697 -0.1667
vn 0.9713 -0.1698 -0.1667
vn -0.9544 -0.2505 -0.1626
vn 0.9544 -0.2505 -0.1626
vn -0.9099 -0.3863 -0.1514
vn 0.9099 -0.3863 -0.1514
vn -0.7697 -0.6291 -0.1085
vn 0.7697 -0.6291 -0.1085
vn -0.6100 -0.7924 -0.0000
vn 0.6100 -0.7924 -0.0000
vn -0.7697 -0.6291 0.1085
vn 0.7697 -0.6292 0.1085
vn -0.9099 -0.3863 0.1514
vn 0.9099 -0.3863 0.1514
vn -0.9544 -0.2505 0.1626
vn 0.9544 -0.2505 0.1626
vn -0.9713 -0.1697 0.1667
vn 0.9713 -0.1697 0.1667
vn -0.9791 -0.1141 0.1685
vn 0.9791 -0.1141 0.1685
vn -0.9830 -0.0709 0.1694
vn 0.9830 -0.0709 0.1694
vn -0.9849 -0.0341 0.1698
vn 0.9849 -0.0341 0.1698
vn -0.9855 -0.0000 0.1699
vn 0.9855 -0.0000 0.1699
vn -0.9849 0.0341 0.1698
vn 0.9849 0.0341 0.1698
vn -0.9830 0.0709 0.1693
vn 0.9830 0.0709 0.1694
vn -0.9791 0.1141 0.1685
vn 0.9791 0.1141 0.1685
vn -0.9713 0.1697 0.1667
vn 0.9713 0.1697 0.1667
vn -0.9544 0.2505 0.1626
vn 0.9544 0.2505 0.1626
vn -0.9099 0.3863 0.1514
vn 0.9099 0.3863 0.1514
vn -0.7697 0.6291 0.1085
vn 0.7697 0.6291 0.1085
vn 0.7697 0.6291 -0.1085
vn 0.9713 0.1698 -0.1667
vn 0.9098 -0.3864 0.1514
vn 0.9713 -0.1698 0.1667
vt 1.000000 1.000000
vt 0.968750 0.500000
vt 1.000000 0.500000
vt 0.968750 1.000000
vt 0.937500 0.500000
vt 0.937500 1.000000
vt 0.906250 0.500000
vt 0.906250 1.000000
vt 0.875000 0.500000
vt 0.875000 1.000000
vt 0.843750 0.500000
vt 0.843750 1.000000
vt 0.812500 0.500000
vt 0.812500 1.000000
vt 0.781250 0.500000
vt 0.781250 1.000000
vt 0.750000 0.500000
vt 0.750000 1.000000
vt 0.718750 0.500000
vt 0.718750 1.000000
vt 0.687500 0.500000
vt 0.687500 1.000000
vt 0.656250 0.500000
vt 0.656250 1.000000
vt 0.625000 0.500000
vt 0.625000 1.000000
vt 0.593750 0.500000
vt 0.593750 1.000000
vt 0.562500 0.500000
vt 0.562500 1.000000
vt 0.531250 0.500000
vt 0.531250 1.000000
vt 0.500000 0.500000
vt 0.500000 1.000000
vt 0.468750 0.500000
vt 0.468750 1.000000
vt 0.437500 0.500000
vt 0.437500 1.000000
vt 0.406250 0.500000
vt 0.406250 1.000000
vt 0.375000 0.500000
vt 0.375000 1.000000
vt 0.343750 0.500000
vt 0.343750 1.000000
vt 0.312500 0.500000
vt 0.312500 1.000000
vt 0.281250 0.500000
vt 0.281250 1.000000
vt 0.250000 0.500000
vt 0.250000 1.000000
vt 0.218750 0.500000
vt 0.218750 1.000000
vt 0.187500 0.500000
vt 0.187500 1.000000
vt 0.156250 0.500000
vt 0.156250 1.000000
vt 0.125000 0.500000
vt 0.125000 1.000000
vt 0.093750 0.500000
vt 0.093750 1.000000
vt 0.062500 0.500000
vt 0.158156 0.028269
vt 0.471731 0.158156
vt 0.341844 0.471731
vt 0.062500 1.000000
vt 0.031250 0.500000
vt 0.031250 1.000000
vt 0.000000 0.500000
vt 0.796822 0.014612
vt 0.514612 0.203178
vt 0.703178 0.485388
vt 0.341844 0.028269
vt 0.028269 0.341844
vt 0.616663 0.050447
vt 0.419706 0.419706
vt 0.383337 0.449553
vt 0.080294 0.419706
vt 0.616663 0.449553
vt 0.658156 0.471731
vt 0.883337 0.449553
vt 0.296822 0.485388
vt 0.250000 0.490000
vt 0.203178 0.485388
vt 0.158156 0.471731
vt 0.116663 0.449553
vt 0.050447 0.383337
vt 0.014612 0.296822
vt 0.010000 0.250000
vt 0.014612 0.203178
vt 0.028269 0.158156
vt 0.050447 0.116663
vt 0.080294 0.080294
vt 0.116663 0.050447
vt 0.203178 0.014612
vt 0.250000 0.010000
vt 0.296822 0.014612
vt 0.383337 0.050447
vt 0.419706 0.080294
vt 0.449553 0.116663
vt 0.485388 0.203178
vt 0.471731 0.341844
vt 0.490000 0.250000
vt 0.485388 0.296822
vt 0.449553 0.383337
vt 0.000000 1.000000
vt 0.750000 0.490000
vt 0.796822 0.485388
vt 0.841844 0.471731
vt 0.919706 0.419706
vt 0.949553 0.383337
vt 0.971731 0.341844
vt 0.985388 0.296822
vt 0.990000 0.250000
vt 0.985388 0.203178
vt 0.971731 0.158156
vt 0.949553 0.116663
vt 0.919706 0.080294
vt 0.883337 0.050447
vt 0.841844 0.028269
vt 0.750000 0.010000
vt 0.703178 0.014612
vt 0.658156 0.028269
vt 0.580294 0.080294
vt 0.550447 0.116663
vt 0.528269 0.158156
vt 0.510000 0.250000
vt 0.514612 0.296822
vt 0.528269 0.341844
vt 0.550447 0.383337
vt 0.580294 0.419706
s 1
f 2/1/2 3/2/3 1/3/1
f 4/4/4 5/5/5 3/2/3
f 6/6/6 7/7/7 5/5/5
f 8/8/8 9/9/9 7/7/7
f 10/10/10 11/11/11 9/9/9
f 12/12/12 13/13/13 11/11/11
f 14/14/14 15/15/15 13/13/13
f 16/16/16 17/17/17 15/15/15
f 18/18/18 19/19/19 17/17/17
f 20/20/20 21/21/21 19/19/19
f 22/22/22 23/23/23 21/21/21
f 24/24/24 25/25/25 23/23/23
f 26/26/26 27/27/27 25/25/25
f 28/28/28 29/29/29 27/27/27
f 30/30/30 31/31/31 29/29/29
f 32/32/32 33/33/33 31/31/31
f 34/34/34 35/35/35 33/33/33
f 36/36/36 37/37/37 35/35/35
f 38/38/38 39/39/39 37/37/37
f 40/40/40 41/41/41 39/39/39
f 42/42/42 43/43/43 41/41/41
f 44/44/44 45/45/45 43/43/43
f 46/46/46 47/47/47 45/45/45
f 48/48/48 49/49/49 47/47/47
f 50/50/50 51/51/51 49/49/49
f 52/52/52 53/53/53 51/51/51
f 54/54/54 55/55/55 53/53/53
f 56/56/56 57/57/57 55/55/55
f 58/58/58 59/59/59 57/57/57
f 60/60/60 61/61/61 59/59/59
f 38/62/38 22/63/22 6/64/6
f 62/65/62 63/66/63 61/61/61
f 64/67/64 1/68/1 63/66/63
f 31/69/31 47/70/47 63/71/63
f 66/1/2 67/2/3 65/3/1
f 68/4/4 69/5/5 67/2/3
f 70/6/6 71/7/7 69/5/5
f 72/8/8 73/9/65 71/7/7
f 74/10/66 75/11/11 73/9/65
f 76/12/12 77/13/13 75/11/11
f 78/14/14 79/15/15 77/13/13
f 80/16/16 81/17/17 79/15/15
f 82/18/18 83/19/19 81/17/17
f 84/20/20 85/21/21 83/19/19
f 86/22/22 87/23/23 85/21/21
f 88/24/24 89/25/67 87/23/23
f 90/26/26 91/27/27 89/25/67
f 92/28/28 93/29/29 91/27/27
f 94/30/30 95/31/31 93/29/29
f 96/32/32 97/33/33 95/31/31
f 98/34/34 99/35/35 97/33/33
f 100/36/36 101/37/37 99/35/35
f 102/38/38 103/39/39 101/37/37
f 104/40/40 105/41/68 103/39/39
f 106/42/69 107/43/43 105/41/68
f 108/44/44 109/45/45 107/43/43
f 110/46/46 111/47/47 109/45/45
f 112/48/48 113/49/49 111/47/47
f 114/50/50 115/51/51 113/49/49
f 116/52/52 117/53/53 115/51/51
f 118/54/54 119/55/55 117/53/53
f 120/56/56 121/57/70 119/55/55
f 122/58/58 123/59/59 121/57/70
f 124/60/60 125/61/61 123/59/59
f 94/72/30 86/63/22 70/64/6
f 126/65/62 127/66/63 125/61/61
f 128/67/64 65/68/1 127/66/63
f 95/69/31 111/70/47 127/71/63
f 130/1/2 131/2/3 129/3/1
f 132/4/4 133/5/5 131/2/3
f 134/6/6 135/7/7 133/5/5
f 136/8/8 137/9/65 135/7/7
f 138/10/71 139/11/11 137/9/65
f 140/12/12 141/13/13 139/11/11
f 142/14/14 143/15/15 141/13/13
f 144/16/16 145/17/17 143/15/15
f 146/18/18 147/19/19 145/17/17
f 148/20/20 149/21/21 147/19/19
f 150/22/22 151/23/23 149/21/21
f 152/24/24 153/25/72 151/23/23
f 154/26/26 155/27/27 153/25/72
f 156/28/28 157/29/29 155/27/27
f 158/30/30 159/31/31 157/29/29
f 160/32/32 161/33/33 159/31/31
f 162/34/34 163/35/35 161/33/33
f 164/36/36 165/37/37 163/35/35
f 166/38/38 167/39/39 165/37/37
f 168/40/40 169/41/68 167/39/39
f 170/42/73 171/43/43 169/41/68
f 172/44/44 173/45/45 171/43/43
f 174/46/46 175/47/47 173/45/45
f 176/48/48 177/49/49 175/47/47
f 178/50/50 179/51/51 177/49/49
f 180/52/52 181/53/53 179/51/51
f 182/54/54 183/55/55 181/53/53
f 184/56/56 185/57/74 183/55/55
f 186/58/58 187/59/59 185/57/74
f 188/60/60 189/61/61 187/59/59
f 182/73/54 166/62/38 150/63/22
f 190/65/62 191/66/63 189/61/61
f 192/67/64 129/68/1 191/66/63
f 167/74/39 175/70/47 191/71/63
f 194/1/76 195/2/77 193/3/75
f 196/4/78 197/5/79 195/2/77
f 198/6/80 199/7/81 197/5/79
f 200/8/82 201/9/83 199/7/81
f 202/10/84 203/11/85 201/9/83
f 204/12/86 205/13/87 203/11/85
f 205/13/87 208/16/90 207/15/89
f 208/16/90 209/17/91 207/15/89
f 210/18/92 211/19/93 209/17/91
f 211/19/93 214/22/96 213/21/95
f 214/22/96 215/23/97 213/21/95
f 216/24/98 217/25/99 215/23/97
f 218/26/100 219/27/101 217/25/99
f 220/28/102 221/29/103 219/27/101
f 222/30/104 223/31/105 221/29/103
f 224/32/106 225/33/107 223/31/105
f 226/34/108 227/35/109 225/33/107
f 228/36/110 229/37/111 227/35/109
f 230/38/112 231/39/113 229/37/111
f 232/40/114 233/41/115 231/39/113
f 234/42/116 235/43/117 233/41/115
f 236/44/118 237/45/119 235/43/117
f 238/46/120 239/47/121 237/45/119
f 240/48/122 241/49/123 239/47/121
f 242/50/124 243/51/125 241/49/123
f 244/52/126 245/53/127 243/51/125
f 246/54/128 247/55/129 245/53/127
f 248/56/130 249/57/131 247/55/129
f 250/58/132 251/59/133 249/57/131
f 252/60/134 253/61/135 251/59/133
f 202/75/84 200/76/82 250/77/132
f 254/65/136 255/66/137 253/61/135
f 256/67/138 193/68/75 255/66/137
f 251/78/133 253/79/135 199/80/81
f 258/1/76 259/2/77 257/3/75
f 260/4/139 261/5/79 259/2/77
f 262/6/80 263/7/81 261/5/79
f 264/8/82 265/9/83 263/7/81
f 266/10/140 267/11/85 265/9/83
f 268/12/86 269/13/87 267/11/85
f 269/13/87 272/16/90 271/15/89
f 272/16/90 273/17/91 271/15/89
f 274/18/92 275/19/93 273/17/91
f 275/19/93 278/22/96 277/21/95
f 278/22/96 279/23/97 277/21/95
f 280/24/98 281/25/99 279/23/97
f 282/26/100 283/27/101 281/25/99
f 284/28/102 285/29/103 283/27/101
f 286/30/104 287/31/105 285/29/103
f 288/32/106 289/33/107 287/31/105
f 290/34/108 291/35/109 289/33/107
f 292/36/110 293/37/111 291/35/109
f 294/38/141 295/39/113 293/37/111
f 296/40/114 297/41/115 295/39/113
f 298/42/142 299/43/117 297/41/115
f 300/44/118 301/45/119 299/43/117
f 302/46/120 303/47/121 301/45/119
f 304/48/122 305/49/123 303/47/121
f 306/50/124 307/51/125 305/49/123
f 308/52/126 309/53/127 307/51/125
f 310/54/128 311/55/129 309/53/127
f 312/56/130 313/57/131 311/55/129
f 314/58/132 315/59/133 313/57/131
f 315/59/133 318/65/136 317/61/135
f 266/75/140 264/76/82 314/77/132
f 318/65/136 319/66/137 317/61/135
f 320/67/138 257/68/75 319/66/137
f 315/78/133 317/79/135 263/80/81
f 2/1/2 4/4/4 3/2/3
f 4/4/4 6/6/6 5/5/5
f 6/6/6 8/8/8 7/7/7
f 8/8/8 10/10/10 9/9/9
f 10/10/10 12/12/12 11/11/11
f 12/12/12 14/14/14 13/13/13
f 14/14/14 16/16/16 15/15/15
f 16/16/16 18/18/18 17/17/17
f 18/18/18 20/20/20 19/19/19
f 20/20/20 22/22/22 21/21/21
f 22/22/22 24/24/24 23/23/23
f 24/24/24 26/26/26 25/25/25
f 26/26/26 28/28/28 27/27/27
f 28/28/28 30/30/30 29/29/29
f 30/30/30 32/32/32 31/31/31
f 32/32/32 34/34/34 33/33/33
f 34/34/34 36/36/36 35/35/35
f 36/36/36 38/38/38 37/37/37
f 38/38/38 40/40/40 39/39/39
f 40/40/40 42/42/42 41/41/41
f 42/42/42 44/44/44 43/43/43
f 44/44/44 46/46/46 45/45/45
f 46/46/46 48/48/48 47/47/47
f 48/48/48 50/50/50 49/49/49
f 50/50/50 52/52/52 51/51/51
f 52/52/52 54/54/54 53/53/53
f 54/54/54 56/56/56 55/55/55
f 56/56/56 58/58/58 57/57/57
f 58/58/58 60/60/60 59/59/59
f 60/60/60 62/65/62 61/61/61
f 6/64/6 4/81/4 2/82/2
f 2/82/2 64/83/64 6/64/6
f 64/83/64 62/84/62 6/64/6
f 62/84/62 60/85/60 58/77/58
f 58/77/58 56/86/56 54/73/54
f 54/73/54 52/87/52 50/88/50
f 50/88/50 48/89/48 54/73/54
f 48/89/48 46/90/46 54/73/54
f 46/90/46 44/91/44 42/92/42
f 42/92/42 40/93/40 38/62/38
f 38/62/38 36/94/36 30/72/30
f 36/94/36 34/95/34 30/72/30
f 34/95/34 32/96/32 30/72/30
f 30/72/30 28/97/28 26/98/26
f 26/98/26 24/99/24 22/63/22
f 22/63/22 20/100/20 14/101/14
f 20/100/20 18/102/18 14/101/14
f 18/102/18 16/103/16 14/101/14
f 14/101/14 12/104/12 10/75/10
f 10/75/10 8/76/8 6/64/6
f 62/84/62 58/77/58 6/64/6
f 58/77/58 54/73/54 6/64/6
f 46/90/46 42/92/42 54/73/54
f 42/92/42 38/62/38 54/73/54
f 30/72/30 26/98/26 38/62/38
f 26/98/26 22/63/22 38/62/38
f 14/101/14 10/75/10 22/63/22
f 10/75/10 6/64/6 22/63/22
f 6/64/6 54/73/54 38/62/38
f 62/65/62 64/67/64 63/66/63
f 64/67/64 2/105/2 1/68/1
f 63/71/63 1/106/1 3/107/3
f 3/107/3 5/108/5 7/80/7
f 7/80/7 9/109/9 11/110/11
f 11/110/11 13/111/13 15/112/15
f 15/112/15 17/113/17 19/114/19
f 19/114/19 21/115/21 23/116/23
f 23/116/23 25/117/25 27/118/27
f 27/118/27 29/119/29 31/69/31
f 31/69/31 33/120/33 35/121/35
f 35/121/35 37/122/37 39/74/39
f 39/74/39 41/123/41 43/124/43
f 43/124/43 45/125/45 47/70/47
f 47/70/47 49/126/49 51/127/51
f 51/127/51 53/128/53 55/129/55
f 55/129/55 57/130/57 59/78/59
f 59/78/59 61/79/61 63/71/63
f 63/71/63 3/107/3 15/112/15
f 3/107/3 7/80/7 15/112/15
f 7/80/7 11/110/11 15/112/15
f 15/112/15 19/114/19 31/69/31
f 19/114/19 23/116/23 31/69/31
f 23/116/23 27/118/27 31/69/31
f 31/69/31 35/121/35 47/70/47
f 35/121/35 39/74/39 47/70/47
f 39/74/39 43/124/43 47/70/47
f 47/70/47 51/127/51 63/71/63
f 51/127/51 55/129/55 63/71/63
f 55/129/55 59/78/59 63/71/63
f 63/71/63 15/112/15 31/69/31
f 66/1/2 68/4/4 67/2/3
f 68/4/4 70/6/6 69/5/5
f 70/6/6 72/8/8 71/7/7
f 72/8/8 74/10/66 73/9/65
f 74/10/66 76/12/12 75/11/11
f 76/12/12 78/14/14 77/13/13
f 78/14/14 80/16/16 79/15/15
f 80/16/16 82/18/18 81/17/17
f 82/18/18 84/20/20 83/19/19
f 84/20/20 86/22/22 85/21/21
f 86/22/22 88/24/24 87/23/23
f 88/24/24 90/26/26 89/25/67
f 90/26/26 92/28/28 91/27/27
f 92/28/28 94/30/30 93/29/29
f 94/30/30 96/32/32 95/31/31
f 96/32/32 98/34/34 97/33/33
f 98/34/34 100/36/36 99/35/35
f 100/36/36 102/38/38 101/37/37
f 102/38/38 104/40/40 103/39/39
f 104/40/40 106/42/69 105/41/68
f 106/42/69 108/44/44 107/43/43
f 108/44/44 110/46/46 109/45/45
f 110/46/46 112/48/48 111/47/47
f 112/48/48 114/50/50 113/49/49
f 114/50/50 116/52/52 115/51/51
f 116/52/52 118/54/54 117/53/53
f 118/54/54 120/56/56 119/55/55
f 120/56/56 122/58/58 121/57/70
f 122/58/58 124/60/60 123/59/59
f 124/60/60 126/65/62 125/61/61
f 70/64/6 68/81/4 66/82/2
f 66/82/2 128/83/64 126/84/62
f 126/84/62 124/85/60 118/73/54
f 124/85/60 122/77/58 118/73/54
f 122/77/58 120/86/56 118/73/54
f 118/73/54 116/87/52 114/88/50
f 114/88/50 112/89/48 110/90/46
f 110/90/46 108/91/44 106/92/69
f 106/92/69 104/93/40 110/90/46
f 104/93/40 102/62/38 110/90/46
f 102/62/38 100/94/36 98/95/34
f 98/95/34 96/96/32 94/72/30
f 94/72/30 92/97/28 86/63/22
f 92/97/28 90/98/26 86/63/22
f 90/98/26 88/99/24 86/63/22
f 86/63/22 84/100/20 82/102/18
f 82/102/18 80/103/16 78/101/14
f 78/101/14 76/104/12 74/75/66
f 74/75/66 72/76/8 78/101/14
f 72/76/8 70/64/6 78/101/14
f 70/64/6 66/82/2 126/84/62
f 118/73/54 114/88/50 102/62/38
f 114/88/50 110/90/46 102/62/38
f 102/62/38 98/95/34 94/72/30
f 86/63/22 82/102/18 70/64/6
f 82/102/18 78/101/14 70/64/6
f 70/64/6 126/84/62 102/62/38
f 126/84/62 118/73/54 102/62/38
f 102/62/38 94/72/30 70/64/6
f 126/65/62 128/67/64 127/66/63
f 128/67/64 66/105/2 65/68/1
f 127/71/63 65/106/1 67/107/3
f 67/107/3 69/108/5 127/71/63
f 69/108/5 71/80/7 127/71/63
f 71/80/7 73/109/65 75/110/11
f 75/110/11 77/111/13 71/80/7
f 77/111/13 79/112/15 71/80/7
f 79/112/15 81/113/17 83/114/19
f 83/114/19 85/115/21 87/116/23
f 87/116/23 89/117/67 91/118/27
f 91/118/27 93/119/29 87/116/23
f 93/119/29 95/69/31 87/116/23
f 95/69/31 97/120/33 99/121/35
f 99/121/35 101/122/37 95/69/31
f 101/122/37 103/74/39 95/69/31
f 103/74/39 105/123/68 107/124/43
f 107/124/43 109/125/45 103/74/39
f 109/125/45 111/70/47 103/74/39
f 111/70/47 113/126/49 115/127/51
f 115/127/51 117/128/53 119/129/55
f 119/129/55 121/130/70 123/78/59
f 123/78/59 125/79/61 119/129/55
f 125/79/61 127/71/63 119/129/55
f 79/112/15 83/114/19 95/69/31
f 83/114/19 87/116/23 95/69/31
f 111/70/47 115/127/51 127/71/63
f 115/127/51 119/129/55 127/71/63
f 127/71/63 71/80/7 79/112/15
f 95/69/31 103/74/39 111/70/47
f 127/71/63 79/112/15 95/69/31
f 130/1/2 132/4/4 131/2/3
f 132/4/4 134/6/6 133/5/5
f 134/6/6 136/8/8 135/7/7
f 136/8/8 138/10/71 137/9/65
f 138/10/71 140/12/12 139/11/11
f 140/12/12 142/14/14 141/13/13
f 142/14/14 144/16/16 143/15/15
f 144/16/16 146/18/18 145/17/17
f 146/18/18 148/20/20 147/19/19
f 148/20/20 150/22/22 149/21/21
f 150/22/22 152/24/24 151/23/23
f 152/24/24 154/26/26 153/25/72
f 154/26/26 156/28/28 155/27/27
f 156/28/28 158/30/30 157/29/29
f 158/30/30 160/32/32 159/31/31
f 160/32/32 162/34/34 161/33/33
f 162/34/34 164/36/36 163/35/35
f 164/36/36 166/38/38 165/37/37
f 166/38/38 168/40/40 167/39/39
f 168/40/40 170/42/73 169/41/68
f 170/42/73 172/44/44 171/43/43
f 172/44/44 174/46/46 173/45/45
f 174/46/46 176/48/48 175/47/47
f 176/48/48 178/50/50 177/49/49
f 178/50/50 180/52/52 179/51/51
f 180/52/52 182/54/54 181/53/53
f 182/54/54 184/56/56 183/55/55
f 184/56/56 186/58/58 185/57/74
f 186/58/58 188/60/60 187/59/59
f 188/60/60 190/65/62 189/61/61
f 134/64/6 132/81/4 130/82/2
f 130/82/2 192/83/64 190/84/62
f 190/84/62 188/85/60 182/73/54
f 188/85/60 186/77/58 182/73/54
f 186/77/58 184/86/56 182/73/54
f 182/73/54 180/87/52 178/88/50
f 178/88/50 176/89/48 174/90/46
f 174/90/46 172/91/44 170/92/73
f 170/92/73 168/93/40 174/90/46
f 168/93/40 166/62/38 174/90/46
f 166/62/38 164/94/36 162/95/34
f 162/95/34 160/96/32 158/72/30
f 158/72/30 156/97/28 150/63/22
f 156/97/28 154/98/26 150/63/22
f 154/98/26 152/99/24 150/63/22
f 150/63/22 148/100/20 146/102/18
f 146/102/18 144/103/16 142/101/14
f 142/101/14 140/104/12 138/75/71
f 138/75/71 136/76/8 142/101/14
f 136/76/8 134/64/6 142/101/14
f 134/64/6 130/82/2 190/84/62
f 182/73/54 178/88/50 174/90/46
f 166/62/38 162/95/34 158/72/30
f 150/63/22 146/102/18 142/101/14
f 134/64/6 190/84/62 182/73/54
f 182/73/54 174/90/46 166/62/38
f 166/62/38 158/72/30 150/63/22
f 150/63/22 142/101/14 134/64/6
f 134/64/6 182/73/54 150/63/22
f 190/65/62 192/67/64 191/66/63
f 192/67/64 130/105/2 129/68/1
f 191/71/63 129/106/1 135/80/7
f 129/106/1 131/107/3 135/80/7
f 131/107/3 133/108/5 135/80/7
f 135/80/7 137/109/65 139/110/11
f 139/110/11 141/111/13 135/80/7
f 141/111/13 143/112/15 135/80/7
f 143/112/15 145/113/17 147/114/19
f 147/114/19 149/115/21 143/112/15
f 149/115/21 151/116/23 143/112/15
f 151/116/23 153/117/72 155/118/27
f 155/118/27 157/119/29 159/69/31
f 159/69/31 161/120/33 167/74/39
f 161/120/33 163/121/35 167/74/39
f 163/121/35 165/122/37 167/74/39
f 167/74/39 169/123/68 171/124/43
f 171/124/43 173/125/45 167/74/39
f 173/125/45 175/70/47 167/74/39
f 175/70/47 177/126/49 179/127/51
f 179/127/51 181/128/53 175/70/47
f 181/128/53 183/129/55 175/70/47
f 183/129/55 185/130/74 187/78/59
f 187/78/59 189/79/61 191/71/63
f 151/116/23 155/118/27 143/112/15
f 155/118/27 159/69/31 143/112/15
f 183/129/55 187/78/59 175/70/47
f 187/78/59 191/71/63 175/70/47
f 191/71/63 135/80/7 159/69/31
f 135/80/7 143/112/15 159/69/31
f 159/69/31 167/74/39 191/71/63
f 194/1/76 196/4/78 195/2/77
f 196/4/78 198/6/80 197/5/79
f 198/6/80 200/8/82 199/7/81
f 200/8/82 202/10/84 201/9/83
f 202/10/84 204/12/86 203/11/85
f 204/12/86 206/14/88 205/13/87
f 205/13/87 206/14/88 208/16/90
f 208/16/90 210/18/92 209/17/91
f 210/18/92 212/20/94 211/19/93
f 211/19/93 212/20/94 214/22/96
f 214/22/96 216/24/98 215/23/97
f 216/24/98 218/26/100 217/25/99
f 218/26/100 220/28/102 219/27/101
f 220/28/102 222/30/104 221/29/103
f 222/30/104 224/32/106 223/31/105
f 224/32/106 226/34/108 225/33/107
f 226/34/108 228/36/110 227/35/109
f 228/36/110 230/38/112 229/37/111
f 230/38/112 232/40/114 231/39/113
f 232/40/114 234/42/116 233/41/115
f 234/42/116 236/44/118 235/43/117
f 236/44/118 238/46/120 237/45/119
f 238/46/120 240/48/122 239/47/121
f 240/48/122 242/50/124 241/49/123
f 242/50/124 244/52/126 243/51/125
f 244/52/126 246/54/128 245/53/127
f 246/54/128 248/56/130 247/55/129
f 248/56/130 250/58/132 249/57/131
f 250/58/132 252/60/134 251/59/133
f 252/60/134 254/65/136 253/61/135
f 198/64/80 196/81/78 256/83/138
f 196/81/78 194/82/76 256/83/138
f 256/83/138 254/84/136 198/64/80
f 254/84/136 252/85/134 198/64/80
f 252/85/134 250/77/132 200/76/82
f 198/64/80 252/85/134 200/76/82
f 250/77/132 248/86/130 202/75/84
f 248/86/130 246/73/128 204/104/86
f 202/75/84 248/86/130 204/104/86
f 246/73/128 244/87/126 208/103/90
f 244/87/126 242/88/124 210/102/92
f 242/88/124 240/89/122 212/100/94
f 240/89/122 238/90/120 214/63/96
f 238/90/120 236/91/118 214/63/96
f 236/91/118 234/92/116 216/99/98
f 214/63/96 236/91/118 216/99/98
f 234/92/116 232/93/114 218/98/100
f 232/93/114 230/62/112 220/97/102
f 218/98/100 232/93/114 220/97/102
f 230/62/112 228/94/110 224/96/106
f 228/94/110 226/95/108 224/96/106
f 224/96/106 222/72/104 230/62/112
f 222/72/104 220/97/102 230/62/112
f 218/98/100 216/99/98 234/92/116
f 214/63/96 212/100/94 240/89/122
f 212/100/94 210/102/92 242/88/124
f 210/102/92 208/103/90 244/87/126
f 208/103/90 206/101/88 246/73/128
f 206/101/88 204/104/86 246/73/128
f 254/65/136 256/67/138 255/66/137
f 256/67/138 194/105/76 193/68/75
f 255/71/137 193/106/75 195/107/77
f 195/107/77 197/108/79 255/71/137
f 197/108/79 199/80/81 253/79/135
f 255/71/137 197/108/79 253/79/135
f 199/80/81 201/109/83 249/130/131
f 201/109/83 203/110/85 247/129/129
f 203/110/85 205/111/87 247/129/129
f 205/111/87 207/112/89 245/128/127
f 247/129/129 205/111/87 245/128/127
f 207/112/89 209/113/91 241/126/123
f 209/113/91 211/114/93 239/70/121
f 211/114/93 213/115/95 239/70/121
f 213/115/95 215/116/97 237/125/119
f 239/70/121 213/115/95 237/125/119
f 215/116/97 217/117/99 233/123/115
f 217/117/99 219/118/101 231/74/113
f 219/118/101 221/119/103 231/74/113
f 221/119/103 223/69/105 229/122/111
f 231/74/113 221/119/103 229/122/111
f 223/69/105 225/120/107 227/121/109
f 227/121/109 229/122/111 223/69/105
f 231/74/113 233/123/115 217/117/99
f 233/123/115 235/124/117 215/116/97
f 235/124/117 237/125/119 215/116/97
f 239/70/121 241/126/123 209/113/91
f 241/126/123 243/127/125 207/112/89
f 243/127/125 245/128/127 207/112/89
f 247/129/129 249/130/131 201/109/83
f 249/130/131 251/78/133 199/80/81
f 258/1/76 260/4/139 259/2/77
f 260/4/139 262/6/80 261/5/79
f 262/6/80 264/8/82 263/7/81
f 264/8/82 266/10/140 265/9/83
f 266/10/140 268/12/86 267/11/85
f 268/12/86 270/14/88 269/13/87
f 269/13/87 270/14/88 272/16/90
f 272/16/90 274/18/92 273/17/91
f 274/18/92 276/20/94 275/19/93
f 275/19/93 276/20/94 278/22/96
f 278/22/96 280/24/98 279/23/97
f 280/24/98 282/26/100 281/25/99
f 282/26/100 284/28/102 283/27/101
f 284/28/102 286/30/104 285/29/103
f 286/30/104 288/32/106 287/31/105
f 288/32/106 290/34/108 289/33/107
f 290/34/108 292/36/110 291/35/109
f 292/36/110 294/38/141 293/37/111
f 294/38/141 296/40/114 295/39/113
f 296/40/114 298/42/142 297/41/115
f 298/42/142 300/44/118 299/43/117
f 300/44/118 302/46/120 301/45/119
f 302/46/120 304/48/122 303/47/121
f 304/48/122 306/50/124 305/49/123
f 306/50/124 308/52/126 307/51/125
f 308/52/126 310/54/128 309/53/127
f 310/54/128 312/56/130 311/55/129
f 312/56/130 314/58/132 313/57/131
f 314/58/132 316/60/134 315/59/133
f 315/59/133 316/60/134 318/65/136
f 262/64/80 260/81/139 318/84/136
f 260/81/139 258/82/76 320/83/138
f 318/84/136 260/81/139 320/83/138
f 318/84/136 316/85/134 262/64/80
f 316/85/134 314/77/132 264/76/82
f 262/64/80 316/85/134 264/76/82
f 314/77/132 312/86/130 266/75/140
f 312/86/130 310/73/128 268/104/86
f 266/75/140 312/86/130 268/104/86
f 310/73/128 308/87/126 272/103/90
f 308/87/126 306/88/124 274/102/92
f 306/88/124 304/89/122 276/100/94
f 304/89/122 302/90/120 278/63/96
f 302/90/120 300/91/118 278/63/96
f 300/91/118 298/92/142 280/99/98
f 278/63/96 300/91/118 280/99/98
f 298/92/142 296/93/114 282/98/100
f 296/93/114 294/62/141 284/97/102
f 282/98/100 296/93/114 284/97/102
f 294/62/141 292/94/110 288/96/106
f 292/94/110 290/95/108 288/96/106
f 288/96/106 286/72/104 294/62/141
f 286/72/104 284/97/102 294/62/141
f 282/98/100 280/99/98 298/92/142
f 278/63/96 276/100/94 304/89/122
f 276/100/94 274/102/92 306/88/124
f 274/102/92 272/103/90 308/87/126
f 272/103/90 270/101/88 310/73/128
f 270/101/88 268/104/86 310/73/128
f 318/65/136 320/67/138 319/66/137
f 320/67/138 258/105/76 257/68/75
f 319/71/137 257/106/75 259/107/77
f 259/107/77 261/108/79 319/71/137
f 261/108/79 263/80/81 317/79/135
f 319/71/137 261/108/79 317/79/135
f 263/80/81 265/109/83 313/130/131
f 265/109/83 267/110/85 311/129/129
f 267/110/85 269/111/87 311/129/129
f 269/111/87 271/112/89 309/128/127
f 311/129/129 269/111/87 309/128/127
f 271/112/89 273/113/91 305/126/123
f 273/113/91 275/114/93 303/70/121
f 275/114/93 277/115/95 303/70/121
f 277/115/95 279/116/97 301/125/119
f 303/70/121 277/115/95 301/125/119
f 279/116/97 281/117/99 297/123/115
f 281/117/99 283/118/101 295/74/113
f 283/118/101 285/119/103 295/74/113
f 285/119/103 287/69/105 293/122/111
f 295/74/113 285/119/103 293/122/111
f 287/69/105 289/120/107 291/121/109
f 291/121/109 293/122/111 287/69/105
f 295/74/113 297/123/115 281/117/99
f 297/123/115 299/124/117 279/116/97
f 299/124/117 301/125/119 279/116/97
f 303/70/121 305/126/123 273/113/91
f 305/126/123 307/127/125 271/112/89
f 307/127/125 309/128/127 271/112/89
f 311/129/129 313/130/131 265/109/83
f 313/130/131 315/78/133 263/80/81
