# Blender 5.0.0
# www.blender.org
mtllib jeans.mtl
o pants3
v -0.679938 -0.119669 7.202088
v 0.609894 0.177189 7.339735
v -0.683539 0.474960 7.303969
v -0.008294 0.684723 7.348222
v 0.593635 0.802777 4.172889
v 0.518655 0.948884 5.768372
v 1.111444 0.481625 4.164526
v 1.107630 0.575899 5.995845
v 1.111444 -0.125213 4.181984
v 1.109309 -0.003354 5.916685
v 0.593607 -0.421616 4.197464
v 0.511786 -0.292086 5.761774
v 0.075660 -0.106527 4.199924
v 0.083794 -0.000123 5.802988
v 0.075827 0.511167 4.193001
v -0.000000 0.885669 5.739068
v 0.510128 1.013362 6.124545
v 1.097582 0.572654 6.226923
v 1.099858 -0.016611 6.137490
v 0.514300 -0.304815 5.884146
v 0.074507 -0.012474 5.904460
v -0.000000 1.036432 6.040930
v 0.401939 1.025064 6.348126
v 0.998598 0.557777 6.764499
v 0.994839 -0.091807 6.648082
v 0.436996 -0.339485 6.185642
v 0.071483 -0.028108 6.039104
v -0.000000 1.081880 6.169394
v -0.000000 0.003592 6.042364
v -0.000000 -0.314634 6.194039
v 0.000000 -0.400041 6.559813
v -0.000000 0.962561 6.846985
v -0.000000 1.047940 6.536043
v 0.743410 0.483614 7.113418
v 0.739446 -0.125285 7.005753
v 0.000000 -0.308637 6.932926
v -0.000000 0.698410 7.160184
v 1.100783 0.501052 3.998280
v 0.075557 -0.093866 4.024521
v 0.588238 0.831810 4.015772
v 1.100783 -0.098057 4.009825
v 0.075693 0.514136 4.021605
v 0.588215 -0.406687 4.111921
v 0.581706 -0.388667 4.008671
v -0.008294 -0.298725 7.133172
v 0.663349 -0.119669 7.202086
v 0.666950 0.474960 7.303968
v -0.593156 0.802778 4.172889
v -0.518655 0.948886 5.768371
v -1.110965 0.481625 4.164526
v -1.107630 0.575900 5.995843
v -1.110965 -0.125212 4.181984
v -1.109309 -0.003353 5.916684
v -0.593128 -0.421615 4.197464
v -0.511786 -0.292085 5.761773
v -0.075181 -0.106526 4.199924
v -0.083794 -0.000122 5.802986
v -0.075347 0.511168 4.193000
v -0.510128 1.013363 6.124544
v -1.097582 0.572655 6.226922
v -1.099858 -0.016610 6.137489
v -0.514300 -0.304814 5.884145
v -0.074507 -0.012473 5.904459
v -0.401939 1.025064 6.348126
v -0.998597 0.557777 6.764500
v -0.994839 -0.091807 6.648082
v -0.436996 -0.339484 6.185642
v -0.071483 -0.028108 6.039104
v -0.743410 0.483613 7.113420
v -0.739445 -0.125285 7.005754
v -1.100304 0.501053 3.998279
v -0.075078 -0.093866 4.024521
v -0.587759 0.831811 4.015772
v -1.100304 -0.098056 4.009825
v -0.075214 0.514137 4.021605
v -0.587735 -0.406686 4.111921
v -0.581227 -0.388667 4.008670
v -0.581227 -0.388667 3.848007
v -0.075214 0.514137 3.860941
v -1.100304 -0.098056 3.849161
v -0.587759 0.831811 3.855108
v -0.075078 -0.093866 3.863858
v -1.100304 0.501053 3.837615
v 0.581706 -0.388667 3.848007
v 0.075693 0.514136 3.860942
v 1.100783 -0.098057 3.849161
v 0.588238 0.831810 3.855109
v 0.075557 -0.093866 3.863858
v 1.100783 0.501052 3.837615
v -0.492097 -0.035087 7.215185
v -0.494691 0.393240 7.288572
v -0.008294 0.544338 7.320449
v -0.008294 -0.164065 7.165542
v 0.475509 -0.035086 7.215183
v 0.478102 0.393241 7.288571
v -0.596498 -0.268658 0.799931
v -0.077196 0.657081 0.759809
v -1.129208 0.029158 0.783932
v -0.603201 0.982212 0.735052
v -0.077056 0.034320 0.798742
v -1.129208 0.642296 0.736684
v 0.596977 -0.268659 0.799932
v 0.077675 0.657081 0.759810
v 1.129687 0.029156 0.783933
v 0.603681 0.982210 0.735053
v 0.077535 0.034319 0.798743
v 1.129687 0.642296 0.736685
v 0.599904 0.054693 0.783675
v 0.353759 0.493484 0.764658
v 0.852402 0.195855 0.776092
v 0.603081 0.647593 0.752923
v 0.353693 0.198301 0.783112
v 0.852402 0.486477 0.753696
v -0.600140 0.133784 0.779698
v -0.420809 0.453471 0.765843
v -0.784101 0.236630 0.774173
v -0.602455 0.565748 0.757293
v -0.420760 0.238412 0.779287
v -0.784101 0.448365 0.757857
vn -0.5257 0.8490 -0.0532
vn -0.5422 0.8402 -0.0000
vn -0.3680 0.8176 0.4429
vn 0.5668 -0.8205 -0.0737
vn -0.5166 -0.8484 -0.1155
vn 1.0000 0.0003 0.0054
vn 0.4845 0.8445 -0.2282
vn 0.9964 -0.0757 0.0378
vn -0.4845 0.8445 -0.2283
vn -0.9991 -0.0029 0.0426
vn 0.9896 -0.1010 -0.1029
vn -0.5538 -0.8256 -0.1083
vn 0.4540 -0.8852 -0.1014
vn 0.2832 0.9462 0.1566
vn -0.5437 -0.2632 0.7969
vn -0.4384 -0.8987 0.0091
vn 0.4532 -0.8908 -0.0341
vn -0.0968 0.9383 -0.3320
vn 0.5538 -0.8256 -0.1083
vn -0.9799 -0.0262 0.1977
vn -0.5461 0.8367 -0.0421
vn 0.4384 -0.8987 0.0091
vn 0.5517 -0.1440 0.8215
vn 0.3006 0.9502 0.0824
vn 0.5422 0.8402 -0.0000
vn -0.5405 0.8305 0.1349
vn -0.5261 0.8495 0.0388
vn 1.0000 -0.0000 -0.0000
vn -0.5034 -0.8633 -0.0365
vn 0.5428 0.8388 0.0431
vn -1.0000 0.0002 -0.0006
vn -0.0993 -0.9908 -0.0917
vn -0.2260 -0.4191 -0.8794
vn -0.0596 -0.9721 -0.2270
vn 0.0066 0.1170 -0.9931
vn 0.1759 0.9493 0.2607
vn -0.2995 0.9524 0.0561
vn 0.2124 -0.9491 0.2325
vn -0.9979 -0.0012 -0.0641
vn -0.9981 -0.0018 -0.0621
vn -0.4843 -0.8591 -0.1655
vn -0.5267 0.8475 0.0653
vn 0.4870 -0.8728 -0.0316
vn 1.0000 0.0002 -0.0006
vn 0.5033 -0.8641 -0.0000
vn 1.0000 0.0002 -0.0000
vn -0.4885 -0.8726 -0.0000
vn -0.5268 0.8500 -0.0000
vn 0.5268 0.8500 -0.0000
vn 0.5038 -0.8616 -0.0619
vn -0.9532 -0.0566 0.2969
vn -0.5584 0.7975 0.2285
vn 0.5966 -0.0479 0.8011
vn -0.4207 -0.9049 0.0640
vn 1.0000 -0.0000 0.0012
vn 0.4966 -0.8625 0.0974
vn -0.5191 -0.8536 0.0435
vn -0.5521 -0.8201 -0.1504
vn 0.2516 -0.9661 0.0582
vn -0.3086 -0.9420 0.1322
vn 0.4885 -0.8726 -0.0000
vn -0.9975 -0.0670 0.0237
vn 0.2283 -0.9667 0.1161
vn 0.1342 0.9909 0.0131
vn 0.5955 0.8025 0.0372
vn -0.4540 -0.8852 -0.1014
vn 0.0732 0.9817 -0.1760
vn 0.4183 -0.1324 0.8986
vn 0.5257 0.8490 -0.0530
vn 0.5561 0.8216 0.1251
vn -0.0073 -0.1688 0.9856
vn 0.9973 -0.0669 -0.0302
vn -1.0000 0.0002 -0.0000
vn -0.9829 -0.0379 0.1799
vn -0.4883 -0.8721 -0.0319
vn 0.5521 -0.8201 -0.1504
vn -1.0000 0.0003 0.0051
vn -0.5038 -0.8616 -0.0619
vn 0.5038 -0.8630 -0.0364
vn 0.4902 0.8715 0.0155
vn 0.5191 -0.8536 0.0437
vn 0.9991 -0.0029 0.0426
vn 1.0000 0.0026 0.0019
vn 0.5405 0.8305 0.1349
vn 0.0993 -0.9908 -0.0917
vn 0.2260 -0.4191 -0.8794
vn 0.0596 -0.9721 -0.2270
vn -0.0066 0.1170 -0.9931
vn 0.3680 0.8176 0.4429
vn 0.3086 -0.9420 0.1322
vn 0.8139 -0.1071 0.5711
vn -0.5588 -0.8273 0.0577
vn -1.0000 0.0003 0.0006
vn -0.4808 -0.8581 -0.1801
vn -0.4846 -0.8560 -0.1799
vn -0.4902 0.8715 0.0155
vn 0.5166 -0.8484 -0.1155
vn 0.9294 -0.0701 0.3622
vn 1.0000 0.0003 0.0006
vn -1.0000 0.0027 0.0017
vn 0.4843 -0.8591 -0.1655
vn 0.5731 -0.7844 -0.2372
vn 0.9799 -0.0262 0.1977
vn -0.5665 0.8131 -0.1336
vn -0.2305 -0.9682 0.0975
vn 0.9979 -0.0012 -0.0641
vn -0.1342 0.9909 0.0131
vn -0.3721 0.8355 0.4045
vn 0.4207 -0.9049 0.0641
vn -0.4532 -0.8908 -0.0341
vn -0.5668 -0.8205 -0.0737
vn -0.5731 -0.7844 -0.2372
vn 0.9951 -0.0960 -0.0253
vn -0.9550 -0.0577 0.2911
vn -0.4966 -0.8625 0.0972
vn -0.2623 -0.9529 0.1521
vn -0.1151 0.9887 -0.0960
vn 0.0073 -0.1688 0.9856
vn 0.0374 -0.2336 0.9716
vn -1.0000 -0.0000 -0.0000
vn -0.0040 -0.1941 0.9810
vn 0.0040 -0.1941 0.9810
vn -0.0374 -0.2336 0.9716
vn -0.9964 -0.0757 0.0378
vn -0.4183 -0.1324 0.8986
vn 0.4350 -0.8994 -0.0430
vn -0.5561 0.8216 0.1251
vn -0.2828 0.9501 0.1320
vn -0.0435 -0.4668 -0.8833
vn 0.0835 0.8915 -0.4453
vn 0.2529 0.7396 0.6238
vn 0.4846 -0.8560 -0.1799
vn -0.5517 -0.1440 0.8215
vn 0.5437 -0.2632 0.7969
vn -0.4350 -0.8994 -0.0430
vn -0.9991 -0.0027 0.0434
vn 0.1151 0.9887 -0.0959
vn 0.5241 0.8508 0.0384
vn -1.0000 0.0002 0.0094
vn 0.0435 -0.4668 -0.8833
vn -0.1759 0.9493 0.2607
vn -0.2529 0.7396 0.6238
vn -0.2124 -0.9491 0.2325
vn -0.8139 -0.1071 0.5711
vn -0.9973 -0.0669 -0.0302
vn 0.0968 0.9383 -0.3320
vn 0.5665 0.8131 -0.1336
vn -0.0835 0.8915 -0.4453
vn 0.5461 0.8367 -0.0419
vn 0.5584 0.7975 0.2285
vn 0.9975 -0.0670 0.0237
vn -0.5033 -0.8641 -0.0000
vn -0.9951 -0.0960 -0.0256
vn 0.5175 0.8381 0.1726
vn 0.5588 -0.8273 0.0579
vn 0.9991 -0.0027 0.0434
vn 0.5267 0.8475 0.0653
vn 0.3721 0.8355 0.4045
vn 0.2623 -0.9529 0.1521
vn 0.8132 -0.1065 0.5721
vn -1.0000 0.0002 0.0008
vn -0.5175 0.8381 0.1726
vn 0.9269 -0.0688 0.3688
vn 1.0000 0.0002 0.0008
vn -1.0000 -0.0000 0.0010
vn 0.4808 -0.8581 -0.1801
vn 0.9829 -0.0379 0.1799
vn -0.5955 0.8025 0.0372
vn -0.2538 -0.9665 0.0373
vn 0.9981 -0.0018 -0.0621
vn -0.9896 -0.1010 -0.1029
vn -0.0732 0.9817 -0.1760
vn -0.5966 -0.0479 0.8011
vn 1.0000 0.0007 0.0094
vn -0.5422 0.8392 0.0433
vn -0.8132 -0.1065 0.5721
vn -0.0194 -0.0624 -0.9979
vn -0.0019 -0.0502 -0.9987
vn -0.0180 -0.0768 -0.9969
vn -0.0141 -0.0533 -0.9985
vn -0.0313 -0.0532 -0.9981
vn -0.0269 -0.0500 -0.9984
vn 0.0269 -0.0500 -0.9984
vn 0.0194 -0.0624 -0.9979
vn 0.0019 -0.0502 -0.9987
vn 0.0140 -0.0533 -0.9985
vn 0.0180 -0.0768 -0.9969
vn 0.0313 -0.0532 -0.9981
vn -0.5241 0.8508 0.0384
vn -0.5038 -0.8630 -0.0364
vn 0.5421 0.8392 0.0433
vn 0.4883 -0.8721 -0.0319
vn -0.4870 -0.8728 -0.0316
vn 0.5034 -0.8633 -0.0365
vn 0.5261 0.8495 0.0388
vn -1.0000 0.0007 0.0094
vn 1.0000 0.0002 0.0094
vn -0.5428 0.8388 0.0431
vn 0.0141 -0.0533 -0.9985
vt 0.833333 0.500000
vt 1.000000 1.000000
vt 1.000000 0.500000
vt 0.833333 0.500000
vt 0.000000 0.000000
vt 0.333333 1.000000
vt 0.500000 1.000000
vt 0.333333 0.500000
vt 0.500000 0.500000
vt 0.500000 0.500000
vt 0.166667 0.500000
vt -0.000000 0.500000
vt 0.166667 1.000000
vt 0.666667 1.000000
vt 0.833333 1.000000
vt 0.042154 0.130000
vt 0.250000 0.010000
vt 0.457846 0.130000
vt -0.000000 1.000000
vt 0.457846 0.370000
vt 0.166667 0.500000
vt 0.666667 0.500000
vt 0.333333 0.500000
vt 0.042154 0.370000
vt 0.250000 0.490000
s 0
usemtl pants
f 50/1/1 49/2/1 48/3/1
f 71/4/2 81/3/2 83/4/2
f 32/5/3 65/5/3 69/5/3
f 57/6/4 62/7/4 55/7/4
f 13/8/5 44/9/5 43/10/5
f 58/11/6 57/6/6 56/8/6
f 48/12/7 16/13/7 58/11/7
f 16/13/8 22/13/8 63/6/8
f 16/13/9 5/12/9 15/11/9
f 61/14/10 51/15/10 53/14/10
f 16/13/11 63/6/11 57/6/11
f 20/7/12 27/6/12 21/6/12
f 10/14/13 20/7/13 12/7/13
f 37/5/14 47/5/14 34/5/14
f 27/16/15 26/17/15 25/18/15
f 61/14/16 62/7/16 67/7/16
f 19/14/17 20/7/17 10/14/17
f 59/19/18 28/13/18 22/13/18
f 68/6/19 62/7/19 63/6/19
f 66/14/20 60/15/20 61/14/20
f 50/1/21 51/15/21 49/2/21
f 19/14/22 26/7/22 20/7/22
f 65/20/23 66/18/23 68/16/23
f 37/5/24 4/5/24 47/5/24
f 38/4/25 87/3/25 40/3/25
f 48/3/26 73/3/26 71/4/26
f 87/12/27 103/21/27 85/21/27
f 38/4/28 86/22/28 89/4/28
f 84/9/29 106/23/29 102/9/29
f 89/4/30 105/3/30 87/3/30
f 85/21/31 106/23/31 88/23/31
f 28/13/32 23/19/32 33/5/32
f 27/5/33 30/5/33 29/5/33
f 26/5/34 31/5/34 30/5/34
f 29/5/35 28/24/35 27/16/35
f 32/5/36 23/5/36 33/5/36
f 37/5/37 3/5/37 4/5/37
f 31/5/38 35/5/38 36/5/38
f 50/1/39 71/4/39 74/22/39
f 50/1/40 74/22/40 52/22/40
f 74/22/41 76/10/41 52/22/41
f 48/3/42 71/4/42 50/1/42
f 86/22/43 102/9/43 104/22/43
f 79/21/44 100/23/44 97/21/44
f 13/8/5 43/10/5 11/10/5
f 77/9/45 82/23/45 72/23/45
f 75/21/46 82/23/46 79/21/46
f 77/9/47 80/22/47 78/9/47
f 40/12/48 85/21/48 42/21/48
f 73/12/49 79/21/49 81/12/49
f 56/8/50 77/9/50 72/23/50
f 69/20/51 1/18/51 3/20/51
f 60/15/52 64/2/52 59/2/52
f 65/20/53 68/16/53 64/25/53
f 52/22/54 55/7/54 53/14/54
f 7/1/55 10/14/55 9/22/55
f 9/22/56 12/7/56 11/10/56
f 12/7/57 13/8/57 11/10/57
f 14/6/58 20/7/58 21/6/58
f 36/5/59 46/5/59 45/5/59
f 67/5/60 70/5/60 66/5/60
f 44/9/61 86/22/61 41/22/61
f 22/13/62 27/6/62 28/13/62
f 36/5/63 35/5/63 46/5/63
f 17/19/64 28/13/64 23/19/64
f 8/15/65 17/2/65 18/15/65
f 62/7/66 53/14/66 55/7/66
f 6/19/67 22/13/67 17/19/67
f 68/16/68 28/24/68 64/25/68
f 6/2/69 7/1/69 5/3/69
f 18/15/70 23/2/70 24/15/70
f 47/20/71 94/18/71 46/18/71
f 22/13/72 68/6/72 63/6/72
f 42/21/73 88/23/73 39/23/73
f 66/14/74 65/15/74 60/15/74
f 80/22/75 96/9/75 78/9/75
f 57/6/76 63/6/76 62/7/76
f 14/6/77 15/11/77 13/8/77
f 13/8/78 39/23/78 44/9/78
f 78/9/79 100/23/79 82/23/79
f 75/21/80 48/12/80 58/11/80
f 56/8/81 55/7/81 54/10/81
f 8/15/82 19/14/82 10/14/82
f 7/1/83 8/15/83 10/14/83
f 5/3/84 38/4/84 40/3/84
f 28/13/85 33/5/85 64/19/85
f 30/5/86 68/5/86 29/5/86
f 31/5/87 67/5/87 30/5/87
f 29/5/88 68/16/88 28/24/88
f 24/5/89 32/5/89 34/5/89
f 35/5/90 26/5/90 25/5/90
f 24/20/91 35/18/91 25/18/91
f 12/7/92 14/6/92 13/8/92
f 15/11/93 39/23/93 13/8/93
f 74/22/94 77/9/94 76/10/94
f 52/22/95 76/10/95 54/10/95
f 5/12/96 42/21/96 15/11/96
f 76/10/97 56/8/97 54/10/97
f 34/20/98 46/18/98 35/18/98
f 72/23/99 58/11/99 56/8/99
f 50/1/100 53/14/100 51/15/100
f 43/10/101 41/22/101 9/22/101
f 68/6/102 67/7/102 62/7/102
f 18/15/103 25/14/103 19/14/103
f 51/15/104 59/2/104 49/2/104
f 36/5/105 1/5/105 70/5/105
f 7/1/106 41/22/106 38/4/106
f 59/19/107 64/19/107 28/13/107
f 32/5/108 64/5/108 65/5/108
f 9/22/109 10/14/109 12/7/109
f 61/14/110 53/14/110 62/7/110
f 14/6/111 12/7/111 20/7/111
f 20/7/112 26/7/112 27/6/112
f 58/11/113 16/13/113 57/6/113
f 69/20/114 70/18/114 1/18/114
f 52/22/115 54/10/115 55/7/115
f 67/5/116 31/5/116 70/5/116
f 16/13/117 6/19/117 5/12/117
f 3/20/118 90/18/118 91/20/118
f 45/5/119 90/5/119 1/5/119
f 71/4/120 80/22/120 74/22/120
f 4/5/121 91/5/121 92/5/121
f 4/5/122 95/5/122 47/5/122
f 45/5/123 94/5/123 93/5/123
f 16/13/124 21/6/124 22/13/124
f 23/25/125 28/24/125 27/16/125
f 19/14/126 25/14/126 26/7/126
f 56/8/97 76/10/97 77/9/97
f 60/15/127 65/15/127 64/2/127
f 37/5/128 69/5/128 3/5/128
f 27/5/129 26/5/129 30/5/129
f 49/19/130 22/13/130 16/13/130
f 32/5/131 37/5/131 34/5/131
f 9/22/132 11/10/132 43/10/132
f 24/20/133 27/16/133 25/18/133
f 66/18/134 67/17/134 68/16/134
f 67/7/135 66/14/135 61/14/135
f 61/14/136 60/15/136 51/15/136
f 48/12/137 49/19/137 16/13/137
f 81/12/138 97/21/138 99/12/138
f 83/4/139 98/22/139 80/22/139
f 30/5/140 67/5/140 68/5/140
f 32/5/141 33/5/141 64/5/141
f 69/5/142 37/5/142 32/5/142
f 31/5/143 36/5/143 70/5/143
f 45/5/119 93/5/119 90/5/119
f 4/5/121 3/5/121 91/5/121
f 4/5/122 92/5/122 95/5/122
f 45/5/123 46/5/123 94/5/123
f 70/18/144 65/20/144 66/18/144
f 22/13/145 21/6/145 27/6/145
f 17/19/146 22/13/146 28/13/146
f 8/15/147 6/2/147 17/2/147
f 6/19/148 16/13/148 22/13/148
f 6/2/149 8/15/149 7/1/149
f 18/15/150 17/2/150 23/2/150
f 47/20/71 95/20/71 94/18/71
f 22/13/151 28/13/151 68/6/151
f 44/9/152 88/23/152 84/9/152
f 14/6/153 16/13/153 15/11/153
f 75/21/154 73/12/154 48/12/154
f 56/8/155 57/6/155 55/7/155
f 8/15/156 18/15/156 19/14/156
f 5/3/157 7/1/157 38/4/157
f 24/5/158 23/5/158 32/5/158
f 35/5/159 31/5/159 26/5/159
f 24/20/160 34/20/160 35/18/160
f 15/11/161 42/21/161 39/23/161
f 5/12/162 40/12/162 42/21/162
f 34/20/163 47/20/163 46/18/163
f 72/23/164 75/21/164 58/11/164
f 50/1/165 52/22/165 53/14/165
f 43/10/166 44/9/166 41/22/166
f 18/15/167 24/15/167 25/14/167
f 51/15/168 60/15/168 59/2/168
f 36/5/169 45/5/169 1/5/169
f 7/1/170 9/22/170 41/22/170
f 3/20/118 1/18/118 90/18/118
f 16/13/171 14/6/171 21/6/171
f 49/19/172 59/19/172 22/13/172
f 24/20/173 23/25/173 27/16/173
f 89/4/174 104/22/174 107/4/174
f 83/4/175 99/3/175 101/4/175
f 70/18/176 69/20/176 65/20/176
f 103/21/177 112/23/177 106/23/177
f 104/22/178 108/9/178 110/22/178
f 107/4/179 110/22/179 113/4/179
f 103/21/180 111/12/180 109/21/180
f 107/4/181 111/3/181 105/3/181
f 106/23/182 108/9/182 102/9/182
f 100/23/183 114/9/183 118/23/183
f 97/21/184 118/23/184 115/21/184
f 98/22/185 114/9/185 96/9/185
f 97/21/186 117/12/186 99/12/186
f 101/4/187 116/22/187 98/22/187
f 101/4/188 117/3/188 119/4/188
f 71/4/2 73/3/2 81/3/2
f 38/4/25 89/4/25 87/3/25
f 87/12/189 105/12/189 103/21/189
f 38/4/28 41/22/28 86/22/28
f 84/9/190 88/23/190 106/23/190
f 89/4/191 107/4/191 105/3/191
f 85/21/31 103/21/31 106/23/31
f 86/22/192 84/9/192 102/9/192
f 79/21/44 82/23/44 100/23/44
f 77/9/45 78/9/45 82/23/45
f 75/21/46 72/23/46 82/23/46
f 77/9/47 74/22/47 80/22/47
f 40/12/48 87/12/48 85/21/48
f 73/12/49 75/21/49 79/21/49
f 44/9/61 84/9/61 86/22/61
f 42/21/73 85/21/73 88/23/73
f 80/22/193 98/22/193 96/9/193
f 78/9/194 96/9/194 100/23/194
f 71/4/120 83/4/120 80/22/120
f 81/12/195 79/21/195 97/21/195
f 83/4/196 101/4/196 98/22/196
f 44/9/152 39/23/152 88/23/152
f 89/4/197 86/22/197 104/22/197
f 83/4/198 81/3/198 99/3/198
f 103/21/177 109/21/177 112/23/177
f 104/22/178 102/9/178 108/9/178
f 107/4/179 104/22/179 110/22/179
f 103/21/180 105/12/180 111/12/180
f 107/4/181 113/4/181 111/3/181
f 106/23/182 112/23/182 108/9/182
f 100/23/183 96/9/183 114/9/183
f 97/21/184 100/23/184 118/23/184
f 98/22/185 116/22/185 114/9/185
f 97/21/199 115/21/199 117/12/199
f 101/4/187 119/4/187 116/22/187
f 101/4/188 99/3/188 117/3/188
