# Blender 5.0.0
# www.blender.org
mtllib jorts.mtl
o pants5
v -0.679938 -0.119669 7.202088
v 0.609894 0.177189 7.339735
v -0.683539 0.474960 7.303969
v -0.008294 0.684723 7.348222
v 0.569937 0.777586 4.166857
v 0.518655 0.948884 5.768372
v 1.067066 0.469260 4.158828
v 1.107630 0.575899 5.995845
v 1.067066 -0.113342 4.175589
v 1.109309 -0.003354 5.916685
v 0.569910 -0.397907 4.190451
v 0.511786 -0.292086 5.761774
v 0.072648 -0.095402 4.192812
v 0.083794 -0.000123 5.802988
v 0.072808 0.497622 4.186165
v -0.000000 0.885669 5.739068
v 0.510128 1.013362 6.124545
v 1.097582 0.572654 6.226923
v 1.099858 -0.016611 6.137490
v 0.514300 -0.304815 5.884146
v 0.074507 -0.012474 5.904460
v -0.000000 1.036432 6.040930
v 0.401939 1.025064 6.348126
v 0.936556 0.538598 6.760822
v 0.933031 -0.070628 6.651639
v 0.436996 -0.339485 6.185642
v 0.071483 -0.028108 6.039104
v -0.000000 1.081880 6.169394
v -0.000000 0.003592 6.042364
v -0.000000 -0.314634 6.194039
v 0.000000 -0.359712 6.568853
v -0.000000 0.918233 6.838183
v -0.000000 1.047940 6.536043
v 0.743410 0.483614 7.113418
v 0.739446 -0.125285 7.005753
v 0.000000 -0.308637 6.932926
v -0.000000 0.698410 7.160184
v 1.056830 0.487911 3.999221
v 0.072549 -0.083248 4.024415
v 0.564755 0.805459 4.016016
v 1.056830 -0.087270 4.010305
v 0.072680 0.500472 4.021615
v 0.564733 -0.383575 4.108324
v 0.558484 -0.366275 4.009197
v -0.008294 -0.298725 7.133172
v 0.663349 -0.119669 7.202086
v 0.666950 0.474960 7.303968
v -0.569458 0.777586 4.166857
v -0.518655 0.948886 5.768371
v -1.066587 0.469261 4.158828
v -1.107630 0.575900 5.995843
v -1.066587 -0.113341 4.175589
v -1.109309 -0.003353 5.916684
v -0.569430 -0.397907 4.190450
v -0.511786 -0.292085 5.761773
v -0.072169 -0.095402 4.192812
v -0.083794 -0.000122 5.802986
v -0.072329 0.497623 4.186165
v -0.510128 1.013363 6.124544
v -1.097582 0.572655 6.226922
v -1.099858 -0.016610 6.137489
v -0.514300 -0.304814 5.884145
v -0.074507 -0.012473 5.904459
v -0.401939 1.025064 6.348126
v -0.936555 0.538598 6.760824
v -0.933031 -0.070628 6.651639
v -0.436996 -0.339484 6.185642
v -0.071483 -0.028108 6.039104
v -0.743410 0.483613 7.113420
v -0.739445 -0.125285 7.005754
v -1.056351 0.487913 3.999220
v -0.072070 -0.083247 4.024414
v -0.564276 0.805460 4.016015
v -1.056351 -0.087270 4.010305
v -0.072201 0.500474 4.021614
v -0.564253 -0.383574 4.108323
v -0.558005 -0.366274 4.009197
v -0.561375 0.006565 4.011958
v -0.390145 0.312065 4.016335
v -0.737025 0.104905 4.012349
v -0.563585 0.419562 4.014360
v -0.390099 0.106322 4.017322
v -0.737025 0.307637 4.008441
v 0.561952 0.017463 4.012039
v 0.399918 0.306556 4.016181
v 0.728170 0.110521 4.012409
v 0.564044 0.408281 4.014314
v 0.399874 0.111863 4.017115
v 0.728170 0.302366 4.008711
v -0.492097 -0.035087 7.215185
v -0.494691 0.393240 7.288572
v -0.008294 0.544338 7.320449
v -0.008294 -0.164065 7.165542
v 0.475509 -0.035086 7.215183
v 0.478102 0.393241 7.288571
vn -0.5248 0.8480 -0.0741
vn -0.0140 0.0043 -0.9999
vn -0.3772 0.8611 0.3409
vn 0.5668 -0.8205 -0.0737
vn -0.5167 -0.8484 -0.1155
vn 1.0000 0.0003 0.0072
vn 0.4840 0.8434 -0.2333
vn 0.9964 -0.0757 0.0378
vn -0.4840 0.8434 -0.2334
vn -0.9991 -0.0029 0.0426
vn 0.9896 -0.1010 -0.1029
vn -0.5538 -0.8256 -0.1083
vn 0.4540 -0.8852 -0.1014
vn 0.2832 0.9462 0.1566
vn -0.5629 -0.2979 0.7710
vn -0.4384 -0.8987 0.0091
vn 0.4532 -0.8908 -0.0341
vn -0.0968 0.9383 -0.3320
vn 0.5538 -0.8256 -0.1083
vn -0.9516 -0.0425 0.3043
vn -0.5506 0.8325 -0.0606
vn 0.4384 -0.8987 0.0091
vn 0.5783 -0.1407 0.8036
vn 0.3006 0.9502 0.0824
vn -0.0180 -0.0193 -0.9997
vn -0.5405 0.8305 0.1349
vn 0.0194 -0.0048 -0.9998
vn -0.0019 0.0074 -1.0000
vn 0.0313 0.0043 -0.9995
vn 0.0269 0.0076 -0.9996
vn 0.0180 -0.0193 -0.9997
vn -0.0993 -0.9908 -0.0917
vn -0.2260 -0.4191 -0.8794
vn -0.0587 -0.9911 -0.1192
vn 0.0066 0.1170 -0.9931
vn 0.2304 0.8942 0.3839
vn -0.2995 0.9524 0.0561
vn 0.2259 -0.9647 0.1353
vn -0.9979 -0.0012 -0.0641
vn -0.9981 -0.0018 -0.0621
vn -0.4843 -0.8591 -0.1655
vn -0.5267 0.8475 0.0653
vn -0.5166 -0.8484 -0.1155
vn -0.0313 0.0043 -0.9995
vn -0.0269 0.0076 -0.9996
vn 0.5038 -0.8616 -0.0619
vn -0.9532 -0.0566 0.2969
vn -0.5584 0.7975 0.2285
vn 0.6283 -0.0310 0.7774
vn -0.4248 -0.9041 0.0467
vn 0.9997 -0.0007 -0.0242
vn 0.4970 -0.8643 0.0766
vn -0.5192 -0.8538 0.0383
vn -0.5521 -0.8201 -0.1504
vn 0.2516 -0.9661 0.0582
vn -0.4118 -0.9073 0.0851
vn -0.9975 -0.0670 0.0237
vn 0.2283 -0.9667 0.1161
vn 0.1342 0.9909 0.0131
vn 0.5955 0.8025 0.0372
vn -0.4540 -0.8852 -0.1014
vn 0.0732 0.9817 -0.1760
vn 0.4183 -0.1324 0.8986
vn 0.5248 0.8480 -0.0739
vn 0.5585 0.8000 0.2195
vn -0.0073 -0.1688 0.9856
vn 0.9973 -0.0669 -0.0302
vn -0.0194 -0.0048 -0.9998
vn -0.9569 -0.0566 0.2850
vn 0.5521 -0.8201 -0.1504
vn -1.0000 0.0003 0.0069
vn -0.5038 -0.8616 -0.0619
vn 0.4902 0.8715 0.0155
vn 0.5192 -0.8538 0.0385
vn 0.9991 -0.0029 0.0426
vn 0.9997 0.0060 -0.0224
vn 0.5405 0.8305 0.1349
vn 0.0993 -0.9908 -0.0917
vn 0.2260 -0.4191 -0.8794
vn 0.0587 -0.9911 -0.1192
vn -0.0066 0.1170 -0.9931
vn 0.3772 0.8611 0.3409
vn 0.4118 -0.9073 0.0851
vn 0.8797 -0.0888 0.4672
vn -0.5593 -0.8273 0.0528
vn -1.0000 0.0003 0.0006
vn -0.4808 -0.8581 -0.1801
vn -0.4846 -0.8560 -0.1799
vn -0.4902 0.8715 0.0155
vn 0.5166 -0.8484 -0.1155
vn 0.9294 -0.0701 0.3622
vn 1.0000 0.0003 0.0006
vn -0.9997 0.0060 -0.0227
vn 0.4843 -0.8591 -0.1655
vn 0.5731 -0.7844 -0.2372
vn 0.9516 -0.0425 0.3043
vn -0.5665 0.8131 -0.1336
vn -0.2305 -0.9682 0.0975
vn 0.9979 -0.0012 -0.0641
vn -0.1342 0.9909 0.0131
vn -0.3642 0.8020 0.4735
vn 0.4247 -0.9041 0.0468
vn -0.4532 -0.8908 -0.0341
vn -0.5668 -0.8205 -0.0737
vn -0.5731 -0.7844 -0.2372
vn 0.9952 -0.0958 -0.0224
vn -0.9550 -0.0577 0.2911
vn -0.4970 -0.8644 0.0764
vn -0.2004 -0.9635 0.1777
vn -0.1142 0.9874 -0.1093
vn 0.0073 -0.1688 0.9856
vn 0.0374 -0.2336 0.9716
vn -0.0040 -0.1941 0.9810
vn 0.0040 -0.1941 0.9810
vn -0.0374 -0.2336 0.9716
vn -0.9964 -0.0757 0.0378
vn -0.4183 -0.1324 0.8986
vn 0.4402 -0.8966 0.0487
vn -0.5585 0.8000 0.2195
vn -0.2828 0.9501 0.1320
vn -0.0435 -0.4668 -0.8833
vn 0.0835 0.8915 -0.4453
vn 0.2643 0.7965 0.5438
vn 0.4846 -0.8560 -0.1799
vn -0.5783 -0.1407 0.8036
vn 0.5629 -0.2979 0.7710
vn -0.4402 -0.8966 0.0486
vn -0.9991 -0.0027 0.0434
vn 0.1142 0.9874 -0.1092
vn 0.0140 0.0043 -0.9999
vn 0.0019 0.0074 -1.0000
vn 0.0435 -0.4668 -0.8833
vn -0.2304 0.8942 0.3839
vn -0.2643 0.7965 0.5438
vn -0.2259 -0.9647 0.1353
vn -0.8797 -0.0888 0.4672
vn -0.9973 -0.0669 -0.0302
vn 0.0968 0.9383 -0.3320
vn 0.5665 0.8131 -0.1336
vn -0.0835 0.8915 -0.4453
vn 0.5506 0.8326 -0.0605
vn 0.5584 0.7975 0.2285
vn 0.9975 -0.0670 0.0237
vn -0.9951 -0.0958 -0.0227
vn 0.5175 0.8381 0.1726
vn 0.5593 -0.8273 0.0530
vn 0.9991 -0.0027 0.0434
vn 0.5267 0.8475 0.0653
vn 0.3642 0.8020 0.4735
vn 0.2004 -0.9635 0.1777
vn 0.8793 -0.0885 0.4679
vn -1.0000 0.0002 0.0008
vn -0.5175 0.8381 0.1726
vn 0.9269 -0.0688 0.3688
vn 1.0000 0.0002 0.0008
vn -0.9997 -0.0007 -0.0245
vn 0.4808 -0.8581 -0.1801
vn 0.9569 -0.0566 0.2850
vn -0.5955 0.8025 0.0372
vn -0.2538 -0.9665 0.0373
vn 0.9981 -0.0018 -0.0621
vn -0.9896 -0.1010 -0.1029
vn -0.0732 0.9817 -0.1760
vn -0.6283 -0.0310 0.7774
vn 0.0141 0.0043 -0.9999
vn -0.8793 -0.0885 0.4679
vt 0.833333 0.500000
vt 1.000000 1.000000
vt 1.000000 0.500000
vt 0.166667 0.500000
vt -0.000000 0.500000
vt 0.000000 0.000000
vt 0.333333 1.000000
vt 0.500000 1.000000
vt 0.333333 0.500000
vt 0.500000 0.500000
vt 0.500000 0.500000
vt 0.166667 0.500000
vt 0.166667 1.000000
vt 0.666667 1.000000
vt 0.833333 1.000000
vt 0.042154 0.130000
vt 0.250000 0.010000
vt 0.457846 0.130000
vt -0.000000 1.000000
vt 0.457846 0.370000
vt 0.833333 0.500000
vt 0.666667 0.500000
vt 0.333333 0.500000
vt 0.042154 0.370000
vt 0.250000 0.490000
s 0
usemtl pants
f 50/1/1 49/2/1 48/3/1
f 42/4/2 40/5/2 87/5/2
f 32/6/3 65/6/3 69/6/3
f 57/7/4 62/8/4 55/8/4
f 13/9/5 44/10/5 43/11/5
f 58/12/6 57/7/6 56/9/6
f 48/5/7 16/13/7 58/12/7
f 16/13/8 22/13/8 63/7/8
f 16/13/9 5/5/9 15/12/9
f 61/14/10 51/15/10 53/14/10
f 16/13/11 63/7/11 57/7/11
f 20/8/12 27/7/12 21/7/12
f 10/14/13 20/8/13 12/8/13
f 37/6/14 47/6/14 34/6/14
f 27/16/15 26/17/15 25/18/15
f 61/14/16 62/8/16 67/8/16
f 19/14/17 20/8/17 10/14/17
f 59/19/18 28/13/18 22/13/18
f 68/7/19 62/8/19 63/7/19
f 66/14/20 60/15/20 61/14/20
f 50/1/21 51/15/21 49/2/21
f 19/14/22 26/8/22 20/8/22
f 65/20/23 66/18/23 68/16/23
f 37/6/24 4/6/24 47/6/24
f 38/21/25 41/22/25 86/22/25
f 48/3/26 73/3/26 71/21/26
f 75/4/27 82/23/27 79/4/27
f 41/22/28 44/10/28 84/10/28
f 71/21/29 81/3/29 83/21/29
f 72/23/30 78/10/30 82/23/30
f 71/21/31 80/22/31 74/22/31
f 28/13/32 23/19/32 33/6/32
f 27/6/33 30/6/33 29/6/33
f 26/6/34 31/6/34 30/6/34
f 29/6/35 28/24/35 27/16/35
f 32/6/36 23/6/36 33/6/36
f 37/6/37 3/6/37 4/6/37
f 31/6/38 35/6/38 36/6/38
f 50/1/39 71/21/39 74/22/39
f 50/1/40 74/22/40 52/22/40
f 74/22/41 76/11/41 52/22/41
f 48/3/42 71/21/42 50/1/42
f 72/23/30 77/10/30 78/10/30
f 71/21/29 73/3/29 81/3/29
f 13/9/43 43/11/43 11/11/43
f 42/4/2 87/5/2 85/4/2
f 41/22/28 84/10/28 86/22/28
f 38/21/44 87/3/44 40/3/44
f 39/23/45 84/10/45 44/10/45
f 38/21/25 86/22/25 89/21/25
f 56/9/46 77/10/46 72/23/46
f 69/20/47 1/18/47 3/20/47
f 60/15/48 64/2/48 59/2/48
f 65/20/49 68/16/49 64/25/49
f 52/22/50 55/8/50 53/14/50
f 7/1/51 10/14/51 9/22/51
f 9/22/52 12/8/52 11/11/52
f 12/8/53 13/9/53 11/11/53
f 14/7/54 20/8/54 21/7/54
f 36/6/55 46/6/55 45/6/55
f 67/6/56 70/6/56 66/6/56
f 38/21/44 89/21/44 87/3/44
f 22/13/57 27/7/57 28/13/57
f 36/6/58 35/6/58 46/6/58
f 17/19/59 28/13/59 23/19/59
f 8/15/60 17/2/60 18/15/60
f 62/8/61 53/14/61 55/8/61
f 6/19/62 22/13/62 17/19/62
f 68/16/63 28/24/63 64/25/63
f 6/2/64 7/1/64 5/3/64
f 18/15/65 23/2/65 24/15/65
f 47/20/66 94/18/66 46/18/66
f 22/13/67 68/7/67 63/7/67
f 42/4/68 88/23/68 39/23/68
f 66/14/69 65/15/69 60/15/69
f 75/4/27 72/23/27 82/23/27
f 57/7/70 63/7/70 62/8/70
f 14/7/71 15/12/71 13/9/71
f 13/9/72 39/23/72 44/10/72
f 71/21/31 83/21/31 80/22/31
f 75/4/73 48/5/73 58/12/73
f 56/9/74 55/8/74 54/11/74
f 8/15/75 19/14/75 10/14/75
f 7/1/76 8/15/76 10/14/76
f 5/3/77 38/21/77 40/3/77
f 28/13/78 33/6/78 64/19/78
f 30/6/79 68/6/79 29/6/79
f 31/6/80 67/6/80 30/6/80
f 29/6/81 68/16/81 28/24/81
f 24/6/82 32/6/82 34/6/82
f 35/6/83 26/6/83 25/6/83
f 24/20/84 35/18/84 25/18/84
f 12/8/85 14/7/85 13/9/85
f 15/12/86 39/23/86 13/9/86
f 74/22/87 77/10/87 76/11/87
f 52/22/88 76/11/88 54/11/88
f 5/5/89 42/4/89 15/12/89
f 76/11/90 56/9/90 54/11/90
f 34/20/91 46/18/91 35/18/91
f 72/23/92 58/12/92 56/9/92
f 50/1/93 53/14/93 51/15/93
f 43/11/94 41/22/94 9/22/94
f 68/7/95 67/8/95 62/8/95
f 18/15/96 25/14/96 19/14/96
f 51/15/97 59/2/97 49/2/97
f 36/6/98 1/6/98 70/6/98
f 7/1/99 41/22/99 38/21/99
f 59/19/100 64/19/100 28/13/100
f 32/6/101 64/6/101 65/6/101
f 9/22/102 10/14/102 12/8/102
f 61/14/103 53/14/103 62/8/103
f 14/7/104 12/8/104 20/8/104
f 20/8/105 26/8/105 27/7/105
f 58/12/106 16/13/106 57/7/106
f 69/20/107 70/18/107 1/18/107
f 52/22/108 54/11/108 55/8/108
f 67/6/109 31/6/109 70/6/109
f 16/13/110 6/19/110 5/5/110
f 3/20/111 90/18/111 91/20/111
f 45/6/112 90/6/112 1/6/112
f 39/23/45 88/23/45 84/10/45
f 4/6/113 91/6/113 92/6/113
f 4/6/114 95/6/114 47/6/114
f 45/6/115 94/6/115 93/6/115
f 16/13/116 21/7/116 22/13/116
f 23/25/117 28/24/117 27/16/117
f 19/14/118 25/14/118 26/8/118
f 56/9/90 76/11/90 77/10/90
f 60/15/119 65/15/119 64/2/119
f 37/6/120 69/6/120 3/6/120
f 27/6/121 26/6/121 30/6/121
f 49/19/122 22/13/122 16/13/122
f 32/6/123 37/6/123 34/6/123
f 9/22/124 11/11/124 43/11/124
f 24/20/125 27/16/125 25/18/125
f 66/18/126 67/17/126 68/16/126
f 67/8/127 66/14/127 61/14/127
f 61/14/128 60/15/128 51/15/128
f 48/5/129 49/19/129 16/13/129
f 75/4/130 81/5/130 73/5/130
f 74/22/131 78/10/131 77/10/131
f 30/6/132 67/6/132 68/6/132
f 32/6/133 33/6/133 64/6/133
f 69/6/134 37/6/134 32/6/134
f 31/6/135 36/6/135 70/6/135
f 45/6/112 93/6/112 90/6/112
f 4/6/113 3/6/113 91/6/113
f 4/6/114 92/6/114 95/6/114
f 45/6/115 46/6/115 94/6/115
f 70/18/136 65/20/136 66/18/136
f 22/13/137 21/7/137 27/7/137
f 17/19/138 22/13/138 28/13/138
f 8/15/139 6/2/139 17/2/139
f 6/19/140 16/13/140 22/13/140
f 6/2/141 8/15/141 7/1/141
f 18/15/142 17/2/142 23/2/142
f 47/20/66 95/20/66 94/18/66
f 22/13/143 28/13/143 68/7/143
f 42/4/68 85/4/68 88/23/68
f 14/7/144 16/13/144 15/12/144
f 75/4/145 73/5/145 48/5/145
f 56/9/146 57/7/146 55/8/146
f 8/15/147 18/15/147 19/14/147
f 5/3/148 7/1/148 38/21/148
f 24/6/149 23/6/149 32/6/149
f 35/6/150 31/6/150 26/6/150
f 24/20/151 34/20/151 35/18/151
f 15/12/152 42/4/152 39/23/152
f 5/5/153 40/5/153 42/4/153
f 34/20/154 47/20/154 46/18/154
f 72/23/155 75/4/155 58/12/155
f 50/1/156 52/22/156 53/14/156
f 43/11/157 44/10/157 41/22/157
f 18/15/158 24/15/158 25/14/158
f 51/15/159 60/15/159 59/2/159
f 36/6/160 45/6/160 1/6/160
f 7/1/161 9/22/161 41/22/161
f 3/20/111 1/18/111 90/18/111
f 16/13/162 14/7/162 21/7/162
f 49/19/163 59/19/163 22/13/163
f 24/20/164 23/25/164 27/16/164
f 75/4/165 79/4/165 81/5/165
f 74/22/131 80/22/131 78/10/131
f 70/18/166 69/20/166 65/20/166
