# Blender 5.0.0
# www.blender.org
mtllib maxiskirt.mtl
o pants6
v -0.679938 -0.203834 7.202088
v 0.609894 0.158864 7.339735
v -0.683539 0.522677 7.303969
v -0.008294 0.778964 7.348222
v 0.648522 1.033924 4.223917
v 0.518655 1.101714 5.768372
v 1.177443 0.502805 4.215374
v 1.107630 0.646004 5.995845
v 1.177443 -0.254534 4.233207
v 1.109309 -0.061721 5.916685
v 0.648493 -0.584877 4.250360
v 0.511786 -0.414490 5.761773
v 0.510128 1.180493 6.124545
v 1.097582 0.642039 6.226923
v 1.099858 -0.077918 6.137489
v 0.514300 -0.430043 5.884147
v 0.401939 1.194789 6.348126
v 0.936555 0.600431 6.760822
v 0.933031 -0.143916 6.651639
v 0.436996 -0.472403 6.185642
v 0.724380 1.171073 1.414089
v 1.256203 0.797496 1.386021
v 1.256203 0.050341 1.329881
v 0.724380 -0.323236 1.301814
v 1.150541 -0.090084 3.259349
v 1.150541 0.634906 3.275387
v 0.636468 1.013947 3.337315
v 0.618025 -0.521384 3.765668
v -0.000000 -0.529700 6.194039
v 0.000000 -0.497115 6.568854
v -0.000000 1.064265 6.838183
v -0.000000 1.222739 6.536044
v 0.743410 0.533251 7.113418
v 0.739446 -0.210695 7.005753
v 0.000000 -0.434713 6.932926
v -0.000000 0.795686 7.160184
v 1.166553 0.527050 4.045560
v 0.643009 1.044951 4.063428
v 1.166553 -0.220643 4.057354
v 0.642985 -0.580682 4.161727
v 1.153408 -0.179736 3.845101
v 0.636337 -0.575620 4.054748
v 1.153408 0.556314 3.840598
v 0.636354 1.034370 3.869723
v -0.008294 -0.422602 7.133172
v 0.663349 -0.203833 7.202086
v 0.666950 0.522678 7.303967
v -0.648522 1.033925 4.223917
v -0.518655 1.101715 5.768371
v -1.177443 0.502806 4.215374
v -1.107630 0.646006 5.995843
v -1.177443 -0.254533 4.233207
v -1.109309 -0.061720 5.916685
v -0.648493 -0.584876 4.250360
v -0.511786 -0.414489 5.761772
v -0.510128 1.180494 6.124544
v -1.097582 0.642040 6.226923
v -1.099858 -0.077917 6.137489
v -0.514300 -0.430042 5.884146
v -0.401939 1.194790 6.348126
v -0.936555 0.600430 6.760823
v -0.933030 -0.143916 6.651639
v -0.436996 -0.472402 6.185642
v -0.738468 1.074348 1.406821
v -1.201442 0.749134 1.382386
v -1.201442 0.098704 1.333514
v -0.738468 -0.226510 1.309080
v -1.150541 -0.090083 3.259349
v -1.150541 0.634907 3.275386
v -0.636467 1.013947 3.337314
v -0.618025 -0.521382 3.765668
v -0.743410 0.533250 7.113419
v -0.739445 -0.210695 7.005754
v -1.166553 0.527051 4.045559
v -0.643009 1.044952 4.063427
v -1.166553 -0.220641 4.057353
v -0.642985 -0.580682 4.161726
v -1.153408 -0.179735 3.845100
v -0.636337 -0.575619 4.054747
v -1.153408 0.556315 3.840597
v -0.636354 1.034371 3.869722
v -0.492097 -0.100492 7.215184
v -0.494691 0.422834 7.288572
v -0.008294 0.607444 7.320449
v -0.008294 -0.258077 7.165542
v 0.475509 -0.100492 7.215183
v 0.478102 0.422834 7.288570
v -0.000000 -0.430043 5.884147
v -0.007044 -0.274873 1.305447
v -0.000000 -0.521383 3.765668
v -0.000000 -0.575619 4.054747
v -0.000000 -0.580682 4.161726
v 0.000000 -0.584876 4.250360
v -0.000000 -0.414490 5.761773
v -0.000000 1.180494 6.124545
v -0.000000 1.194790 6.348126
v -0.000000 1.033925 4.223917
v -0.000000 1.026623 4.063428
v -0.000000 1.034371 3.869722
v -0.000000 1.013947 3.337315
v -0.007044 1.122711 1.410455
vn -0.7085 0.7051 0.0286
vn 1.0000 0.0001 -0.0051
vn -0.4341 0.8110 0.3923
vn -0.9996 -0.0020 0.0268
vn -0.9991 -0.0024 0.0426
vn 0.5273 -0.8415 -0.1178
vn 0.3375 0.9227 0.1866
vn -0.5120 -0.8589 0.0106
vn 0.5275 -0.8486 -0.0397
vn -0.9519 -0.0348 0.3044
vn -0.0000 -0.9989 -0.0473
vn -0.5969 0.8003 0.0566
vn 0.5756 -0.8173 -0.0280
vn 0.6778 0.7348 -0.0280
vn 0.5470 -0.8271 -0.1293
vn -0.6778 0.7348 -0.0280
vn -0.0000 -0.9937 0.1120
vn -1.0000 -0.0000 -0.0049
vn 0.1311 -0.9876 0.0859
vn 0.2685 0.8531 0.4474
vn -0.3579 0.9314 0.0670
vn 0.2714 -0.9486 0.1626
vn -0.0000 0.9980 -0.0638
vn -0.9981 -0.0015 -0.0621
vn -0.5298 -0.8261 -0.1920
vn -0.7079 0.7041 0.0551
vn 0.5467 -0.8152 -0.1910
vn 0.9979 -0.0004 -0.0641
vn -0.9981 -0.0010 -0.0620
vn -0.0000 -0.9920 -0.1261
vn -0.7031 0.7088 0.0561
vn -0.5467 -0.8152 -0.1910
vn -0.9537 -0.0464 0.2971
vn -0.6283 0.7343 0.2571
vn -0.4817 -0.8682 0.1189
vn 0.9992 0.0009 0.0403
vn 0.5276 -0.8375 0.1421
vn 0.3024 -0.9506 0.0700
vn -0.4826 -0.8702 0.0997
vn -0.0000 0.9970 -0.0769
vn 0.5981 0.7961 0.0924
vn 0.6711 0.7402 0.0419
vn -0.5273 -0.8415 -0.1178
vn 0.7085 0.7051 0.0286
vn 0.6288 0.7372 0.2471
vn -0.0073 -0.1388 0.9903
vn -0.0000 -0.9903 -0.1391
vn -0.5882 -0.8059 -0.0679
vn 0.9991 -0.0024 0.0426
vn 0.9985 -0.0012 0.0546
vn 0.7035 0.7103 0.0246
vn -0.0000 -0.9829 -0.1844
vn -0.1311 -0.9876 0.0859
vn 0.4341 0.8110 0.3923
vn 0.4826 -0.8702 0.0997
vn 0.8808 -0.0728 0.4678
vn -0.5266 -0.8470 -0.0728
vn 0.9302 -0.0574 0.3625
vn -0.0000 0.9891 -0.1471
vn -0.9992 -0.0020 0.0393
vn 0.5298 -0.8261 -0.1920
vn 0.6756 0.7346 -0.0633
vn 0.9519 -0.0348 0.3044
vn -0.6408 0.7527 -0.1511
vn -0.2773 -0.9536 0.1174
vn 0.9979 -0.0010 -0.0641
vn 0.0073 -0.1388 0.9903
vn 0.0378 -0.1929 0.9805
vn -0.0040 -0.1598 0.9871
vn 0.0040 -0.1598 0.9871
vn -0.0378 -0.1929 0.9805
vn 0.5136 -0.8561 0.0568
vn 0.6071 -0.7937 -0.0376
vn 0.2973 0.7332 0.6116
vn 0.5266 -0.8470 -0.0728
vn -0.0661 -0.9911 -0.1157
vn -0.5136 -0.8561 0.0568
vn -0.5759 -0.8150 -0.0647
vn -0.5470 -0.8271 -0.1293
vn -0.2685 0.8531 0.4474
vn -0.2973 0.7332 0.6116
vn -0.2714 -0.9486 0.1626
vn -0.8808 -0.0728 0.4678
vn -0.0000 0.9976 0.0685
vn 0.0285 0.9982 -0.0535
vn -0.0000 0.9993 -0.0383
vn -0.0000 0.9984 0.0564
vn -0.0662 -0.9944 -0.0828
vn -0.0285 0.9982 -0.0535
vn -0.6208 0.7830 -0.0386
vn 1.0000 -0.0000 -0.0049
vn -0.4103 0.7396 0.5335
vn -0.9997 -0.0006 0.0264
vn -0.9991 -0.0022 0.0434
vn 0.3588 0.9282 0.0984
vn -0.5275 -0.8486 -0.0397
vn 0.5120 -0.8589 0.0106
vn -0.9574 -0.0464 0.2851
vn -0.5759 0.8150 0.0647
vn 0.5984 0.7940 0.1074
vn -0.5984 0.7940 0.1074
vn -1.0000 0.0001 -0.0051
vn -0.3375 0.9280 0.1575
vn -0.9979 -0.0010 -0.0641
vn -0.5551 -0.8285 -0.0737
vn -0.7035 0.7103 0.0246
vn 0.5480 -0.8151 -0.1877
vn 0.9981 -0.0010 -0.0620
vn -0.9979 -0.0004 -0.0641
vn -0.6756 0.7346 -0.0633
vn -0.5480 -0.8151 -0.1877
vn -0.9555 -0.0472 0.2912
vn -0.6288 0.7372 0.2471
vn -0.5276 -0.8375 0.1421
vn 0.9992 -0.0020 0.0393
vn 0.4817 -0.8682 0.1189
vn 0.2745 -0.9514 0.1396
vn -0.2407 -0.9469 0.2134
vn 0.5754 0.8115 0.1020
vn 0.6408 0.7527 -0.1511
vn 0.6208 0.7830 -0.0386
vn 0.6283 0.7343 0.2571
vn 0.1181 -0.9453 -0.3040
vn -0.1181 -0.9453 -0.3040
vn 0.9991 -0.0022 0.0434
vn 0.9985 -0.0042 0.0555
vn 0.7079 0.7041 0.0551
vn 0.4103 0.7396 0.5335
vn 0.2407 -0.9469 0.2134
vn 0.8805 -0.0725 0.4685
vn 0.9277 -0.0564 0.3691
vn -0.9992 0.0009 0.0403
vn 0.5551 -0.8285 -0.0737
vn 0.7031 0.7088 0.0561
vn 0.9574 -0.0464 0.2851
vn -0.6711 0.7402 0.0419
vn -0.3052 -0.9512 0.0449
vn 0.9981 -0.0015 -0.0621
vn -0.0000 -0.9950 -0.0997
vn -0.8805 -0.0725 0.4685
vn 0.0285 0.9986 -0.0454
vn -0.0000 0.9992 0.0400
vn -0.0661 0.9972 0.0347
vn -0.0662 0.9947 0.0782
vn -0.0285 0.9986 -0.0454
vt 0.833333 0.500000
vt 1.000000 1.000000
vt 1.000000 0.500000
vt 0.833333 0.500000
vt 0.666667 0.500000
vt 0.833333 0.500000
vt 0.000000 0.000000
vt 0.666667 1.000000
vt 0.833333 1.000000
vt 0.500000 1.000000
vt 0.500000 0.500000
vt 0.500000 0.500000
vt 0.500000 0.500000
vt 0.457846 0.370000
vt 0.457846 0.130000
s 0
usemtl pants
f 50/1/1 49/2/1 48/3/1
f 43/4/2 25/5/2 26/6/2
f 31/7/3 61/7/3 72/7/3
f 66/5/4 69/6/4 65/1/4
f 58/8/5 51/9/5 53/8/5
f 10/8/6 16/10/6 12/10/6
f 36/7/7 47/7/7 33/7/7
f 58/8/8 59/10/8 63/10/8
f 15/8/9 16/10/9 10/8/9
f 62/8/10 57/9/10 58/8/10
f 93/11/11 77/11/11 92/11/11
f 64/3/12 69/6/12 70/3/12
f 25/5/13 24/11/13 23/5/13
f 43/4/14 27/3/14 44/3/14
f 41/5/15 28/12/15 25/5/15
f 70/3/16 80/4/16 81/3/16
f 93/11/17 55/10/17 54/11/17
f 80/4/18 68/5/18 78/5/18
f 20/7/19 30/7/19 29/7/19
f 31/7/20 17/7/20 32/7/20
f 36/7/21 3/7/21 4/7/21
f 30/7/22 34/7/22 35/7/22
f 95/2/23 60/7/23 96/7/23
f 50/1/24 76/5/24 52/5/24
f 76/5/25 77/11/25 52/5/25
f 48/3/26 74/4/26 50/1/26
f 42/13/27 41/5/27 39/5/27
f 37/4/28 41/5/28 43/4/28
f 74/4/29 78/5/29 76/5/29
f 88/10/30 55/10/30 94/10/30
f 75/3/31 80/4/31 74/4/31
f 78/5/32 79/13/32 76/5/32
f 72/14/33 1/15/33 3/14/33
f 57/9/34 60/2/34 56/2/34
f 92/11/11 79/13/11 91/13/11
f 52/5/35 55/10/35 53/8/35
f 7/1/36 10/8/36 9/5/36
f 9/5/37 12/10/37 11/11/37
f 35/7/38 46/7/38 45/7/38
f 63/7/39 73/7/39 62/7/39
f 13/2/40 97/7/40 95/2/40
f 26/6/41 21/3/41 27/3/41
f 8/9/42 13/2/42 14/9/42
f 59/10/43 53/8/43 55/10/43
f 6/2/44 7/1/44 5/3/44
f 14/9/45 17/2/45 18/9/45
f 47/14/46 86/15/46 46/15/46
f 63/10/47 59/10/47 88/10/47
f 68/5/48 67/11/48 71/12/48
f 8/9/49 15/8/49 10/8/49
f 23/5/50 26/6/50 25/5/50
f 5/3/51 37/4/51 38/3/51
f 91/13/52 71/12/52 90/12/52
f 30/7/53 63/7/53 29/7/53
f 18/7/54 31/7/54 33/7/54
f 34/7/55 20/7/55 19/7/55
f 18/14/56 34/15/56 19/15/56
f 52/5/57 77/11/57 54/11/57
f 33/14/58 46/15/58 34/15/58
f 32/7/59 96/7/59 60/7/59
f 50/1/60 53/8/60 51/9/60
f 40/11/61 39/5/61 9/5/61
f 38/3/62 43/4/62 44/3/62
f 14/9/63 19/8/63 15/8/63
f 51/9/64 56/2/64 49/2/64
f 35/7/65 1/7/65 73/7/65
f 7/1/66 39/5/66 37/4/66
f 3/14/67 82/15/67 83/14/67
f 45/7/68 82/7/68 1/7/68
f 4/7/69 83/7/69 84/7/69
f 4/7/70 87/7/70 47/7/70
f 45/7/71 86/7/71 85/7/71
f 15/8/72 19/8/72 20/10/72
f 25/5/73 28/12/73 24/11/73
f 31/7/74 36/7/74 33/7/74
f 9/5/75 11/11/75 40/11/75
f 89/11/76 71/12/76 67/11/76
f 63/10/77 62/8/77 58/8/77
f 68/5/78 66/5/78 67/11/78
f 78/5/79 68/5/79 71/12/79
f 31/7/80 32/7/80 60/7/80
f 72/7/81 36/7/81 31/7/81
f 30/7/82 35/7/82 73/7/82
f 45/7/68 85/7/68 82/7/68
f 4/7/69 3/7/69 83/7/69
f 4/7/70 84/7/70 87/7/70
f 45/7/71 46/7/71 86/7/71
f 73/15/83 61/14/83 62/15/83
f 97/7/84 75/3/84 48/7/84
f 98/3/85 81/3/85 75/3/85
f 100/3/86 81/3/86 99/3/86
f 101/3/87 70/3/87 100/3/87
f 28/12/88 89/11/88 24/11/88
f 28/12/52 91/13/52 90/12/52
f 42/13/11 92/11/11 91/13/11
f 88/10/30 12/10/30 16/10/30
f 12/10/17 93/11/17 11/11/17
f 40/11/11 93/11/11 92/11/11
f 27/3/87 101/3/87 100/3/87
f 44/3/86 100/3/86 99/3/86
f 44/3/89 98/3/89 38/3/89
f 38/3/84 97/7/84 5/7/84
f 56/2/40 97/7/40 48/7/40
f 17/7/23 95/2/23 96/7/23
f 50/1/90 51/9/90 49/2/90
f 43/4/91 41/5/91 25/5/91
f 31/7/92 60/7/92 61/7/92
f 66/5/93 68/5/93 69/6/93
f 58/8/94 57/9/94 51/9/94
f 36/7/95 4/7/95 47/7/95
f 58/8/96 53/8/96 59/10/96
f 15/8/97 20/10/97 16/10/97
f 62/8/98 61/9/98 57/9/98
f 93/11/11 54/11/11 77/11/11
f 64/3/99 65/1/99 69/6/99
f 43/4/100 26/6/100 27/3/100
f 70/3/101 69/6/101 80/4/101
f 93/11/17 94/10/17 55/10/17
f 80/4/102 69/6/102 68/5/102
f 36/7/103 72/7/103 3/7/103
f 95/2/23 56/2/23 60/7/23
f 50/1/104 74/4/104 76/5/104
f 76/5/105 79/13/105 77/11/105
f 48/3/106 75/3/106 74/4/106
f 42/13/107 28/12/107 41/5/107
f 37/4/108 39/5/108 41/5/108
f 74/4/109 80/4/109 78/5/109
f 88/10/30 59/10/30 55/10/30
f 75/3/110 81/3/110 80/4/110
f 78/5/111 71/12/111 79/13/111
f 72/14/112 73/15/112 1/15/112
f 57/9/113 61/9/113 60/2/113
f 92/11/11 77/11/11 79/13/11
f 52/5/114 54/11/114 55/10/114
f 7/1/115 8/9/115 10/8/115
f 9/5/116 10/8/116 12/10/116
f 35/7/117 34/7/117 46/7/117
f 63/7/118 30/7/118 73/7/118
f 13/2/40 5/7/40 97/7/40
f 26/6/119 22/1/119 21/3/119
f 8/9/120 6/2/120 13/2/120
f 6/2/121 8/9/121 7/1/121
f 14/9/122 13/2/122 17/2/122
f 47/14/46 87/14/46 86/15/46
f 88/10/47 16/10/47 20/7/47
f 20/7/123 29/7/123 88/10/123
f 29/7/124 63/10/124 88/10/124
f 8/9/125 14/9/125 15/8/125
f 23/5/126 22/1/126 26/6/126
f 5/3/127 7/1/127 37/4/127
f 91/13/52 79/13/52 71/12/52
f 18/7/128 17/7/128 31/7/128
f 34/7/129 30/7/129 20/7/129
f 18/14/130 33/14/130 34/15/130
f 33/14/131 47/14/131 46/15/131
f 32/7/59 17/7/59 96/7/59
f 50/1/132 52/5/132 53/8/132
f 40/11/133 42/13/133 39/5/133
f 38/3/134 37/4/134 43/4/134
f 14/9/135 18/9/135 19/8/135
f 51/9/136 57/9/136 56/2/136
f 35/7/137 45/7/137 1/7/137
f 7/1/138 9/5/138 39/5/138
f 3/14/67 1/15/67 82/15/67
f 89/11/139 90/12/139 71/12/139
f 73/15/140 72/14/140 61/14/140
f 97/7/141 98/3/141 75/3/141
f 98/3/142 99/3/142 81/3/142
f 100/3/86 70/3/86 81/3/86
f 101/3/143 64/3/143 70/3/143
f 28/12/139 90/12/139 89/11/139
f 28/12/52 42/13/52 91/13/52
f 42/13/11 40/11/11 92/11/11
f 88/10/30 94/10/30 12/10/30
f 12/10/17 94/10/17 93/11/17
f 40/11/11 11/11/11 93/11/11
f 27/3/144 21/3/144 101/3/144
f 44/3/86 27/3/86 100/3/86
f 44/3/142 99/3/142 98/3/142
f 38/3/145 98/3/145 97/7/145
f 56/2/40 95/2/40 97/7/40
f 17/7/23 13/2/23 95/2/23
