# Blender 5.0.0
# www.blender.org
mtllib shorts.mtl
o pants4
v -0.679938 -0.119669 7.202088
v 0.609894 0.177189 7.339735
v -0.683539 0.474960 7.303969
v -0.008294 0.684723 7.348222
v 0.518655 0.948884 5.768372
v 1.107630 0.575899 5.908838
v 1.109309 -0.003354 5.850263
v 0.511786 -0.292086 5.761774
v 0.083794 -0.000123 5.802988
v 0.510128 1.013362 6.124545
v 1.097582 0.572654 6.226923
v 1.099858 -0.016611 6.137490
v 0.514300 -0.304815 5.884146
v 0.074507 -0.012474 5.904460
v -0.000000 1.036432 6.040930
v 0.401939 1.025064 6.348126
v 0.936556 0.538598 6.760822
v 0.933031 -0.070628 6.651639
v 0.436996 -0.339485 6.185642
v 0.071483 -0.028108 6.039104
v -0.000000 1.081880 6.169394
v -0.000000 0.003592 6.042364
v -0.000000 -0.314634 6.194039
v 0.000000 -0.359712 6.568853
v -0.000000 0.918233 6.838183
v -0.000000 1.047940 6.536043
v 0.743410 0.483614 7.113418
v 0.739446 -0.125285 7.005753
v 0.000000 -0.308637 6.932926
v -0.000000 0.698410 7.160184
v -0.008294 -0.298725 7.133172
v 0.663349 -0.119669 7.202086
v 0.666950 0.474960 7.303968
v -0.518655 0.948886 5.768371
v -1.107630 0.575900 5.908837
v -1.109309 -0.003353 5.850262
v -0.511786 -0.292085 5.761773
v -0.083794 -0.000122 5.802986
v -0.510128 1.013363 6.124544
v -1.097582 0.572655 6.226922
v -1.099858 -0.016610 6.137489
v -0.514300 -0.304814 5.884145
v -0.074507 -0.012473 5.904459
v -0.401939 1.025064 6.348126
v -0.936555 0.538598 6.760824
v -0.933031 -0.070628 6.651639
v -0.436996 -0.339484 6.185642
v -0.071483 -0.028108 6.039104
v -0.743410 0.483613 7.113420
v -0.739445 -0.125285 7.005754
v -0.141339 0.917278 5.753719
v 0.141338 0.917277 5.753719
v -0.492097 -0.035087 7.215185
v -0.494691 0.393240 7.288572
v -0.008294 0.544338 7.320449
v -0.008294 -0.164065 7.165542
v 0.475509 -0.035086 7.215183
v 0.478102 0.393241 7.288571
v 0.059926 0.976854 6.005733
v -0.059926 0.976854 6.005733
v 0.532976 0.808013 5.777733
v 0.981596 0.523913 5.884727
v 0.982875 0.082699 5.840109
v 0.527744 -0.137226 5.772707
v 0.201745 0.085160 5.804100
v 0.245576 0.783939 5.766573
v -0.535190 0.786242 5.779179
v -0.962116 0.515879 5.880998
v -0.963333 0.096000 5.838539
v -0.530211 -0.113291 5.774398
v -0.219976 0.098342 5.804272
v -0.261687 0.763330 5.768559
vn -0.3772 0.8611 0.3409
vn 0.5668 -0.8205 -0.0737
vn -0.9995 -0.0004 0.0329
vn -0.5538 -0.8256 -0.1083
vn 0.4450 -0.8897 -0.1017
vn 0.2832 0.9462 0.1566
vn -0.5629 -0.2979 0.7710
vn -0.4384 -0.8987 0.0091
vn 0.4506 -0.8923 -0.0264
vn -0.0968 0.9383 -0.3320
vn 0.5538 -0.8256 -0.1083
vn -0.9516 -0.0425 0.3043
vn -0.0993 -0.9908 -0.0917
vn -0.2260 -0.4191 -0.8794
vn -0.0587 -0.9911 -0.1192
vn 0.0066 0.1170 -0.9931
vn 0.2304 0.8942 0.3839
vn -0.2995 0.9524 0.0561
vn 0.2259 -0.9647 0.1353
vn -0.9532 -0.0566 0.2969
vn -0.5584 0.7975 0.2285
vn 0.6283 -0.0310 0.7774
vn -0.5521 -0.8201 -0.1504
vn 0.2516 -0.9661 0.0582
vn -0.4118 -0.9073 0.0851
vn 0.1342 0.9909 0.0131
vn 0.5969 0.8019 0.0270
vn -0.4450 -0.8897 -0.1017
vn 0.4183 -0.1324 0.8986
vn 0.5585 0.8000 0.2195
vn -0.0073 -0.1688 0.9856
vn 0.9995 -0.0004 0.0329
vn 0.0993 -0.9908 -0.0917
vn 0.2260 -0.4191 -0.8794
vn 0.0587 -0.9911 -0.1192
vn -0.0066 0.1170 -0.9931
vn 0.3772 0.8611 0.3409
vn 0.4118 -0.9073 0.0851
vn 0.8797 -0.0888 0.4672
vn 0.9294 -0.0701 0.3622
vn 0.9516 -0.0425 0.3043
vn -0.5530 0.8221 -0.1356
vn -0.2305 -0.9682 0.0975
vn 0.0073 -0.1688 0.9856
vn 0.0374 -0.2336 0.9716
vn -0.0040 -0.1941 0.9810
vn 0.0040 -0.1941 0.9810
vn -0.0374 -0.2336 0.9716
vn -0.4183 -0.1324 0.8986
vn 0.4402 -0.8966 0.0487
vn -0.0435 -0.4668 -0.8833
vn 0.2643 0.7965 0.5438
vn -0.5783 -0.1407 0.8036
vn 0.5629 -0.2979 0.7710
vn -0.4402 -0.8966 0.0486
vn 0.0435 -0.4668 -0.8833
vn -0.2304 0.8942 0.3839
vn -0.2643 0.7965 0.5438
vn -0.2259 -0.9647 0.1353
vn -0.8797 -0.0888 0.4672
vn -0.0167 0.9718 -0.2352
vn 0.0752 0.9809 -0.1794
vn 0.0605 0.0338 0.9976
vn -0.0605 0.0338 0.9976
vn -0.9502 0.0178 -0.3112
vn 0.9996 -0.0123 -0.0239
vn 0.1470 0.0999 -0.9841
vn 0.1189 0.0577 -0.9912
vn 0.2052 -0.0441 -0.9777
vn 0.0439 -0.0618 -0.9971
vn 0.0504 -0.0567 -0.9971
vn -0.0448 0.0749 -0.9962
vn 0.0448 0.0750 -0.9962
vn -0.0504 -0.0567 -0.9971
vn -0.0439 -0.0618 -0.9971
vn -0.1470 0.0999 -0.9841
vn -0.1189 0.0577 -0.9912
vn -0.2052 -0.0441 -0.9777
vn -0.3642 0.8020 0.4735
vn 0.5521 -0.8201 -0.1504
vn -0.9995 -0.0009 0.0316
vn -0.5731 -0.7844 -0.2372
vn 0.3006 0.9502 0.0824
vn -0.4506 -0.8923 -0.0264
vn 0.4384 -0.8987 0.0091
vn -0.1342 0.9909 0.0131
vn 0.5731 -0.7844 -0.2372
vn -0.9569 -0.0566 0.2850
vn -0.2828 0.9501 0.1320
vn -0.9550 -0.0577 0.2911
vn -0.5585 0.8000 0.2195
vn 0.5783 -0.1407 0.8036
vn -0.5668 -0.8205 -0.0737
vn 0.2283 -0.9667 0.1161
vn -0.2004 -0.9635 0.1777
vn 0.0968 0.9383 -0.3320
vn 0.5530 0.8221 -0.1356
vn 0.5584 0.7975 0.2285
vn 0.9995 -0.0009 0.0316
vn 0.3642 0.8020 0.4735
vn 0.2004 -0.9635 0.1777
vn 0.8793 -0.0885 0.4679
vn 0.9269 -0.0688 0.3688
vn 0.9569 -0.0566 0.2850
vn -0.5969 0.8019 0.0270
vn -0.2538 -0.9665 0.0373
vn -0.6283 -0.0310 0.7774
vn -0.8793 -0.0885 0.4679
vn 0.1547 0.6132 -0.7746
vn -0.0752 0.9809 -0.1794
vn -0.1547 0.6132 -0.7746
vn 0.0168 0.9718 -0.2352
vn 0.5073 0.0012 0.8618
vn -0.5073 0.0012 0.8618
vn -0.9948 0.0579 -0.0840
vn -0.9996 -0.0123 -0.0239
vn 0.9948 0.0579 -0.0840
vn 0.9502 0.0178 -0.3112
vn -0.0448 0.0750 -0.9962
vt 0.000000 0.000000
vt 0.333333 1.000000
vt 0.500000 1.000000
vt 0.666667 1.000000
vt 0.833333 1.000000
vt 0.042154 0.130000
vt 0.250000 0.010000
vt 0.457846 0.130000
vt -0.000000 1.000000
vt 0.166667 1.000000
vt 0.042154 0.370000
vt 0.457846 0.370000
vt 1.000000 1.000000
vt 0.250000 0.490000
vt 0.083333 0.500000
s 0
usemtl skin
f 59/15/63 22/1/63 20/1/63
f 22/1/64 60/1/64 48/1/64
f 59/15/113 15/10/113 22/1/113
f 22/1/114 15/1/114 60/1/114
usemtl pants
f 25/1/1 45/1/1 49/1/1
f 38/2/2 42/3/2 37/3/2
f 41/4/3 35/5/3 36/4/3
f 13/3/4 20/2/4 14/2/4
f 7/4/5 13/3/5 8/3/5
f 30/1/6 33/1/6 27/1/6
f 20/6/7 19/7/7 18/8/7
f 41/4/8 42/3/8 47/3/8
f 12/4/9 13/3/9 7/4/9
f 39/9/10 21/10/10 15/10/10
f 48/2/11 42/3/11 43/2/11
f 46/4/12 40/5/12 41/4/12
f 21/10/13 16/9/13 26/1/13
f 20/1/14 23/1/14 22/1/14
f 19/1/15 24/1/15 23/1/15
f 22/1/16 21/11/16 20/6/16
f 25/1/17 16/1/17 26/1/17
f 30/1/18 3/1/18 4/1/18
f 24/1/19 28/1/19 29/1/19
f 49/12/20 1/8/20 3/12/20
f 40/5/21 44/13/21 39/13/21
f 45/12/22 48/6/22 44/14/22
f 9/2/23 13/3/23 14/2/23
f 29/1/24 32/1/24 31/1/24
f 47/1/25 50/1/25 46/1/25
f 10/9/26 21/10/26 16/9/26
f 6/5/27 10/13/27 11/5/27
f 42/3/28 36/4/28 37/3/28
f 48/6/29 21/11/29 44/14/29
f 11/5/30 16/13/30 17/5/30
f 33/12/31 57/8/31 32/8/31
f 6/5/32 12/4/32 7/4/32
f 21/10/33 26/1/33 44/9/33
f 23/1/34 48/1/34 22/1/34
f 24/1/35 47/1/35 23/1/35
f 22/1/36 48/6/36 21/11/36
f 17/1/37 25/1/37 27/1/37
f 28/1/38 19/1/38 18/1/38
f 17/12/39 28/8/39 18/8/39
f 27/12/40 32/8/40 28/8/40
f 11/5/41 18/4/41 12/4/41
f 35/5/42 39/13/42 34/13/42
f 29/1/43 1/1/43 50/1/43
f 3/12/44 53/8/44 54/12/44
f 31/1/45 53/1/45 1/1/45
f 4/1/46 54/1/46 55/1/46
f 4/1/47 58/1/47 33/1/47
f 31/1/48 57/1/48 56/1/48
f 16/14/49 21/11/49 20/6/49
f 12/4/50 18/4/50 19/3/50
f 20/1/51 19/1/51 23/1/51
f 25/1/52 30/1/52 27/1/52
f 17/12/53 20/6/53 18/8/53
f 46/8/54 47/7/54 48/6/54
f 47/3/55 46/4/55 41/4/55
f 23/1/56 47/1/56 48/1/56
f 25/1/57 26/1/57 44/1/57
f 49/1/58 30/1/58 25/1/58
f 24/1/59 29/1/59 50/1/59
f 31/1/45 56/1/45 53/1/45
f 4/1/46 3/1/46 54/1/46
f 4/1/47 55/1/47 58/1/47
f 31/1/48 32/1/48 57/1/48
f 50/8/60 45/12/60 46/8/60
f 10/9/61 52/1/61 59/15/61
f 51/1/62 34/13/62 39/9/62
f 14/2/65 59/15/65 52/1/65
f 60/15/66 48/1/66 43/2/66
f 6/5/67 63/4/67 62/5/67
f 7/4/68 64/3/68 63/4/68
f 6/5/69 61/13/69 5/13/69
f 5/13/70 66/1/70 52/1/70
f 9/2/71 66/1/71 65/2/71
f 9/2/72 64/3/72 8/3/72
f 38/2/73 70/3/73 71/2/73
f 38/2/74 72/1/74 51/1/74
f 34/13/75 72/1/75 67/13/75
f 35/5/76 69/4/76 36/4/76
f 36/4/77 70/3/77 37/3/77
f 35/5/78 67/13/78 68/5/78
f 25/1/79 44/1/79 45/1/79
f 38/2/80 43/2/80 42/3/80
f 41/4/81 40/5/81 35/5/81
f 13/3/82 19/3/82 20/2/82
f 30/1/83 4/1/83 33/1/83
f 41/4/84 36/4/84 42/3/84
f 12/4/85 19/3/85 13/3/85
f 39/9/86 44/9/86 21/10/86
f 48/2/87 47/3/87 42/3/87
f 46/4/88 45/5/88 40/5/88
f 30/1/89 49/1/89 3/1/89
f 49/12/90 50/8/90 1/8/90
f 40/5/91 45/5/91 44/13/91
f 45/12/92 46/8/92 48/6/92
f 9/2/93 8/3/93 13/3/93
f 29/1/94 28/1/94 32/1/94
f 47/1/95 24/1/95 50/1/95
f 10/9/96 15/10/96 21/10/96
f 6/5/97 5/13/97 10/13/97
f 11/5/98 10/13/98 16/13/98
f 33/12/31 58/12/31 57/8/31
f 6/5/99 11/5/99 12/4/99
f 17/1/100 16/1/100 25/1/100
f 28/1/101 24/1/101 19/1/101
f 17/12/102 27/12/102 28/8/102
f 27/12/103 33/12/103 32/8/103
f 11/5/104 17/5/104 18/4/104
f 35/5/105 40/5/105 39/13/105
f 29/1/106 31/1/106 1/1/106
f 3/12/44 1/8/44 53/8/44
f 17/12/107 16/14/107 20/6/107
f 50/8/108 49/12/108 45/12/108
f 59/15/109 15/10/109 10/9/109
f 10/9/110 5/13/110 52/1/110
f 39/9/111 15/10/111 60/15/111
f 60/15/112 51/1/112 39/9/112
f 52/1/115 9/2/115 14/2/115
f 14/2/116 20/1/116 59/15/116
f 43/2/117 38/2/117 51/1/117
f 51/1/118 60/15/118 43/2/118
f 6/5/67 7/4/67 63/4/67
f 7/4/68 8/3/68 64/3/68
f 6/5/69 62/5/69 61/13/69
f 5/13/70 61/13/70 66/1/70
f 9/2/71 52/1/71 66/1/71
f 9/2/119 65/2/119 64/3/119
f 38/2/73 37/3/73 70/3/73
f 38/2/74 71/2/74 72/1/74
f 34/13/75 51/1/75 72/1/75
f 35/5/76 68/5/76 69/4/76
f 36/4/77 69/4/77 70/3/77
f 35/5/78 34/13/78 67/13/78
