# Blender 5.0.0
# www.blender.org
mtllib skinny.mtl
o pants
v -0.679938 -0.119669 7.202088
v 0.609894 0.177189 7.339735
v -0.683539 0.474960 7.303969
v -0.008294 0.684723 7.348222
v 0.505538 0.671308 4.154922
v 0.518655 0.948884 5.768372
v 0.917845 0.415591 4.148263
v 1.107630 0.575899 5.995845
v 0.917845 -0.067605 4.162164
v 1.109309 -0.003354 5.916685
v 0.505516 -0.303616 4.174490
v 0.511786 -0.292086 5.761774
v 0.093100 -0.052725 4.176449
v 0.083794 -0.000123 5.802988
v 0.093232 0.439113 4.170936
v -0.000000 0.885669 5.739068
v 0.510128 1.013362 6.124545
v 1.097582 0.572654 6.226923
v 1.099858 -0.016611 6.137490
v 0.514300 -0.304815 5.884146
v 0.074507 -0.012474 5.904460
v -0.000000 1.036432 6.040930
v 0.401939 1.025064 6.348126
v 0.936556 0.538598 6.760822
v 0.933031 -0.070628 6.651639
v 0.436996 -0.339485 6.185642
v 0.071483 -0.028108 6.039104
v -0.000000 1.081880 6.169394
v 0.415765 0.741738 1.389862
v 0.718070 0.567934 1.373907
v 0.718070 0.220323 1.341996
v 0.415765 0.046517 1.326041
v 0.113460 0.220323 1.341996
v 0.113460 0.567934 1.373907
v 0.870885 0.052006 3.403878
v 0.870885 0.501159 3.416017
v 0.092645 0.452192 3.416017
v 0.092645 0.003039 3.403878
v 0.481765 0.799187 3.462892
v 0.481765 -0.237860 3.797707
v -0.000000 0.003592 6.042364
v -0.000000 -0.314634 6.194039
v 0.000000 -0.359712 6.568853
v -0.000000 0.918233 6.838183
v -0.000000 1.047940 6.536043
v 0.743410 0.483614 7.113418
v 0.739446 -0.125285 7.005753
v 0.000000 -0.308637 6.932926
v -0.000000 0.698410 7.160184
v 0.909355 0.431059 4.015889
v 0.093018 -0.042645 4.036784
v 0.501241 0.694425 4.029818
v 0.909355 -0.045982 4.025082
v 0.093126 0.441478 4.034462
v 0.501222 -0.291728 4.106376
v 0.899109 -0.019883 3.859627
v 0.092998 0.444331 3.869741
v 0.496040 -0.277381 4.024162
v 0.899109 0.449730 3.856115
v 0.092918 -0.030477 3.868212
v 0.496053 0.722328 3.878819
v -0.008294 -0.298725 7.133172
v 0.663349 -0.119669 7.202086
v 0.666950 0.474960 7.303968
v -0.505538 0.671309 4.154922
v -0.518655 0.948886 5.768371
v -0.917844 0.415591 4.148263
v -1.107630 0.575900 5.995843
v -0.917845 -0.067604 4.162163
v -1.109309 -0.003353 5.916684
v -0.505516 -0.303615 4.174489
v -0.511786 -0.292085 5.761773
v -0.093100 -0.052725 4.176449
v -0.083794 -0.000122 5.802986
v -0.093233 0.439114 4.170936
v -0.510128 1.013363 6.124544
v -1.097582 0.572655 6.226922
v -1.099858 -0.016610 6.137489
v -0.514300 -0.304814 5.884145
v -0.074507 -0.012473 5.904459
v -0.401939 1.025064 6.348126
v -0.936555 0.538598 6.760824
v -0.933031 -0.070628 6.651639
v -0.436996 -0.339484 6.185642
v -0.071483 -0.028108 6.039104
v -0.415765 0.696739 1.385730
v -0.678934 0.545433 1.371840
v -0.678934 0.242824 1.344060
v -0.415765 0.091520 1.330171
v -0.152596 0.242824 1.344060
v -0.152596 0.545433 1.371840
v -0.870885 0.052007 3.403876
v -0.870885 0.501160 3.416016
v -0.092645 0.452193 3.416016
v -0.092645 0.003040 3.403876
v -0.481765 0.799188 3.462891
v -0.481765 -0.237859 3.797706
v -0.743410 0.483613 7.113420
v -0.739445 -0.125285 7.005754
v -0.909355 0.431060 4.015888
v -0.093018 -0.042644 4.036784
v -0.501241 0.694427 4.029817
v -0.909355 -0.045981 4.025081
v -0.093126 0.441478 4.034461
v -0.501222 -0.291728 4.106376
v -0.899109 -0.019882 3.859626
v -0.092998 0.444332 3.869740
v -0.496040 -0.277380 4.024162
v -0.899109 0.449731 3.856114
v -0.092918 -0.030476 3.868211
v -0.496053 0.722329 3.878818
v 0.434077 0.602573 1.377087
v 0.615355 0.498351 1.367519
v 0.615355 0.289905 1.348383
v 0.434077 0.185682 1.338816
v 0.252799 0.289905 1.348383
v 0.252799 0.498351 1.367519
v -0.418487 0.575589 1.374609
v -0.576297 0.484858 1.366279
v -0.576297 0.303398 1.349621
v -0.418487 0.212668 1.341293
v -0.260677 0.303398 1.349621
v -0.260677 0.484858 1.366279
v -0.492097 -0.035087 7.215185
v -0.494691 0.393240 7.288572
v -0.008294 0.544338 7.320449
v -0.008294 -0.164065 7.165542
v 0.475509 -0.035086 7.215183
v 0.478102 0.393241 7.288571
vn 0.5194 0.8414 -0.1490
vn 0.9941 -0.0031 -0.1084
vn 0.4969 -0.8678 0.0043
vn -0.5197 -0.8543 0.0083
vn -0.5521 -0.8201 -0.1504
vn -1.0000 0.0002 -0.0057
vn -0.4808 0.8354 -0.2665
vn 0.9972 0.0020 -0.0746
vn -0.9975 -0.0670 0.0237
vn 0.9991 -0.0029 0.0426
vn -0.9964 -0.0757 0.0378
vn 0.5955 0.8025 0.0372
vn 0.4540 -0.8852 -0.1014
vn 0.0732 0.9817 -0.1760
vn -0.5629 -0.2979 0.7710
vn 0.4384 -0.8987 0.0091
vn 0.5585 0.8000 0.2195
vn 0.1342 0.9909 0.0131
vn -0.5538 -0.8256 -0.1083
vn 0.9516 -0.0425 0.3043
vn -0.9999 0.0003 -0.0101
vn 0.6044 0.7956 -0.0413
vn 0.4998 -0.8595 -0.1072
vn -0.4997 0.8651 0.0439
vn -0.4571 -0.8849 -0.0896
vn -0.4841 -0.8666 -0.1207
vn -0.6664 0.7455 0.0134
vn 0.4758 -0.8638 -0.1657
vn 0.6127 0.7806 0.1232
vn -1.0000 0.0002 0.0006
vn 0.9980 0.0017 -0.0638
vn -0.0993 -0.9908 -0.0917
vn -0.2260 -0.4191 -0.8794
vn -0.0587 -0.9911 -0.1192
vn 0.0066 0.1170 -0.9931
vn 0.2304 0.8942 0.3839
vn 0.3772 0.8611 0.3409
vn 0.2259 -0.9647 0.1353
vn 0.8797 -0.0888 0.4672
vn 0.9979 -0.0012 -0.0641
vn -1.0000 0.0003 0.0006
vn 0.5405 0.8305 0.1349
vn 0.4843 -0.8591 -0.1655
vn -0.4902 0.8715 0.0155
vn -0.5167 -0.8484 -0.1155
vn 0.9979 -0.0005 -0.0641
vn 0.5604 0.8176 0.1318
vn 0.4820 -0.8604 -0.1656
vn -0.5266 0.8500 0.0151
vn -0.5025 -0.8565 -0.1178
vn 0.9294 -0.0701 0.3622
vn -0.2305 -0.9682 0.0975
vn 0.2832 0.9462 0.1566
vn -0.5194 0.8414 -0.1490
vn -0.9945 0.0170 -0.1036
vn -0.4382 -0.8988 -0.0149
vn 0.5197 -0.8543 0.0083
vn 0.5668 -0.8205 -0.0737
vn 1.0000 0.0002 -0.0057
vn 0.4808 0.8354 -0.2665
vn -0.9956 0.0025 -0.0934
vn 0.9973 -0.0669 -0.0302
vn -0.9991 -0.0029 0.0426
vn 0.9896 -0.1010 -0.1029
vn -0.5665 0.8131 -0.1336
vn -0.4540 -0.8852 -0.1014
vn 0.0835 0.8915 -0.4453
vn 0.4183 -0.1324 0.8986
vn -0.4384 -0.8987 0.0091
vn -0.5584 0.7975 0.2285
vn -0.0968 0.9383 -0.3320
vn 0.5538 -0.8256 -0.1083
vn -0.9516 -0.0425 0.3043
vn 0.9996 0.0008 -0.0290
vn -0.6026 0.7959 -0.0584
vn -0.5064 -0.8528 -0.1274
vn 0.6644 0.7472 -0.0157
vn 0.4428 -0.8902 -0.1070
vn 0.4841 -0.8666 -0.1207
vn 0.5622 0.8096 0.1689
vn -0.4762 -0.8606 -0.1802
vn -0.5615 0.8252 0.0604
vn 1.0000 0.0002 0.0006
vn -0.9981 -0.0005 -0.0619
vn 0.0993 -0.9908 -0.0917
vn 0.2260 -0.4191 -0.8794
vn 0.0587 -0.9911 -0.1192
vn -0.0066 0.1170 -0.9931
vn -0.3642 0.8020 0.4735
vn -0.3772 0.8611 0.3409
vn -0.2948 -0.9555 0.0137
vn -0.8797 -0.0888 0.4672
vn -0.9981 -0.0018 -0.0621
vn 1.0000 0.0003 0.0006
vn -0.5267 0.8475 0.0653
vn -0.4846 -0.8560 -0.1799
vn 0.4902 0.8715 0.0155
vn 0.5166 -0.8484 -0.1155
vn -0.9981 -0.0012 -0.0620
vn -0.5427 0.8376 0.0631
vn -0.4808 -0.8581 -0.1801
vn 0.5266 0.8500 0.0151
vn 0.5025 -0.8565 -0.1178
vn -0.2995 0.9524 0.0561
vn 0.2516 -0.9661 0.0582
vn -0.9532 -0.0566 0.2969
vn -0.0000 0.0914 -0.9958
vn -0.0073 -0.1688 0.9856
vn 0.0374 -0.2336 0.9716
vn 0.0073 -0.1688 0.9856
vn -0.0040 -0.1941 0.9810
vn 0.0040 -0.1941 0.9810
vn -0.0374 -0.2336 0.9716
vn 0.5656 0.8146 -0.1288
vn 0.9945 0.0170 -0.1036
vn 0.4382 -0.8988 -0.0149
vn -0.5618 -0.8269 0.0235
vn -0.5668 -0.8205 -0.0737
vn -0.9948 -0.0964 -0.0317
vn -0.1099 0.9797 -0.1677
vn 0.9973 0.0067 -0.0734
vn -0.9973 -0.0669 -0.0302
vn 0.9991 -0.0027 0.0434
vn -0.9896 -0.1010 -0.1029
vn 0.5665 0.8131 -0.1336
vn 0.4532 -0.8908 -0.0341
vn -0.0835 0.8915 -0.4453
vn -0.5783 -0.1407 0.8036
vn -0.6283 -0.0310 0.7774
vn -0.4183 -0.1324 0.8986
vn 0.4402 -0.8966 0.0487
vn 0.5584 0.7975 0.2285
vn 0.0968 0.9383 -0.3320
vn -0.5731 -0.7844 -0.2372
vn 0.9569 -0.0566 0.2850
vn -0.9999 0.0009 -0.0101
vn 0.4981 0.8671 -0.0089
vn 0.5187 -0.8477 -0.1114
vn -0.6656 0.7463 0.0005
vn -0.4999 -0.8608 -0.0958
vn -0.4785 -0.8758 -0.0629
vn -0.5622 0.8096 0.1689
vn 0.4762 -0.8606 -0.1802
vn 0.5615 0.8252 0.0604
vn -1.0000 -0.0000 0.0008
vn 0.9981 -0.0005 -0.0619
vn -0.0435 -0.4668 -0.8833
vn 0.2656 -0.9301 0.2538
vn 0.3642 0.8020 0.4735
vn 0.2643 0.7965 0.5438
vn 0.2948 -0.9555 0.0137
vn 0.8793 -0.0885 0.4679
vn 0.9981 -0.0018 -0.0621
vn -1.0000 0.0002 0.0008
vn 0.5267 0.8475 0.0653
vn 0.4846 -0.8560 -0.1799
vn -0.5175 0.8381 0.1726
vn -0.5122 -0.8566 -0.0615
vn 0.9981 -0.0012 -0.0620
vn 0.5427 0.8376 0.0631
vn 0.4808 -0.8581 -0.1801
vn -0.5038 -0.8616 -0.0619
vn 0.9269 -0.0688 0.3688
vn -0.2538 -0.9665 0.0373
vn 0.3006 0.9502 0.0824
vn -0.5656 0.8146 -0.1288
vn -0.9941 -0.0031 -0.1084
vn -0.4969 -0.8678 0.0043
vn 0.5618 -0.8269 0.0235
vn 0.5521 -0.8201 -0.1504
vn 0.9948 -0.0964 -0.0317
vn 0.1099 0.9797 -0.1677
vn -0.9957 0.0084 -0.0920
vn 0.9975 -0.0670 0.0237
vn -0.9991 -0.0027 0.0434
vn 0.9964 -0.0757 0.0378
vn -0.5955 0.8025 0.0372
vn -0.4532 -0.8908 -0.0341
vn -0.0732 0.9817 -0.1760
vn 0.6283 -0.0310 0.7774
vn 0.5783 -0.1407 0.8036
vn 0.5629 -0.2979 0.7710
vn -0.4402 -0.8966 0.0486
vn -0.5585 0.8000 0.2195
vn -0.1342 0.9909 0.0131
vn 0.5731 -0.7844 -0.2372
vn -0.9569 -0.0566 0.2850
vn 0.9996 0.0027 -0.0292
vn -0.4971 0.8672 -0.0279
vn -0.4994 -0.8571 -0.1259
vn 0.4993 0.8661 0.0249
vn 0.4997 -0.8586 -0.1145
vn 0.4785 -0.8758 -0.0629
vn 0.6664 0.7455 0.0134
vn -0.4758 -0.8638 -0.1657
vn -0.6127 0.7806 0.1232
vn 1.0000 -0.0000 0.0008
vn -0.9980 0.0017 -0.0638
vn 0.0435 -0.4668 -0.8833
vn -0.2656 -0.9301 0.2538
vn -0.2304 0.8942 0.3839
vn -0.2643 0.7965 0.5438
vn -0.2259 -0.9647 0.1353
vn -0.8793 -0.0885 0.4679
vn -0.9979 -0.0012 -0.0641
vn 1.0000 0.0002 0.0008
vn -0.5405 0.8305 0.1349
vn -0.4843 -0.8591 -0.1655
vn 0.5175 0.8381 0.1726
vn 0.5122 -0.8566 -0.0615
vn -0.9979 -0.0005 -0.0641
vn -0.5604 0.8176 0.1318
vn -0.4820 -0.8604 -0.1656
vn 0.5038 -0.8616 -0.0619
vn -0.2828 0.9501 0.1320
vn 0.2283 -0.9667 0.1161
vn -0.9550 -0.0577 0.2911
vt 1.000000 1.000000
vt 0.833333 0.500000
vt 1.000000 0.500000
vt 0.666667 1.000000
vt 0.666667 0.500000
vt 0.500000 1.000000
vt 0.500000 0.500000
vt 0.333333 0.500000
vt 0.333333 1.000000
vt 0.166667 0.500000
vt 0.166667 1.000000
vt -0.000000 0.500000
vt 0.833333 0.500000
vt 0.833333 1.000000
vt -0.000000 1.000000
vt 0.042154 0.130000
vt 0.250000 0.010000
vt 0.457846 0.130000
vt 0.500000 0.500000
vt 0.500000 0.500000
vt 0.166667 0.500000
vt -0.000000 0.500000
vt 0.833333 0.500000
vt 0.000000 0.000000
vt 0.042154 0.370000
vt 0.457846 0.370000
vt 0.333333 0.500000
vt 0.250000 0.490000
s 0
usemtl pants
f 6/1/1 7/2/1 5/3/1
f 7/2/2 10/4/2 9/5/2
f 9/5/3 12/6/3 11/7/3
f 12/6/4 13/8/4 11/7/4
f 14/9/5 20/6/5 21/9/5
f 14/9/6 15/10/6 13/8/6
f 16/11/7 5/12/7 15/10/7
f 35/5/8 30/2/8 36/13/8
f 22/11/9 27/9/9 28/11/9
f 8/14/10 19/4/10 10/4/10
f 16/11/11 21/9/11 22/11/11
f 8/14/12 17/1/12 18/14/12
f 10/4/13 20/6/13 12/6/13
f 6/15/14 22/11/14 17/15/14
f 27/16/15 26/17/15 25/18/15
f 19/4/16 26/6/16 20/6/16
f 18/14/17 23/1/17 24/14/17
f 17/15/18 28/11/18 23/15/18
f 20/6/19 27/9/19 21/9/19
f 18/14/20 25/4/20 19/4/20
f 37/10/21 33/8/21 38/8/21
f 36/13/22 29/3/22 39/3/22
f 35/5/23 32/7/23 31/5/23
f 37/10/24 29/12/24 34/10/24
f 38/8/25 32/7/25 40/19/25
f 60/8/26 40/19/26 58/20/26
f 57/21/27 39/22/27 37/10/27
f 56/5/28 40/19/28 35/5/28
f 61/3/29 36/13/29 39/3/29
f 57/21/30 38/8/30 60/8/30
f 59/23/31 35/5/31 36/13/31
f 28/11/32 23/15/32 45/24/32
f 27/24/33 42/24/33 41/24/33
f 26/24/34 43/24/34 42/24/34
f 41/24/35 28/25/35 27/16/35
f 44/24/36 23/24/36 45/24/36
f 44/24/37 46/24/37 24/24/37
f 43/24/38 47/24/38 48/24/38
f 24/26/39 47/18/39 25/18/39
f 7/2/40 53/5/40 50/23/40
f 15/10/41 51/27/41 13/8/41
f 5/3/42 50/23/42 52/3/42
f 9/5/43 55/7/43 53/5/43
f 5/12/44 54/21/44 15/10/44
f 13/8/45 55/7/45 11/7/45
f 50/23/46 56/5/46 59/23/46
f 54/21/30 60/8/30 51/27/30
f 52/3/47 59/23/47 61/3/47
f 53/5/48 58/20/48 56/5/48
f 52/12/49 57/21/49 54/21/49
f 51/27/50 58/20/50 55/7/50
f 46/26/51 63/18/51 47/18/51
f 48/24/52 1/24/52 99/24/52
f 49/24/53 64/24/53 46/24/53
f 67/2/54 66/1/54 65/3/54
f 67/2/55 70/4/55 68/14/55
f 69/5/56 72/6/56 70/4/56
f 73/8/57 72/6/57 71/7/57
f 74/9/58 79/6/58 72/6/58
f 75/10/59 74/9/59 73/8/59
f 65/12/60 16/11/60 75/10/60
f 87/2/61 92/5/61 93/13/61
f 22/11/62 85/9/62 80/9/62
f 78/4/63 68/14/63 70/4/63
f 16/11/64 80/9/64 74/9/64
f 68/14/65 76/1/65 66/1/65
f 79/6/66 70/4/66 72/6/66
f 66/15/67 22/11/67 16/11/67
f 85/16/68 28/25/68 81/28/68
f 84/6/69 78/4/69 79/6/69
f 77/14/70 81/1/70 76/1/70
f 76/15/71 28/11/71 22/11/71
f 85/9/72 79/6/72 80/9/72
f 83/4/73 77/14/73 78/4/73
f 90/8/74 94/10/74 95/8/74
f 86/3/75 93/13/75 96/3/75
f 92/5/76 89/7/76 97/19/76
f 94/10/77 86/12/77 96/22/77
f 89/7/78 95/8/78 97/19/78
f 97/19/79 110/8/79 108/20/79
f 107/21/80 96/22/80 111/12/80
f 106/5/81 97/19/81 108/20/81
f 111/3/82 93/13/82 109/23/82
f 95/8/83 107/21/83 110/8/83
f 109/23/84 92/5/84 106/5/84
f 28/11/85 45/24/85 81/15/85
f 42/24/86 85/24/86 41/24/86
f 43/24/87 84/24/87 42/24/87
f 41/24/88 85/16/88 28/25/88
f 44/24/89 81/24/89 82/24/89
f 98/24/90 44/24/90 82/24/90
f 43/24/91 99/24/91 83/24/91
f 99/18/92 82/26/92 83/18/92
f 67/2/93 103/5/93 69/5/93
f 101/27/94 75/10/94 73/8/94
f 65/3/95 100/23/95 67/2/95
f 69/5/96 105/7/96 71/7/96
f 104/21/97 65/12/97 75/10/97
f 105/7/98 73/8/98 71/7/98
f 100/23/99 106/5/99 103/5/99
f 110/8/83 104/21/83 101/27/83
f 102/3/100 109/23/100 100/23/100
f 103/5/101 108/20/101 105/7/101
f 107/21/102 102/12/102 104/21/102
f 108/20/103 101/27/103 105/7/103
f 49/24/104 3/24/104 4/24/104
f 48/24/105 63/24/105 62/24/105
f 98/26/106 1/18/106 3/26/106
f 88/5/107 121/7/107 89/7/107
f 32/7/107 116/8/107 115/7/107
f 30/2/107 112/3/107 29/3/107
f 89/7/107 122/8/107 90/8/107
f 33/8/107 117/10/107 116/8/107
f 87/2/107 118/3/107 119/2/107
f 31/5/107 113/2/107 30/2/107
f 90/8/107 123/10/107 91/10/107
f 29/12/107 117/10/107 34/10/107
f 87/2/107 120/5/107 88/5/107
f 31/5/107 115/7/107 114/5/107
f 86/12/107 123/10/107 118/12/107
f 64/26/108 128/18/108 63/18/108
f 62/24/109 124/24/109 1/24/109
f 3/26/110 124/18/110 125/26/110
f 4/24/111 125/24/111 126/24/111
f 4/24/112 129/24/112 64/24/112
f 62/24/113 128/24/113 127/24/113
f 6/1/114 8/14/114 7/2/114
f 7/2/115 8/14/115 10/4/115
f 9/5/116 10/4/116 12/6/116
f 12/6/117 14/9/117 13/8/117
f 14/9/118 12/6/118 20/6/118
f 14/9/119 16/11/119 15/10/119
f 16/11/120 6/15/120 5/12/120
f 35/5/121 31/5/121 30/2/121
f 22/11/122 21/9/122 27/9/122
f 8/14/123 18/14/123 19/4/123
f 16/11/124 14/9/124 21/9/124
f 8/14/125 6/1/125 17/1/125
f 10/4/126 19/4/126 20/6/126
f 6/15/127 16/11/127 22/11/127
f 25/18/128 24/26/128 27/16/128
f 24/26/129 23/28/129 27/16/129
f 23/28/130 28/25/130 27/16/130
f 19/4/131 25/4/131 26/6/131
f 18/14/132 17/1/132 23/1/132
f 17/15/133 22/11/133 28/11/133
f 20/6/134 26/6/134 27/9/134
f 18/14/135 24/14/135 25/4/135
f 37/10/136 34/10/136 33/8/136
f 36/13/137 30/2/137 29/3/137
f 35/5/138 40/19/138 32/7/138
f 37/10/139 39/22/139 29/12/139
f 38/8/140 33/8/140 32/7/140
f 60/8/141 38/8/141 40/19/141
f 57/21/142 61/12/142 39/22/142
f 56/5/143 58/20/143 40/19/143
f 61/3/144 59/23/144 36/13/144
f 57/21/145 37/10/145 38/8/145
f 59/23/146 56/5/146 35/5/146
f 27/24/147 26/24/147 42/24/147
f 26/24/148 25/24/148 43/24/148
f 44/24/149 24/24/149 23/24/149
f 44/24/150 49/24/150 46/24/150
f 43/24/151 25/24/151 47/24/151
f 24/26/152 46/26/152 47/18/152
f 7/2/153 9/5/153 53/5/153
f 15/10/154 54/21/154 51/27/154
f 5/3/155 7/2/155 50/23/155
f 9/5/156 11/7/156 55/7/156
f 5/12/157 52/12/157 54/21/157
f 13/8/158 51/27/158 55/7/158
f 50/23/159 53/5/159 56/5/159
f 54/21/154 57/21/154 60/8/154
f 52/3/160 50/23/160 59/23/160
f 53/5/161 55/7/161 58/20/161
f 52/12/142 61/12/142 57/21/142
f 51/27/162 60/8/162 58/20/162
f 46/26/163 64/26/163 63/18/163
f 48/24/164 62/24/164 1/24/164
f 49/24/165 4/24/165 64/24/165
f 67/2/166 68/14/166 66/1/166
f 67/2/167 69/5/167 70/4/167
f 69/5/168 71/7/168 72/6/168
f 73/8/169 74/9/169 72/6/169
f 74/9/170 80/9/170 79/6/170
f 75/10/171 16/11/171 74/9/171
f 65/12/172 66/15/172 16/11/172
f 87/2/173 88/5/173 92/5/173
f 22/11/174 28/11/174 85/9/174
f 78/4/175 77/14/175 68/14/175
f 16/11/176 22/11/176 80/9/176
f 68/14/177 77/14/177 76/1/177
f 79/6/178 78/4/178 70/4/178
f 66/15/179 76/15/179 22/11/179
f 81/28/180 82/26/180 85/16/180
f 82/26/181 83/18/181 85/16/181
f 83/18/182 84/17/182 85/16/182
f 84/6/183 83/4/183 78/4/183
f 77/14/184 82/14/184 81/1/184
f 76/15/185 81/15/185 28/11/185
f 85/9/186 84/6/186 79/6/186
f 83/4/187 82/14/187 77/14/187
f 90/8/188 91/10/188 94/10/188
f 86/3/189 87/2/189 93/13/189
f 92/5/190 88/5/190 89/7/190
f 94/10/191 91/10/191 86/12/191
f 89/7/192 90/8/192 95/8/192
f 97/19/193 95/8/193 110/8/193
f 107/21/194 94/10/194 96/22/194
f 106/5/195 92/5/195 97/19/195
f 111/3/196 96/3/196 93/13/196
f 95/8/197 94/10/197 107/21/197
f 109/23/198 93/13/198 92/5/198
f 42/24/199 84/24/199 85/24/199
f 43/24/200 83/24/200 84/24/200
f 44/24/201 45/24/201 81/24/201
f 98/24/202 49/24/202 44/24/202
f 43/24/203 48/24/203 99/24/203
f 99/18/204 98/26/204 82/26/204
f 67/2/205 100/23/205 103/5/205
f 101/27/206 104/21/206 75/10/206
f 65/3/207 102/3/207 100/23/207
f 69/5/208 103/5/208 105/7/208
f 104/21/209 102/12/209 65/12/209
f 105/7/210 101/27/210 73/8/210
f 100/23/211 109/23/211 106/5/211
f 110/8/206 107/21/206 104/21/206
f 102/3/212 111/3/212 109/23/212
f 103/5/213 106/5/213 108/20/213
f 107/21/80 111/12/80 102/12/80
f 108/20/214 110/8/214 101/27/214
f 49/24/215 98/24/215 3/24/215
f 48/24/216 47/24/216 63/24/216
f 98/26/217 99/18/217 1/18/217
f 88/5/107 120/5/107 121/7/107
f 32/7/107 33/8/107 116/8/107
f 30/2/107 113/2/107 112/3/107
f 89/7/107 121/7/107 122/8/107
f 33/8/107 34/10/107 117/10/107
f 87/2/107 86/3/107 118/3/107
f 31/5/107 114/5/107 113/2/107
f 90/8/107 122/8/107 123/10/107
f 29/12/107 112/12/107 117/10/107
f 87/2/107 119/2/107 120/5/107
f 31/5/107 32/7/107 115/7/107
f 86/12/107 91/10/107 123/10/107
f 64/26/108 129/26/108 128/18/108
f 62/24/109 127/24/109 124/24/109
f 3/26/110 1/18/110 124/18/110
f 4/24/111 3/24/111 125/24/111
f 4/24/112 126/24/112 129/24/112
f 62/24/113 63/24/113 128/24/113
