# Blender 5.0.0
# www.blender.org
mtllib boots.mtl
o shoes2
v 0.415765 0.811824 1.566796
v 0.779177 0.602138 1.559413
v 0.779177 0.182765 1.544650
v 0.415765 -0.026921 1.537267
v 0.052353 0.182765 1.544650
v 0.052353 0.602138 1.559413
v 0.415765 0.868903 0.270012
v 0.769011 0.664976 0.235249
v 0.769011 0.226474 0.241071
v 0.062519 -0.312032 0.228330
v 0.062519 0.226474 0.241071
v 0.062519 0.664976 0.235249
v 0.051828 0.615771 1.000758
v 0.051828 0.196682 0.922918
v 0.415765 -0.012862 0.911596
v 0.779702 0.196682 0.922918
v 0.779702 0.615771 1.000758
v 0.415765 0.825315 1.025863
v 0.769011 -0.850538 0.215589
v 0.415765 -1.054464 0.218500
v 0.062519 -0.850538 0.215589
v 0.415765 -0.988966 0.540000
v 0.102917 -0.835613 0.404405
v 0.728613 -0.835613 0.404405
v 0.415765 0.872427 0.104353
v 0.769011 0.668501 0.069591
v 0.769011 0.229998 0.075413
v 0.415765 0.026073 0.078324
v 0.062519 0.229998 0.075413
v 0.062519 0.668501 0.069591
v 0.769011 -0.847014 0.049930
v 0.415765 -1.050939 0.052842
v 0.062519 -0.847014 0.049930
v 0.102917 -0.362542 0.489746
v 0.415765 -0.401334 0.663723
v 0.728613 -0.362542 0.489746
v 0.769011 -0.312032 0.228330
v 0.415765 -0.512433 0.065583
v 0.062519 -0.308508 0.062672
v 0.769011 -0.308508 0.062672
v 0.102917 -0.610080 0.493845
v 0.728613 -0.610080 0.493845
v 0.415765 -0.794211 0.058915
v 0.062519 -0.593810 0.221663
v 0.415765 -0.706372 0.631790
v 0.769011 -0.593810 0.221663
v 0.062519 -0.590285 0.056005
v 0.769011 -0.590285 0.056005
v 0.415765 0.586481 1.557018
v 0.583816 0.489515 1.553605
v 0.583816 0.295586 1.546777
v 0.415765 0.198622 1.543364
v 0.247714 0.295586 1.546777
v 0.247714 0.489515 1.553605
v -0.415765 0.811825 1.566795
v -0.779177 0.602138 1.559413
v -0.779177 0.182766 1.544649
v -0.415765 -0.026921 1.537266
v -0.052353 0.182766 1.544649
v -0.052353 0.602138 1.559413
v -0.415765 0.868903 0.270012
v -0.769011 0.664977 0.235249
v -0.769011 0.226474 0.241071
v -0.062519 -0.312032 0.228331
v -0.062519 0.226474 0.241071
v -0.062519 0.664977 0.235249
v -0.051828 0.615771 1.000757
v -0.051828 0.196683 0.922918
v -0.415765 -0.012862 0.911595
v -0.779702 0.196683 0.922918
v -0.779702 0.615771 1.000757
v -0.415765 0.825316 1.025862
v -0.769011 -0.850538 0.215589
v -0.415765 -1.054463 0.218500
v -0.062519 -0.850538 0.215589
v -0.415765 -0.988965 0.540000
v -0.102917 -0.835612 0.404405
v -0.728613 -0.835612 0.404405
v -0.415765 0.872428 0.104353
v -0.769011 0.668502 0.069592
v -0.769011 0.229999 0.075414
v -0.415765 0.026074 0.078324
v -0.062519 0.229999 0.075414
v -0.062519 0.668502 0.069592
v -0.769011 -0.847013 0.049930
v -0.415765 -1.050938 0.052843
v -0.062519 -0.847013 0.049930
v -0.102917 -0.362542 0.489746
v -0.415765 -0.401333 0.663724
v -0.728613 -0.362542 0.489746
v -0.769011 -0.312032 0.228331
v -0.415765 -0.512432 0.065583
v -0.062519 -0.308507 0.062672
v -0.769011 -0.308507 0.062672
v -0.102917 -0.610080 0.493845
v -0.728613 -0.610080 0.493845
v -0.415765 -0.794211 0.058915
v -0.062519 -0.593810 0.221663
v -0.415765 -0.706372 0.631790
v -0.769011 -0.593810 0.221663
v -0.062519 -0.590284 0.056005
v -0.769011 -0.590284 0.056005
v -0.415765 0.586481 1.557017
v -0.583816 0.489516 1.553604
v -0.583816 0.295588 1.546777
v -0.415765 0.198623 1.543364
v -0.247714 0.295588 1.546777
v -0.247714 0.489516 1.553604
vn 0.9999 -0.0002 -0.0140
vn 0.5012 0.8651 0.0184
vn 0.4637 -0.3266 0.8236
vn -0.5029 0.8630 0.0484
vn -0.4998 -0.8660 -0.0184
vn 0.4998 -0.8660 -0.0184
vn 0.9884 -0.0036 0.1520
vn -1.0000 -0.0000 0.0009
vn -1.0000 -0.0000 -0.0000
vn 0.5000 0.8658 0.0216
vn -0.9999 0.0029 -0.0156
vn -0.5000 -0.8658 -0.0190
vn -0.5000 0.8658 0.0216
vn 0.4846 0.0145 0.8746
vn 0.4935 -0.8524 0.1730
vn -0.4910 -0.2691 0.8285
vn 1.0000 -0.0000 0.0009
vn 0.9778 -0.0050 0.2096
vn -0.0219 0.0236 -0.9995
vn -0.4931 -0.8524 0.1737
vn 1.0000 -0.0000 -0.0000
vn 0.5000 -0.8658 -0.0190
vn -0.5012 0.8651 0.0184
vn 0.5009 0.8641 0.0498
vn 0.3215 -0.5980 0.7342
vn 0.0219 0.0236 -0.9995
vn -0.4721 -0.4742 0.7432
vn -0.0094 -0.0352 0.9993
vn -0.9969 -0.0764 -0.0190
vn 0.0219 0.0237 -0.9995
vn -0.4258 -0.0942 0.8999
vn -0.0219 0.0237 -0.9995
vn -0.9891 0.0024 0.1470
vn -0.9881 -0.0568 0.1433
vn -0.0047 -0.0433 0.9990
vn 0.0094 -0.0352 0.9993
vn 0.0047 -0.0433 0.9990
vn -0.0000 -0.0133 -0.9999
vn -0.0000 0.1680 -0.9858
vn -0.0000 -0.0143 -0.9999
vn -0.0047 -0.0270 0.9996
vn 0.0047 -0.0270 0.9996
vn 0.4910 -0.2691 0.8285
vn -1.0000 -0.0002 0.0008
vn -0.4993 -0.8662 -0.0195
vn 0.4258 -0.0942 0.8999
vn 0.4931 -0.8524 0.1737
vn -0.4637 -0.3266 0.8236
vn 1.0000 -0.0002 0.0008
vn -0.4935 -0.8524 0.1730
vn 0.4993 -0.8662 -0.0195
vn 0.4721 -0.4742 0.7432
vn 0.9891 0.0024 0.1470
vn 0.9881 -0.0568 0.1433
vn 0.9999 0.0029 -0.0156
vn -0.5009 0.8641 0.0498
vn -0.9999 -0.0002 -0.0140
vn 0.5029 0.8630 0.0484
vn -0.3215 -0.5980 0.7342
vn -0.9884 -0.0036 0.1520
vn 0.9969 -0.0764 -0.0190
vn -0.4846 0.0145 0.8746
vn -0.9778 -0.0050 0.2096
vt 0.833333 0.500000
vt 0.666667 0.500000
vt 0.833333 0.500000
vt 1.000000 0.500000
vt 0.500000 0.500000
vt 0.166667 0.500000
vt -0.000000 0.500000
vt 0.166667 0.500000
vt 0.333333 0.500000
vt 0.666667 0.500000
vt 0.666667 0.500000
vt 0.333333 0.500000
vt 0.750000 0.010000
vt 0.957846 0.130000
vt 0.957846 0.130000
vt 0.542154 0.130000
vt 0.333333 0.500000
vt 0.333333 0.500000
vt 0.542154 0.370000
vt 0.957846 0.370000
vt 0.750000 0.490000
vt 0.000000 0.000000
s 0
usemtl shoe
f 17/1/1 9/2/1 8/3/1
f 45/5/3 24/2/3 42/2/3
f 13/6/4 7/7/4 12/8/4
f 36/2/7 46/10/7 37/11/7
f 13/6/8 5/9/8 6/8/8
f 2/3/10 18/4/10 1/4/10
f 13/6/11 11/9/11 14/12/11
f 14/12/12 4/5/12 5/9/12
f 18/7/13 6/8/13 1/7/13
f 35/5/14 42/2/14 36/2/14
f 24/2/15 20/5/15 19/2/15
f 45/5/16 23/12/16 22/5/16
f 3/2/17 17/1/17 2/3/17
f 46/10/18 24/2/18 19/2/18
f 23/12/20 20/5/20 22/5/20
f 4/5/22 16/2/22 3/2/22
f 17/1/24 7/4/24 18/4/24
f 15/5/25 36/2/25 16/2/25
f 15/5/27 34/17/27 35/5/27
f 2/3/28 51/2/28 3/2/28
f 11/9/29 34/17/29 14/12/29
f 9/2/7 36/2/7 37/11/7
f 35/5/31 41/18/31 45/5/31
f 34/17/33 44/9/33 41/18/33
f 44/9/34 23/12/34 41/18/34
f 1/4/35 50/3/35 2/3/35
f 6/8/36 53/9/36 54/8/36
f 1/7/37 54/8/37 49/7/37
f 4/5/41 51/2/41 52/22/41
f 4/5/42 53/9/42 5/9/42
f 71/1/11 63/2/11 70/2/11
f 99/5/16 78/2/16 76/5/16
f 67/6/24 61/7/24 72/7/24
f 90/2/33 100/10/33 96/2/33
f 59/9/17 67/6/17 60/8/17
f 72/4/13 56/3/13 55/4/13
f 67/6/1 65/9/1 66/8/1
f 58/5/22 68/12/22 59/9/22
f 60/8/10 72/7/10 55/7/10
f 89/5/31 96/2/31 99/5/31
f 78/2/20 74/5/20 76/5/20
f 99/5/3 77/12/3 95/18/3
f 71/1/8 57/2/8 56/3/8
f 100/10/34 78/2/34 96/2/34
f 77/12/15 74/5/15 75/9/15
f 70/2/12 58/5/12 57/2/12
f 71/1/4 61/4/4 62/3/4
f 69/5/27 90/2/27 89/5/27
f 69/5/25 88/17/25 68/12/25
f 56/3/36 105/2/36 104/3/36
f 65/9/7 88/17/7 64/9/7
f 63/2/29 90/2/29 70/2/29
f 89/5/14 95/18/14 88/17/14
f 88/17/7 98/9/7 64/9/7
f 98/9/18 77/12/18 75/9/18
f 55/4/37 104/3/37 103/4/37
f 60/8/28 107/9/28 59/9/28
f 55/7/35 108/8/35 60/8/35
f 58/5/42 105/2/42 57/2/42
f 107/9/41 58/5/41 59/9/41
f 45/5/43 22/5/43 24/2/43
f 13/6/44 14/12/44 5/9/44
f 14/12/45 15/5/45 4/5/45
f 35/5/46 45/5/46 42/2/46
f 24/2/47 22/5/47 20/5/47
f 45/5/48 41/18/48 23/12/48
f 3/2/49 16/2/49 17/1/49
f 23/12/50 21/9/50 20/5/50
f 4/5/51 15/5/51 16/2/51
f 15/5/52 35/5/52 36/2/52
f 99/5/48 96/2/48 78/2/48
f 59/9/49 68/12/49 67/6/49
f 58/5/51 69/5/51 68/12/51
f 78/2/50 73/2/50 74/5/50
f 99/5/43 76/5/43 77/12/43
f 71/1/44 70/2/44 57/2/44
f 77/12/47 76/5/47 74/5/47
f 70/2/45 69/5/45 58/5/45
f 69/5/52 89/5/52 88/17/52
f 89/5/46 99/5/46 95/18/46
f 88/17/53 95/18/53 98/9/53
f 98/9/54 95/18/54 77/12/54
f 60/8/28 108/8/28 107/9/28
f 58/5/42 106/22/42 105/2/42
f 107/9/41 106/22/41 58/5/41
f 17/1/55 16/2/55 9/2/55
f 13/6/56 18/7/56 7/7/56
f 36/2/53 42/2/53 46/10/53
f 2/3/10 17/1/10 18/4/10
f 13/6/57 12/8/57 11/9/57
f 18/7/13 13/6/13 6/8/13
f 46/10/54 42/2/54 24/2/54
f 17/1/58 8/3/58 7/4/58
f 15/5/59 14/12/59 34/17/59
f 2/3/28 50/3/28 51/2/28
f 11/9/60 10/9/60 34/17/60
f 9/2/61 16/2/61 36/2/61
f 35/5/62 34/17/62 41/18/62
f 34/17/60 10/9/60 44/9/60
f 44/9/63 21/9/63 23/12/63
f 1/4/35 49/4/35 50/3/35
f 6/8/36 5/9/36 53/9/36
f 1/7/37 6/8/37 54/8/37
f 4/5/41 3/2/41 51/2/41
f 4/5/42 52/22/42 53/9/42
f 71/1/57 62/3/57 63/2/57
f 67/6/58 66/8/58 61/7/58
f 90/2/60 91/11/60 100/10/60
f 72/4/13 71/1/13 56/3/13
f 67/6/55 68/12/55 65/9/55
f 60/8/10 67/6/10 72/7/10
f 89/5/62 90/2/62 96/2/62
f 100/10/63 73/2/63 78/2/63
f 71/1/56 72/4/56 61/4/56
f 69/5/59 70/2/59 90/2/59
f 56/3/36 57/2/36 105/2/36
f 65/9/61 68/12/61 88/17/61
f 63/2/60 91/11/60 90/2/60
f 55/4/37 56/3/37 104/3/37
f 55/7/35 103/7/35 108/8/35
usemtl sock
f 8/3/2 25/4/2 7/4/2
f 21/9/5 32/5/5 20/5/5
f 19/2/6 32/5/6 31/2/6
f 12/8/9 29/9/9 11/9/9
f 38/13/19 28/13/19 40/14/19
f 10/9/9 47/9/9 44/9/9
f 43/13/19 31/15/19 32/13/19
f 8/3/21 27/2/21 26/3/21
f 44/9/9 33/9/9 21/9/9
f 12/8/23 25/7/23 30/8/23
f 9/2/21 40/2/21 27/2/21
f 37/11/21 48/2/21 40/2/21
f 28/13/26 39/16/26 29/16/26
f 11/9/9 39/9/9 10/9/9
f 46/10/21 31/2/21 48/2/21
f 43/13/30 47/16/30 38/13/30
f 38/13/26 47/16/26 39/16/26
f 48/15/32 43/13/32 38/13/32
f 27/15/38 30/19/38 26/20/38
f 30/19/39 25/21/39 26/20/39
f 27/15/40 28/13/40 29/16/40
f 43/13/26 32/13/26 33/16/26
f 28/13/19 27/15/19 40/14/19
f 38/13/19 40/14/19 48/15/19
f 62/3/23 79/4/23 80/3/23
f 75/9/6 86/5/6 87/9/6
f 73/2/5 86/5/5 74/5/5
f 66/8/21 83/9/21 84/8/21
f 92/13/19 82/13/19 93/16/19
f 64/9/21 101/9/21 93/9/21
f 97/13/26 86/13/26 85/15/26
f 62/3/9 81/2/9 63/2/9
f 98/9/21 87/9/21 101/9/21
f 66/8/2 79/7/2 61/7/2
f 63/2/9 94/2/9 91/11/9
f 91/11/9 102/2/9 100/10/9
f 82/13/19 83/16/19 93/16/19
f 65/9/21 93/9/21 83/9/21
f 100/10/9 85/2/9 73/2/9
f 101/16/32 97/13/32 92/13/32
f 92/13/19 93/16/19 101/16/19
f 102/15/26 97/13/26 85/15/26
f 84/19/38 81/15/38 80/20/38
f 84/19/39 80/20/39 79/21/39
f 81/15/40 83/16/40 82/13/40
f 97/13/19 87/16/19 86/13/19
f 82/13/26 94/14/26 81/15/26
f 92/13/26 102/15/26 94/14/26
f 21/9/5 33/9/5 32/5/5
f 19/2/6 20/5/6 32/5/6
f 75/9/6 74/5/6 86/5/6
f 73/2/5 85/2/5 86/5/5
f 98/9/21 75/9/21 87/9/21
f 8/3/2 26/3/2 25/4/2
f 12/8/9 30/8/9 29/9/9
f 38/13/26 39/16/26 28/13/26
f 10/9/9 39/9/9 47/9/9
f 8/3/21 9/2/21 27/2/21
f 44/9/9 47/9/9 33/9/9
f 12/8/23 7/7/23 25/7/23
f 9/2/21 37/11/21 40/2/21
f 37/11/21 46/10/21 48/2/21
f 11/9/9 29/9/9 39/9/9
f 46/10/21 19/2/21 31/2/21
f 43/13/26 33/16/26 47/16/26
f 48/15/19 31/15/19 43/13/19
f 27/15/38 29/16/38 30/19/38
f 62/3/23 61/4/23 79/4/23
f 66/8/21 65/9/21 83/9/21
f 92/13/26 94/14/26 82/13/26
f 64/9/21 98/9/21 101/9/21
f 62/3/9 80/3/9 81/2/9
f 66/8/2 84/8/2 79/7/2
f 63/2/9 81/2/9 94/2/9
f 91/11/9 94/2/9 102/2/9
f 65/9/21 64/9/21 93/9/21
f 100/10/9 102/2/9 85/2/9
f 101/16/19 87/16/19 97/13/19
f 102/15/30 92/13/30 97/13/30
f 84/19/38 83/16/38 81/15/38
