# Blender 5.0.0
# www.blender.org
mtllib sneakers.mtl
o shoes
v 0.415765 0.810879 1.127456
v 0.779702 0.601640 1.108247
v 0.779702 0.183159 1.069830
v 0.415765 -0.026080 1.050622
v 0.051828 0.183159 1.069830
v 0.051828 0.601640 1.108247
v 0.415765 0.868903 0.270012
v 0.769011 0.664976 0.235249
v 0.769011 0.226474 0.241071
v 0.062519 -0.312032 0.228330
v 0.062519 0.226474 0.241071
v 0.062519 0.664976 0.235249
v 0.051828 0.615771 1.000758
v 0.051828 0.196682 0.922918
v 0.415765 -0.012862 0.911596
v 0.779702 0.196682 0.922918
v 0.779702 0.615771 1.000758
v 0.415765 0.825315 1.025863
v 0.769011 -0.850538 0.215589
v 0.415765 -1.054464 0.218500
v 0.062519 -0.850538 0.215589
v 0.415765 -0.988966 0.540000
v 0.102917 -0.835613 0.404405
v 0.728613 -0.835613 0.404405
v 0.415765 0.872427 0.104353
v 0.769011 0.668501 0.069591
v 0.769011 0.229998 0.075413
v 0.415765 0.026073 0.078324
v 0.062519 0.229998 0.075413
v 0.062519 0.668501 0.069591
v 0.769011 -0.847014 0.049930
v 0.415765 -1.050939 0.052842
v 0.062519 -0.847014 0.049930
v 0.102917 -0.362542 0.489746
v 0.415765 -0.401334 0.663723
v 0.728613 -0.362542 0.489746
v 0.769011 -0.312032 0.228330
v 0.415765 -0.512433 0.065583
v 0.062519 -0.308508 0.062672
v 0.769011 -0.308508 0.062672
v 0.102917 -0.610080 0.493845
v 0.728613 -0.610080 0.493845
v 0.415765 -0.794211 0.058915
v 0.062519 -0.593810 0.221663
v 0.415765 -0.706372 0.631790
v 0.769011 -0.593810 0.221663
v 0.062519 -0.590285 0.056005
v 0.769011 -0.590285 0.056005
v 0.415765 0.773754 1.122194
v 0.747240 0.583179 1.104699
v 0.747240 0.202027 1.069709
v 0.415765 0.011451 1.052214
v 0.084290 0.202027 1.069709
v 0.084290 0.583179 1.104699
v 0.415765 0.773753 1.435080
v 0.747240 0.583179 1.417585
v 0.747240 0.202027 1.382596
v 0.415765 0.011452 1.365101
v 0.084290 0.202027 1.382596
v 0.084290 0.583179 1.417585
v 0.415765 0.807247 1.559393
v 0.776368 0.599925 1.540361
v 0.776368 0.185280 1.502296
v 0.415765 -0.022042 1.483265
v 0.055162 0.185280 1.502296
v 0.055162 0.599925 1.540361
v 0.779702 0.106008 1.244774
v 0.415765 -0.103232 1.225567
v 0.051828 0.106008 1.244774
v 0.747240 0.124874 1.244653
v 0.415765 -0.065701 1.227159
v 0.084290 0.124874 1.244653
v 0.415765 0.717301 1.551137
v 0.698144 0.554951 1.536232
v 0.698144 0.230254 1.506426
v 0.415765 0.067905 1.491522
v 0.133386 0.230254 1.506426
v 0.133386 0.554951 1.536232
v -0.415765 0.810879 1.127455
v -0.779702 0.601640 1.108247
v -0.779702 0.183161 1.069829
v -0.415765 -0.026078 1.050622
v -0.051828 0.183161 1.069829
v -0.051828 0.601640 1.108247
v -0.415765 0.868903 0.270012
v -0.769011 0.664977 0.235249
v -0.769011 0.226474 0.241071
v -0.062519 -0.312032 0.228331
v -0.062519 0.226474 0.241071
v -0.062519 0.664977 0.235249
v -0.051828 0.615771 1.000757
v -0.051828 0.196683 0.922918
v -0.415765 -0.012862 0.911595
v -0.779702 0.196683 0.922918
v -0.779702 0.615771 1.000757
v -0.415765 0.825316 1.025862
v -0.769011 -0.850538 0.215589
v -0.415765 -1.054463 0.218500
v -0.062519 -0.850538 0.215589
v -0.415765 -0.988965 0.540000
v -0.102917 -0.835612 0.404405
v -0.728613 -0.835612 0.404405
v -0.415765 0.872428 0.104353
v -0.769011 0.668502 0.069592
v -0.769011 0.229999 0.075414
v -0.415765 0.026074 0.078324
v -0.062519 0.229999 0.075414
v -0.062519 0.668502 0.069592
v -0.769011 -0.847013 0.049930
v -0.415765 -1.050938 0.052843
v -0.062519 -0.847013 0.049930
v -0.102917 -0.362542 0.489746
v -0.415765 -0.401333 0.663724
v -0.728613 -0.362542 0.489746
v -0.769011 -0.312032 0.228331
v -0.415765 -0.512432 0.065583
v -0.062519 -0.308507 0.062672
v -0.769011 -0.308507 0.062672
v -0.102917 -0.610080 0.493845
v -0.728613 -0.610080 0.493845
v -0.415765 -0.794211 0.058915
v -0.062519 -0.593810 0.221663
v -0.415765 -0.706372 0.631790
v -0.769011 -0.593810 0.221663
v -0.062519 -0.590284 0.056005
v -0.769011 -0.590284 0.056005
v -0.415765 0.773755 1.122193
v -0.747240 0.583180 1.104699
v -0.747240 0.202027 1.069708
v -0.415765 0.011452 1.052214
v -0.084290 0.202027 1.069708
v -0.084290 0.583180 1.104699
v -0.415765 0.773755 1.435079
v -0.747240 0.583179 1.417584
v -0.747240 0.202028 1.382595
v -0.415765 0.011452 1.365100
v -0.084290 0.202028 1.382595
v -0.084290 0.583179 1.417584
v -0.415765 0.807248 1.559393
v -0.776368 0.599927 1.540360
v -0.776368 0.185281 1.502296
v -0.415765 -0.022041 1.483264
v -0.055162 0.185281 1.502296
v -0.055162 0.599927 1.540360
v -0.779702 0.106008 1.244773
v -0.415765 -0.103232 1.225566
v -0.051828 0.106008 1.244773
v -0.747240 0.124876 1.244653
v -0.415765 -0.065701 1.227158
v -0.084290 0.124876 1.244653
v -0.415765 0.717301 1.551136
v -0.698144 0.554952 1.536232
v -0.698144 0.230254 1.506425
v -0.415765 0.067905 1.491521
v -0.133386 0.230254 1.506425
v -0.133386 0.554952 1.536232
vn -0.9999 0.0029 -0.0156
vn 1.0000 -0.0000 -0.0000
vn -0.4910 -0.2691 0.8285
vn 0.5009 0.8641 0.0498
vn -0.5029 0.8630 0.0484
vn -0.4998 -0.8660 -0.0184
vn 0.9999 -0.0002 -0.0140
vn -0.5000 -0.8621 -0.0820
vn -0.4997 0.8588 0.1129
vn 0.5016 0.8565 0.1217
vn 0.4992 -0.8628 -0.0794
vn -1.0000 -0.0000 -0.0000
vn 0.4935 -0.8524 0.1730
vn -0.4931 -0.8524 0.1737
vn 0.9778 -0.0050 0.2096
vn -0.5012 0.8651 0.0184
vn -0.9881 -0.0568 0.1433
vn 0.4637 -0.3266 0.8236
vn -0.0000 -0.0133 -0.9999
vn 0.0219 0.0236 -0.9995
vn -0.0219 0.0236 -0.9995
vn 0.4998 -0.8660 -0.0184
vn 0.5012 0.8651 0.0184
vn 0.3215 -0.5980 0.7342
vn -0.9969 -0.0764 -0.0190
vn 0.9884 -0.0036 0.1520
vn -0.4721 -0.4742 0.7432
vn -0.0219 0.0237 -0.9995
vn 0.4846 0.0145 0.8746
vn -0.9891 0.0024 0.1470
vn -0.4258 -0.0942 0.8999
vn -0.0284 -0.1403 0.9897
vn 0.0284 -0.1403 0.9897
vn 0.4685 0.8084 0.3565
vn -0.0568 -0.0913 0.9942
vn 0.0568 -0.0913 0.9942
vn -0.4801 0.8026 0.3540
vn -0.4984 0.8669 -0.0000
vn -0.4984 -0.8669 -0.0000
vn 0.4984 -0.8669 -0.0000
vn 0.4984 0.8669 -0.0000
vn -0.9721 0.0214 -0.2336
vn 0.4936 -0.8367 -0.2372
vn 0.4761 0.8491 -0.2288
vn -0.4761 0.8491 -0.2288
vn -0.4936 -0.8367 -0.2372
vn 0.9721 0.0214 -0.2336
vn 0.0283 -0.0424 0.9987
vn -0.0284 -0.0424 0.9987
vn 0.4801 -0.8026 -0.3540
vn 0.4801 0.8026 0.3540
vn -0.4801 -0.8026 -0.3540
vn -0.4685 0.8083 0.3565
vn -0.0000 -0.0914 0.9958
vn 0.9999 0.0029 -0.0156
vn -0.5009 0.8641 0.0498
vn 0.5000 -0.8621 -0.0820
vn 0.4997 0.8588 0.1129
vn 0.4931 -0.8524 0.1737
vn 0.9881 -0.0568 0.1433
vn -0.4637 -0.3266 0.8236
vn -0.3215 -0.5980 0.7342
vn 0.9969 -0.0764 -0.0190
vn -0.4846 0.0145 0.8746
vn -0.9884 -0.0036 0.1520
vn -0.4685 0.8084 0.3565
vn -0.0284 -0.0423 0.9987
vn 0.0284 -0.0423 0.9987
vn -0.9999 -0.0002 -0.0140
vn 0.5029 0.8630 0.0484
vn -0.4992 -0.8628 -0.0794
vn -0.5016 0.8565 0.1217
vn -0.4935 -0.8524 0.1730
vn -0.9778 -0.0050 0.2096
vn 0.4910 -0.2691 0.8285
vn -0.0000 0.1680 -0.9858
vn -0.0000 -0.0143 -0.9999
vn 0.4721 -0.4742 0.7432
vn 0.0219 0.0237 -0.9995
vn 0.4258 -0.0942 0.8999
vn 0.9891 0.0024 0.1470
vn 0.4685 0.8083 0.3565
vn 0.0284 -0.0424 0.9987
vn -0.0283 -0.0424 0.9987
vn 0.4993 -0.8628 -0.0794
vn -0.4993 -0.8628 -0.0794
vt 0.166667 0.500000
vt 0.333333 0.500000
vt 0.333333 0.500000
vt 0.833333 0.500000
vt 0.666667 0.500000
vt 0.500000 0.500000
vt 0.833333 0.500000
vt 1.000000 0.500000
vt -0.000000 0.500000
vt 0.166667 0.500000
vt 0.666667 0.500000
vt 0.333333 0.500000
vt 0.542154 0.130000
vt 0.542154 0.370000
vt 0.957846 0.370000
vt 0.750000 0.010000
vt 0.957846 0.130000
vt 0.957846 0.130000
vt 0.333333 0.500000
vt 0.666667 0.500000
vt 0.750000 0.490000
s 0
usemtl shoe
f 13/1/1 11/2/1 14/3/1
f 45/6/3 23/3/3 22/6/3
f 17/7/4 7/8/4 18/8/4
f 13/1/5 7/9/5 12/10/5
f 17/7/7 9/5/7 8/4/7
f 2/4/2 16/5/2 17/7/2
f 5/2/8 15/6/8 4/6/8
f 1/9/9 13/1/9 6/10/9
f 1/8/10 17/7/10 18/8/10
f 3/5/11 15/6/11 16/5/11
f 6/10/12 14/3/12 5/2/12
f 24/5/13 20/6/13 19/5/13
f 23/3/14 20/6/14 22/6/14
f 46/11/15 24/5/15 19/5/15
f 44/2/17 23/3/17 41/12/17
f 45/6/18 24/5/18 42/5/18
f 15/6/24 36/5/24 16/5/24
f 11/2/25 34/19/25 14/3/25
f 9/5/26 36/5/26 37/20/26
f 15/6/27 34/19/27 35/6/27
f 35/6/29 42/5/29 36/5/29
f 34/19/30 44/2/30 41/12/30
f 36/5/26 46/11/26 37/20/26
f 35/6/31 41/12/31 45/6/31
f 1/8/32 50/4/32 2/4/32
f 1/9/33 54/10/33 49/9/33
f 3/5/34 70/5/34 67/5/34
f 2/4/35 51/5/35 3/5/35
f 6/10/36 53/2/36 54/10/36
f 52/6/37 70/5/37 51/5/37
f 69/2/48 71/6/48 72/2/48
f 67/5/49 71/6/49 68/6/49
f 4/6/50 67/5/50 68/6/50
f 52/6/51 72/2/51 71/6/51
f 4/6/52 69/2/52 5/2/52
f 5/2/53 72/2/53 53/2/53
f 89/2/55 91/1/55 92/3/55
f 123/6/18 101/3/18 119/12/18
f 85/8/56 95/7/56 96/8/56
f 91/1/4 85/9/4 96/9/4
f 95/7/1 87/5/1 94/5/1
f 80/4/12 94/5/12 81/5/12
f 93/6/57 83/2/57 82/6/57
f 91/1/58 79/9/58 84/10/58
f 79/8/9 95/7/9 80/4/9
f 81/5/8 93/6/8 82/6/8
f 92/3/2 84/10/2 83/2/2
f 102/5/14 98/6/14 100/6/14
f 98/6/59 101/3/59 100/6/59
f 124/11/17 102/5/17 120/5/17
f 101/3/60 122/2/60 119/12/60
f 102/5/61 123/6/61 120/5/61
f 114/5/62 93/6/62 94/5/62
f 112/19/63 89/2/63 92/3/63
f 87/5/25 114/5/25 94/5/25
f 93/6/24 112/19/24 92/3/24
f 120/5/64 113/6/64 114/5/64
f 112/19/26 122/2/26 88/2/26
f 124/11/65 114/5/65 115/20/65
f 113/6/29 119/12/29 112/19/29
f 128/4/33 79/8/33 80/4/33
f 79/9/32 132/10/32 84/10/32
f 81/5/66 148/5/66 129/5/66
f 129/5/36 80/4/36 81/5/36
f 84/10/35 131/2/35 83/2/35
f 148/5/51 130/6/51 129/5/51
f 147/2/67 149/6/67 146/6/67
f 149/6/68 145/5/68 146/6/68
f 82/6/52 145/5/52 81/5/52
f 130/6/37 150/2/37 131/2/37
f 147/2/50 82/6/50 83/2/50
f 150/2/34 83/2/34 131/2/34
f 13/1/69 12/10/69 11/2/69
f 45/6/61 41/12/61 23/3/61
f 17/7/70 8/4/70 7/8/70
f 13/1/56 18/9/56 7/9/56
f 17/7/55 16/5/55 9/5/55
f 2/4/2 3/5/2 16/5/2
f 5/2/71 14/3/71 15/6/71
f 1/9/72 18/9/72 13/1/72
f 1/8/58 2/4/58 17/7/58
f 3/5/57 4/6/57 15/6/57
f 6/10/12 13/1/12 14/3/12
f 24/5/59 22/6/59 20/6/59
f 23/3/73 21/2/73 20/6/73
f 46/11/60 42/5/60 24/5/60
f 44/2/74 21/2/74 23/3/74
f 45/6/75 22/6/75 24/5/75
f 15/6/78 35/6/78 36/5/78
f 11/2/65 10/2/65 34/19/65
f 9/5/63 16/5/63 36/5/63
f 15/6/62 14/3/62 34/19/62
f 35/6/80 45/6/80 42/5/80
f 34/19/65 10/2/65 44/2/65
f 36/5/81 42/5/81 46/11/81
f 35/6/64 34/19/64 41/12/64
f 1/8/32 49/8/32 50/4/32
f 1/9/33 6/10/33 54/10/33
f 3/5/82 51/5/82 70/5/82
f 2/4/35 50/4/35 51/5/35
f 6/10/36 5/2/36 53/2/36
f 52/6/37 71/6/37 70/5/37
f 69/2/83 68/6/83 71/6/83
f 67/5/84 70/5/84 71/6/84
f 4/6/50 3/5/50 67/5/50
f 52/6/51 53/2/51 72/2/51
f 4/6/52 68/6/52 69/2/52
f 5/2/66 69/2/66 72/2/66
f 89/2/7 90/10/7 91/1/7
f 123/6/75 100/6/75 101/3/75
f 85/8/5 86/4/5 95/7/5
f 91/1/70 90/10/70 85/9/70
f 95/7/69 86/4/69 87/5/69
f 80/4/12 95/7/12 94/5/12
f 93/6/85 92/3/85 83/2/85
f 91/1/10 96/9/10 79/9/10
f 79/8/72 96/8/72 95/7/72
f 81/5/86 94/5/86 93/6/86
f 92/3/2 91/1/2 84/10/2
f 102/5/73 97/5/73 98/6/73
f 98/6/13 99/2/13 101/3/13
f 124/11/74 97/5/74 102/5/74
f 101/3/15 99/2/15 122/2/15
f 102/5/3 100/6/3 123/6/3
f 114/5/27 113/6/27 93/6/27
f 112/19/26 88/2/26 89/2/26
f 87/5/65 115/20/65 114/5/65
f 93/6/78 113/6/78 112/19/78
f 120/5/31 123/6/31 113/6/31
f 112/19/81 119/12/81 122/2/81
f 124/11/30 120/5/30 114/5/30
f 113/6/80 123/6/80 119/12/80
f 128/4/33 127/8/33 79/8/33
f 79/9/32 127/9/32 132/10/32
f 81/5/66 145/5/66 148/5/66
f 129/5/36 128/4/36 80/4/36
f 84/10/35 132/10/35 131/2/35
f 148/5/51 149/6/51 130/6/51
f 147/2/84 150/2/84 149/6/84
f 149/6/48 148/5/48 145/5/48
f 82/6/52 146/6/52 145/5/52
f 130/6/37 149/6/37 150/2/37
f 147/2/50 146/6/50 82/6/50
f 150/2/82 147/2/82 83/2/82
usemtl sock
f 8/4/2 27/5/2 26/4/2
f 21/2/6 32/6/6 20/6/6
f 12/10/16 25/9/16 30/10/16
f 29/13/19 30/14/19 26/15/19
f 43/16/20 33/13/20 47/13/20
f 43/16/21 31/17/21 32/16/21
f 12/10/12 29/2/12 11/2/12
f 46/11/2 31/5/2 48/5/2
f 19/5/22 32/6/22 31/5/22
f 8/4/23 25/8/23 7/8/23
f 11/2/12 39/2/12 10/2/12
f 10/2/12 47/2/12 44/2/12
f 9/5/2 40/5/2 27/5/2
f 28/16/21 40/18/21 38/16/21
f 28/16/20 39/13/20 29/13/20
f 44/2/12 33/2/12 21/2/12
f 37/20/2 48/5/2 40/5/2
f 38/16/28 48/17/28 43/16/28
f 38/16/20 47/13/20 39/13/20
f 49/9/38 60/10/38 55/9/38
f 53/2/39 58/6/39 59/2/39
f 50/4/2 57/5/2 51/5/2
f 54/10/12 59/2/12 60/10/12
f 51/5/40 58/6/40 52/6/40
f 49/8/41 56/4/41 50/4/41
f 60/10/42 65/2/42 66/10/42
f 57/5/43 64/6/43 58/6/43
f 55/8/44 62/4/44 56/4/44
f 55/9/45 66/10/45 61/9/45
f 59/2/46 64/6/46 65/2/46
f 56/4/47 63/5/47 57/5/47
f 61/8/54 74/4/54 62/4/54
f 61/9/54 78/10/54 73/9/54
f 64/6/54 77/2/54 65/2/54
f 62/4/54 75/5/54 63/5/54
f 65/2/54 78/10/54 66/10/54
f 64/6/54 75/5/54 76/6/54
f 86/4/12 105/5/12 87/5/12
f 110/6/22 99/2/22 98/6/22
f 90/10/23 103/9/23 85/9/23
f 105/17/19 104/15/19 108/14/19
f 111/13/21 121/16/21 125/13/21
f 121/16/20 109/17/20 126/17/20
f 107/2/2 90/10/2 89/2/2
f 124/11/12 109/5/12 97/5/12
f 97/5/6 110/6/6 98/6/6
f 103/8/16 86/4/16 85/8/16
f 117/2/2 89/2/2 88/2/2
f 125/2/2 88/2/2 122/2/2
f 87/5/12 118/5/12 115/20/12
f 106/16/20 118/18/20 105/17/20
f 117/13/21 106/16/21 107/13/21
f 111/2/2 122/2/2 99/2/2
f 115/20/12 126/5/12 124/11/12
f 116/16/20 126/17/20 118/18/20
f 125/13/21 116/16/21 117/13/21
f 127/9/41 138/10/41 132/10/41
f 131/2/40 136/6/40 130/6/40
f 135/5/12 128/4/12 129/5/12
f 132/10/2 137/2/2 131/2/2
f 136/6/39 129/5/39 130/6/39
f 134/4/38 127/8/38 128/4/38
f 138/10/47 143/2/47 137/2/47
f 142/6/46 135/5/46 136/6/46
f 140/4/45 133/8/45 134/4/45
f 133/9/44 144/10/44 138/10/44
f 137/2/43 142/6/43 136/6/43
f 141/5/42 134/4/42 135/5/42
f 152/4/54 139/8/54 140/4/54
f 139/9/54 156/10/54 144/10/54
f 155/2/54 142/6/54 143/2/54
f 141/5/54 152/4/54 140/4/54
f 156/10/54 143/2/54 144/10/54
f 142/6/54 153/5/54 141/5/54
f 8/4/2 9/5/2 27/5/2
f 21/2/6 33/2/6 32/6/6
f 12/10/16 7/9/16 25/9/16
f 30/14/76 25/21/76 26/15/76
f 26/15/19 27/17/19 29/13/19
f 27/17/77 28/16/77 29/13/77
f 43/16/20 32/16/20 33/13/20
f 43/16/21 48/17/21 31/17/21
f 12/10/12 30/10/12 29/2/12
f 46/11/2 19/5/2 31/5/2
f 19/5/22 20/6/22 32/6/22
f 8/4/23 26/4/23 25/8/23
f 11/2/12 29/2/12 39/2/12
f 10/2/12 39/2/12 47/2/12
f 9/5/2 37/20/2 40/5/2
f 28/16/21 27/17/21 40/18/21
f 28/16/20 38/16/20 39/13/20
f 44/2/12 47/2/12 33/2/12
f 37/20/2 46/11/2 48/5/2
f 38/16/21 40/18/21 48/17/21
f 38/16/79 43/16/79 47/13/79
f 49/9/38 54/10/38 60/10/38
f 53/2/39 52/6/39 58/6/39
f 50/4/2 56/4/2 57/5/2
f 54/10/12 53/2/12 59/2/12
f 51/5/40 57/5/40 58/6/40
f 49/8/41 55/8/41 56/4/41
f 60/10/42 59/2/42 65/2/42
f 57/5/43 63/5/43 64/6/43
f 55/8/44 61/8/44 62/4/44
f 55/9/45 60/10/45 66/10/45
f 59/2/46 58/6/46 64/6/46
f 56/4/47 62/4/47 63/5/47
f 61/8/54 73/8/54 74/4/54
f 61/9/54 66/10/54 78/10/54
f 64/6/54 76/6/54 77/2/54
f 62/4/54 74/4/54 75/5/54
f 65/2/54 77/2/54 78/10/54
f 64/6/54 63/5/54 75/5/54
f 86/4/12 104/4/12 105/5/12
f 110/6/22 111/2/22 99/2/22
f 90/10/23 108/10/23 103/9/23
f 104/15/76 103/21/76 108/14/76
f 108/14/19 107/13/19 105/17/19
f 107/13/77 106/16/77 105/17/77
f 111/13/21 110/16/21 121/16/21
f 121/16/20 110/16/20 109/17/20
f 107/2/2 108/10/2 90/10/2
f 124/11/12 126/5/12 109/5/12
f 97/5/6 109/5/6 110/6/6
f 103/8/16 104/4/16 86/4/16
f 117/2/2 107/2/2 89/2/2
f 125/2/2 117/2/2 88/2/2
f 87/5/12 105/5/12 118/5/12
f 106/16/20 116/16/20 118/18/20
f 117/13/21 116/16/21 106/16/21
f 111/2/2 125/2/2 122/2/2
f 115/20/12 118/5/12 126/5/12
f 116/16/79 121/16/79 126/17/79
f 125/13/28 121/16/28 116/16/28
f 127/9/41 133/9/41 138/10/41
f 131/2/40 137/2/40 136/6/40
f 135/5/12 134/4/12 128/4/12
f 132/10/2 138/10/2 137/2/2
f 136/6/39 135/5/39 129/5/39
f 134/4/38 133/8/38 127/8/38
f 138/10/47 144/10/47 143/2/47
f 142/6/46 141/5/46 135/5/46
f 140/4/45 139/8/45 133/8/45
f 133/9/44 139/9/44 144/10/44
f 137/2/43 143/2/43 142/6/43
f 141/5/42 140/4/42 134/4/42
f 152/4/54 151/8/54 139/8/54
f 139/9/54 151/9/54 156/10/54
f 155/2/54 154/6/54 142/6/54
f 141/5/54 153/5/54 152/4/54
f 156/10/54 155/2/54 143/2/54
f 142/6/54 154/6/54 153/5/54
