# Blender 5.0.0
# www.blender.org
mtllib crewneck.mtl
o shirt3
v -0.000000 0.740633 7.275628
v -0.000000 0.690547 9.587168
v 0.624852 0.619074 7.252658
v 1.097575 0.597941 9.340844
v 0.753460 0.177874 7.197205
v 0.958816 0.134014 9.561376
v 0.602915 -0.220057 7.141752
v 0.895945 -0.198389 9.433015
v -0.000000 -0.384886 7.118782
v -0.000000 -0.594469 9.262534
v -0.000000 0.690547 8.038185
v 0.718687 0.567678 8.038185
v 0.872508 0.136791 8.038185
v 0.676646 -0.254775 8.038185
v -0.000000 -0.416966 8.038185
v -0.000000 0.859230 9.126611
v 1.036867 0.706957 8.443620
v 0.962294 0.138720 8.555681
v 0.894599 -0.265694 8.709052
v -0.000000 -0.754269 8.903592
v -0.000000 0.606191 9.779139
v 0.429895 0.472062 9.717586
v 0.556226 0.114908 9.717586
v 0.428109 -0.242247 9.717585
v -0.002913 -0.423114 9.535970
v 0.955312 0.136791 9.570416
v 0.721256 0.528356 9.587168
v 0.721256 -0.299084 9.587169
v 0.836370 0.722180 8.624210
v 0.747087 -0.608652 8.828298
v 0.967623 0.136791 8.498810
v 2.153589 0.334944 7.884668
v 2.236094 0.130595 7.927381
v 2.143749 -0.096258 7.895956
v 1.816815 0.333793 7.536143
v 1.779946 0.133806 7.448102
v 1.810183 -0.097398 7.543431
v 3.128215 0.028031 6.785702
v 2.977084 0.127826 6.607432
v 3.132483 0.215074 6.780806
v 2.990200 0.027537 6.648783
v 2.993077 0.214575 6.645622
v 3.168272 0.126433 6.799334
v 2.068107 -0.102449 7.989133
v 2.158665 0.130802 8.026434
v 1.729447 0.134104 7.518504
v 1.753747 -0.103621 7.615933
v 2.078678 0.340915 7.978440
v 1.760851 0.339732 7.609047
v 2.306240 0.130454 7.852815
v 2.225307 0.330911 7.810916
v 1.894651 0.329783 7.468326
v 1.858484 0.133604 7.381961
v 1.888146 -0.093198 7.475475
v 2.215653 -0.092080 7.821989
v 3.255889 0.129134 6.873960
v 2.932215 0.291976 6.589975
v 2.926901 -0.053578 6.595816
v 3.189771 0.292898 6.839729
v 2.902669 0.131708 6.519420
v 3.181885 -0.052664 6.848775
v -0.000000 0.583363 7.253369
v 0.555626 0.496306 7.236919
v 0.647732 0.180330 7.197205
v 0.539915 -0.104658 7.157491
v -0.000000 -0.222704 7.141040
v 0.428109 -0.242247 9.717585
v 0.556226 0.114908 9.717586
v 0.429895 0.472062 9.717586
v -0.000000 0.606191 9.779139
v 3.127180 0.132025 7.202063
v 2.640498 0.374803 6.768801
v 2.632575 -0.140377 6.777510
v 3.016848 -0.139016 7.164517
v 2.596448 0.135862 6.663612
v 3.028605 0.376177 7.151030
v 2.804744 -0.056735 6.723345
v 2.810154 0.294989 6.717400
v 3.140834 0.129240 7.009395
v 3.065508 -0.055805 6.983760
v 2.780079 0.131859 6.645584
v 3.073535 0.295928 6.974553
v -0.000000 -0.311901 9.710274
v 0.274131 -0.071173 9.836588
v 0.298334 0.143862 9.836587
v 0.274468 0.358896 9.836587
v -0.000000 0.439651 9.863604
v -0.000000 -0.113110 9.833377
v 0.274457 -0.064805 9.934310
v 0.298660 0.150229 9.934311
v 0.274795 0.365264 9.934310
v -0.000000 0.446019 9.961327
v -0.000000 -0.106743 9.931100
v 0.126044 0.107905 9.938001
v 0.131485 0.156248 9.938001
v 0.126120 0.204590 9.938001
v -0.000000 0.222745 9.944076
v -0.000000 0.098476 9.937281
v -0.624852 0.619074 7.252658
v -1.097576 0.597941 9.340844
v -0.753460 0.177874 7.197205
v -0.958816 0.134014 9.561376
v -0.602915 -0.220057 7.141752
v -0.895945 -0.198389 9.433015
v -0.718687 0.567678 8.038185
v -0.872508 0.136791 8.038185
v -0.676646 -0.254775 8.038185
v -1.036868 0.706957 8.443620
v -0.962294 0.138720 8.555681
v -0.894599 -0.265694 8.709052
v -0.429896 0.472062 9.717586
v -0.556226 0.114908 9.717586
v -0.428109 -0.242247 9.717585
v -0.955312 0.136791 9.570416
v -0.721256 0.528356 9.587168
v -0.721256 -0.299084 9.587169
v -0.836370 0.722180 8.624210
v -0.747088 -0.608652 8.828298
v -0.967623 0.136791 8.498810
v -2.153590 0.334944 7.884668
v -2.236095 0.130595 7.927381
v -2.143749 -0.096258 7.895956
v -1.816815 0.333793 7.536143
v -1.779946 0.133806 7.448102
v -1.810183 -0.097398 7.543431
v -3.128216 0.028031 6.785702
v -2.977084 0.127826 6.607432
v -3.132484 0.215074 6.780806
v -2.990201 0.027537 6.648783
v -2.993077 0.214575 6.645622
v -3.168272 0.126433 6.799334
v -2.068107 -0.102449 7.999840
v -2.158665 0.130802 8.026434
v -1.729447 0.134104 7.518504
v -1.753747 -0.103621 7.615933
v -2.078678 0.340915 7.978440
v -1.760851 0.339732 7.609047
v -2.306241 0.130454 7.852815
v -2.225307 0.330911 7.810916
v -1.894651 0.329783 7.468326
v -1.858484 0.133604 7.381961
v -1.888146 -0.093198 7.475475
v -2.215654 -0.092080 7.821989
v -3.255890 0.129134 6.873960
v -2.932216 0.291976 6.589975
v -2.926902 -0.053578 6.595816
v -3.189771 0.292898 6.839729
v -2.902669 0.131708 6.519420
v -3.181886 -0.052664 6.848775
v -0.555626 0.496306 7.236919
v -0.647732 0.180330 7.197205
v -0.539915 -0.104658 7.157491
v -0.428109 -0.242247 9.717585
v -0.556226 0.114908 9.717586
v -0.429896 0.472062 9.717586
v -3.127181 0.132025 7.202063
v -2.640499 0.374803 6.768801
v -2.632576 -0.140377 6.777510
v -3.016849 -0.139016 7.164517
v -2.596448 0.135862 6.663612
v -3.028605 0.376177 7.151030
v -2.804745 -0.056735 6.723345
v -2.810154 0.294989 6.717400
v -3.140835 0.129240 7.009395
v -3.065509 -0.055805 6.983760
v -2.780080 0.131859 6.645584
v -3.073536 0.295928 6.974553
v -0.274131 -0.071173 9.836588
v -0.298334 0.143862 9.836587
v -0.274468 0.358896 9.836587
v -0.274457 -0.064805 9.934310
v -0.298660 0.150229 9.934311
v -0.274795 0.365264 9.934310
v -0.126044 0.107905 9.938001
v -0.131485 0.156248 9.938001
v -0.126120 0.204590 9.938001
vn 0.0007 0.1355 -0.9908
vn 0.7300 -0.3748 0.5714
vn 0.8795 -0.4399 -0.1816
vn 0.1617 0.9457 -0.2818
vn 0.1622 0.7211 0.6736
vn 0.1300 -0.8395 0.5275
vn 0.9186 -0.0921 0.3843
vn 0.7254 -0.3672 0.5822
vn 0.9870 -0.1285 0.0969
vn -0.6688 0.0093 -0.7433
vn -0.0984 -0.3903 -0.9154
vn 0.0480 0.9979 -0.0445
vn -0.7340 -0.3205 -0.5988
vn 0.6431 -0.1580 -0.7493
vn 0.6958 0.0312 -0.7176
vn -0.7495 0.3593 -0.5560
vn -0.7739 -0.1072 -0.6242
vn 0.7018 -0.0859 -0.7071
vn 0.1915 -0.9773 0.0905
vn 0.9223 -0.3849 0.0341
vn -0.0565 0.9801 0.1905
vn 0.2648 -0.9637 -0.0336
vn 0.6779 -0.3644 0.6384
vn 0.0311 -0.9992 -0.0262
vn 0.3338 0.1598 0.9290
vn -0.0074 0.1401 -0.9901
vn 0.9204 -0.3845 0.0708
vn 0.3247 -0.8893 -0.3220
vn 0.6677 0.4007 0.6274
vn 0.0032 0.1368 -0.9906
vn 0.0029 0.1255 -0.9921
vn -0.6500 -0.3608 -0.6689
vn 0.3805 -0.1365 0.9147
vn 0.2140 -0.8924 0.3973
vn 0.0292 -0.9992 -0.0282
vn 0.9356 -0.3414 -0.0902
vn 0.9525 0.2896 -0.0948
vn 0.2121 -0.8847 -0.4151
vn 0.9245 0.3300 -0.1909
vn -0.0800 0.4139 -0.9068
vn 0.2860 0.9322 0.2218
vn 0.7272 0.4037 0.5552
vn -0.7519 0.3768 -0.5410
vn 0.7494 -0.1663 -0.6409
vn -0.0333 0.9990 0.0288
vn 0.6433 0.1011 -0.7589
vn 0.7592 0.1399 -0.6357
vn 0.5734 0.3829 0.7243
vn 0.5846 -0.3400 0.7366
vn 0.7763 0.4057 0.4825
vn 0.2397 0.9480 -0.2092
vn -0.0307 -0.9990 0.0340
vn 0.1928 0.9791 0.0643
vn -0.5987 -0.3710 -0.7098
vn 0.7296 -0.3761 0.5711
vn 0.0247 0.9992 -0.0307
vn 0.9212 0.3844 0.0597
vn 0.0101 0.9999 -0.0140
vn -0.6704 -0.3561 -0.6510
vn 0.7075 -0.3713 0.6013
vn 0.0144 -0.9998 -0.0109
vn -0.5856 0.4146 -0.6966
vn 0.6969 0.4051 0.5918
vn 0.3192 0.8894 -0.3273
vn -0.0000 -0.0000 1.0000
vn 0.8940 -0.3737 -0.2471
vn 0.3247 0.8659 0.3805
vn 0.0876 -0.8260 0.5569
vn 0.4947 0.2602 0.8292
vn 0.8441 -0.3245 0.4268
vn 0.5075 -0.4695 -0.7225
vn 0.9892 -0.1108 0.0965
vn 0.7317 -0.3751 0.5691
vn 0.0548 -0.9976 -0.0430
vn 0.0923 -0.9929 -0.0747
vn 0.0265 0.9992 -0.0289
vn -0.6382 0.4057 -0.6543
vn -0.6564 0.4020 -0.6383
vn -0.1268 -0.8353 0.5350
vn 0.4766 -0.1709 0.8624
vn 0.0704 -0.5252 0.8481
vn 0.4229 0.0469 0.9050
vn 0.2724 0.4941 0.8256
vn 0.1502 -0.9866 0.0643
vn 0.2759 0.9591 -0.0634
vn 0.9938 0.1103 -0.0105
vn 0.9937 -0.1118 0.0040
vn 0.0220 -0.0025 0.9998
vn -0.0035 -0.0301 0.9995
vn 0.0822 -0.0532 0.9952
vn 0.0222 0.0025 0.9998
vn -0.0005 0.1360 -0.9907
vn -0.7335 -0.3611 0.5758
vn -0.8795 -0.4399 -0.1816
vn -0.0698 0.9858 -0.1528
vn -0.1622 0.7211 0.6735
vn -0.1331 -0.8405 0.5253
vn -0.9186 -0.0921 0.3843
vn -0.7254 -0.3672 0.5822
vn -0.9870 -0.1285 0.0969
vn 0.6688 0.0093 -0.7433
vn 0.0984 -0.3903 -0.9154
vn -0.0480 0.9979 -0.0445
vn 0.7685 -0.3272 -0.5499
vn -0.6431 -0.1580 -0.7493
vn -0.6958 0.0312 -0.7176
vn 0.7611 -0.0279 -0.6480
vn 0.7651 -0.3096 -0.5646
vn -0.7018 -0.0859 -0.7071
vn -0.1907 -0.9775 0.0905
vn -0.6621 -0.6858 0.3023
vn -0.1711 0.9794 0.1074
vn -0.2327 -0.9709 -0.0567
vn -0.6779 -0.3644 0.6384
vn -0.0311 -0.9992 -0.0262
vn -0.3829 0.1354 0.9138
vn 0.0106 0.1330 -0.9911
vn -0.9204 -0.3845 0.0708
vn -0.3291 -0.8871 -0.3237
vn -0.6677 0.4007 0.6274
vn -0.0032 0.1368 -0.9906
vn -0.0029 0.1255 -0.9921
vn 0.6500 -0.3608 -0.6689
vn -0.3493 -0.1520 0.9246
vn -0.2013 -0.9046 0.3758
vn -0.0296 -0.9992 -0.0278
vn -0.8847 -0.4425 -0.1468
vn -0.9354 0.3339 -0.1161
vn -0.1435 -0.9221 -0.3594
vn -0.9300 0.2634 -0.2562
vn 0.0800 0.4139 -0.9068
vn -0.2066 0.9187 0.3365
vn -0.7197 0.4080 0.5617
vn 0.7229 0.3679 -0.5849
vn -0.7494 -0.1663 -0.6409
vn 0.0323 0.9991 0.0292
vn -0.6433 0.1011 -0.7589
vn -0.7592 0.1399 -0.6357
vn -0.5734 0.3829 0.7243
vn -0.5846 -0.3400 0.7366
vn -0.7866 0.0570 0.6148
vn -0.3649 0.9269 0.0879
vn 0.0320 -0.9989 0.0334
vn -0.1684 0.9847 0.0443
vn 0.5987 -0.3710 -0.7098
vn -0.0360 0.9987 -0.0348
vn -0.9212 0.3844 0.0597
vn -0.0099 0.9999 -0.0139
vn 0.6704 -0.3561 -0.6510
vn -0.7075 -0.3713 0.6013
vn -0.0145 -0.9998 -0.0109
vn 0.5856 0.4146 -0.6966
vn -0.6969 0.4051 0.5918
vn -0.3145 0.8917 -0.3254
vn -0.8940 -0.3737 -0.2471
vn -0.3247 0.8659 0.3805
vn -0.0876 -0.8260 0.5569
vn -0.4947 0.2602 0.8292
vn -0.8441 -0.3245 0.4268
vn -0.5075 -0.4695 -0.7225
vn -0.9892 -0.1108 0.0965
vn -0.7648 -0.3580 0.5356
vn -0.0555 -0.9976 -0.0424
vn -0.0936 -0.9929 -0.0736
vn -0.0265 0.9992 -0.0289
vn 0.6382 0.4057 -0.6543
vn 0.6564 0.4020 -0.6383
vn 0.1271 -0.8371 0.5320
vn -0.4766 -0.1709 0.8624
vn -0.0711 -0.5257 0.8477
vn -0.5115 0.1809 0.8401
vn -0.2724 0.4941 0.8256
vn -0.1502 -0.9866 0.0643
vn -0.2759 0.9591 -0.0634
vn -0.9938 0.1103 -0.0105
vn -0.9937 -0.1118 0.0040
vn -0.0220 -0.0025 0.9998
vn 0.0074 -0.0278 0.9996
vn -0.0822 -0.0532 0.9952
vn -0.0222 0.0025 0.9998
vn 0.0005 0.1360 -0.9907
vn 0.7357 -0.3606 0.5733
vn 0.0698 0.9858 -0.1528
vn -0.7685 -0.3272 -0.5499
vn -0.7611 -0.0279 -0.6480
vn -0.7651 -0.3096 -0.5646
vn 0.6621 -0.6858 0.3023
vn 0.1711 0.9794 0.1074
vn 0.2327 -0.9709 -0.0567
vn 0.3829 0.1354 0.9138
vn -0.0106 0.1330 -0.9911
vn 0.3291 -0.8871 -0.3237
vn 0.3493 -0.1520 0.9246
vn 0.2013 -0.9046 0.3758
vn 0.0416 -0.9986 -0.0326
vn 0.8847 -0.4425 -0.1468
vn 0.9354 0.3339 -0.1161
vn 0.1435 -0.9221 -0.3594
vn 0.9300 0.2634 -0.2562
vn 0.2066 0.9187 0.3365
vn 0.7197 0.4080 0.5617
vn -0.7229 0.3679 -0.5849
vn -0.0323 0.9991 0.0292
vn 0.7866 0.0570 0.6148
vn 0.3649 0.9269 0.0879
vn -0.0320 -0.9989 0.0334
vn 0.1684 0.9847 0.0443
vn 0.0360 0.9987 -0.0348
vn 0.0099 0.9999 -0.0139
vn 0.0145 -0.9998 -0.0109
vn 0.3145 0.8917 -0.3254
vn 0.4142 -0.0466 0.9090
vn 0.0711 -0.5257 0.8477
vn 0.5115 0.1809 0.8401
vn 0.2157 0.4417 0.8709
vn 0.1500 -0.9866 0.0638
vn 0.2757 0.9592 -0.0625
vn -0.0074 -0.0278 0.9996
vn 0.0369 -0.0770 0.9963
vn -0.0007 0.1355 -0.9908
vn -0.7371 -0.3520 0.5769
vn -0.1617 0.9457 -0.2818
vn 0.7340 -0.3205 -0.5988
vn 0.7495 0.3593 -0.5560
vn 0.7739 -0.1072 -0.6242
vn -0.9223 -0.3849 0.0341
vn 0.0565 0.9801 0.1905
vn -0.2648 -0.9637 -0.0336
vn -0.3338 0.1598 0.9290
vn 0.0074 0.1401 -0.9901
vn -0.3247 -0.8893 -0.3220
vn -0.3805 -0.1365 0.9147
vn -0.2140 -0.8924 0.3973
vn -0.0391 -0.9988 -0.0310
vn -0.9356 -0.3414 -0.0902
vn -0.9525 0.2896 -0.0948
vn -0.2121 -0.8847 -0.4151
vn -0.9245 0.3300 -0.1909
vn -0.2860 0.9322 0.2218
vn -0.7272 0.4037 0.5552
vn 0.7519 0.3768 -0.5410
vn 0.0333 0.9990 0.0288
vn -0.7763 0.4057 0.4825
vn -0.2397 0.9480 -0.2092
vn 0.0307 -0.9990 0.0340
vn -0.1928 0.9791 0.0643
vn -0.7296 -0.3761 0.5711
vn -0.0247 0.9992 -0.0307
vn -0.0101 0.9999 -0.0140
vn -0.0144 -0.9998 -0.0109
vn -0.3192 0.8894 -0.3273
vn -0.4142 -0.0466 0.9090
vn -0.0704 -0.5252 0.8481
vn -0.4229 0.0469 0.9050
vn -0.2157 0.4417 0.8709
vn -0.1500 -0.9866 0.0638
vn -0.2757 0.9592 -0.0625
vn 0.0035 -0.0301 0.9995
vn -0.0369 -0.0770 0.9963
vt 0.500000 0.500000
vt 0.625000 0.500000
vt 0.749520 0.964446
vt 0.653402 0.965669
vt 0.749520 0.964446
vt 0.750000 0.828637
vt 0.625000 0.645722
vt 0.750000 0.645722
vt 1.000000 0.645722
vt 0.875000 0.828637
vt 0.875000 0.645722
vt 1.000000 1.000000
vt 0.875000 1.000000
vt 0.500000 1.000000
vt 0.625000 1.000000
vt 0.844268 0.965118
vt 0.750000 1.000000
vt 0.653402 0.965669
vt 0.647775 0.863148
vt 0.750840 0.864057
vt 0.844587 0.863513
vt 0.750840 0.864057
vt 0.647775 0.863149
vt 0.844267 0.965117
vt 0.844587 0.863513
vt 0.750840 0.864057
vt 0.749520 0.964446
vt 0.653402 0.965669
vt 0.625000 0.828637
vt 0.500000 0.645722
vt 0.653402 0.965669
vt 0.749520 0.964446
vt 1.000000 0.500000
vt 0.875000 0.500000
vt 0.653402 0.965669
vt 0.844268 0.965117
vt 0.750000 0.500000
vt 0.750840 0.864057
vt 0.500000 0.828637
vt 0.844587 0.863513
vt 1.000000 0.828637
vt 0.750840 0.864057
vt 0.844587 0.863513
vt 0.844268 0.965118
vt 0.000000 0.000000
s 0
usemtl shirt
f 9/1/1 65/2/1 7/2/1
f 6/3/2 44/4/2 45/5/2
f 31/6/3 14/7/3 13/8/3
f 11/9/4 29/10/4 12/11/4
f 2/12/5 22/13/5 27/13/5
f 10/14/6 24/15/6 25/14/6
f 4/16/7 26/17/7 6/3/7
f 8/18/8 26/17/8 28/15/8
f 19/19/9 31/6/9 18/20/9
f 17/21/10 31/6/10 29/10/10
f 75/22/11 77/23/11 73/19/11
f 48/24/12 35/21/12 49/25/12
f 46/26/13 37/19/13 47/23/13
f 56/27/14 38/28/14 43/27/14
f 59/24/15 42/21/15 57/21/15
f 18/20/16 49/25/16 46/26/16
f 18/20/17 47/23/17 19/19/17
f 61/28/18 41/19/18 38/28/18
f 19/19/19 44/4/19 8/18/19
f 8/18/20 30/29/20 19/19/20
f 4/16/21 29/10/21 27/13/21
f 7/2/22 15/30/22 9/1/22
f 33/3/23 55/31/23 50/32/23
f 34/18/24 54/23/24 55/31/24
f 27/13/25 23/17/25 26/17/25
f 1/33/26 63/34/26 62/33/26
f 71/27/27 80/28/27 79/27/27
f 74/35/28 77/23/28 80/28/28
f 33/3/29 51/36/29 32/16/29
f 5/37/30 65/2/30 64/37/30
f 5/37/31 63/34/31 3/34/31
f 53/38/32 73/19/32 54/23/32
f 28/15/33 23/17/33 24/15/33
f 30/29/34 10/14/34 20/39/34
f 54/23/35 44/4/35 37/19/35
f 5/37/36 14/7/36 7/2/36
f 12/11/37 5/37/37 3/34/37
f 30/29/38 15/30/38 14/7/38
f 12/11/39 31/6/39 13/8/39
f 75/22/40 78/40/40 81/22/40
f 16/41/41 27/13/41 29/10/41
f 45/5/42 32/16/42 48/24/42
f 46/26/43 35/21/43 36/20/43
f 60/42/44 41/19/44 58/19/44
f 51/36/45 72/43/45 52/40/45
f 56/27/46 40/24/46 59/24/46
f 60/42/47 42/21/47 39/42/47
f 50/32/48 76/44/48 51/36/48
f 50/32/49 74/35/49 71/27/49
f 4/16/50 45/5/50 48/24/50
f 17/21/51 48/24/51 49/25/51
f 55/31/52 73/19/52 74/35/52
f 11/9/53 3/34/53 1/33/53
f 36/20/54 54/23/54 37/19/54
f 34/18/55 33/3/55 45/5/55
f 48/24/56 52/40/56 35/21/56
f 71/27/57 82/24/57 76/44/57
f 82/24/58 57/21/58 78/40/58
f 81/22/59 58/19/59 77/23/59
f 79/27/60 61/28/60 56/27/60
f 80/28/61 58/19/61 61/28/61
f 36/20/62 52/40/62 53/38/62
f 79/27/63 59/24/63 82/24/63
f 76/44/64 78/40/64 72/43/64
f 23/17/65 69/13/65 68/17/65
f 31/6/66 30/29/66 14/7/66
f 2/12/67 21/12/67 22/13/67
f 10/14/68 28/15/68 24/15/68
f 4/16/69 27/13/69 26/17/69
f 8/18/70 6/3/70 26/17/70
f 19/19/71 30/29/71 31/6/71
f 17/21/72 18/20/72 31/6/72
f 45/5/73 44/4/73 34/18/73
f 44/4/74 47/23/74 37/19/74
f 59/24/15 40/24/15 42/21/15
f 61/28/18 58/19/18 41/19/18
f 19/19/75 47/23/75 44/4/75
f 32/16/76 51/36/76 52/40/76
f 5/37/30 7/2/30 65/2/30
f 5/37/31 64/37/31 63/34/31
f 22/13/65 70/12/65 69/13/65
f 24/15/65 68/17/65 67/15/65
f 53/38/77 72/43/77 75/22/77
f 81/22/78 57/21/78 60/42/78
f 25/14/79 83/45/79 153/15/79
f 68/17/80 84/15/80 67/15/80
f 83/45/81 84/15/81 88/45/81
f 68/17/82 86/13/82 85/17/82
f 70/12/83 86/13/83 69/13/83
f 84/15/84 93/45/84 88/45/84
f 87/12/85 91/13/85 86/13/85
f 86/13/86 90/17/86 85/17/86
f 85/17/87 89/15/87 84/15/87
f 90/17/88 94/15/88 89/15/88
f 93/45/89 94/15/89 98/45/89
f 92/12/90 96/13/90 91/13/90
f 90/17/91 96/13/91 95/17/91
f 9/1/92 152/2/92 66/1/92
f 102/3/93 132/4/93 104/18/93
f 119/6/94 106/8/94 107/7/94
f 11/9/95 117/10/95 16/41/95
f 2/12/96 115/13/96 111/13/96
f 10/14/97 25/14/97 113/15/97
f 100/16/98 102/3/98 114/17/98
f 104/18/99 116/15/99 114/17/99
f 110/19/100 109/20/100 119/6/100
f 108/21/101 117/10/101 119/6/101
f 160/22/102 162/23/102 166/22/102
f 136/24/103 137/25/103 123/21/103
f 134/26/104 125/19/104 124/20/104
f 144/27/105 126/28/105 149/28/105
f 147/24/106 145/21/106 130/21/106
f 109/20/107 137/25/107 108/21/107
f 109/20/108 135/23/108 134/26/108
f 149/28/109 126/28/109 129/19/109
f 110/19/110 104/18/110 132/4/110
f 104/18/111 118/29/111 116/15/111
f 100/16/112 117/10/112 108/21/112
f 103/2/113 15/30/113 107/7/113
f 121/3/114 138/32/114 143/31/114
f 122/18/115 143/31/115 142/23/115
f 115/13/116 112/17/116 111/13/116
f 1/33/117 150/34/117 99/34/117
f 156/27/118 165/28/118 159/35/118
f 159/35/119 162/23/119 158/19/119
f 121/3/120 139/36/120 138/32/120
f 101/37/121 151/37/121 152/2/121
f 101/37/122 99/34/122 150/34/122
f 141/38/123 158/19/123 160/22/123
f 25/14/65 153/15/65 113/15/65
f 116/15/124 112/17/124 114/17/124
f 118/29/125 10/14/125 116/15/125
f 132/4/126 142/23/126 125/19/126
f 101/37/127 107/7/127 106/8/127
f 105/11/128 101/37/128 106/8/128
f 118/29/129 15/30/129 20/39/129
f 105/11/130 119/6/130 117/10/130
f 160/22/131 163/40/131 157/43/131
f 16/41/132 115/13/132 2/12/132
f 133/5/133 120/16/133 121/3/133
f 134/26/134 123/21/134 137/25/134
f 148/42/135 129/19/135 127/42/135
f 139/36/136 157/43/136 161/44/136
f 144/27/137 128/24/137 131/27/137
f 148/42/138 130/21/138 145/21/138
f 138/32/139 161/44/139 156/27/139
f 138/32/140 159/35/140 143/31/140
f 100/16/141 133/5/141 102/3/141
f 108/21/142 136/24/142 100/16/142
f 143/31/143 158/19/143 142/23/143
f 11/9/144 99/34/144 105/11/144
f 124/20/145 142/23/145 141/38/145
f 122/18/114 121/3/114 143/31/114
f 136/24/146 140/40/146 120/16/146
f 156/27/147 167/24/147 164/27/147
f 167/24/148 145/21/148 147/24/148
f 166/22/149 146/19/149 148/42/149
f 164/27/150 149/28/150 165/28/150
f 165/28/151 146/19/151 162/23/151
f 124/20/152 140/40/152 123/21/152
f 164/27/153 147/24/153 144/27/153
f 161/44/154 163/40/154 167/24/154
f 112/17/65 155/13/65 111/13/65
f 119/6/155 107/7/155 118/29/155
f 2/12/156 111/13/156 21/12/156
f 10/14/157 113/15/157 116/15/157
f 100/16/158 114/17/158 115/13/158
f 104/18/159 114/17/159 102/3/159
f 110/19/160 119/6/160 118/29/160
f 108/21/161 119/6/161 109/20/161
f 133/5/162 122/18/162 132/4/162
f 132/4/163 125/19/163 135/23/163
f 147/24/106 130/21/106 128/24/106
f 149/28/109 129/19/109 146/19/109
f 110/19/164 132/4/164 135/23/164
f 120/16/165 140/40/165 139/36/165
f 101/37/121 152/2/121 103/2/121
f 101/37/122 150/34/122 151/37/122
f 111/13/65 70/12/65 21/12/65
f 113/15/65 154/17/65 112/17/65
f 141/38/166 157/43/166 140/40/166
f 166/22/167 145/21/167 163/40/167
f 83/45/168 25/14/168 67/15/168
f 168/15/169 154/17/169 153/15/169
f 83/45/170 168/15/170 153/15/170
f 154/17/171 170/13/171 155/13/171
f 170/13/172 70/12/172 155/13/172
f 93/45/173 168/15/173 88/45/173
f 173/13/174 87/12/174 170/13/174
f 172/17/175 170/13/175 169/17/175
f 171/15/176 169/17/176 168/15/176
f 174/15/177 172/17/177 171/15/177
f 93/45/178 174/15/178 171/15/178
f 176/13/179 92/12/179 173/13/179
f 172/17/180 176/13/180 173/13/180
f 9/1/181 66/1/181 65/2/181
f 6/3/182 8/18/182 44/4/182
f 11/9/183 16/41/183 29/10/183
f 75/22/11 81/22/11 77/23/11
f 46/26/184 36/20/184 37/19/184
f 56/27/14 61/28/14 38/28/14
f 18/20/185 17/21/185 49/25/185
f 18/20/186 46/26/186 47/23/186
f 8/18/187 28/15/187 30/29/187
f 4/16/188 17/21/188 29/10/188
f 7/2/189 14/7/189 15/30/189
f 27/13/190 22/13/190 23/17/190
f 1/33/191 3/34/191 63/34/191
f 71/27/27 74/35/27 80/28/27
f 74/35/192 73/19/192 77/23/192
f 33/3/29 50/32/29 51/36/29
f 53/38/32 75/22/32 73/19/32
f 25/14/65 24/15/65 67/15/65
f 28/15/193 26/17/193 23/17/193
f 30/29/194 28/15/194 10/14/194
f 54/23/195 34/18/195 44/4/195
f 5/37/196 13/8/196 14/7/196
f 12/11/197 13/8/197 5/37/197
f 30/29/198 20/39/198 15/30/198
f 12/11/199 29/10/199 31/6/199
f 75/22/40 72/43/40 78/40/40
f 16/41/200 2/12/200 27/13/200
f 45/5/201 33/3/201 32/16/201
f 46/26/202 49/25/202 35/21/202
f 60/42/44 39/42/44 41/19/44
f 51/36/203 76/44/203 72/43/203
f 56/27/46 43/27/46 40/24/46
f 60/42/47 57/21/47 42/21/47
f 50/32/48 71/27/48 76/44/48
f 50/32/49 55/31/49 74/35/49
f 4/16/204 6/3/204 45/5/204
f 17/21/205 4/16/205 48/24/205
f 55/31/206 54/23/206 73/19/206
f 11/9/207 12/11/207 3/34/207
f 36/20/54 53/38/54 54/23/54
f 34/18/23 55/31/23 33/3/23
f 48/24/208 32/16/208 52/40/208
f 71/27/57 79/27/57 82/24/57
f 82/24/209 59/24/209 57/21/209
f 81/22/59 60/42/59 58/19/59
f 79/27/60 80/28/60 61/28/60
f 80/28/210 77/23/210 58/19/210
f 36/20/62 35/21/62 52/40/62
f 79/27/63 56/27/63 59/24/63
f 76/44/211 82/24/211 78/40/211
f 23/17/65 22/13/65 69/13/65
f 22/13/65 21/12/65 70/12/65
f 24/15/65 23/17/65 68/17/65
f 53/38/77 52/40/77 72/43/77
f 81/22/78 78/40/78 57/21/78
f 68/17/212 85/17/212 84/15/212
f 83/45/213 67/15/213 84/15/213
f 68/17/214 69/13/214 86/13/214
f 70/12/215 87/12/215 86/13/215
f 84/15/216 89/15/216 93/45/216
f 87/12/217 92/12/217 91/13/217
f 86/13/86 91/13/86 90/17/86
f 85/17/87 90/17/87 89/15/87
f 90/17/88 95/17/88 94/15/88
f 93/45/218 89/15/218 94/15/218
f 92/12/219 97/12/219 96/13/219
f 90/17/91 91/13/91 96/13/91
f 9/1/220 103/2/220 152/2/220
f 102/3/221 133/5/221 132/4/221
f 11/9/222 105/11/222 117/10/222
f 160/22/102 158/19/102 162/23/102
f 134/26/223 135/23/223 125/19/223
f 144/27/105 131/27/105 126/28/105
f 109/20/224 134/26/224 137/25/224
f 109/20/225 110/19/225 135/23/225
f 104/18/226 110/19/226 118/29/226
f 100/16/227 115/13/227 117/10/227
f 103/2/228 9/1/228 15/30/228
f 115/13/229 114/17/229 112/17/229
f 1/33/230 62/33/230 150/34/230
f 156/27/118 164/27/118 165/28/118
f 159/35/231 165/28/231 162/23/231
f 121/3/120 120/16/120 139/36/120
f 141/38/123 142/23/123 158/19/123
f 116/15/232 113/15/232 112/17/232
f 118/29/233 20/39/233 10/14/233
f 132/4/234 122/18/234 142/23/234
f 101/37/235 103/2/235 107/7/235
f 105/11/236 99/34/236 101/37/236
f 118/29/237 107/7/237 15/30/237
f 105/11/238 106/8/238 119/6/238
f 160/22/131 166/22/131 163/40/131
f 16/41/239 117/10/239 115/13/239
f 133/5/240 136/24/240 120/16/240
f 134/26/241 124/20/241 123/21/241
f 148/42/135 146/19/135 129/19/135
f 139/36/242 140/40/242 157/43/242
f 144/27/137 147/24/137 128/24/137
f 148/42/138 127/42/138 130/21/138
f 138/32/139 139/36/139 161/44/139
f 138/32/140 156/27/140 159/35/140
f 100/16/243 136/24/243 133/5/243
f 108/21/244 137/25/244 136/24/244
f 143/31/245 159/35/245 158/19/245
f 11/9/246 1/33/246 99/34/246
f 124/20/145 125/19/145 142/23/145
f 122/18/247 133/5/247 121/3/247
f 136/24/248 123/21/248 140/40/248
f 156/27/147 161/44/147 167/24/147
f 167/24/249 163/40/249 145/21/249
f 166/22/149 162/23/149 146/19/149
f 164/27/150 144/27/150 149/28/150
f 165/28/250 149/28/250 146/19/250
f 124/20/152 141/38/152 140/40/152
f 164/27/153 167/24/153 147/24/153
f 161/44/251 157/43/251 163/40/251
f 112/17/65 154/17/65 155/13/65
f 111/13/65 155/13/65 70/12/65
f 113/15/65 153/15/65 154/17/65
f 141/38/166 160/22/166 157/43/166
f 166/22/167 148/42/167 145/21/167
f 168/15/252 169/17/252 154/17/252
f 83/45/253 88/45/253 168/15/253
f 154/17/254 169/17/254 170/13/254
f 170/13/255 87/12/255 70/12/255
f 93/45/256 171/15/256 168/15/256
f 173/13/257 92/12/257 87/12/257
f 172/17/175 173/13/175 170/13/175
f 171/15/176 172/17/176 169/17/176
f 174/15/177 175/17/177 172/17/177
f 93/45/258 98/45/258 174/15/258
f 176/13/259 97/12/259 92/12/259
f 172/17/180 175/17/180 176/13/180
