# Blender 5.0.0
# www.blender.org
mtllib longsleeve.mtl
o shirt2
v -0.000000 0.740633 7.275628
v -0.000000 0.690547 9.587168
v 0.624852 0.619074 7.252658
v 1.097575 0.597941 9.340844
v 0.753460 0.177874 7.197205
v 0.958816 0.134014 9.561376
v 0.602915 -0.220057 7.141752
v 0.895945 -0.198389 9.433015
v -0.000000 -0.384886 7.118782
v -0.000000 -0.594469 9.262534
v -0.000000 0.690547 8.038185
v 0.718687 0.567678 8.038185
v 0.872508 0.136791 8.038185
v 0.676646 -0.254775 8.038185
v -0.000000 -0.416966 8.038185
v -0.000000 0.859230 9.126611
v 1.036867 0.706957 8.443620
v 0.962294 0.138720 8.555681
v 0.894599 -0.265694 8.709052
v -0.000000 -0.754269 8.903592
v -0.000000 0.606191 9.779139
v 0.429895 0.472062 9.717586
v 0.556226 0.114908 9.717586
v 0.428109 -0.242247 9.717585
v -0.000000 -0.481744 9.535971
v 0.955312 0.136791 9.570416
v 0.721256 0.528356 9.587168
v 0.721256 -0.299084 9.587169
v 0.836370 0.722180 8.624210
v 0.747087 -0.608652 8.828298
v 0.967623 0.136791 8.498810
v 2.153589 0.334944 7.884668
v 2.236094 0.130595 7.927381
v 2.143749 -0.096258 7.895956
v 1.816815 0.333793 7.536143
v 1.779946 0.133806 7.448102
v 1.810183 -0.097398 7.543431
v 3.052454 0.006653 6.890481
v 2.867389 0.128855 6.672183
v 3.057681 0.235691 6.884485
v 2.883451 0.006047 6.722819
v 2.886973 0.235081 6.718947
v 3.101505 0.127149 6.907173
v 2.068107 -0.102449 7.989133
v 2.158665 0.130802 8.026434
v 1.729447 0.134104 7.518504
v 1.753747 -0.103621 7.615933
v 2.078678 0.340915 7.978440
v 1.760851 0.339732 7.609047
v 2.306240 0.130454 7.852815
v 2.225307 0.330911 7.810916
v 1.894651 0.329783 7.468326
v 1.858484 0.133604 7.381961
v 1.888146 -0.093198 7.475475
v 2.215653 -0.092080 7.821989
v 3.208795 0.130457 6.998554
v 2.812447 0.329861 6.650808
v 2.805939 -0.093279 6.657961
v 3.127831 0.330989 6.956638
v 2.776266 0.133608 6.564410
v 3.118175 -0.092161 6.967715
v -0.000000 0.583363 7.253369
v 0.555626 0.496306 7.236919
v 0.647732 0.180330 7.197205
v 0.539915 -0.104658 7.157491
v -0.000000 -0.222704 7.141040
v -0.000000 0.462099 9.689459
v 0.387007 0.367090 9.645858
v 0.476493 0.114103 9.645858
v 0.385742 -0.138886 9.645859
v -0.000000 -0.243677 9.517213
v -0.624852 0.619074 7.252658
v -1.097575 0.597941 9.340845
v -0.753460 0.177874 7.197205
v -0.958816 0.134014 9.561377
v -0.602915 -0.220057 7.141752
v -0.895945 -0.198389 9.433016
v -0.718687 0.567678 8.038185
v -0.872508 0.136791 8.038185
v -0.676646 -0.254775 8.038185
v -1.036867 0.706956 8.443621
v -0.962294 0.138720 8.555682
v -0.894599 -0.265694 8.709053
v -0.429896 0.472062 9.717586
v -0.556226 0.114906 9.717586
v -0.428109 -0.242248 9.717586
v -0.955312 0.136791 9.570417
v -0.721256 0.528356 9.587168
v -0.721256 -0.299086 9.587170
v -0.836370 0.722180 8.624210
v -0.747088 -0.608652 8.828298
v -0.967623 0.136791 8.498811
v -2.153589 0.334943 7.884670
v -2.236094 0.130595 7.927382
v -2.143749 -0.096258 7.895957
v -1.816815 0.333793 7.536144
v -1.779946 0.133806 7.448103
v -1.810183 -0.097398 7.543433
v -3.052454 0.006653 6.890481
v -2.867389 0.128855 6.672184
v -3.057681 0.235692 6.884485
v -2.883451 0.006048 6.722819
v -2.886973 0.235081 6.718948
v -3.101505 0.127149 6.907173
v -2.068107 -0.102449 7.989134
v -2.158665 0.130801 8.026436
v -1.729447 0.134104 7.518506
v -1.753747 -0.103621 7.615934
v -2.078678 0.340914 7.978441
v -1.760851 0.339732 7.609048
v -2.306240 0.130455 7.852815
v -2.225307 0.330912 7.810916
v -1.894651 0.329784 7.468326
v -1.858484 0.133605 7.381961
v -1.888146 -0.093198 7.475475
v -2.215653 -0.092080 7.821990
v -3.208795 0.130457 6.998554
v -2.812447 0.329861 6.650808
v -2.805939 -0.093278 6.657961
v -3.127831 0.330990 6.956638
v -2.776266 0.133609 6.564411
v -3.118175 -0.092160 6.967716
v -0.555626 0.496306 7.236919
v -0.647732 0.180330 7.197205
v -0.539915 -0.104658 7.157491
v -0.387007 0.367089 9.645859
v -0.476493 0.114102 9.645859
v -0.385742 -0.138886 9.645859
vn 0.2860 0.9322 0.2218
vn 0.2140 -0.8924 0.3973
vn 0.2648 -0.9637 -0.0336
vn 0.9356 -0.3414 -0.0902
vn 0.9525 0.2896 -0.0948
vn 0.1928 0.9791 0.0643
vn 0.2121 -0.8847 -0.4151
vn 0.8795 -0.4399 -0.1816
vn 0.9245 0.3300 -0.1909
vn 0.1617 0.9457 -0.2818
vn 0.3338 0.1598 0.9290
vn 0.1622 0.7211 0.6736
vn 0.3805 -0.1365 0.9147
vn 0.3350 -0.8711 0.3591
vn 0.9186 -0.0921 0.3843
vn 0.7254 -0.3672 0.5822
vn -0.0565 0.9801 0.1905
vn 0.9223 -0.3849 0.0341
vn 0.9870 -0.1285 0.0969
vn -0.6688 0.0093 -0.7433
vn 0.7296 -0.3761 0.5711
vn -0.7340 -0.3205 -0.5988
vn 0.0480 0.9979 -0.0445
vn 0.7272 0.4037 0.5552
vn -0.7519 0.3768 -0.5410
vn 0.0396 -0.9986 -0.0342
vn 0.7494 -0.1663 -0.6409
vn 0.6431 -0.1580 -0.7493
vn 0.6958 0.0312 -0.7176
vn 0.6433 0.1011 -0.7589
vn 0.7592 0.1399 -0.6357
vn 0.7018 -0.0859 -0.7071
vn 0.1915 -0.9773 0.0905
vn -0.7495 0.3593 -0.5560
vn 0.7763 0.4057 0.4825
vn 0.2397 0.9480 -0.2092
vn -0.7739 -0.1072 -0.6242
vn 0.7300 -0.3748 0.5714
vn 0.0264 0.9992 -0.0288
vn -0.5987 -0.3710 -0.7098
vn 0.6779 -0.3644 0.6384
vn 0.0311 -0.9992 -0.0262
vn -0.5856 0.4146 -0.6966
vn 0.6677 0.4007 0.6274
vn -0.0016 1.0000 -0.0017
vn -0.6187 -0.3673 -0.6945
vn 0.6425 -0.3556 0.6788
vn 0.0017 -1.0000 0.0019
vn -0.6063 0.4114 -0.6806
vn 0.6317 0.3945 0.6674
vn -0.0074 0.1401 -0.9901
vn 0.0032 0.1368 -0.9906
vn 0.0007 0.1355 -0.9908
vn 0.0029 0.1255 -0.9921
vn -0.4230 0.0712 0.9033
vn -0.6496 -0.2298 0.7247
vn -0.6516 0.2337 0.7217
vn -0.0417 -0.5520 0.8328
vn -0.2066 0.9187 0.3365
vn -0.2013 -0.9046 0.3758
vn -0.2327 -0.9709 -0.0567
vn -0.8847 -0.4425 -0.1468
vn -0.9525 0.2896 -0.0948
vn -0.1928 0.9791 0.0643
vn -0.2121 -0.8847 -0.4151
vn -0.8795 -0.4399 -0.1816
vn -0.9300 0.2634 -0.2562
vn -0.0698 0.9858 -0.1528
vn -0.3338 0.1598 0.9290
vn -0.1622 0.7211 0.6735
vn -0.3493 -0.1520 0.9246
vn -0.0876 -0.8260 0.5569
vn -0.9186 -0.0921 0.3843
vn -0.8441 -0.3245 0.4268
vn -0.1711 0.9794 0.1074
vn -0.9223 -0.3849 0.0341
vn -0.9870 -0.1285 0.0969
vn -0.9892 -0.1108 0.0965
vn -0.7317 -0.3751 0.5691
vn 0.7340 -0.3204 -0.5988
vn -0.0480 0.9979 -0.0445
vn -0.7272 0.4037 0.5552
vn 0.7229 0.3679 -0.5849
vn -0.0548 -0.9976 -0.0430
vn -0.7494 -0.1663 -0.6409
vn -0.6431 -0.1580 -0.7493
vn -0.6958 0.0312 -0.7176
vn -0.6433 0.1011 -0.7589
vn -0.7592 0.1399 -0.6357
vn -0.7018 -0.0859 -0.7071
vn -0.1915 -0.9773 0.0905
vn 0.7611 -0.0279 -0.6480
vn -0.7866 0.0570 0.6148
vn -0.3649 0.9269 0.0879
vn 0.7739 -0.1072 -0.6242
vn -0.7357 -0.3606 0.5733
vn -0.0264 0.9992 -0.0288
vn 0.5988 -0.3710 -0.7098
vn -0.6779 -0.3644 0.6384
vn -0.0310 -0.9992 -0.0261
vn 0.5856 0.4146 -0.6966
vn -0.6677 0.4007 0.6274
vn 0.0016 1.0000 -0.0017
vn 0.6187 -0.3673 -0.6945
vn -0.6425 -0.3556 0.6788
vn -0.0015 -1.0000 0.0018
vn 0.6063 0.4114 -0.6806
vn -0.6317 0.3945 0.6674
vn 0.0106 0.1330 -0.9911
vn -0.0032 0.1368 -0.9906
vn -0.0007 0.1355 -0.9908
vn -0.0029 0.1255 -0.9921
vn 0.4230 0.0712 0.9033
vn 0.6496 -0.2298 0.7247
vn 0.6516 0.2337 0.7217
vn 0.0433 -0.5279 0.8482
vn 0.2066 0.9187 0.3365
vn 0.2013 -0.9046 0.3758
vn 0.2327 -0.9709 -0.0567
vn 0.8847 -0.4425 -0.1468
vn 0.9354 0.3339 -0.1161
vn 0.1684 0.9847 0.0443
vn 0.1435 -0.9221 -0.3594
vn 0.8940 -0.3737 -0.2471
vn 0.9300 0.2634 -0.2562
vn 0.0698 0.9858 -0.1528
vn 0.3829 0.1354 0.9138
vn 0.3247 0.8659 0.3805
vn 0.3493 -0.1520 0.9246
vn 0.0876 -0.8260 0.5569
vn 0.4947 0.2602 0.8292
vn 0.8441 -0.3245 0.4268
vn 0.1711 0.9794 0.1074
vn 0.6621 -0.6858 0.3023
vn 0.5075 -0.4695 -0.7225
vn 0.9892 -0.1108 0.0965
vn 0.7317 -0.3751 0.5691
vn -0.7685 -0.3272 -0.5499
vn 0.0342 0.9988 -0.0363
vn 0.7197 0.4080 0.5617
vn -0.7229 0.3679 -0.5849
vn 0.0548 -0.9976 -0.0430
vn 0.0923 -0.9929 -0.0747
vn -0.7611 -0.0279 -0.6480
vn 0.7866 0.0570 0.6148
vn 0.3649 0.9269 0.0879
vn -0.7651 -0.3096 -0.5646
vn 0.7357 -0.3606 0.5733
vn 0.0265 0.9992 -0.0289
vn 0.0310 -0.9992 -0.0261
vn -0.0018 1.0000 -0.0018
vn 0.0015 -1.0000 0.0018
vn -0.0106 0.1330 -0.9911
vn 0.0005 0.1360 -0.9907
vn -0.3871 0.4133 0.8242
vn -0.0433 -0.5279 0.8482
vn -0.2860 0.9322 0.2218
vn -0.2140 -0.8924 0.3973
vn -0.2648 -0.9637 -0.0336
vn -0.9356 -0.3414 -0.0902
vn -0.9354 0.3339 -0.1161
vn -0.1684 0.9847 0.0443
vn -0.1435 -0.9221 -0.3594
vn -0.8940 -0.3737 -0.2471
vn -0.9245 0.3300 -0.1909
vn -0.1617 0.9457 -0.2818
vn -0.3829 0.1354 0.9138
vn -0.3247 0.8659 0.3805
vn -0.3805 -0.1365 0.9147
vn -0.3350 -0.8711 0.3591
vn -0.4947 0.2602 0.8292
vn -0.7254 -0.3672 0.5822
vn 0.0565 0.9801 0.1905
vn -0.6621 -0.6858 0.3023
vn -0.5075 -0.4695 -0.7225
vn 0.6688 0.0093 -0.7434
vn -0.7296 -0.3761 0.5711
vn 0.7685 -0.3272 -0.5498
vn -0.0342 0.9988 -0.0363
vn -0.7197 0.4080 0.5617
vn 0.7519 0.3768 -0.5410
vn -0.0396 -0.9986 -0.0342
vn -0.0923 -0.9929 -0.0747
vn 0.7495 0.3593 -0.5560
vn -0.7763 0.4057 0.4825
vn -0.2397 0.9480 -0.2092
vn 0.7651 -0.3096 -0.5646
vn -0.7300 -0.3748 0.5714
vn -0.0265 0.9992 -0.0289
vn -0.0311 -0.9992 -0.0262
vn 0.0018 1.0000 -0.0018
vn -0.0017 -1.0000 0.0019
vn 0.0074 0.1401 -0.9901
vn -0.0005 0.1360 -0.9907
vn 0.3871 0.4133 0.8242
vn 0.0417 -0.5520 0.8328
vt 1.000000 0.828637
vt 0.875000 1.000000
vt 0.875000 0.828637
vt 0.625000 0.828637
vt 0.500000 1.000000
vt 0.500000 0.828637
vt 0.625000 0.500000
vt 0.500000 0.645722
vt 0.500000 0.500000
vt 0.750000 0.500000
vt 0.625000 0.645722
vt 0.875000 0.645722
vt 0.875000 0.500000
vt 1.000000 0.645722
vt 1.000000 0.500000
vt 0.750000 0.828637
vt 0.750000 0.645722
vt 0.750000 1.000000
vt 1.000000 1.000000
vt 0.625000 1.000000
vt 0.844268 0.965118
vt 0.749520 0.964446
vt 0.653402 0.965669
vt 0.647775 0.863148
vt 0.750840 0.864057
vt 0.844587 0.863513
vt 0.749520 0.964446
vt 0.750840 0.864057
vt 0.647775 0.863149
vt 0.844267 0.965117
vt 0.844587 0.863513
vt 0.653402 0.965669
vt 0.750840 0.864057
vt 0.749520 0.964446
vt 0.653402 0.965669
vt 0.844587 0.863513
vt 0.653402 0.965669
vt 0.749520 0.964446
vt 0.750840 0.864057
vt 0.844268 0.965117
s 0
usemtl shirt
f 16/1/1 27/2/1 29/3/1
f 30/4/2 10/5/2 20/6/2
f 7/7/3 15/8/3 9/9/3
f 5/10/4 14/11/4 7/7/4
f 12/12/5 5/10/5 3/13/5
f 11/14/6 3/13/6 1/15/6
f 30/4/7 15/8/7 14/11/7
f 31/16/8 14/11/8 13/17/8
f 12/12/9 31/16/9 13/17/9
f 11/14/10 29/3/10 12/12/10
f 27/2/11 23/18/11 26/18/11
f 2/19/12 22/2/12 27/2/12
f 28/20/13 23/18/13 24/20/13
f 10/5/14 24/20/14 25/5/14
f 4/21/15 26/18/15 6/22/15
f 8/23/16 26/18/16 28/20/16
f 4/21/17 29/3/17 27/2/17
f 8/23/18 30/4/18 19/24/18
f 19/24/19 31/16/19 18/25/19
f 17/26/20 31/16/20 29/3/20
f 45/27/21 34/23/21 33/22/21
f 46/28/22 37/24/22 47/29/22
f 48/30/23 35/26/23 49/31/23
f 45/27/24 32/21/24 48/30/24
f 46/28/25 35/26/25 36/25/25
f 44/32/26 37/24/26 34/23/26
f 60/33/27 41/24/27 58/24/27
f 56/34/28 38/35/28 43/34/28
f 59/30/29 42/26/29 57/26/29
f 56/34/30 40/30/30 59/30/30
f 60/33/31 42/26/31 39/33/31
f 61/35/32 41/24/32 38/35/32
f 19/24/33 44/32/33 8/23/33
f 18/25/34 49/31/34 46/28/34
f 4/21/35 45/27/35 48/30/35
f 17/26/36 48/30/36 49/31/36
f 18/25/37 47/29/37 19/24/37
f 6/22/38 44/32/38 45/27/38
f 32/21/39 52/36/39 35/26/39
f 36/25/40 54/29/40 37/24/40
f 33/22/41 55/37/41 50/38/41
f 34/23/42 54/29/42 55/37/42
f 36/25/43 52/36/43 53/39/43
f 33/22/44 51/40/44 32/21/44
f 51/40/45 57/26/45 52/36/45
f 53/39/46 58/24/46 54/29/46
f 50/38/47 61/35/47 56/34/47
f 55/37/48 58/24/48 61/35/48
f 53/39/49 57/26/49 60/33/49
f 50/38/50 59/30/50 51/40/50
f 1/15/51 63/13/51 62/15/51
f 5/10/52 65/7/52 64/10/52
f 9/9/53 65/7/53 7/7/53
f 5/10/54 63/13/54 3/13/54
f 24/20/55 71/5/55 25/5/55
f 23/18/56 68/2/56 69/18/56
f 23/18/57 70/20/57 24/20/57
f 22/2/58 67/19/58 68/2/58
f 16/1/59 88/2/59 2/19/59
f 91/4/60 10/5/60 89/20/60
f 76/7/61 15/8/61 80/11/61
f 74/10/62 80/11/62 79/17/62
f 74/10/63 78/12/63 72/13/63
f 72/13/64 11/14/64 1/15/64
f 15/8/65 91/4/65 80/11/65
f 80/11/66 92/16/66 79/17/66
f 78/12/67 92/16/67 90/3/67
f 11/14/68 90/3/68 16/1/68
f 85/18/69 88/2/69 87/18/69
f 84/2/70 2/19/70 88/2/70
f 89/20/71 85/18/71 87/18/71
f 10/5/72 86/20/72 89/20/72
f 87/18/73 73/21/73 75/22/73
f 77/23/74 87/18/74 75/22/74
f 73/21/75 90/3/75 81/26/75
f 91/4/76 77/23/76 83/24/76
f 92/16/77 83/24/77 82/25/77
f 81/26/78 92/16/78 82/25/78
f 106/27/79 95/23/79 105/32/79
f 98/24/80 107/28/80 108/29/80
f 96/26/81 109/30/81 110/31/81
f 93/21/82 106/27/82 109/30/82
f 107/28/83 96/26/83 110/31/83
f 105/32/84 98/24/84 108/29/84
f 102/24/85 121/33/85 119/24/85
f 117/34/86 99/35/86 122/35/86
f 103/26/87 120/30/87 118/26/87
f 101/30/88 117/34/88 120/30/88
f 121/33/89 103/26/89 118/26/89
f 122/35/90 102/24/90 119/24/90
f 105/32/91 83/24/91 77/23/91
f 82/25/92 110/31/92 81/26/92
f 73/21/93 106/27/93 75/22/93
f 81/26/94 109/30/94 73/21/94
f 108/29/95 82/25/95 83/24/95
f 75/22/96 105/32/96 77/23/96
f 113/36/97 93/21/97 96/26/97
f 115/29/98 97/25/98 98/24/98
f 94/22/99 116/37/99 95/23/99
f 95/23/100 115/29/100 98/24/100
f 97/25/101 113/36/101 96/26/101
f 112/40/102 94/22/102 93/21/102
f 118/26/103 112/40/103 113/36/103
f 119/24/104 114/39/104 115/29/104
f 111/38/105 122/35/105 116/37/105
f 116/37/106 119/24/106 115/29/106
f 114/39/107 118/26/107 113/36/107
f 120/30/108 111/38/108 112/40/108
f 1/15/109 123/13/109 72/13/109
f 74/10/110 125/7/110 76/7/110
f 125/7/111 9/9/111 76/7/111
f 123/13/112 74/10/112 72/13/112
f 71/5/113 86/20/113 25/5/113
f 85/18/114 126/2/114 84/2/114
f 128/20/115 85/18/115 86/20/115
f 84/2/116 67/19/116 21/19/116
f 16/1/117 2/19/117 27/2/117
f 30/4/118 28/20/118 10/5/118
f 7/7/119 14/11/119 15/8/119
f 5/10/120 13/17/120 14/11/120
f 12/12/121 13/17/121 5/10/121
f 11/14/122 12/12/122 3/13/122
f 30/4/123 20/6/123 15/8/123
f 31/16/124 30/4/124 14/11/124
f 12/12/125 29/3/125 31/16/125
f 11/14/126 16/1/126 29/3/126
f 27/2/127 22/2/127 23/18/127
f 2/19/128 21/19/128 22/2/128
f 28/20/129 26/18/129 23/18/129
f 10/5/130 28/20/130 24/20/130
f 4/21/131 27/2/131 26/18/131
f 8/23/132 6/22/132 26/18/132
f 4/21/133 17/26/133 29/3/133
f 8/23/134 28/20/134 30/4/134
f 19/24/135 30/4/135 31/16/135
f 17/26/136 18/25/136 31/16/136
f 45/27/137 44/32/137 34/23/137
f 46/28/138 36/25/138 37/24/138
f 48/30/139 32/21/139 35/26/139
f 45/27/140 33/22/140 32/21/140
f 46/28/141 49/31/141 35/26/141
f 44/32/142 47/29/142 37/24/142
f 60/33/27 39/33/27 41/24/27
f 56/34/28 61/35/28 38/35/28
f 59/30/29 40/30/29 42/26/29
f 56/34/30 43/34/30 40/30/30
f 60/33/31 57/26/31 42/26/31
f 61/35/32 58/24/32 41/24/32
f 19/24/143 47/29/143 44/32/143
f 18/25/144 17/26/144 49/31/144
f 4/21/145 6/22/145 45/27/145
f 17/26/146 4/21/146 48/30/146
f 18/25/147 46/28/147 47/29/147
f 6/22/148 8/23/148 44/32/148
f 32/21/149 51/40/149 52/36/149
f 36/25/40 53/39/40 54/29/40
f 33/22/41 34/23/41 55/37/41
f 34/23/150 37/24/150 54/29/150
f 36/25/43 35/26/43 52/36/43
f 33/22/44 50/38/44 51/40/44
f 51/40/151 59/30/151 57/26/151
f 53/39/46 60/33/46 58/24/46
f 50/38/47 55/37/47 61/35/47
f 55/37/152 54/29/152 58/24/152
f 53/39/49 52/36/49 57/26/49
f 50/38/50 56/34/50 59/30/50
f 1/15/153 3/13/153 63/13/153
f 5/10/52 7/7/52 65/7/52
f 9/9/154 66/9/154 65/7/154
f 5/10/54 64/10/54 63/13/54
f 24/20/155 70/20/155 71/5/155
f 23/18/56 22/2/56 68/2/56
f 23/18/57 69/18/57 70/20/57
f 22/2/156 21/19/156 67/19/156
f 16/1/157 90/3/157 88/2/157
f 91/4/158 20/6/158 10/5/158
f 76/7/159 9/9/159 15/8/159
f 74/10/160 76/7/160 80/11/160
f 74/10/161 79/17/161 78/12/161
f 72/13/162 78/12/162 11/14/162
f 15/8/163 20/6/163 91/4/163
f 80/11/164 91/4/164 92/16/164
f 78/12/165 79/17/165 92/16/165
f 11/14/166 78/12/166 90/3/166
f 85/18/167 84/2/167 88/2/167
f 84/2/168 21/19/168 2/19/168
f 89/20/169 86/20/169 85/18/169
f 10/5/170 25/5/170 86/20/170
f 87/18/171 88/2/171 73/21/171
f 77/23/172 89/20/172 87/18/172
f 73/21/173 88/2/173 90/3/173
f 91/4/174 89/20/174 77/23/174
f 92/16/175 91/4/175 83/24/175
f 81/26/176 90/3/176 92/16/176
f 106/27/177 94/22/177 95/23/177
f 98/24/178 97/25/178 107/28/178
f 96/26/179 93/21/179 109/30/179
f 93/21/180 94/22/180 106/27/180
f 107/28/181 97/25/181 96/26/181
f 105/32/182 95/23/182 98/24/182
f 102/24/85 100/33/85 121/33/85
f 117/34/86 104/34/86 99/35/86
f 103/26/87 101/30/87 120/30/87
f 101/30/88 104/34/88 117/34/88
f 121/33/89 100/33/89 103/26/89
f 122/35/90 99/35/90 102/24/90
f 105/32/183 108/29/183 83/24/183
f 82/25/184 107/28/184 110/31/184
f 73/21/185 109/30/185 106/27/185
f 81/26/186 110/31/186 109/30/186
f 108/29/187 107/28/187 82/25/187
f 75/22/188 106/27/188 105/32/188
f 113/36/189 112/40/189 93/21/189
f 115/29/98 114/39/98 97/25/98
f 94/22/99 111/38/99 116/37/99
f 95/23/190 116/37/190 115/29/190
f 97/25/101 114/39/101 113/36/101
f 112/40/102 111/38/102 94/22/102
f 118/26/191 120/30/191 112/40/191
f 119/24/104 121/33/104 114/39/104
f 111/38/105 117/34/105 122/35/105
f 116/37/192 122/35/192 119/24/192
f 114/39/107 121/33/107 118/26/107
f 120/30/108 117/34/108 111/38/108
f 1/15/193 62/15/193 123/13/193
f 74/10/110 124/10/110 125/7/110
f 125/7/194 66/9/194 9/9/194
f 123/13/112 124/10/112 74/10/112
f 71/5/195 128/20/195 86/20/195
f 85/18/114 127/18/114 126/2/114
f 128/20/115 127/18/115 85/18/115
f 84/2/196 126/2/196 67/19/196
