# Blender 5.0.0
# www.blender.org
mtllib shirt4.mtl
o shirt4
v -0.000000 0.972162 7.300061
v -0.000000 0.690547 9.587168
v 0.819534 0.812730 7.269935
v 1.097575 0.597941 9.340844
v 0.988212 0.234066 7.197205
v 0.958816 0.134014 9.561376
v 0.790762 -0.287846 7.124474
v 0.895945 -0.198389 9.433015
v -0.000000 -0.504029 7.094348
v -0.000000 -0.594469 9.262534
v -0.000000 0.892686 8.038184
v 0.788797 0.724155 8.038185
v 0.957624 0.133137 8.038185
v 0.742655 -0.403945 8.038185
v -0.000000 -0.626412 8.038185
v -0.000000 0.859230 9.126611
v 1.036867 0.706957 8.443620
v 0.962294 0.138720 8.555681
v 0.894599 -0.265694 8.709052
v -0.000000 -0.572989 8.903592
v -0.000000 0.606191 9.779139
v 0.429895 0.472062 9.717586
v 0.556226 0.114908 9.717586
v 0.428109 -0.242247 9.717585
v -0.000000 -0.364186 9.700577
v 0.955312 0.136791 9.570416
v 0.721256 0.528356 9.587168
v 0.721256 -0.299084 9.587169
v 0.836370 0.722180 8.624210
v 0.747087 -0.427372 8.828299
v 0.967623 0.136791 8.498810
v 2.153589 0.334944 7.884668
v 2.236094 0.130595 7.927381
v 2.143749 -0.096258 7.895956
v 1.816815 0.333793 7.536143
v 1.779946 0.133806 7.448102
v 1.810183 -0.097398 7.543431
v 3.132785 0.006652 6.825413
v 2.947720 0.128855 6.607115
v 3.138012 0.235691 6.819417
v 2.963781 0.006047 6.657750
v 2.967304 0.235080 6.653880
v 3.181835 0.127149 6.842104
v 2.068107 -0.102449 7.989133
v 2.158665 0.130802 8.026434
v 1.729447 0.134104 7.518504
v 1.753747 -0.103621 7.615933
v 2.078678 0.340915 7.978440
v 1.760851 0.339732 7.609047
v 2.306240 0.130454 7.852815
v 2.225307 0.330911 7.810916
v 1.894651 0.329783 7.468326
v 1.858484 0.133604 7.381961
v 1.888146 -0.093198 7.475475
v 2.215653 -0.092080 7.821989
v 3.289126 0.130457 6.933486
v 2.892778 0.329860 6.585738
v 2.886270 -0.093279 6.592892
v 3.208162 0.330989 6.891570
v 2.856597 0.133609 6.499342
v 3.198505 -0.092161 6.902647
v -0.000000 0.462099 9.689459
v 0.387007 0.367090 9.645858
v 0.476493 0.114103 9.645858
v 0.385742 -0.138886 9.645859
v -0.000000 -0.243677 9.681818
v -0.819534 0.812730 7.269935
v -1.097575 0.597941 9.340845
v -0.988212 0.234066 7.197205
v -0.958816 0.134014 9.561377
v -0.790762 -0.287846 7.124474
v -0.895945 -0.198389 9.433016
v -0.788797 0.724155 8.038185
v -0.957624 0.133137 8.038185
v -0.742655 -0.403945 8.038185
v -1.036867 0.706956 8.443621
v -0.962294 0.138720 8.555682
v -0.894599 -0.265694 8.709053
v -0.429896 0.472062 9.717586
v -0.556226 0.114906 9.717586
v -0.428109 -0.242248 9.717586
v -0.955312 0.136791 9.570417
v -0.721256 0.528356 9.587168
v -0.721256 -0.299086 9.587170
v -0.836370 0.722180 8.624210
v -0.747088 -0.427372 8.828299
v -0.967623 0.136791 8.498811
v -2.153589 0.334943 7.884670
v -2.236094 0.130595 7.927382
v -2.143749 -0.096258 7.895957
v -1.816815 0.333793 7.536144
v -1.779946 0.133806 7.448103
v -1.810183 -0.097398 7.543433
v -3.126812 0.006653 6.856448
v -2.941748 0.128855 6.638151
v -3.132040 0.235693 6.850452
v -2.957809 0.006048 6.688786
v -2.961331 0.235081 6.684915
v -3.175863 0.127149 6.873139
v -2.068107 -0.102449 7.989134
v -2.158665 0.130801 8.026436
v -1.729447 0.134104 7.518506
v -1.753747 -0.103621 7.615934
v -2.078678 0.340914 7.978441
v -1.760851 0.339732 7.609048
v -2.306240 0.130455 7.852815
v -2.225307 0.330912 7.810916
v -1.894651 0.329784 7.468326
v -1.858484 0.133605 7.381961
v -1.888146 -0.093198 7.475475
v -2.215653 -0.092080 7.821990
v -3.283154 0.130457 6.964520
v -2.886805 0.329861 6.616775
v -2.880298 -0.093279 6.623927
v -3.202189 0.330990 6.922605
v -2.850625 0.133609 6.530377
v -3.192533 -0.092160 6.933683
v -0.387007 0.367089 9.645859
v -0.476493 0.114102 9.645859
v -0.385742 -0.138886 9.645859
v -0.000000 1.146356 6.658514
v 0.909217 0.969476 6.625091
v 1.096354 0.327488 6.544402
v 0.877297 -0.251537 6.463711
v -0.000000 -0.491378 6.430288
v -0.909217 0.969476 6.625091
v -1.096354 0.327488 6.544402
v -0.877297 -0.251537 6.463711
v -0.000000 0.644203 6.587166
v 0.340732 0.577917 6.574641
v 0.410862 0.337330 6.544401
v 0.328770 0.120339 6.514163
v -0.000000 0.030457 6.501638
v -0.340732 0.577917 6.574641
v -0.410862 0.337330 6.544401
v -0.328770 0.120339 6.514163
vn 0.0016 1.0000 -0.0018
vn -0.1936 0.9468 0.2571
vn -0.7357 -0.3606 0.5733
vn 0.9600 0.2711 0.0697
vn 0.2643 -0.9643 -0.0184
vn -0.7519 0.3768 -0.5410
vn -0.9283 -0.3715 -0.0172
vn -0.1793 0.9833 0.0302
vn 0.0020 0.1373 -0.9905
vn 0.3338 0.1598 0.9290
vn 0.1622 0.7211 0.6736
vn 0.3805 -0.1365 0.9147
vn 0.2275 -0.8619 0.4531
vn 0.9186 -0.0921 0.3843
vn 0.7254 -0.3672 0.5822
vn -0.3649 0.9269 0.0879
vn 0.9870 -0.1285 0.0969
vn -0.6688 0.0093 -0.7433
vn 0.6387 -0.3546 0.6829
vn -0.7296 -0.3761 0.5711
vn 0.0480 0.9979 -0.0445
vn 0.7340 -0.3204 -0.5988
vn 0.0433 -0.5279 0.8482
vn 0.0292 -0.9992 -0.0282
vn -0.6431 -0.1580 -0.7493
vn 0.7763 0.4057 0.4825
vn 0.6958 0.0312 -0.7176
vn 0.7611 -0.0279 -0.6480
vn 0.7739 -0.1072 -0.6242
vn 0.7018 -0.0859 -0.7071
vn 0.1915 -0.9773 0.0905
vn -0.7494 -0.1663 -0.6409
vn -0.7587 -0.6488 0.0589
vn -0.1711 0.9794 0.1074
vn -0.6433 0.1011 -0.7589
vn 0.7229 0.3679 -0.5849
vn 0.0247 0.9992 -0.0307
vn -0.2660 -0.9579 -0.1077
vn 0.6779 -0.3644 0.6384
vn 0.0311 -0.9992 -0.0262
vn -0.9600 0.2711 0.0697
vn -0.6189 0.3921 0.6806
vn -0.0016 1.0000 -0.0017
vn -0.5987 -0.3710 -0.7098
vn -0.3493 -0.1520 0.9246
vn -0.6037 0.4118 -0.6826
vn -0.6677 0.4007 0.6274
vn -0.7739 -0.1072 -0.6242
vn -0.6496 -0.2298 0.7247
vn -0.6516 0.2337 0.7217
vn -0.7272 0.4037 0.5552
vn -0.0828 0.1533 0.9847
vn -0.3075 -0.9364 0.1688
vn -0.0360 0.9987 -0.0348
vn 0.2078 0.9726 0.1047
vn 0.9357 -0.3528 -0.0083
vn 0.6051 -0.3698 -0.7050
vn -0.1968 -0.9786 0.0604
vn 0.2089 0.9778 -0.0137
vn 0.1968 -0.9786 0.0604
vn 0.2860 0.9322 0.2218
vn -0.2066 0.9187 0.3365
vn -0.1622 0.7211 0.6735
vn 0.1853 -0.9809 -0.0587
vn -0.0876 -0.8260 0.5569
vn -0.9186 -0.0921 0.3843
vn -0.8441 -0.3245 0.4268
vn 0.2397 0.9480 -0.2092
vn -0.9870 -0.1285 0.0969
vn -0.9892 -0.1108 0.0965
vn -0.7317 -0.3751 0.5691
vn 0.7296 -0.3761 0.5711
vn -0.0480 0.9979 -0.0445
vn -0.7340 -0.3205 -0.5988
vn -0.0417 -0.5520 0.8328
vn -0.0548 -0.9976 -0.0430
vn 0.6431 -0.1580 -0.7493
vn 0.7587 -0.6488 0.0589
vn -0.6958 0.0312 -0.7176
vn -0.7495 0.3593 -0.5560
vn -0.7592 0.1399 -0.6357
vn -0.7018 -0.0859 -0.7071
vn -0.1915 -0.9773 0.0905
vn 0.7494 -0.1663 -0.6409
vn -0.7866 0.0570 0.6148
vn -0.0565 0.9801 0.1905
vn 0.6433 0.1011 -0.7589
vn 0.7300 -0.3748 0.5714
vn -0.1938 0.9737 0.1200
vn 0.9258 -0.3643 0.1012
vn 0.6279 0.3938 0.6713
vn -0.9691 0.2340 -0.0779
vn -0.6160 -0.3678 -0.6966
vn 0.7592 0.1399 -0.6357
vn -0.0015 -1.0000 0.0018
vn -0.9357 -0.3528 -0.0083
vn -0.6296 -0.3522 0.6925
vn -0.3338 0.1598 0.9290
vn 0.5856 0.4146 -0.6966
vn 0.6677 0.4007 0.6274
vn 0.9613 0.2746 -0.0230
vn 0.9283 -0.3715 -0.0172
vn 0.0828 0.1533 0.9847
vn 0.6496 -0.2298 0.7247
vn 0.6516 0.2337 0.7217
vn 0.7272 0.4037 0.5552
vn 0.3247 0.8659 0.3805
vn 0.0876 -0.8260 0.5569
vn 0.4947 0.2602 0.8292
vn 0.8441 -0.3245 0.4268
vn -0.2576 -0.4103 -0.8748
vn 0.9892 -0.1108 0.0965
vn 0.7317 -0.3751 0.5691
vn 0.0548 -0.9976 -0.0430
vn 0.0923 -0.9929 -0.0747
vn 0.0265 0.9992 -0.0289
vn -0.3247 0.8659 0.3805
vn -0.2275 -0.8619 0.4531
vn -0.4947 0.2602 0.8292
vn -0.7254 -0.3672 0.5822
vn 0.2576 -0.4103 -0.8748
vn 0.6688 0.0093 -0.7434
vn -0.0923 -0.9929 -0.0747
vn -0.0265 0.9992 -0.0289
vn -0.6779 -0.3644 0.6384
vn -0.0311 -0.9992 -0.0262
vn -0.5856 0.4146 -0.6966
vn 0.2660 -0.9579 -0.1077
vn 0.9482 0.2521 0.1932
vn -0.2643 -0.9643 -0.0184
vn -0.0292 -0.9992 -0.0282
vn -0.9482 0.2521 0.1932
vn 0.5988 -0.3710 -0.7098
vn 0.1936 0.9468 0.2571
vn -0.9258 -0.3643 0.1012
vn -0.0007 0.1355 -0.9908
vn 0.0017 -1.0000 0.0019
vn 0.0007 0.1355 -0.9908
vn -0.0018 0.1252 -0.9921
vn 0.0018 0.1252 -0.9921
vn 0.0090 0.1407 -0.9900
vn -0.0020 0.1373 -0.9905
vn -0.0090 0.1407 -0.9900
vn 0.5930 0.4135 -0.6909
vn 0.0018 1.0000 -0.0019
vn -0.7300 -0.3748 0.5714
vn 0.9593 0.2740 0.0678
vn -0.7229 0.3679 -0.5849
vn -0.9280 -0.3722 -0.0162
vn -0.2089 0.9778 -0.0137
vn 0.3829 0.1354 0.9138
vn 0.3493 -0.1520 0.9246
vn -0.2397 0.9480 -0.2092
vn 0.7685 -0.3272 -0.5498
vn 0.0417 -0.5520 0.8328
vn 0.0416 -0.9986 -0.0326
vn 0.7866 0.0570 0.6148
vn 0.7495 0.3593 -0.5560
vn 0.7651 -0.3096 -0.5646
vn -0.5919 -0.7912 0.1539
vn 0.0565 0.9801 0.1905
vn 0.7519 0.3768 -0.5410
vn 0.0360 0.9987 -0.0348
vn -0.2848 -0.9506 -0.1233
vn -0.9593 0.2740 0.0678
vn -0.0018 1.0000 -0.0018
vn -0.3805 -0.1365 0.9147
vn -0.7651 -0.3096 -0.5646
vn -0.7197 0.4080 0.5617
vn -0.0714 0.5487 0.8329
vn -0.1853 -0.9809 -0.0587
vn -0.0247 0.9992 -0.0307
vn 0.1938 0.9737 0.1200
vn 0.9284 -0.3716 0.0017
vn -0.2868 -0.9575 -0.0300
vn 0.1793 0.9833 0.0302
vn 0.2868 -0.9575 -0.0300
vn 0.2066 0.9187 0.3365
vn -0.2860 0.9322 0.2218
vn 0.3075 -0.9364 0.1688
vn 0.3649 0.9269 0.0879
vn -0.7685 -0.3272 -0.5499
vn -0.0433 -0.5279 0.8482
vn 0.5919 -0.7912 0.1539
vn -0.7611 -0.0279 -0.6480
vn -0.7763 0.4057 0.4825
vn 0.1711 0.9794 0.1074
vn 0.7357 -0.3606 0.5733
vn -0.2078 0.9726 0.1047
vn -0.9613 0.2746 -0.0230
vn -0.0017 -1.0000 0.0019
vn -0.9284 -0.3716 0.0017
vn -0.3829 0.1354 0.9138
vn 0.9691 0.2340 -0.0779
vn 0.9280 -0.3722 -0.0162
vn 0.0714 0.5487 0.8329
vn 0.7197 0.4080 0.5617
vn 0.2848 -0.9506 -0.1233
vn -0.0416 -0.9986 -0.0326
vn 0.0015 -1.0000 0.0018
vt 0.844587 0.863513
vt 0.844268 0.965117
vt 0.844587 0.863513
vt 0.875000 0.500000
vt 1.000000 0.500000
vt 0.749520 0.964446
vt 0.653402 0.965669
vt 0.653402 0.965669
vt 0.875000 0.645722
vt 0.750000 0.500000
vt 0.625000 0.500000
vt 0.500000 0.500000
vt 0.750840 0.864057
vt 0.750840 0.864057
vt 0.625000 0.645722
vt 0.750000 0.828637
vt 0.750000 0.645722
vt 1.000000 0.645722
vt 0.875000 0.828637
vt 1.000000 0.828637
vt 0.875000 1.000000
vt 0.750000 1.000000
vt 1.000000 1.000000
vt 0.625000 1.000000
vt 0.500000 1.000000
vt 0.844268 0.965118
vt 0.844267 0.965117
vt 0.647775 0.863148
vt 0.749520 0.964446
vt 0.653402 0.965669
vt 0.749520 0.964446
vt 0.749520 0.964446
vt 0.844587 0.863513
vt 0.647775 0.863149
vt 0.750840 0.864057
vt 0.625000 0.828637
vt 0.653402 0.965669
vt 0.750840 0.864057
vt 0.500000 0.645722
vt 0.500000 0.828637
s 0
usemtl shirt
f 113/1/1 107/2/1 108/3/1
f 67/4/2 121/5/2 126/4/2
f 70/6/3 100/7/3 72/8/3
f 12/9/4 5/10/4 3/4/4
f 7/11/5 125/12/5 124/11/5
f 46/13/6 35/1/6 36/14/6
f 75/15/7 87/16/7 74/17/7
f 11/18/8 85/19/8 16/20/8
f 124/11/9 131/10/9 123/10/9
f 27/21/10 23/22/10 26/22/10
f 2/23/11 22/21/11 27/21/11
f 28/24/12 23/22/12 24/24/12
f 10/25/13 24/24/13 25/25/13
f 4/26/14 26/22/14 6/6/14
f 8/8/15 26/22/15 28/24/15
f 76/1/16 104/27/16 68/26/16
f 19/28/17 31/16/17 18/14/17
f 17/1/18 31/16/18 29/19/18
f 50/29/19 61/30/19 56/31/19
f 89/6/20 90/8/20 101/32/20
f 48/27/21 35/1/21 49/33/21
f 93/28/22 102/13/22 103/34/22
f 79/21/23 62/23/23 21/23/23
f 54/34/24 44/7/24 37/28/24
f 112/31/25 94/30/25 117/30/25
f 4/26/26 45/32/26 48/27/26
f 59/27/27 42/1/27 57/1/27
f 77/14/28 105/33/28 76/1/28
f 103/34/29 77/14/29 78/28/29
f 61/30/30 41/28/30 38/30/30
f 19/28/31 44/7/31 8/8/31
f 97/28/32 116/35/32 114/28/32
f 86/36/33 72/8/33 78/28/33
f 68/26/34 85/19/34 76/1/34
f 96/27/35 112/31/35 115/27/35
f 102/13/36 91/1/36 105/33/36
f 48/27/37 52/3/37 35/1/37
f 9/12/38 75/15/38 71/11/38
f 33/6/39 55/37/39 50/29/39
f 34/8/40 54/34/40 55/37/40
f 69/10/41 73/9/41 67/4/41
f 115/27/42 106/29/42 107/2/42
f 51/2/43 57/1/43 52/3/43
f 36/14/44 54/34/44 37/28/44
f 84/24/45 80/22/45 82/22/45
f 53/38/46 57/1/46 60/35/46
f 107/2/47 89/6/47 88/26/47
f 18/14/48 47/34/48 19/28/48
f 23/22/49 63/21/49 64/22/49
f 23/22/50 65/24/50 24/24/50
f 88/26/51 101/32/51 104/27/51
f 24/24/52 66/25/52 25/25/52
f 86/36/53 10/25/53 84/24/53
f 104/27/54 108/3/54 88/26/54
f 12/9/55 1/5/55 11/18/55
f 13/17/56 7/11/56 5/10/56
f 114/28/57 109/38/57 110/34/57
f 86/36/58 15/39/58 20/40/58
f 11/18/59 29/19/59 12/9/59
f 15/39/60 30/36/60 20/40/60
f 16/20/61 27/21/61 29/19/61
f 16/20/62 83/21/62 2/23/62
f 79/21/63 2/23/63 83/21/63
f 30/36/64 10/25/64 20/40/64
f 10/25/65 81/24/65 84/24/65
f 82/22/66 68/26/66 70/6/66
f 72/8/67 82/22/67 70/6/67
f 17/1/68 48/27/68 49/33/68
f 87/16/69 78/28/69 77/14/69
f 76/1/70 87/16/70 77/14/70
f 101/32/71 90/8/71 100/7/71
f 34/8/72 33/6/72 45/32/72
f 91/1/73 104/27/73 105/33/73
f 46/13/74 37/28/74 47/34/74
f 22/21/75 62/23/75 63/21/75
f 100/7/76 93/28/76 103/34/76
f 56/31/77 38/30/77 43/31/77
f 8/8/78 30/36/78 19/28/78
f 98/1/79 115/27/79 113/1/79
f 18/14/80 49/33/80 46/13/80
f 116/35/81 98/1/81 113/1/81
f 117/30/82 97/28/82 114/28/82
f 100/7/83 78/28/83 72/8/83
f 60/35/84 41/28/84 58/28/84
f 68/26/85 101/32/85 70/6/85
f 4/26/86 29/19/86 27/21/86
f 56/31/87 40/27/87 59/27/87
f 6/6/88 44/7/88 45/32/88
f 73/9/89 1/5/89 67/4/89
f 124/11/90 5/10/90 7/11/90
f 50/29/91 59/27/91 51/2/91
f 73/9/92 87/16/92 85/19/92
f 53/38/93 58/28/93 54/34/93
f 60/35/94 42/1/94 39/35/94
f 111/37/95 114/28/95 110/34/95
f 71/11/96 74/17/96 69/10/96
f 106/29/97 117/30/97 111/37/97
f 80/22/98 83/21/98 82/22/98
f 92/14/99 108/3/99 91/1/99
f 33/6/100 51/2/100 32/26/100
f 12/9/101 31/16/101 13/17/101
f 31/16/102 14/15/102 13/17/102
f 66/25/103 81/24/103 25/25/103
f 80/22/104 118/21/104 79/21/104
f 120/24/105 80/22/105 81/24/105
f 45/32/106 32/26/106 48/27/106
f 2/23/107 21/23/107 22/21/107
f 10/25/108 28/24/108 24/24/108
f 4/26/109 27/21/109 26/22/109
f 8/8/110 6/6/110 26/22/110
f 19/28/111 30/36/111 31/16/111
f 17/1/112 18/14/112 31/16/112
f 45/32/113 44/7/113 34/8/113
f 44/7/114 47/34/114 37/28/114
f 59/27/27 40/27/27 42/1/27
f 61/30/30 58/28/30 41/28/30
f 19/28/115 47/34/115 44/7/115
f 32/26/116 51/2/116 52/3/116
f 23/22/49 22/21/49 63/21/49
f 23/22/50 64/22/50 65/24/50
f 79/21/117 21/23/117 2/23/117
f 10/25/118 25/25/118 81/24/118
f 82/22/119 83/21/119 68/26/119
f 72/8/120 84/24/120 82/22/120
f 87/16/121 86/36/121 78/28/121
f 76/1/122 85/19/122 87/16/122
f 98/1/79 96/27/79 115/27/79
f 117/30/82 94/30/82 97/28/82
f 100/7/123 103/34/123 78/28/123
f 108/3/124 107/2/124 88/26/124
f 89/6/125 106/29/125 111/37/125
f 90/8/126 111/37/126 110/34/126
f 80/22/104 119/22/104 118/21/104
f 120/24/105 119/22/105 80/22/105
f 36/14/127 52/3/127 53/38/127
f 14/15/128 9/12/128 7/11/128
f 123/10/129 3/4/129 5/10/129
f 71/11/130 125/12/130 9/12/130
f 100/7/131 110/34/131 93/28/131
f 67/4/132 127/10/132 69/10/132
f 110/34/133 92/14/133 93/28/133
f 3/4/134 121/5/134 1/5/134
f 69/10/135 128/11/135 71/11/135
f 125/12/136 136/11/136 133/12/136
f 55/37/137 58/28/137 61/30/137
f 125/12/138 132/11/138 124/11/138
f 127/10/139 134/4/139 135/10/139
f 123/10/140 130/4/140 122/4/140
f 121/5/141 134/4/141 126/4/141
f 128/11/142 135/10/142 136/11/142
f 121/5/143 130/4/143 129/5/143
f 125/12/136 128/11/136 136/11/136
f 125/12/138 133/12/138 132/11/138
f 121/5/141 129/5/141 134/4/141
f 121/5/143 122/4/143 130/4/143
f 109/38/144 113/1/144 108/3/144
f 113/1/145 115/27/145 107/2/145
f 67/4/2 1/5/2 121/5/2
f 70/6/146 101/32/146 100/7/146
f 12/9/147 13/17/147 5/10/147
f 7/11/5 9/12/5 125/12/5
f 46/13/148 49/33/148 35/1/148
f 75/15/149 86/36/149 87/16/149
f 11/18/150 73/9/150 85/19/150
f 124/11/9 132/11/9 131/10/9
f 27/21/151 22/21/151 23/22/151
f 28/24/152 26/22/152 23/22/152
f 76/1/153 105/33/153 104/27/153
f 50/29/19 55/37/19 61/30/19
f 89/6/125 111/37/125 90/8/125
f 93/28/154 92/14/154 102/13/154
f 79/21/155 118/21/155 62/23/155
f 54/34/156 34/8/156 44/7/156
f 112/31/25 99/31/25 94/30/25
f 4/26/157 6/6/157 45/32/157
f 77/14/158 102/13/158 105/33/158
f 103/34/159 102/13/159 77/14/159
f 97/28/32 95/35/32 116/35/32
f 86/36/160 84/24/160 72/8/160
f 68/26/161 83/21/161 85/19/161
f 96/27/35 99/31/35 112/31/35
f 102/13/162 92/14/162 91/1/162
f 48/27/163 32/26/163 52/3/163
f 9/12/164 15/39/164 75/15/164
f 69/10/165 74/17/165 73/9/165
f 115/27/42 112/31/42 106/29/42
f 51/2/166 59/27/166 57/1/166
f 36/14/44 53/38/44 54/34/44
f 84/24/167 81/24/167 80/22/167
f 53/38/46 52/3/46 57/1/46
f 107/2/47 106/29/47 89/6/47
f 18/14/168 46/13/168 47/34/168
f 88/26/169 89/6/169 101/32/169
f 24/24/170 65/24/170 66/25/170
f 86/36/171 20/40/171 10/25/171
f 104/27/172 91/1/172 108/3/172
f 12/9/173 3/4/173 1/5/173
f 13/17/174 14/15/174 7/11/174
f 114/28/57 116/35/57 109/38/57
f 86/36/175 75/15/175 15/39/175
f 11/18/176 16/20/176 29/19/176
f 15/39/177 14/15/177 30/36/177
f 16/20/178 2/23/178 27/21/178
f 16/20/179 85/19/179 83/21/179
f 30/36/180 28/24/180 10/25/180
f 17/1/181 4/26/181 48/27/181
f 34/8/39 55/37/39 33/6/39
f 46/13/182 36/14/182 37/28/182
f 22/21/183 21/23/183 62/23/183
f 56/31/77 61/30/77 38/30/77
f 8/8/184 28/24/184 30/36/184
f 18/14/185 17/1/185 49/33/185
f 116/35/81 95/35/81 98/1/81
f 60/35/84 39/35/84 41/28/84
f 68/26/186 104/27/186 101/32/186
f 4/26/187 17/1/187 29/19/187
f 56/31/87 43/31/87 40/27/87
f 6/6/188 8/8/188 44/7/188
f 73/9/189 11/18/189 1/5/189
f 124/11/90 123/10/90 5/10/90
f 50/29/91 56/31/91 59/27/91
f 73/9/190 74/17/190 87/16/190
f 53/38/93 60/35/93 58/28/93
f 60/35/94 57/1/94 42/1/94
f 111/37/191 117/30/191 114/28/191
f 71/11/192 75/15/192 74/17/192
f 106/29/97 112/31/97 117/30/97
f 80/22/193 79/21/193 83/21/193
f 92/14/99 109/38/99 108/3/99
f 33/6/100 50/29/100 51/2/100
f 12/9/194 29/19/194 31/16/194
f 31/16/195 30/36/195 14/15/195
f 66/25/196 120/24/196 81/24/196
f 45/32/197 33/6/197 32/26/197
f 36/14/127 35/1/127 52/3/127
f 14/15/198 15/39/198 9/12/198
f 123/10/129 122/4/129 3/4/129
f 71/11/130 128/11/130 125/12/130
f 100/7/199 90/8/199 110/34/199
f 67/4/132 126/4/132 127/10/132
f 110/34/133 109/38/133 92/14/133
f 3/4/134 122/4/134 121/5/134
f 69/10/135 127/10/135 128/11/135
f 55/37/200 54/34/200 58/28/200
f 127/10/139 126/4/139 134/4/139
f 123/10/140 131/10/140 130/4/140
f 128/11/142 127/10/142 135/10/142
f 109/38/144 116/35/144 113/1/144
