# Blender 5.0.0
# www.blender.org
mtllib tee.mtl
o shirt1
v -0.000000 0.740633 7.269110
v -0.000000 0.690547 9.587168
v 0.624852 0.619074 7.246140
v 0.917839 0.513613 9.431558
v 0.753460 0.177873 7.190686
v 0.958816 0.134014 9.561376
v 0.602915 -0.220057 7.135233
v 0.895945 -0.198389 9.433015
v -0.000000 -0.384886 7.112265
v -0.000000 -0.530898 9.262535
v -0.000000 0.690547 8.038185
v 0.718687 0.567678 8.038185
v 0.872508 0.136791 8.038185
v 0.676646 -0.254775 8.038185
v -0.000000 -0.416966 8.038185
v -0.000000 0.784047 9.126611
v 0.927315 0.541010 8.691714
v 0.962294 0.138720 8.555681
v 0.894599 -0.265694 8.709052
v -0.000000 -0.670854 8.903591
v -0.000000 0.606191 9.779139
v 0.429895 0.472062 9.717586
v 0.556226 0.114908 9.717586
v 0.428109 -0.242247 9.717585
v -0.000000 -0.390186 9.535972
v 0.955312 0.136791 9.570416
v 0.721256 0.547825 9.587168
v 0.721256 -0.254775 9.587169
v 0.894479 0.568573 8.621943
v 0.747087 -0.525237 8.828298
v 0.967623 0.136791 8.498810
v 1.485346 0.286698 8.625578
v 1.251052 0.130224 8.265495
v 1.477111 -0.048752 8.632648
v 1.255890 0.295778 8.339039
v 1.265677 -0.071480 8.344244
v 1.540053 0.127726 8.664822
v -0.000000 0.583363 7.246852
v 0.555626 0.496307 7.230401
v 0.647732 0.180329 7.190687
v 0.539915 -0.104658 7.150973
v -0.000000 -0.222704 7.134522
v -0.000000 0.462099 9.689459
v 0.387007 0.367090 9.645858
v 0.476493 0.114103 9.645858
v 0.385742 -0.138886 9.645859
v -0.000000 -0.243677 9.517213
v 1.629732 0.132015 8.768614
v 1.202397 -0.238247 8.269322
v 1.187154 0.491701 8.261214
v 1.531700 -0.202848 8.718502
v 1.179619 0.135907 8.146672
v 1.544526 0.477556 8.707494
v -0.624852 0.619074 7.246140
v -0.917839 0.513613 9.431559
v -0.753460 0.177873 7.190686
v -0.958816 0.134014 9.561377
v -0.602915 -0.220057 7.135233
v -0.895945 -0.198389 9.433016
v -0.718687 0.567678 8.038185
v -0.872508 0.136791 8.038185
v -0.676646 -0.254775 8.038185
v -0.927315 0.541010 8.691715
v -0.962294 0.138720 8.555682
v -0.894599 -0.265694 8.709053
v -0.429896 0.472062 9.717586
v -0.556226 0.114906 9.717586
v -0.428109 -0.242248 9.717586
v -0.955312 0.136791 9.570417
v -0.721256 0.547824 9.587168
v -0.721256 -0.254775 9.587170
v -0.894480 0.568573 8.621943
v -0.747088 -0.525237 8.828298
v -0.967623 0.136791 8.498811
v -1.485346 0.286697 8.625579
v -1.251052 0.130224 8.265496
v -1.477111 -0.048752 8.632648
v -1.255890 0.295777 8.339040
v -1.265677 -0.071480 8.344245
v -1.540053 0.127726 8.664823
v -0.555626 0.496307 7.230401
v -0.647732 0.180329 7.190687
v -0.539915 -0.104658 7.150973
v -0.387007 0.367089 9.645859
v -0.476493 0.114102 9.645859
v -0.385742 -0.138886 9.645859
v -1.629732 0.132015 8.768616
v -1.202397 -0.238247 8.269323
v -1.187154 0.491700 8.261215
v -1.531700 -0.202849 8.718504
v -1.179619 0.135906 8.146673
v -1.544526 0.477556 8.707495
vn 0.2703 0.9603 0.0692
vn 0.2132 -0.9103 0.3549
vn 0.2647 -0.9637 -0.0334
vn 0.9356 -0.3415 -0.0895
vn 0.9525 0.2895 -0.0941
vn 0.1928 0.9792 0.0638
vn 0.2198 -0.9168 -0.3334
vn 0.8795 -0.4399 -0.1816
vn 0.9245 0.3300 -0.1909
vn 0.1683 0.9844 -0.0522
vn 0.3346 0.1526 0.9299
vn 0.1370 0.6924 0.7084
vn 0.3972 -0.1425 0.9066
vn 0.1124 -0.8835 0.4547
vn 0.9324 0.2029 0.2990
vn 0.6781 -0.3784 0.6301
vn 0.2011 0.9788 0.0388
vn 0.8769 -0.4787 0.0429
vn 0.9870 -0.1285 0.0969
vn 0.9147 0.1986 -0.3520
vn 0.7351 0.0618 -0.6751
vn 0.7511 -0.1507 -0.6427
vn 0.8444 0.1967 -0.4982
vn 0.7807 0.0259 -0.6244
vn 0.8074 -0.0419 -0.5886
vn 0.8649 -0.1080 -0.4901
vn -0.0074 0.1401 -0.9901
vn 0.0032 0.1368 -0.9906
vn 0.0007 0.1355 -0.9908
vn 0.0029 0.1255 -0.9921
vn -0.4214 0.1152 0.8995
vn -0.6496 -0.2298 0.7247
vn -0.6516 0.2337 0.7217
vn -0.0417 -0.5520 0.8328
vn 0.7266 -0.3049 0.6157
vn -0.8141 -0.0818 -0.5749
vn 0.1034 0.9933 -0.0513
vn 0.7307 0.2902 0.6180
vn -0.8701 0.1676 -0.4635
vn 0.0964 -0.9911 0.0920
vn -0.1904 0.9621 0.1953
vn -0.2016 -0.9204 0.3349
vn -0.2327 -0.9709 -0.0563
vn -0.8848 -0.4426 -0.1457
vn -0.9525 0.2895 -0.0941
vn -0.1928 0.9792 0.0638
vn -0.2198 -0.9168 -0.3334
vn -0.8795 -0.4399 -0.1816
vn -0.9300 0.2375 -0.2804
vn -0.1883 0.9785 -0.0841
vn -0.3346 0.1526 0.9299
vn -0.1370 0.6924 0.7084
vn -0.3492 -0.1693 0.9216
vn -0.1507 -0.8928 0.4245
vn -0.9324 0.2029 0.2990
vn -0.8441 -0.3245 0.4268
vn -0.2011 0.9788 0.0388
vn -0.8769 -0.4787 0.0429
vn -0.9870 -0.1285 0.0969
vn -0.9147 0.1986 -0.3520
vn -0.7351 0.0618 -0.6751
vn -0.7328 -0.1141 -0.6708
vn -0.8809 0.1280 -0.4557
vn -0.7807 0.0259 -0.6244
vn -0.8074 -0.0419 -0.5886
vn -0.8649 -0.1080 -0.4901
vn 0.0106 0.1330 -0.9911
vn -0.0032 0.1368 -0.9906
vn -0.0007 0.1355 -0.9908
vn -0.0029 0.1255 -0.9921
vn 0.4214 0.1152 0.8995
vn 0.6496 -0.2298 0.7247
vn 0.6516 0.2337 0.7217
vn 0.0433 -0.5279 0.8482
vn -0.6929 -0.3700 0.6188
vn 0.8141 -0.0818 -0.5749
vn -0.1012 0.9941 0.0381
vn -0.7307 0.2902 0.6180
vn 0.8463 0.1031 -0.5226
vn -0.0964 -0.9911 0.0920
vn 0.1904 0.9621 0.1953
vn 0.2016 -0.9204 0.3349
vn 0.2327 -0.9709 -0.0563
vn 0.8848 -0.4426 -0.1457
vn 0.9355 0.3340 -0.1152
vn 0.1684 0.9847 0.0440
vn 0.1567 -0.9477 -0.2780
vn 0.8884 -0.4042 -0.2176
vn 0.9300 0.2375 -0.2804
vn 0.1883 0.9785 -0.0841
vn 0.3759 0.1330 0.9171
vn 0.3247 0.8659 0.3805
vn 0.3492 -0.1693 0.9216
vn 0.1507 -0.8928 0.4245
vn 0.6211 0.3246 0.7133
vn 0.8441 -0.3245 0.4268
vn 0.4953 0.8620 0.1074
vn 0.5235 -0.7968 0.3018
vn 0.1409 -0.4783 -0.8668
vn 0.9860 0.1420 0.0876
vn 0.7511 0.0973 -0.6530
vn 0.7328 -0.1141 -0.6708
vn 0.8809 0.1280 -0.4557
vn 0.8073 -0.0419 -0.5886
vn 0.8457 -0.1398 -0.5151
vn -0.0106 0.1330 -0.9911
vn 0.0005 0.1360 -0.9907
vn -0.3871 0.4133 0.8242
vn -0.0433 -0.5279 0.8482
vn 0.6929 -0.3700 0.6188
vn -0.8653 -0.2029 -0.4584
vn 0.1012 0.9941 0.0381
vn 0.7310 0.2895 0.6179
vn -0.8463 0.1031 -0.5226
vn 0.0981 -0.9952 0.0065
vn -0.2703 0.9603 0.0692
vn -0.2132 -0.9103 0.3549
vn -0.2647 -0.9637 -0.0334
vn -0.9356 -0.3415 -0.0895
vn -0.9355 0.3340 -0.1152
vn -0.1684 0.9847 0.0440
vn -0.1567 -0.9477 -0.2780
vn -0.8884 -0.4042 -0.2176
vn -0.9245 0.3300 -0.1909
vn -0.1683 0.9844 -0.0522
vn -0.3759 0.1330 0.9171
vn -0.3247 0.8659 0.3805
vn -0.3972 -0.1425 0.9066
vn -0.1124 -0.8835 0.4547
vn -0.6211 0.3246 0.7133
vn -0.6781 -0.3784 0.6301
vn -0.4954 0.8620 0.1074
vn -0.5235 -0.7968 0.3018
vn -0.1410 -0.4783 -0.8668
vn -0.9860 0.1420 0.0876
vn -0.7511 0.0973 -0.6530
vn -0.7511 -0.1507 -0.6427
vn -0.8444 0.1967 -0.4982
vn -0.8457 -0.1398 -0.5151
vn 0.0074 0.1401 -0.9901
vn -0.0005 0.1360 -0.9907
vn 0.3871 0.4133 0.8242
vn 0.0417 -0.5520 0.8328
vn -0.7266 -0.3049 0.6157
vn 0.8653 -0.2029 -0.4584
vn -0.1034 0.9933 -0.0513
vn -0.7310 0.2896 0.6179
vn 0.8701 0.1676 -0.4635
vn -0.0981 -0.9952 0.0065
vt 1.000000 0.828637
vt 0.875000 1.000000
vt 0.875000 0.828637
vt 0.625000 0.828637
vt 0.500000 1.000000
vt 0.500000 0.828637
vt 0.625000 0.500000
vt 0.500000 0.645722
vt 0.500000 0.500000
vt 0.750000 0.500000
vt 0.625000 0.645722
vt 0.875000 0.645722
vt 0.875000 0.500000
vt 1.000000 0.645722
vt 1.000000 0.500000
vt 0.750000 0.828637
vt 0.750000 0.645722
vt 0.750000 1.000000
vt 1.000000 1.000000
vt 0.625000 1.000000
vt 0.844268 0.965118
vt 0.749520 0.964446
vt 0.653402 0.965669
vt 0.844587 0.863513
vt 0.647775 0.863148
vt 0.750840 0.864057
vt 0.749520 0.964446
vt 0.844267 0.965117
vt 0.653402 0.965669
vt 0.750840 0.864057
vt 0.844587 0.863513
vt 0.647775 0.863148
s 0
usemtl shirt
f 16/1/1 27/2/1 29/3/1
f 30/4/2 10/5/2 20/6/2
f 7/7/3 15/8/3 9/9/3
f 5/10/4 14/11/4 7/7/4
f 12/12/5 5/10/5 3/13/5
f 11/14/6 3/13/6 1/15/6
f 30/4/7 15/8/7 14/11/7
f 31/16/8 14/11/8 13/17/8
f 12/12/9 31/16/9 13/17/9
f 11/14/10 29/3/10 12/12/10
f 27/2/11 23/18/11 26/18/11
f 2/19/12 22/2/12 27/2/12
f 28/20/13 23/18/13 24/20/13
f 10/5/14 24/20/14 25/5/14
f 4/21/15 26/18/15 6/22/15
f 8/23/16 26/18/16 28/20/16
f 17/24/17 27/2/17 4/21/17
f 8/23/18 30/4/18 19/25/18
f 19/25/19 31/16/19 18/26/19
f 18/26/20 29/3/20 17/24/20
f 48/27/21 32/28/21 53/28/21
f 48/27/22 34/29/22 37/27/22
f 52/30/23 35/31/23 33/30/23
f 53/28/24 35/31/24 50/31/24
f 51/29/25 36/32/25 34/29/25
f 52/30/26 36/32/26 49/32/26
f 1/15/27 39/13/27 38/15/27
f 5/10/28 41/7/28 40/10/28
f 9/9/29 41/7/29 7/7/29
f 5/10/30 39/13/30 3/13/30
f 24/20/31 47/5/31 25/5/31
f 23/18/32 44/2/32 45/18/32
f 23/18/33 46/20/33 24/20/33
f 22/2/34 43/19/34 44/2/34
f 6/22/35 51/29/35 48/27/35
f 18/26/36 49/32/36 19/25/36
f 17/24/37 53/28/37 50/31/37
f 6/22/38 53/28/38 4/21/38
f 18/26/39 50/31/39 52/30/39
f 19/25/40 51/29/40 8/23/40
f 16/1/41 70/2/41 2/19/41
f 73/4/42 10/5/42 71/20/42
f 58/7/43 15/8/43 62/11/43
f 56/10/44 62/11/44 61/17/44
f 56/10/45 60/12/45 54/13/45
f 54/13/46 11/14/46 1/15/46
f 15/8/47 73/4/47 62/11/47
f 62/11/48 74/16/48 61/17/48
f 60/12/49 74/16/49 72/3/49
f 11/14/50 72/3/50 16/1/50
f 67/18/51 70/2/51 69/18/51
f 66/2/52 2/19/52 70/2/52
f 71/20/53 67/18/53 69/18/53
f 10/5/54 68/20/54 71/20/54
f 69/18/55 55/21/55 57/22/55
f 59/23/56 69/18/56 57/22/56
f 70/2/57 63/24/57 55/21/57
f 73/4/58 59/23/58 65/25/58
f 74/16/59 65/25/59 64/26/59
f 72/3/60 64/26/60 63/24/60
f 75/28/61 87/27/61 92/28/61
f 87/27/62 77/29/62 90/29/62
f 91/30/63 78/31/63 89/31/63
f 78/31/64 92/28/64 89/31/64
f 90/29/65 79/32/65 88/32/65
f 79/32/66 91/30/66 88/32/66
f 1/15/67 81/13/67 54/13/67
f 56/10/68 83/7/68 58/7/68
f 83/7/69 9/9/69 58/7/69
f 81/13/70 56/10/70 54/13/70
f 47/5/71 68/20/71 25/5/71
f 67/18/72 84/2/72 66/2/72
f 86/20/73 67/18/73 68/20/73
f 66/2/74 43/19/74 21/19/74
f 57/22/75 90/29/75 59/23/75
f 88/32/76 64/26/76 65/25/76
f 63/24/77 92/28/77 55/21/77
f 92/28/78 57/22/78 55/21/78
f 64/26/79 89/31/79 63/24/79
f 90/29/80 65/25/80 59/23/80
f 16/1/81 2/19/81 27/2/81
f 30/4/82 28/20/82 10/5/82
f 7/7/83 14/11/83 15/8/83
f 5/10/84 13/17/84 14/11/84
f 12/12/85 13/17/85 5/10/85
f 11/14/86 12/12/86 3/13/86
f 30/4/87 20/6/87 15/8/87
f 31/16/88 30/4/88 14/11/88
f 12/12/89 29/3/89 31/16/89
f 11/14/90 16/1/90 29/3/90
f 27/2/91 22/2/91 23/18/91
f 2/19/92 21/19/92 22/2/92
f 28/20/93 26/18/93 23/18/93
f 10/5/94 28/20/94 24/20/94
f 4/21/95 27/2/95 26/18/95
f 8/23/96 6/22/96 26/18/96
f 17/24/97 29/3/97 27/2/97
f 8/23/98 28/20/98 30/4/98
f 19/25/99 30/4/99 31/16/99
f 18/26/100 31/16/100 29/3/100
f 48/27/101 37/27/101 32/28/101
f 48/27/102 51/29/102 34/29/102
f 52/30/103 50/31/103 35/31/103
f 53/28/24 32/28/24 35/31/24
f 51/29/104 49/32/104 36/32/104
f 52/30/105 33/30/105 36/32/105
f 1/15/106 3/13/106 39/13/106
f 5/10/28 7/7/28 41/7/28
f 9/9/107 42/9/107 41/7/107
f 5/10/30 40/10/30 39/13/30
f 24/20/108 46/20/108 47/5/108
f 23/18/32 22/2/32 44/2/32
f 23/18/33 45/18/33 46/20/33
f 22/2/109 21/19/109 43/19/109
f 6/22/110 8/23/110 51/29/110
f 18/26/111 52/30/111 49/32/111
f 17/24/112 4/21/112 53/28/112
f 6/22/113 48/27/113 53/28/113
f 18/26/114 17/24/114 50/31/114
f 19/25/115 49/32/115 51/29/115
f 16/1/116 72/3/116 70/2/116
f 73/4/117 20/6/117 10/5/117
f 58/7/118 9/9/118 15/8/118
f 56/10/119 58/7/119 62/11/119
f 56/10/120 61/17/120 60/12/120
f 54/13/121 60/12/121 11/14/121
f 15/8/122 20/6/122 73/4/122
f 62/11/123 73/4/123 74/16/123
f 60/12/124 61/17/124 74/16/124
f 11/14/125 60/12/125 72/3/125
f 67/18/126 66/2/126 70/2/126
f 66/2/127 21/19/127 2/19/127
f 71/20/128 68/20/128 67/18/128
f 10/5/129 25/5/129 68/20/129
f 69/18/130 70/2/130 55/21/130
f 59/23/131 71/20/131 69/18/131
f 70/2/132 72/3/132 63/24/132
f 73/4/133 71/20/133 59/23/133
f 74/16/134 73/4/134 65/25/134
f 72/3/135 74/16/135 64/26/135
f 75/28/136 80/27/136 87/27/136
f 87/27/137 80/27/137 77/29/137
f 91/30/138 76/30/138 78/31/138
f 78/31/64 75/28/64 92/28/64
f 90/29/65 77/29/65 79/32/65
f 79/32/139 76/30/139 91/30/139
f 1/15/140 38/15/140 81/13/140
f 56/10/68 82/10/68 83/7/68
f 83/7/141 42/9/141 9/9/141
f 81/13/70 82/10/70 56/10/70
f 47/5/142 86/20/142 68/20/142
f 67/18/72 85/18/72 84/2/72
f 86/20/73 85/18/73 67/18/73
f 66/2/143 84/2/143 43/19/143
f 57/22/144 87/27/144 90/29/144
f 88/32/145 91/30/145 64/26/145
f 63/24/146 89/31/146 92/28/146
f 92/28/147 87/27/147 57/22/147
f 64/26/148 91/30/148 89/31/148
f 90/29/149 88/32/149 65/25/149
