# Blender 5.0.0
# www.blender.org
mtllib plane.mtl
o Plane.001
v -0.239681 314.154510 0.532271
v -0.026844 235.615875 0.400268
v -0.012783 -390.744385 5.688601
v -314.154510 235.631226 0.446484
v -390.344269 0.007669 6.043134
v -78.538628 -314.154510 -0.000014
v 314.154510 78.327705 0.519487
v 157.077255 78.511787 0.400261
v -389.656311 157.094818 8.213840
v 157.077255 -392.616455 0.193418
v 471.231750 -78.538628 -0.000003
v -235.215210 -157.037704 2.280035
v -235.615875 -78.538628 -0.000003
v 78.551414 -392.444519 1.400779
v 388.766205 -388.566803 0.502916
v 0.000000 -353.212891 0.589963
v -314.134705 274.874969 1.291102
v -274.870483 314.157043 0.438627
v -117.807938 -314.154510 0.464232
v 157.077255 117.463440 3.937573
v -157.077255 -196.346573 -0.000009
v 0.000000 196.346573 0.068138
v 431.962463 0.000000 0.000000
v 314.154510 -429.309998 6.644494
v 431.439270 -313.623535 0.316649
v -196.346573 314.154510 0.000014
v -352.949493 0.003707 1.884960
v 157.077255 -430.505188 3.675257
v 471.035828 -274.682129 0.315039
v -157.077255 -274.885193 0.464233
v -274.863892 -78.535599 1.573635
v 391.804901 -352.490784 0.115739
v 353.423828 -392.399139 0.741486
v 117.807938 78.538628 0.068132
v 38.924816 235.615875 3.937578
v 356.228760 81.132927 0.970719
v -78.538628 -353.347137 0.348169
v -353.192535 196.377243 1.357546
v 39.234161 196.336349 1.100007
v 349.496887 -425.995361 5.106681
v 431.766510 -274.682129 0.315039
v -196.346573 353.423828 0.000015
v -39.278900 353.423828 0.021306
v -196.290482 -196.345367 0.684632
v 431.962463 -39.269314 -0.000002
v 425.791565 -347.223724 0.076991
v 117.797714 117.772781 1.100004
vn -0.0148 -0.0017 0.9999
vn -0.0336 -0.0059 0.9994
vn 0.0569 0.1344 0.9893
vn 0.0116 -0.0019 0.9999
vn 0.1105 -0.0142 0.9938
vn -0.0048 -0.0003 1.0000
vn -0.0022 -0.0080 1.0000
vn -0.0055 -0.0307 0.9995
vn 0.1748 0.0012 0.9846
vn -0.0045 0.0372 0.9993
vn 0.0012 0.0014 1.0000
vn 0.0402 0.0220 0.9989
vn 0.0135 0.0083 0.9999
vn 0.0214 0.0634 0.9978
vn 0.0056 0.0103 0.9999
vn 0.0135 0.0350 0.9993
vn 0.0432 -0.0215 0.9988
vn 0.0107 -0.0053 0.9999
vn 0.0118 0.0118 0.9999
vn -0.0404 -0.0584 0.9975
vn 0.0065 0.0019 1.0000
vn -0.0185 -0.0148 0.9997
vn 0.0031 -0.0020 1.0000
vn 0.0032 0.1478 0.9890
vn -0.0036 -0.0015 1.0000
vn 0.0010 0.0012 1.0000
vn 0.0605 -0.0012 0.9982
vn -0.0195 0.0915 0.9956
vn -0.0000 0.0016 1.0000
vn 0.0093 0.0067 0.9999
vn 0.0400 0.0359 0.9986
vn 0.0008 0.0017 1.0000
vn 0.0038 0.0579 0.9983
vn -0.0155 -0.0178 0.9997
vn -0.0584 -0.0404 0.9975
vn -0.0093 -0.0207 0.9997
vn -0.0031 0.0089 1.0000
vn 0.0600 0.0028 0.9982
vn -0.0263 -0.0446 0.9987
vn 0.0314 0.1252 0.9916
vn -0.0001 0.0002 1.0000
vn -0.0001 -0.0000 1.0000
vn -0.0035 0.0017 1.0000
vn 0.0175 -0.0233 0.9996
vn 0.0021 0.0004 1.0000
vn 0.0023 -0.0075 1.0000
vn -0.0446 -0.0263 0.9987
vt 0.722992 0.200810
vt 0.750223 0.198062
vt 0.752985 0.224722
vt 0.513529 0.647240
vt 0.541342 0.676626
vt 0.512737 0.675703
vt 0.509175 0.242094
vt 0.563676 0.237872
vt 0.511365 0.267932
vt 0.271050 0.496947
vt 0.236273 0.603301
vt 0.245645 0.495659
vt 0.598889 0.563690
vt 0.412691 0.373869
vt 0.626880 0.563498
vt 0.627309 0.591600
vt 0.617256 0.235096
vt 0.615782 0.209312
vt 0.259895 0.634123
vt 0.367944 0.726500
vt 0.510598 0.732786
vt 0.481175 0.760492
vt 0.366287 0.755034
vt 0.311251 0.723082
vt 0.286050 0.664826
vt 0.284417 0.693252
vt 0.541920 0.647803
vt 0.329776 0.444819
vt 0.356773 0.447669
vt 0.361884 0.396373
vt 0.387893 0.373195
vt 0.412466 0.324466
vt 0.461352 0.297338
vt 0.436164 0.298619
vt 0.598891 0.591739
vt 0.737902 0.562074
vt 0.822020 0.477247
vt 0.816433 0.305302
vt 0.822253 0.505755
vt 0.765811 0.562265
vt 0.845398 0.303684
vt 0.850270 0.448206
vt 0.812337 0.247538
vt 0.814601 0.276454
vt 0.783660 0.250080
vt 0.780876 0.221838
vt 0.459716 0.272217
s 1
usemtl Material
f 24/1/24 40/2/40 33/3/33
f 22/4/22 35/5/35 2/6/2
f 3/7/3 14/8/14 16/9/16
f 27/10/27 9/11/9 5/12/5
f 34/13/34 21/14/21 16/9/16
f 34/13/34 8/15/8 20/16/20
f 33/3/33 10/17/10 24/1/24
f 10/17/10 28/18/28 24/1/24
f 27/10/27 38/19/38 9/11/9
f 22/4/22 2/6/2 26/20/26
f 2/6/2 1/21/1 43/22/43
f 26/20/26 2/6/2 43/22/43
f 43/22/43 42/23/42 26/20/26
f 26/20/26 18/24/18 4/25/4
f 18/24/18 17/26/17 4/25/4
f 39/27/39 35/5/35 22/4/22
f 4/25/4 38/19/38 27/10/27
f 27/10/27 31/28/31 13/29/13
f 13/29/13 12/30/12 21/14/21
f 12/30/12 44/31/44 21/14/21
f 21/14/21 30/32/30 6/33/6
f 30/32/30 19/34/19 6/33/6
f 4/25/4 27/10/27 13/29/13
f 22/4/22 26/20/26 4/25/4
f 47/35/47 39/27/39 22/4/22
f 34/13/34 20/16/20 47/35/47
f 7/36/7 8/15/8 45/37/45
f 8/15/8 34/13/34 10/17/10
f 45/37/45 8/15/8 41/38/41
f 23/39/23 36/40/36 7/36/7
f 29/41/29 11/42/11 41/38/41
f 11/42/11 45/37/45 41/38/41
f 45/37/45 23/39/23 7/36/7
f 34/13/34 47/35/47 22/4/22
f 41/38/41 8/15/8 10/17/10
f 46/43/46 25/44/25 32/45/32
f 25/44/25 41/38/41 32/45/32
f 33/3/33 15/46/15 32/45/32
f 34/13/34 22/4/22 13/29/13
f 22/4/22 4/25/4 13/29/13
f 13/29/13 21/14/21 34/13/34
f 6/33/6 37/47/37 16/9/16
f 16/9/16 14/8/14 10/17/10
f 10/17/10 33/3/33 32/45/32
f 32/45/32 41/38/41 10/17/10
f 21/14/21 6/33/6 16/9/16
f 16/9/16 10/17/10 34/13/34
