# Blender 4.5.4 LTS
# www.blender.org
mtllib chocolate-bar.mtl
o Cube
v -2.129588 0.885774 0.001543
v -2.129588 0.885774 0.203477
v 2.129588 0.885774 0.001543
v 2.129588 0.885774 0.203477
v -2.129588 -0.885774 0.001543
v -2.129588 -0.885774 0.203477
v 2.129588 -0.885774 0.001543
v 2.129588 -0.885774 0.203477
v 0.000000 0.885774 0.203477
v 2.129588 -0.000000 0.203477
v -0.000000 -0.885774 0.203477
v -2.129588 0.000000 0.203477
v 0.000000 -0.000000 0.203477
v 1.064794 0.885774 0.203477
v 2.129588 -0.442887 0.203477
v -1.064794 -0.885774 0.203477
v -2.129588 0.442887 0.203477
v -1.064794 0.885774 0.203477
v 2.129588 0.442887 0.203477
v 1.064794 -0.885774 0.203477
v -2.129588 -0.442887 0.203477
v -1.064794 0.000000 0.203477
v 1.064794 -0.000000 0.203477
v -0.000000 -0.442887 0.203477
v 0.000000 0.442887 0.203477
v 1.064794 0.442887 0.203477
v 1.064794 -0.442887 0.203477
v -1.064794 -0.442887 0.203477
v -1.064794 0.442887 0.203477
v 2.086406 -0.867814 0.280615
v 2.086406 -0.460848 0.280615
v 1.107975 -0.867814 0.280615
v 1.107975 -0.460848 0.280615
v 2.094650 -0.014532 0.280615
v 2.094650 -0.428355 0.280615
v 1.099732 -0.014532 0.280615
v 1.099732 -0.428355 0.280615
v 2.088598 0.017049 0.278856
v 2.088598 0.425838 0.278856
v 1.105783 0.017049 0.278856
v 1.105783 0.425838 0.278856
v 2.088859 0.868833 0.280615
v 1.105523 0.868833 0.280615
v 2.088859 0.459828 0.280615
v 1.105523 0.459828 0.280615
v 0.032874 -0.013673 0.282593
v 1.031920 -0.013674 0.282593
v 0.032874 -0.429214 0.282593
v 1.031920 -0.429214 0.282593
v 0.039412 -0.869381 0.282593
v 1.025382 -0.869381 0.282593
v 0.039412 -0.459280 0.282593
v 1.025382 -0.459280 0.282593
v 0.038428 0.015983 0.282593
v 1.026366 0.015983 0.282593
v 0.038428 0.426904 0.282593
v 1.026366 0.426904 0.282593
v 0.049359 0.865244 0.277648
v 1.015435 0.865244 0.277648
v 0.049358 0.463417 0.277648
v 1.015435 0.463417 0.277648
v -0.039528 -0.869333 0.287538
v -1.025266 -0.869333 0.287538
v -0.039528 -0.459328 0.287538
v -1.025266 -0.459328 0.287538
v -0.041740 -0.017361 0.282593
v -1.023054 -0.017361 0.282593
v -0.041740 -0.425526 0.282593
v -1.023054 -0.425526 0.282593
v -0.062032 0.025801 0.282593
v -1.002762 0.025801 0.282593
v -0.062032 0.417086 0.282593
v -1.002762 0.417086 0.282593
v -0.043958 0.867490 0.282593
v -1.020836 0.867490 0.282593
v -0.043958 0.461171 0.282593
v -1.020836 0.461171 0.282593
v -2.086038 -0.867660 0.287538
v -1.108344 -0.867660 0.287538
v -2.086038 -0.461001 0.287538
v -1.108344 -0.461001 0.287538
v -2.087381 -0.017555 0.277648
v -2.087381 -0.425332 0.277648
v -1.107001 -0.017555 0.277648
v -1.107001 -0.425332 0.277648
v -2.075421 0.022530 0.282593
v -2.075421 0.420357 0.282593
v -1.118961 0.022530 0.282593
v -1.118961 0.420357 0.282593
v -2.057104 0.855626 0.287538
v -2.057104 0.473036 0.287538
v -1.137278 0.855626 0.287538
v -1.137278 0.473036 0.287538
vn -0.0000 1.0000 -0.0000
vn 1.0000 -0.0000 -0.0000
vn -0.0000 -1.0000 -0.0000
vn -1.0000 -0.0000 -0.0000
vn -0.0000 -0.0000 -1.0000
vn -0.0000 0.9413 0.3376
vn -0.8691 -0.0000 0.4946
vn -0.9235 -0.0000 0.3837
vn 0.8325 -0.0000 0.5540
vn -0.8995 -0.0000 0.4369
vn -0.0000 0.9754 0.2206
vn -0.0000 0.9767 0.2145
vn -0.8951 -0.0000 0.4459
vn 0.8726 -0.0000 0.4885
vn -0.0000 0.9827 0.1851
vn -0.0000 -0.9776 0.2107
vn -0.0000 0.9814 0.1920
vn 0.8845 -0.0000 0.4666
vn 0.8251 -0.0000 0.5649
vn 0.7869 -0.0000 0.6170
vn 0.8741 -0.0000 0.4857
vn -0.0000 -0.0000 1.0000
vn -0.8726 -0.0000 0.4885
vn -0.0000 -0.9739 0.2268
vn -0.0000 0.9739 0.2268
vn 0.9109 -0.0000 0.4126
vn -0.9109 -0.0000 0.4126
vn -0.0000 -0.9827 0.1851
vn -0.0000 -0.9754 0.2206
vn -0.8785 -0.0000 0.4777
vn 0.8785 -0.0000 0.4777
vn -0.8843 -0.0000 0.4669
vn -0.0000 -0.9767 0.2145
vn 0.8843 -0.0000 0.4669
vn -0.0000 0.9854 0.1703
vn 0.9235 -0.0000 0.3837
vn -0.0000 -0.9854 0.1703
vn 0.8951 -0.0000 0.4459
vn -0.0000 -0.9792 0.2029
vn -0.0000 0.9792 0.2029
vn -0.0000 -0.9802 0.1980
vn 0.8995 -0.0000 0.4369
vn -0.0000 0.9802 0.1980
vn -0.0000 0.9638 0.2668
vn -0.8325 -0.0000 0.5540
vn -0.0000 -0.9638 0.2668
vn -0.0000 -0.9814 0.1920
vn -0.9049 -0.0000 0.4255
vn 0.9049 -0.0000 0.4255
vn -0.0000 -0.9768 0.2143
vn -0.0000 0.9768 0.2143
vn -0.8845 -0.0000 0.4666
vn -0.0000 -0.9507 0.3101
vn -0.7869 -0.0000 0.6170
vn -0.0000 0.9507 0.3100
vn -0.8741 -0.0000 0.4857
vn -0.0000 0.9743 0.2252
vn -0.0000 -0.9743 0.2252
vn 0.8879 -0.0000 0.4600
vn -0.0000 0.9776 0.2107
vn -0.8879 -0.0000 0.4600
vn -0.0000 -0.9731 0.2303
vn -0.0000 0.9731 0.2303
vn 0.8691 -0.0000 0.4946
vn -0.0000 0.9618 0.2739
vn -0.0000 -0.9618 0.2739
vn -0.8251 -0.0000 0.5649
vn -0.7573 -0.0000 0.6530
vn -0.0000 -0.9413 0.3376
vn 0.7573 -0.0000 0.6530
vn -0.0000 -0.9507 0.3100
vt 0.625000 0.125000
vt 0.625000 0.187500
vt 0.375000 0.250000
vt 0.625000 0.375000
vt 0.625000 0.437500
vt 0.375000 0.500000
vt 0.625000 0.625000
vt 0.625000 0.687500
vt 0.375000 0.750000
vt 0.625000 0.875000
vt 0.625000 0.937500
vt 0.375000 1.000000
vt 0.125000 0.750000
vt 0.125000 0.500000
vt 0.625000 0.000000
vt 0.625000 0.062500
vt 0.625000 0.812500
vt 0.687500 0.625000
vt 0.750000 0.625000
vt 0.875000 0.562500
vt 0.812500 0.562500
vt 0.812500 0.625000
vt 0.812500 0.500000
vt 0.625000 0.250000
vt 0.625000 0.500000
vt 0.750000 0.562500
vt 0.750000 0.500000
vt 0.625000 0.750000
vt 0.687500 0.687500
vt 0.812500 0.687500
vt 0.750000 0.687500
vt 0.875000 0.625000
vt 0.687500 0.500000
vt 0.625000 0.562500
vt 0.687500 0.562500
vt 0.625000 0.312500
vt 0.875000 0.500000
vt 0.875000 0.687500
vt 0.687500 0.750000
vt 0.750000 0.750000
vt 0.812500 0.750000
vt 0.625000 1.000000
vt 0.375000 0.000000
vt 0.875000 0.750000
s 0
f 9/1/1 14/2/1 3/3/1
f 10/4/2 15/5/2 7/6/2
f 11/7/3 16/8/3 5/9/3
f 12/10/4 17/11/4 1/12/4
f 7/6/5 1/13/5 3/14/5
f 2/15/6 92/16/6 18/16/6
f 21/17/7 82/10/7 12/10/7
f 24/18/8 46/19/8 13/19/8
f 14/20/9 61/21/9 26/21/9
f 13/19/10 56/22/10 25/22/10
f 26/21/11 39/23/11 19/23/11
f 4/24/12 43/2/12 42/24/12
f 11/7/13 52/18/13 24/18/13
f 8/25/14 31/5/14 30/25/14
f 23/26/15 34/27/15 10/27/15
f 16/8/16 78/28/16 6/28/16
f 28/29/17 64/18/17 24/18/17
f 13/19/18 68/18/18 24/18/18
f 29/30/19 88/31/19 22/31/19
f 25/22/20 70/19/20 13/19/20
f 9/32/21 76/22/21 25/22/21
f 31/33/22 32/34/22 30/25/22
f 20/34/23 33/35/23 27/35/23
f 8/25/24 32/34/24 20/34/24
f 27/35/25 31/33/25 15/33/25
f 34/27/22 37/35/22 35/33/22
f 15/5/26 34/4/26 35/5/26
f 27/35/27 36/26/27 23/26/27
f 15/33/28 37/35/28 27/35/28
f 39/23/22 40/26/22 38/27/22
f 10/27/29 40/26/29 23/26/29
f 23/26/30 41/21/30 26/21/30
f 19/36/31 38/4/31 10/4/31
f 42/37/22 45/21/22 44/23/22
f 26/21/32 43/20/32 14/20/32
f 19/23/33 45/21/33 26/21/33
f 4/24/34 44/36/34 19/36/34
f 47/26/22 48/18/22 49/35/22
f 13/19/35 47/26/35 23/26/35
f 23/26/36 49/35/36 27/35/36
f 27/35/37 48/18/37 24/18/37
f 53/35/22 50/7/22 51/34/22
f 27/35/38 51/34/38 20/34/38
f 20/34/39 50/7/39 11/7/39
f 24/18/40 53/35/40 27/35/40
f 57/21/22 54/19/22 55/26/22
f 23/26/41 54/19/41 13/19/41
f 26/21/42 55/26/42 23/26/42
f 25/22/43 57/21/43 26/21/43
f 59/20/22 60/22/22 61/21/22
f 9/1/44 59/2/44 14/2/44
f 25/22/45 58/32/45 9/32/45
f 26/21/46 60/22/46 25/22/46
f 64/18/22 63/8/22 62/7/22
f 11/7/47 63/8/47 16/8/47
f 16/8/48 65/29/48 28/29/48
f 24/18/49 62/7/49 11/7/49
f 66/19/22 69/29/22 68/18/22
f 24/18/50 69/29/50 28/29/50
f 22/31/51 66/19/51 13/19/51
f 28/29/52 67/31/52 22/31/52
f 72/22/22 71/31/22 70/19/22
f 13/19/53 71/31/53 22/31/53
f 22/31/54 73/30/54 29/30/54
f 29/30/55 72/22/55 25/22/55
f 74/32/22 77/30/22 76/22/22
f 29/30/56 75/38/56 18/38/56
f 18/16/57 74/1/57 9/1/57
f 25/22/58 77/30/58 29/30/58
f 81/29/22 78/28/22 79/8/22
f 28/29/59 79/8/59 16/8/59
f 21/39/60 81/29/60 28/29/60
f 6/28/61 80/17/61 21/17/61
f 84/31/22 83/39/22 85/29/22
f 28/29/62 83/39/62 21/39/62
f 12/40/63 84/31/63 22/31/63
f 22/31/64 85/29/64 28/29/64
f 89/30/22 86/40/22 88/31/22
f 17/41/65 89/30/65 29/30/65
f 12/40/66 88/31/66 86/40/66
f 12/10/67 87/11/67 17/11/67
f 92/38/22 91/41/22 93/30/22
f 17/11/68 90/42/68 2/42/68
f 29/30/69 91/41/69 17/41/69
f 18/38/70 93/30/70 29/30/70
f 3/3/1 1/43/1 9/1/1
f 1/43/1 2/15/1 18/16/1
f 1/43/1 18/16/1 9/1/1
f 14/2/1 4/24/1 3/3/1
f 7/6/2 3/3/2 10/4/2
f 3/3/2 4/24/2 19/36/2
f 3/3/2 19/36/2 10/4/2
f 15/5/2 8/25/2 7/6/2
f 5/9/3 7/6/3 11/7/3
f 7/6/3 8/25/3 20/34/3
f 7/6/3 20/34/3 11/7/3
f 16/8/3 6/28/3 5/9/3
f 1/12/4 5/9/4 12/10/4
f 5/9/4 6/28/4 21/17/4
f 5/9/4 21/17/4 12/10/4
f 17/11/4 2/42/4 1/12/4
f 7/6/5 5/9/5 1/13/5
f 2/15/6 90/15/6 92/16/6
f 21/17/7 83/17/7 82/10/7
f 24/18/8 48/18/8 46/19/8
f 14/20/9 59/20/9 61/21/9
f 13/19/10 54/19/10 56/22/10
f 26/21/11 41/21/11 39/23/11
f 4/24/12 14/2/12 43/2/12
f 11/7/13 50/7/13 52/18/13
f 8/25/14 15/5/14 31/5/14
f 23/26/15 36/26/15 34/27/15
f 16/8/16 79/8/16 78/28/16
f 28/29/17 65/29/17 64/18/17
f 13/19/18 66/19/18 68/18/18
f 29/30/19 89/30/19 88/31/19
f 25/22/20 72/22/20 70/19/20
f 9/32/21 74/32/21 76/22/21
f 31/33/22 33/35/22 32/34/22
f 20/34/23 32/34/23 33/35/23
f 8/25/24 30/25/24 32/34/24
f 27/35/25 33/35/25 31/33/25
f 34/27/22 36/26/22 37/35/22
f 15/5/26 10/4/26 34/4/26
f 27/35/27 37/35/27 36/26/27
f 15/33/28 35/33/28 37/35/28
f 39/23/22 41/21/22 40/26/22
f 10/27/29 38/27/29 40/26/29
f 23/26/30 40/26/30 41/21/30
f 19/36/31 39/36/31 38/4/31
f 42/37/22 43/20/22 45/21/22
f 26/21/32 45/21/32 43/20/32
f 19/23/33 44/23/33 45/21/33
f 4/24/34 42/24/34 44/36/34
f 47/26/22 46/19/22 48/18/22
f 13/19/35 46/19/35 47/26/35
f 23/26/36 47/26/36 49/35/36
f 27/35/37 49/35/37 48/18/37
f 53/35/22 52/18/22 50/7/22
f 27/35/38 53/35/38 51/34/38
f 20/34/39 51/34/39 50/7/39
f 24/18/40 52/18/40 53/35/40
f 57/21/22 56/22/22 54/19/22
f 23/26/41 55/26/41 54/19/41
f 26/21/42 57/21/42 55/26/42
f 25/22/43 56/22/43 57/21/43
f 59/20/22 58/32/22 60/22/22
f 9/1/44 58/1/44 59/2/44
f 25/22/45 60/22/45 58/32/45
f 26/21/46 61/21/46 60/22/46
f 64/18/22 65/29/22 63/8/22
f 11/7/47 62/7/47 63/8/47
f 16/8/48 63/8/48 65/29/48
f 24/18/49 64/18/49 62/7/49
f 66/19/22 67/31/22 69/29/22
f 24/18/50 68/18/50 69/29/50
f 22/31/51 67/31/51 66/19/51
f 28/29/52 69/29/52 67/31/52
f 72/22/22 73/30/22 71/31/22
f 13/19/71 70/19/71 71/31/71
f 22/31/54 71/31/54 73/30/54
f 29/30/55 73/30/55 72/22/55
f 74/32/22 75/38/22 77/30/22
f 29/30/56 77/30/56 75/38/56
f 18/16/57 75/16/57 74/1/57
f 25/22/58 76/22/58 77/30/58
f 81/29/22 80/39/22 78/28/22
f 28/29/59 81/29/59 79/8/59
f 21/39/60 80/39/60 81/29/60
f 6/28/61 78/28/61 80/17/61
f 84/31/22 82/40/22 83/39/22
f 28/29/62 85/29/62 83/39/62
f 12/40/63 82/40/63 84/31/63
f 22/31/64 84/31/64 85/29/64
f 89/30/22 87/41/22 86/40/22
f 17/41/65 87/41/65 89/30/65
f 12/40/66 22/31/66 88/31/66
f 12/10/67 86/10/67 87/11/67
f 92/38/22 90/44/22 91/41/22
f 17/11/68 91/11/68 90/42/68
f 29/30/69 93/30/69 91/41/69
f 18/38/70 92/38/70 93/30/70
