# Blender 4.5.4 LTS
# www.blender.org
mtllib pumpkin.mtl
o pumpkin
v -0.003832 1.429267 3.040149
v -0.005436 2.128525 2.679232
v -0.006304 2.506962 2.042535
v -0.006415 2.555661 1.687438
v -0.006304 2.506962 1.332342
v -0.005436 2.128525 0.676210
v 0.065231 0.356097 3.061866
v 0.158532 0.851837 2.978876
v 0.232745 1.226472 2.907470
v 0.298209 1.555584 2.781784
v 0.351935 1.825679 2.585618
v 0.391856 2.026378 2.322734
v 0.416440 2.149967 2.010540
v 0.424741 2.191699 1.683168
v 0.416440 2.149967 1.355796
v 0.391856 2.026378 1.041005
v 0.351935 1.825679 0.750892
v 0.298209 1.555584 0.496605
v 0.232745 1.226472 0.287918
v 0.158445 0.851820 0.127670
v 0.077630 0.442443 0.032092
v 0.133844 0.344623 3.077188
v 0.371674 0.914070 3.101679
v 0.541227 1.320848 3.040169
v 0.689016 1.675341 2.899618
v 0.810303 1.966265 2.679241
v 0.900428 2.182441 2.383920
v 0.955926 2.315562 2.042535
v 0.974666 2.360512 1.687438
v 0.955926 2.315562 1.332342
v 0.900428 2.182441 0.990892
v 0.810303 1.966265 0.676210
v 0.689016 1.675341 0.400389
v 0.541227 1.320848 0.174028
v 0.371580 0.914051 0.016495
v 0.184014 0.466958 -0.034084
v 0.193093 0.312954 3.077180
v 0.534814 0.826869 3.101683
v 0.778997 1.193757 3.040177
v 0.991640 1.513585 2.899624
v 1.166151 1.776061 2.679245
v 1.295824 1.971097 2.383920
v 1.375677 2.091201 2.042535
v 1.402640 2.131754 1.687438
v 1.375677 2.091201 1.332342
v 1.295824 1.971098 0.990892
v 1.166151 1.776061 0.676210
v 0.991640 1.513585 0.400389
v 0.778997 1.193758 0.174028
v 0.534720 0.826851 0.016495
v 0.266032 0.423119 -0.034084
v 0.240153 0.262600 3.061820
v 0.592827 0.619702 2.978658
v 0.862650 0.889780 2.907204
v 1.099927 1.127057 2.781559
v 1.294654 1.321784 2.585472
v 1.439350 1.466480 2.322688
v 1.528454 1.555583 2.010540
v 1.558540 1.585670 1.683168
v 1.528454 1.555584 1.355796
v 1.439350 1.466480 1.041005
v 1.294654 1.321784 0.750892
v 1.099927 1.127057 0.496605
v 0.862650 0.889780 0.287918
v 0.592740 0.619684 0.127670
v 0.298145 0.324576 0.032092
v 0.290853 0.215195 3.077179
v 0.804984 0.556699 3.101689
v 1.171963 0.800791 3.040188
v 1.491791 1.013434 2.899634
v 1.754266 1.187945 2.679250
v 1.949303 1.317619 2.383920
v 2.069407 1.397471 2.042535
v 2.109960 1.424434 1.687438
v 2.069407 1.397472 1.332342
v 1.949303 1.317619 0.990892
v 1.754266 1.187945 0.676210
v 1.491791 1.013434 0.400388
v 1.171963 0.800791 0.174028
v 0.804890 0.556681 0.016495
v 0.400495 0.288655 -0.034084
v 0.322522 0.155945 3.077176
v 0.892184 0.393559 3.101691
v 1.299053 0.563021 3.040191
v 1.653546 0.710810 2.899636
v 1.944471 0.832097 2.679251
v 2.160647 0.922222 2.383920
v 2.293768 0.977721 2.042535
v 2.338717 0.996460 1.687438
v 2.293768 0.977721 1.332342
v 2.160647 0.922222 0.990892
v 1.944471 0.832098 0.676210
v 1.653546 0.710811 0.400389
v 1.299053 0.563022 0.174028
v 0.892090 0.393541 0.016495
v 0.444335 0.206638 -0.034084
v 0.333650 0.087678 3.061803
v 0.824963 0.185406 2.978577
v 1.199341 0.259875 2.907105
v 1.528454 0.325339 2.781474
v 1.798549 0.379064 2.585417
v 1.999248 0.418986 2.322671
v 2.122837 0.443569 2.010540
v 2.164569 0.451870 1.683168
v 2.122837 0.443570 1.355796
v 1.999248 0.418986 1.041005
v 1.798549 0.379065 0.750892
v 1.528454 0.325339 0.496605
v 1.199341 0.259875 0.287918
v 0.824875 0.185389 0.127670
v 0.416012 0.104061 0.032092
v 0.349494 0.020349 3.077176
v 0.966724 0.018822 3.101691
v 1.407472 0.017962 3.040191
v 1.791537 0.017081 2.899636
v 2.106731 0.016358 2.679251
v 2.340941 0.015821 2.383920
v 2.485167 0.015490 2.042535
v 2.533866 0.015379 1.687438
v 2.485167 0.015491 1.332342
v 2.340941 0.015821 0.990892
v 2.106731 0.016358 0.676210
v 1.791537 0.017081 0.400388
v 1.407472 0.017962 0.174028
v 0.966630 0.018804 0.016495
v 0.481433 0.020131 -0.034084
v 0.342909 -0.046510 3.077179
v 0.948593 -0.165269 3.101689
v 1.381047 -0.250344 3.040188
v 1.757904 -0.324408 2.899634
v 2.067182 -0.385190 2.679250
v 2.296997 -0.430355 2.383920
v 2.438516 -0.458168 2.042535
v 2.486300 -0.467560 1.687438
v 2.438516 -0.458168 1.332342
v 2.296997 -0.430355 0.990892
v 2.067182 -0.385190 0.676210
v 1.757904 -0.324408 0.400389
v 1.381047 -0.250344 0.174028
v 0.948498 -0.165288 0.016495
v 0.472318 -0.072420 -0.034084
v 0.314209 -0.109708 3.061820
v 0.776695 -0.304665 2.978658
v 1.129333 -0.450928 2.907204
v 1.439350 -0.579341 2.781559
v 1.693774 -0.684727 2.585472
v 1.882828 -0.763036 2.322688
v 1.999247 -0.811258 2.010540
v 2.038557 -0.827541 1.683168
v 1.999247 -0.811258 1.355796
v 1.882828 -0.763036 1.041005
v 1.693774 -0.684727 0.750892
v 1.439350 -0.579341 0.496605
v 1.129333 -0.450928 0.287918
v 0.776608 -0.304682 0.127670
v 0.391504 -0.144774 0.032092
v 0.290002 -0.174238 3.077180
v 0.802377 -0.518264 3.101683
v 1.168375 -0.763779 3.040177
v 1.487224 -0.977886 2.899624
v 1.748896 -1.153600 2.679245
v 1.943337 -1.284166 2.383920
v 2.063072 -1.364569 2.042535
v 2.103501 -1.391717 1.687438
v 2.063072 -1.364569 1.332342
v 1.943337 -1.284166 0.990892
v 1.748896 -1.153600 0.676210
v 1.487224 -0.977886 0.400388
v 1.168375 -0.763779 0.174028
v 0.802283 -0.518282 0.016495
v 0.399546 -0.248105 -0.034084
v 0.247382 -0.226171 3.077188
v 0.685026 -0.661257 3.101679
v 0.997340 -0.972186 3.040169
v 1.269537 -1.243138 2.899618
v 1.492924 -1.465503 2.679241
v 1.658916 -1.630734 2.383920
v 1.761132 -1.732484 2.042535
v 1.795646 -1.766840 1.687438
v 1.761132 -1.732484 1.332342
v 1.658916 -1.630734 0.990892
v 1.492924 -1.465502 0.676210
v 1.269537 -1.243138 0.400389
v 0.997340 -0.972186 0.174028
v 0.684932 -0.661275 0.016495
v 0.340549 -0.319994 -0.034084
v 0.188383 -0.263029 3.061866
v 0.464293 -0.685328 2.978876
v 0.676223 -1.003044 2.907470
v 0.862650 -1.282052 2.781784
v 1.015647 -1.511028 2.585618
v 1.129334 -1.681172 2.322734
v 1.199341 -1.785946 2.010540
v 1.222980 -1.821324 1.683168
v 1.199341 -1.785946 1.355796
v 1.129334 -1.681172 1.041005
v 1.015647 -1.511028 0.750892
v 0.862650 -1.282052 0.496605
v 0.676223 -1.003044 0.287918
v 0.464205 -0.685345 0.127670
v 0.232881 -0.338056 0.032092
v 0.132429 -0.302980 3.077189
v 0.367339 -0.873528 3.101669
v 0.535260 -1.280937 3.040149
v 0.681422 -1.636104 2.899602
v 0.801374 -1.927582 2.679232
v 0.890506 -2.144169 2.383919
v 0.945393 -2.277543 2.042535
v 0.963926 -2.322577 1.687438
v 0.945393 -2.277543 1.332342
v 0.890506 -2.144169 0.990892
v 0.801374 -1.927581 0.676210
v 0.681422 -1.636104 0.400388
v 0.535260 -1.280937 0.174028
v 0.367245 -0.873547 0.016495
v 0.182436 -0.425641 -0.034084
v 0.068140 -0.322482 3.077199
v 0.190322 -0.927225 3.101664
v 0.277265 -1.359199 3.040139
v 0.353056 -1.735713 2.899594
v 0.415257 -2.044708 2.679228
v 0.461476 -2.274314 2.383919
v 0.489937 -2.415704 2.042535
v 0.499547 -2.463445 1.687438
v 0.489937 -2.415704 1.332342
v 0.461476 -2.274314 0.990892
v 0.415257 -2.044708 0.676210
v 0.353056 -1.735712 0.400388
v 0.277265 -1.359199 0.174028
v 0.190228 -0.927244 0.016495
v 0.093442 -0.452637 -0.034084
v -0.001418 -0.320604 3.061924
v -0.006945 -0.828276 2.979156
v -0.007264 -1.210378 2.907811
v -0.007264 -1.545938 2.782074
v -0.007264 -1.821324 2.585805
v -0.007264 -2.025955 2.322793
v -0.007264 -2.151966 2.010540
v -0.007264 -2.194514 1.683168
v -0.007264 -2.151966 1.355796
v -0.007264 -2.025955 1.041005
v -0.007264 -1.821324 0.750892
v -0.007264 -1.545937 0.496605
v -0.007264 -1.210377 0.287918
v -0.007032 -0.828293 0.127670
v -0.006391 -0.410639 0.032092
v -0.070113 -0.322482 3.077201
v -0.191756 -0.927225 3.101653
v -0.278472 -1.359199 3.040119
v -0.354264 -1.735712 2.899577
v -0.416464 -2.044708 2.679218
v -0.462683 -2.274313 2.383919
v -0.491144 -2.415704 2.042535
v -0.500755 -2.463444 1.687438
v -0.491144 -2.415704 1.332342
v -0.462683 -2.274313 0.990892
v -0.416464 -2.044708 0.676210
v -0.354264 -1.735712 0.400388
v -0.278472 -1.359199 0.174028
v -0.191850 -0.927244 0.016495
v -0.096718 -0.452637 -0.034084
v -0.134402 -0.302980 3.077209
v -0.368773 -0.873528 3.101648
v -0.536468 -1.280937 3.040109
v -0.682629 -1.636104 2.899570
v -0.802581 -1.927581 2.679214
v -0.891713 -2.144169 2.383918
v -0.946600 -2.277542 2.042535
v -0.965134 -2.322576 1.687438
v -0.946600 -2.277542 1.332342
v -0.891713 -2.144169 0.990892
v -0.802581 -1.927581 0.676210
v -0.682629 -1.636104 0.400389
v -0.536468 -1.280937 0.174028
v -0.368867 -0.873546 0.016495
v -0.185713 -0.425641 -0.034084
v -0.191216 -0.263028 3.061964
v -0.478182 -0.685327 2.979403
v -0.690751 -1.003044 2.908113
v -0.877178 -1.282052 2.782331
v -1.030174 -1.511027 2.585971
v -1.143861 -1.681172 2.322844
v -1.213869 -1.785946 2.010540
v -1.237508 -1.821323 1.683168
v -1.213869 -1.785946 1.355796
v -1.143861 -1.681172 1.041005
v -1.030174 -1.511027 0.750892
v -0.877178 -1.282052 0.496605
v -0.690751 -1.003044 0.287918
v -0.478270 -0.685345 0.127670
v -0.245663 -0.338056 0.032092
v -0.249322 -0.226171 3.077091
v -0.686460 -0.661256 3.101641
v -0.998546 -0.972185 3.040095
v -1.270744 -1.243138 2.899558
v -1.494131 -1.465502 2.679207
v -1.660122 -1.630734 2.383918
v -1.762339 -1.732483 2.042535
v -1.796853 -1.766839 1.687438
v -1.762339 -1.732483 1.332342
v -1.660122 -1.630734 0.990892
v -1.494131 -1.465502 0.676210
v -1.270744 -1.243138 0.400388
v -0.998546 -0.972185 0.174028
v -0.686554 -0.661275 0.016495
v -0.343815 -0.319994 -0.034044
v -0.005565 0.020204 0.000075
v -0.291756 -0.174235 3.076492
v -0.803801 -0.518263 3.101596
v -1.169582 -0.763778 3.040090
v -1.488431 -0.977886 2.899554
v -1.750103 -1.153599 2.679205
v -1.944543 -1.284166 2.383918
v -2.064279 -1.364568 2.042535
v -2.104708 -1.391716 1.687438
v -2.064279 -1.364568 1.332342
v -1.944543 -1.284166 0.990892
v -1.750103 -1.153599 0.676210
v -1.488431 -0.977886 0.400389
v -1.169582 -0.763778 0.174028
v -0.803895 -0.518282 0.016535
v -0.402649 -0.248106 -0.033438
v -0.315895 -0.109674 3.058838
v -0.790461 -0.304665 2.979049
v -1.143861 -0.450927 2.908274
v -1.453878 -0.579341 2.782467
v -1.708302 -0.684726 2.586060
v -1.897356 -0.763035 2.322871
v -2.013775 -0.811257 2.010540
v -2.053084 -0.827539 1.683168
v -2.013775 -0.811257 1.355796
v -1.897356 -0.763035 1.041005
v -1.708302 -0.684726 0.750892
v -1.453878 -0.579341 0.496605
v -1.143861 -0.450927 0.287918
v -0.790548 -0.304682 0.128143
v -0.403118 -0.144759 0.036135
v -0.339891 -0.046297 3.065969
v -0.938513 -0.165371 3.077760
v -1.366305 -0.250464 3.019575
v -1.738648 -0.324527 2.881569
v -2.044221 -0.385310 2.665297
v -2.271283 -0.430475 2.375431
v -2.411107 -0.458287 2.038252
v -2.458319 -0.467678 1.687310
v -2.411107 -0.458287 1.336368
v -2.271283 -0.430475 0.998913
v -2.044221 -0.385310 0.687913
v -1.738648 -0.324527 0.415318
v -1.366305 -0.250464 0.191606
v -0.938607 -0.165389 0.038194
v -0.470127 -0.072203 -0.019703
v -0.341974 0.021437 3.058838
v -0.855036 0.019978 2.979049
v -1.237507 0.019866 2.908274
v -1.573067 0.019866 2.782467
v -1.848454 0.019866 2.586060
v -2.053085 0.019866 2.322871
v -2.179096 0.019867 2.010540
v -2.221643 0.019867 1.683168
v -2.179096 0.019867 1.355796
v -2.053085 0.019866 1.041005
v -1.848454 0.019866 0.750892
v -1.573067 0.019866 0.496605
v -1.237507 0.019866 0.287918
v -0.855123 0.019960 0.128143
v -0.435984 0.020474 0.036135
v -0.344379 0.090322 3.076492
v -0.949101 0.212212 3.101596
v -1.380993 0.299060 3.040090
v -1.757507 0.374851 2.899554
v -2.066503 0.437051 2.679205
v -2.296108 0.483270 2.383918
v -2.437498 0.511732 2.042535
v -2.485238 0.521343 1.687438
v -2.437498 0.511732 1.332342
v -2.296108 0.483270 0.990892
v -2.066503 0.437051 0.676210
v -1.757507 0.374851 0.400388
v -1.380993 0.299060 0.174028
v -0.949195 0.212193 0.016535
v -0.475101 0.116133 -0.033438
v -0.325051 0.154543 3.077091
v -0.895413 0.389225 3.101641
v -1.302731 0.557055 3.040095
v -1.657898 0.703217 2.899558
v -1.949375 0.823168 2.679207
v -2.165963 0.912300 2.383918
v -2.299336 0.967188 2.042535
v -2.344370 0.985721 1.687438
v -2.299336 0.967188 1.332342
v -2.165963 0.912300 0.990892
v -1.949375 0.823169 0.676210
v -1.657898 0.703217 0.400389
v -1.302731 0.557055 0.174028
v -0.895507 0.389206 0.016495
v -0.448255 0.205064 -0.034044
v -0.285473 0.210831 3.061964
v -0.712201 0.491167 2.979403
v -1.030174 0.703353 2.908113
v -1.309182 0.889780 2.782331
v -1.538157 1.042777 2.585971
v -1.708301 1.156463 2.322844
v -1.813075 1.226472 2.010540
v -1.848452 1.250110 1.683168
v -1.813075 1.226472 1.355796
v -1.708301 1.156463 1.041005
v -1.538157 1.042777 0.750892
v -1.309182 0.889780 0.496605
v -1.030174 0.703353 0.287918
v -0.712289 0.491150 0.127670
v -0.364487 0.259312 0.032092
v -0.248272 0.269483 3.077209
v -0.683141 0.706911 3.101649
v -0.993979 1.019134 3.040109
v -1.264932 1.291332 2.899570
v -1.487296 1.514718 2.679214
v -1.652528 1.680710 2.383918
v -1.754277 1.782927 2.042535
v -1.788632 1.817441 1.687438
v -1.754277 1.782927 1.332342
v -1.652528 1.680710 0.990892
v -1.487296 1.514718 0.676210
v -1.264932 1.291332 0.400389
v -0.993979 1.019134 0.174028
v -0.683236 0.706892 0.016495
v -0.342617 0.363172 -0.034084
v -0.196339 0.312103 3.077201
v -0.540148 0.824262 3.101653
v -0.785572 1.190169 3.040118
v -0.999680 1.509018 2.899577
v -1.175393 1.770690 2.679218
v -1.305960 1.965130 2.383918
v -1.386362 2.084866 2.042535
v -1.413510 2.125295 1.687438
v -1.386362 2.084866 1.332342
v -1.305960 1.965131 0.990892
v -1.175393 1.770690 0.676210
v -0.999680 1.509018 0.400389
v -0.785572 1.190169 0.174028
v -0.540243 0.824244 0.016495
v -0.270728 0.422170 -0.034084
v -0.132155 0.336656 3.061924
v -0.331539 0.803569 2.979156
v -0.478057 1.156463 2.907811
v -0.606471 1.466480 2.782074
v -0.711856 1.720904 2.585805
v -0.790165 1.909958 2.322793
v -0.838387 2.026377 2.010540
v -0.854669 2.065686 1.683168
v -0.838387 2.026377 1.355796
v -0.790165 1.909958 1.041005
v -0.711856 1.720904 0.750892
v -0.606471 1.466480 0.496605
v -0.478057 1.156463 0.287918
v -0.331626 0.803552 0.127670
v -0.171205 0.417935 0.032092
v -0.068611 0.365010 3.077199
v -0.187154 0.970477 3.101664
v -0.272138 1.402840 3.040139
v -0.346202 1.779698 2.899594
v -0.406984 2.088976 2.679227
v -0.452149 2.318790 2.383919
v -0.479962 2.460309 2.042535
v -0.489352 2.508094 1.687438
v -0.479962 2.460309 1.332342
v -0.452149 2.318790 0.990892
v -0.406984 2.088976 0.676210
v -0.346202 1.779698 0.400389
v -0.272138 1.402840 0.174028
v -0.187248 0.970459 0.016495
v -0.095043 0.494941 -0.034084
v -0.001752 0.371595 3.077189
v -0.003063 0.988609 3.101669
v -0.004713 1.813332 2.899602
v -0.005973 2.362736 2.383919
v -0.005973 2.362736 0.990892
v -0.004713 1.813332 0.400389
v -0.003832 1.429266 0.174028
v -0.003157 0.988590 0.016495
v -0.002492 0.504056 -0.034084
v 0.092257 0.493339 3.056592
v 0.189500 0.478255 3.080163
v 0.273210 0.433511 3.080154
v 0.338855 0.361530 3.056524
v 0.411368 0.295353 3.080152
v 0.456112 0.211643 3.080149
v 0.470664 0.114932 3.056498
v 0.494229 0.020013 3.080149
v 0.484926 -0.074447 3.080152
v 0.443257 -0.163336 3.056524
v 0.410155 -0.254959 3.080154
v 0.349940 -0.328331 3.080163
v 0.265872 -0.379481 3.056592
v 0.187484 -0.436881 3.080165
v 0.096654 -0.464434 3.080178
v -0.001703 -0.460649 3.056679
v -0.098731 -0.464434 3.080180
v -0.189561 -0.436881 3.080190
v -0.269273 -0.379481 3.056741
v -0.351974 -0.328331 3.080036
v -0.411946 -0.254954 3.079253
v -0.445156 -0.163291 3.052650
v -0.480039 -0.074175 3.064588
v -0.481914 0.021507 3.052650
v -0.486311 0.118902 3.079253
v -0.458984 0.209643 3.080036
v -0.402152 0.288548 3.056741
v -0.350474 0.372083 3.080191
v -0.277102 0.432298 3.080180
v -0.186011 0.465932 3.056679
v -0.096590 0.507068 3.080178
v -0.002130 0.516372 3.080165
v 0.042251 0.239535 3.299986
v 0.086986 0.232054 3.309976
v 0.125617 0.211406 3.309971
v 0.156299 0.178575 3.299957
v 0.189356 0.147667 3.309970
v 0.210004 0.109037 3.309968
v 0.217260 0.064527 3.299945
v 0.227590 0.020628 3.309968
v 0.223296 -0.022964 3.309970
v 0.204584 -0.064169 3.299957
v 0.188801 -0.106242 3.309971
v 0.161013 -0.140102 3.309976
v 0.122545 -0.164134 3.299986
v 0.086064 -0.190182 3.309977
v 0.044147 -0.202897 3.309984
v -0.001205 -0.201673 3.300024
v -0.045993 -0.202897 3.309985
v -0.087910 -0.190182 3.309990
v -0.124953 -0.164134 3.300050
v -0.162837 -0.140102 3.309913
v -0.190504 -0.106240 3.309522
v -0.206242 -0.064146 3.298012
v -0.221888 -0.022825 3.302662
v -0.223246 0.021338 3.298012
v -0.224814 0.066250 3.309522
v -0.212212 0.108122 3.309913
v -0.186407 0.144822 3.300050
v -0.162152 0.183063 3.309990
v -0.128293 0.210851 3.309985
v -0.086445 0.226860 3.300024
v -0.045014 0.245346 3.309984
v -0.001422 0.249640 3.309977
v 0.033358 0.194431 3.617444
v 0.068855 0.188495 3.625371
v 0.099506 0.172112 3.625367
v 0.123852 0.146061 3.617421
v 0.150081 0.121537 3.625366
v 0.166465 0.090885 3.625365
v 0.172222 0.055568 3.617412
v 0.180418 0.020736 3.625365
v 0.177012 -0.013852 3.625366
v 0.162164 -0.046547 3.617421
v 0.149641 -0.079931 3.625367
v 0.127592 -0.106798 3.625371
v 0.097069 -0.125866 3.617444
v 0.068123 -0.146534 3.625372
v 0.034863 -0.156623 3.625377
v -0.001122 -0.155652 3.617474
v -0.036660 -0.156623 3.625378
v -0.069919 -0.146534 3.625382
v -0.099311 -0.125866 3.617495
v -0.129372 -0.106798 3.625321
v -0.151324 -0.079929 3.625011
v -0.163812 -0.046529 3.615878
v -0.176226 -0.013743 3.619567
v -0.177304 0.021299 3.615878
v -0.178548 0.056935 3.625011
v -0.168549 0.090160 3.625321
v -0.148074 0.119280 3.617495
v -0.128828 0.149622 3.625382
v -0.101962 0.171671 3.625378
v -0.068757 0.184374 3.617474
v -0.035883 0.199042 3.625377
v -0.001294 0.202449 3.625372
v 0.026009 0.157151 3.871035
v 0.053868 0.152493 3.877257
v 0.077926 0.139634 3.877253
v 0.097033 0.119188 3.871017
v 0.117619 0.099940 3.877253
v 0.130478 0.075882 3.877252
v 0.134997 0.048163 3.871010
v 0.141430 0.020825 3.877252
v 0.138756 -0.006322 3.877253
v 0.127103 -0.031983 3.871017
v 0.117274 -0.058184 3.877253
v 0.099969 -0.079271 3.877257
v 0.076013 -0.094236 3.871035
v 0.053294 -0.110458 3.877257
v 0.027190 -0.118376 3.877261
v -0.001053 -0.117614 3.871058
v -0.028946 -0.118376 3.877262
v -0.055050 -0.110458 3.877265
v -0.078118 -0.094236 3.871075
v -0.101711 -0.079271 3.877217
v -0.118941 -0.058183 3.876974
v -0.128742 -0.031969 3.869806
v -0.138486 -0.006236 3.872701
v -0.139331 0.021267 3.869806
v -0.140308 0.049237 3.876974
v -0.132460 0.075313 3.877217
v -0.116390 0.098168 3.871075
v -0.101285 0.121983 3.877265
v -0.080198 0.139288 3.877262
v -0.054137 0.149258 3.871058
v -0.028336 0.160770 3.877261
v -0.001189 0.163444 3.877257
vn 0.2589 0.2324 0.9375
vn 0.2644 0.6583 0.7048
vn 0.2870 0.9236 0.2543
vn 0.2902 0.9570 0.0004
vn 0.2856 0.9241 -0.2537
vn 0.2663 0.7069 -0.6553
vn 0.0855 0.4251 0.9011
vn 0.0404 0.1380 0.9896
vn 0.0648 0.2774 0.9586
vn 0.1018 0.4736 0.8748
vn 0.1431 0.6863 0.7131
vn 0.1759 0.8539 0.4899
vn 0.1945 0.9490 0.2483
vn 0.2005 0.9797 -0.0009
vn 0.1944 0.9487 -0.2492
vn 0.1777 0.8635 -0.4719
vn 0.1544 0.7434 -0.6508
vn 0.1285 0.6079 -0.7835
vn 0.1024 0.4659 -0.8789
vn 0.0727 0.2994 -0.9513
vn 0.0449 0.1331 -0.9901
vn 0.0327 0.4391 0.8979
vn -0.2291 0.1448 0.9626
vn -0.1428 0.3119 0.9393
vn -0.0591 0.5076 0.8596
vn 0.0130 0.7084 0.7057
vn 0.0649 0.8680 0.4923
vn 0.0933 0.9625 0.2546
vn 0.1031 0.9947 0.0003
vn 0.0948 0.9625 -0.2541
vn 0.0694 0.8752 -0.4788
vn 0.0300 0.7540 -0.6562
vn -0.0214 0.6193 -0.7848
vn -0.0882 0.4751 -0.8755
vn -0.1719 0.3022 -0.9376
vn -0.2516 0.1304 -0.9590
vn 0.3487 0.2698 0.8976
vn 0.2549 -0.1160 0.9600
vn 0.3443 0.0497 0.9376
vn 0.4596 0.2284 0.8582
vn 0.5861 0.4000 0.7046
vn 0.6898 0.5316 0.4915
vn 0.7525 0.6075 0.2542
vn 0.7738 0.6335 0.0004
vn 0.7517 0.6088 -0.2536
vn 0.6933 0.5393 -0.4780
vn 0.6147 0.4392 -0.6551
vn 0.5317 0.3214 -0.7836
vn 0.4498 0.1851 -0.8738
vn 0.3538 0.0184 -0.9351
vn 0.2582 -0.1468 -0.9549
vn 0.0864 -0.0334 0.9957
vn 0.1069 0.0961 0.9896
vn 0.2053 0.1973 0.9586
vn 0.3455 0.3391 0.8750
vn 0.4984 0.4928 0.7132
vn 0.6189 0.6139 0.4900
vn 0.6874 0.6826 0.2483
vn 0.7095 0.7048 -0.0009
vn 0.6872 0.6824 -0.2492
vn 0.6259 0.6209 -0.4719
vn 0.5396 0.5342 -0.6508
vn 0.4426 0.4362 -0.7835
vn 0.3414 0.3332 -0.8789
vn 0.2231 0.2121 -0.9515
vn 0.1057 0.0904 -0.9903
vn -0.0227 -0.0503 0.9985
vn -0.1118 0.2501 0.9618
vn 0.0528 0.3409 0.9386
vn 0.2310 0.4570 0.8590
vn 0.4024 0.5838 0.7051
vn 0.5339 0.6877 0.4919
vn 0.6099 0.7505 0.2544
vn 0.6359 0.7718 0.0003
vn 0.6111 0.7497 -0.2538
vn 0.5417 0.6912 -0.4784
vn 0.4417 0.6124 -0.6556
vn 0.3242 0.5290 -0.7842
vn 0.1885 0.4464 -0.8748
vn 0.0228 0.3492 -0.9368
vn -0.1395 0.2512 -0.9578
vn -0.0543 0.0090 0.9985
vn 0.1468 -0.2353 0.9608
vn 0.3135 -0.1481 0.9380
vn 0.5088 -0.0642 0.8585
vn 0.7094 0.0079 0.7047
vn 0.8688 0.0596 0.4916
vn 0.9632 0.0878 0.2542
vn 0.9952 0.0975 0.0003
vn 0.9632 0.0893 -0.2536
vn 0.8760 0.0640 -0.4781
vn 0.7550 0.0246 -0.6552
vn 0.6205 -0.0269 -0.7837
vn 0.4765 -0.0942 -0.8741
vn 0.3039 -0.1786 -0.9358
vn 0.1324 -0.2608 -0.9563
vn 0.0205 0.0906 0.9957
vn 0.1409 0.0280 0.9896
vn 0.2791 0.0555 0.9586
vn 0.4748 0.0944 0.8750
vn 0.6874 0.1367 0.7133
vn 0.8550 0.1701 0.4900
vn 0.9501 0.1890 0.2483
vn 0.9808 0.1951 -0.0009
vn 0.9498 0.1889 -0.2492
vn 0.8647 0.1720 -0.4719
vn 0.7447 0.1481 -0.6508
vn 0.6094 0.1212 -0.7835
vn 0.4679 0.0931 -0.8789
vn 0.3017 0.0600 -0.9515
vn 0.1358 0.0270 -0.9904
vn 0.4178 0.1399 0.8977
vn 0.0456 0.2735 0.9608
vn 0.2329 0.2568 0.9380
vn 0.4456 0.2540 0.8585
vn 0.6585 0.2642 0.7047
vn 0.8254 0.2774 0.4916
vn 0.9234 0.2875 0.2542
vn 0.9568 0.2907 0.0003
vn 0.9240 0.2861 -0.2536
vn 0.8338 0.2761 -0.4781
vn 0.7070 0.2662 -0.6552
vn 0.5630 0.2623 -0.7838
vn 0.4042 0.2693 -0.8741
vn 0.2124 0.2812 -0.9358
vn 0.0225 0.2916 -0.9563
vn 0.3827 -0.2179 0.8978
vn -0.0076 -0.2738 0.9617
vn 0.1792 -0.2947 0.9386
vn 0.3883 -0.3338 0.8590
vn 0.5952 -0.3854 0.7051
vn 0.7565 -0.4310 0.4919
vn 0.8507 -0.4600 0.2544
vn 0.8828 -0.4697 0.0003
vn 0.8515 -0.4588 -0.2538
vn 0.7650 -0.4313 -0.4784
vn 0.6424 -0.3968 -0.6556
vn 0.5020 -0.3647 -0.7842
vn 0.3449 -0.3403 -0.8748
vn 0.1547 -0.3139 -0.9368
vn -0.0328 -0.2855 -0.9578
vn 0.4015 -0.1657 0.9008
vn 0.1355 -0.0479 0.9896
vn 0.2651 -0.1037 0.9586
vn 0.4490 -0.1811 0.8750
vn 0.6491 -0.2646 0.7132
vn 0.8067 -0.3303 0.4900
vn 0.8962 -0.3676 0.2483
vn 0.9251 -0.3796 -0.0009
vn 0.8960 -0.3675 -0.2492
vn 0.8159 -0.3341 -0.4719
vn 0.7029 -0.2870 -0.6508
vn 0.5758 -0.2336 -0.7835
vn 0.4429 -0.1772 -0.8789
vn 0.2872 -0.1106 -0.9515
vn 0.1323 -0.0431 -0.9903
vn 0.4254 -0.1158 0.8976
vn 0.1911 0.2047 0.9600
vn 0.3371 0.0858 0.9376
vn 0.5120 -0.0352 0.8582
vn 0.6946 -0.1453 0.7046
vn 0.8407 -0.2271 0.4915
vn 0.9277 -0.2733 0.2542
vn 0.9573 -0.2892 0.0004
vn 0.9275 -0.2748 -0.2536
vn 0.8469 -0.2329 -0.4780
vn 0.7360 -0.1706 -0.6551
vn 0.6143 -0.0935 -0.7836
vn 0.4864 0.0011 -0.8738
vn 0.3339 0.1184 -0.9351
vn 0.1823 0.2345 -0.9549
vn 0.1982 -0.3931 0.8979
vn -0.1562 -0.2215 0.9626
vn -0.0126 -0.3428 0.9393
vn 0.1396 -0.4915 0.8596
vn 0.2831 -0.6495 0.7057
vn 0.3921 -0.7771 0.4923
vn 0.4545 -0.8536 0.2546
vn 0.4759 -0.8795 0.0003
vn 0.4559 -0.8530 -0.2541
vn 0.3991 -0.7820 -0.4788
vn 0.3162 -0.6852 -0.6562
vn 0.2172 -0.5804 -0.7848
vn 0.1003 -0.4727 -0.8755
vn -0.0431 -0.3450 -0.9376
vn -0.1825 -0.2167 -0.9590
vn 0.2417 -0.3600 0.9011
vn 0.0901 -0.1120 0.9896
vn 0.1660 -0.2315 0.9586
vn 0.2753 -0.3986 0.8748
vn 0.3949 -0.5793 0.7131
vn 0.4892 -0.7216 0.4899
vn 0.5428 -0.8023 0.2483
vn 0.5601 -0.8284 -0.0009
vn 0.5427 -0.8021 -0.2492
vn 0.4946 -0.7298 -0.4719
vn 0.4271 -0.6277 -0.6508
vn 0.3514 -0.5125 -0.7835
vn 0.2729 -0.3913 -0.8789
vn 0.1817 -0.2488 -0.9513
vn 0.0924 -0.1058 -0.9901
vn 0.2889 -0.3333 0.8975
vn 0.2737 0.0648 0.9596
vn 0.3281 -0.1156 0.9375
vn 0.4058 -0.3138 0.8584
vn 0.4962 -0.5070 0.7048
vn 0.5720 -0.6565 0.4917
vn 0.6186 -0.7434 0.2543
vn 0.6343 -0.7731 0.0004
vn 0.6176 -0.7445 -0.2537
vn 0.5739 -0.6648 -0.4782
vn 0.5165 -0.5512 -0.6553
vn 0.4583 -0.4192 -0.7837
vn 0.4050 -0.2691 -0.8738
vn 0.3441 -0.0864 -0.9349
vn 0.2837 0.0953 -0.9541
vn -0.0523 -0.4372 0.8979
vn -0.2514 -0.0970 0.9630
vn -0.1991 -0.2778 0.9398
vn -0.1548 -0.4860 0.8601
vn -0.1229 -0.6973 0.7062
vn -0.1028 -0.8641 0.4928
vn -0.0933 -0.9625 0.2549
vn -0.0899 -0.9960 0.0004
vn -0.0918 -0.9628 -0.2543
vn -0.0998 -0.8720 -0.4792
vn -0.1150 -0.7454 -0.6566
vn -0.1393 -0.6031 -0.7854
vn -0.1770 -0.4486 -0.8760
vn -0.2256 -0.2626 -0.9381
vn -0.2705 -0.0784 -0.9595
vn 0.0010 -0.4328 0.9015
vn 0.0134 -0.1428 0.9897
vn 0.0100 -0.2847 0.9586
vn 0.0079 -0.4846 0.8747
vn 0.0068 -0.7012 0.7129
vn 0.0062 -0.8718 0.4898
vn 0.0059 -0.9687 0.2483
vn 0.0058 -1.0000 -0.0009
vn 0.0059 -0.9684 -0.2493
vn 0.0061 -0.8816 -0.4720
vn 0.0067 -0.7592 -0.6508
vn 0.0079 -0.6213 -0.7836
vn 0.0101 -0.4769 -0.8789
vn 0.0136 -0.3080 -0.9513
vn 0.0191 -0.1402 -0.9899
vn 0.2448 -0.0636 0.9675
vn 0.2627 -0.0979 0.9599
vn 0.2072 -0.2782 0.9379
vn 0.1613 -0.4862 0.8589
vn 0.1286 -0.6971 0.7053
vn 0.1083 -0.8638 0.4921
vn 0.0986 -0.9620 0.2545
vn 0.0952 -0.9955 0.0004
vn 0.0971 -0.9623 -0.2539
vn 0.1052 -0.8717 -0.4785
vn 0.1209 -0.7452 -0.6558
vn 0.1460 -0.6031 -0.7842
vn 0.1855 -0.4486 -0.8743
vn 0.2369 -0.2628 -0.9353
vn 0.2882 -0.0780 -0.9544
vn -0.2360 0.0820 0.9683
vn -0.2633 0.0594 0.9629
vn -0.3195 -0.1204 0.9399
vn -0.3979 -0.3185 0.8604
vn -0.4884 -0.5122 0.7065
vn -0.5642 -0.6622 0.4930
vn -0.6109 -0.7495 0.2550
vn -0.6266 -0.7793 0.0004
vn -0.6098 -0.7506 -0.2544
vn -0.5661 -0.6706 -0.4794
vn -0.5085 -0.5566 -0.6569
vn -0.4499 -0.4246 -0.7857
vn -0.3958 -0.2749 -0.8762
vn -0.3336 -0.0928 -0.9382
vn -0.2693 0.0861 -0.9592
vn -0.2401 -0.3593 0.9018
vn -0.0711 -0.1237 0.9898
vn -0.1523 -0.2408 0.9586
vn -0.2646 -0.4063 0.8746
vn -0.3856 -0.5859 0.7127
vn -0.4807 -0.7274 0.4897
vn -0.5347 -0.8078 0.2483
vn -0.5521 -0.8338 -0.0009
vn -0.5345 -0.8075 -0.2493
vn -0.4861 -0.7354 -0.4720
vn -0.4178 -0.6339 -0.6509
vn -0.3404 -0.5197 -0.7836
vn -0.2589 -0.4005 -0.8790
vn -0.1631 -0.2617 -0.9513
vn -0.0669 -0.1248 -0.9899
vn -0.2041 -0.3900 0.8979
vn 0.1620 -0.2254 0.9607
vn 0.0157 -0.3447 0.9386
vn -0.1382 -0.4921 0.8595
vn -0.2828 -0.6494 0.7059
vn -0.3925 -0.7767 0.4926
vn -0.4554 -0.8531 0.2548
vn -0.4769 -0.8790 0.0004
vn -0.4568 -0.8525 -0.2542
vn -0.3996 -0.7816 -0.4790
vn -0.3161 -0.6851 -0.6563
vn -0.2161 -0.5808 -0.7848
vn -0.0975 -0.4743 -0.8750
vn 0.0485 -0.3482 -0.9362
vn 0.1916 -0.2202 -0.9564
vn -0.0059 -0.0012 -1.0000
vn -0.4390 -0.1009 0.8928
vn -0.1867 0.1986 0.9621
vn -0.3330 0.0786 0.9397
vn -0.5080 -0.0431 0.8603
vn -0.6907 -0.1542 0.7065
vn -0.8371 -0.2370 0.4931
vn -0.9243 -0.2838 0.2550
vn -0.9540 -0.2999 0.0004
vn -0.9240 -0.2853 -0.2545
vn -0.8433 -0.2430 -0.4794
vn -0.7321 -0.1800 -0.6569
vn -0.6102 -0.1025 -0.7856
vn -0.4822 -0.0076 -0.8760
vn -0.3296 0.1110 -0.9376
vn -0.1812 0.2352 -0.9549
vn -0.4335 -0.0992 0.8957
vn -0.1394 -0.0228 0.9900
vn -0.2686 -0.0834 0.9596
vn -0.4544 -0.1644 0.8755
vn -0.6541 -0.2497 0.7140
vn -0.8115 -0.3170 0.4909
vn -0.9011 -0.3551 0.2489
vn -0.9301 -0.3673 -0.0009
vn -0.9009 -0.3549 -0.2499
vn -0.8206 -0.3210 -0.4728
vn -0.7075 -0.2729 -0.6519
vn -0.5802 -0.2183 -0.7847
vn -0.4459 -0.1592 -0.8808
vn -0.2932 -0.0876 -0.9520
vn -0.1450 -0.0228 -0.9892
vn -0.4345 -0.0864 0.8965
vn -0.0481 -0.0096 0.9988
vn -0.2279 -0.0453 0.9726
vn -0.4476 -0.0890 0.8898
vn -0.6660 -0.1325 0.7341
vn -0.8414 -0.1674 0.5139
vn -0.9456 -0.1881 0.2656
vn -0.9808 -0.1951 0.0009
vn -0.9460 -0.1882 -0.2638
vn -0.8509 -0.1693 -0.4973
vn -0.7184 -0.1429 -0.6808
vn -0.5690 -0.1132 -0.8145
vn -0.4028 -0.0801 -0.9118
vn -0.2195 -0.0437 -0.9746
vn -0.0412 -0.0082 -0.9991
vn -0.4385 -0.0743 0.8957
vn -0.1375 -0.0323 0.9900
vn -0.2800 -0.0257 0.9596
vn -0.4827 -0.0220 0.8755
vn -0.6999 -0.0196 0.7140
vn -0.8711 -0.0177 0.4909
vn -0.9684 -0.0168 0.2489
vn -0.9999 -0.0166 -0.0009
vn -0.9681 -0.0169 -0.2499
vn -0.8810 -0.0175 -0.4728
vn -0.7581 -0.0186 -0.6519
vn -0.6195 -0.0204 -0.7847
vn -0.4728 -0.0236 -0.8808
vn -0.3044 -0.0313 -0.9520
vn -0.1427 -0.0345 -0.9892
vn -0.4442 -0.0747 0.8928
vn -0.0965 -0.2550 0.9621
vn -0.2776 -0.2000 0.9397
vn -0.4858 -0.1546 0.8603
vn -0.6971 -0.1219 0.7065
vn -0.8641 -0.1014 0.4931
vn -0.9626 -0.0915 0.2550
vn -0.9961 -0.0880 0.0004
vn -0.9629 -0.0900 -0.2545
vn -0.8721 -0.0982 -0.4794
vn -0.7453 -0.1138 -0.6569
vn -0.6030 -0.1388 -0.7856
vn -0.4484 -0.1775 -0.8760
vn -0.2620 -0.2286 -0.9376
vn -0.0774 -0.2866 -0.9549
vn -0.3378 0.2822 0.8979
vn 0.0634 0.2702 0.9607
vn -0.1174 0.3245 0.9386
vn -0.3160 0.4018 0.8595
vn -0.5098 0.4918 0.7059
vn -0.6599 0.5674 0.4926
vn -0.7472 0.6139 0.2548
vn -0.7769 0.6296 0.0004
vn -0.7482 0.6128 -0.2542
vn -0.6683 0.5692 -0.4790
vn -0.5542 0.5119 -0.6563
vn -0.4219 0.4539 -0.7848
vn -0.2716 0.4009 -0.8750
vn -0.0884 0.3403 -0.9362
vn 0.0928 0.2768 -0.9564
vn -0.3593 0.2401 0.9018
vn -0.1130 0.0871 0.9898
vn -0.2328 0.1642 0.9586
vn -0.4000 0.2741 0.8746
vn -0.5805 0.3938 0.7127
vn -0.7224 0.4881 0.4897
vn -0.8031 0.5417 0.2483
vn -0.8292 0.5590 -0.0009
vn -0.8029 0.5415 -0.2493
vn -0.7306 0.4934 -0.4720
vn -0.6286 0.4258 -0.6509
vn -0.5134 0.3498 -0.7836
vn -0.3924 0.2709 -0.8790
vn -0.2508 0.1794 -0.9513
vn -0.1095 0.0897 -0.9899
vn -0.1866 -0.1661 0.9683
vn -0.2206 -0.1556 0.9629
vn -0.3412 -0.0110 0.9399
vn -0.4895 0.1420 0.8604
vn -0.6472 0.2863 0.7065
vn -0.7747 0.3959 0.4930
vn -0.8512 0.4587 0.2550
vn -0.8771 0.4802 0.0004
vn -0.8506 0.4601 -0.2544
vn -0.7796 0.4029 -0.4794
vn -0.6828 0.3197 -0.6569
vn -0.5782 0.2201 -0.7857
vn -0.4709 0.1026 -0.8762
vn -0.3437 -0.0419 -0.9382
vn -0.2159 -0.1826 -0.9592
vn 0.2019 0.1524 0.9675
vn 0.2052 0.1910 0.9599
vn 0.0850 0.3363 0.9379
vn -0.0371 0.5109 0.8589
vn -0.1480 0.6933 0.7053
vn -0.2305 0.8395 0.4921
vn -0.2770 0.9265 0.2545
vn -0.2930 0.9561 0.0004
vn -0.2785 0.9263 -0.2539
vn -0.2364 0.8456 -0.4785
vn -0.1735 0.7347 -0.6558
vn -0.0959 0.6131 -0.7842
vn -0.0003 0.4855 -0.8743
vn 0.1183 0.3335 -0.9353
vn 0.2364 0.1824 -0.9544
vn 0.0606 0.0649 0.9961
vn -0.0422 0.1371 0.9897
vn -0.0998 0.2669 0.9586
vn -0.1781 0.4507 0.8747
vn -0.2620 0.6505 0.7129
vn -0.3279 0.8078 0.4898
vn -0.3652 0.8972 0.2483
vn -0.3773 0.9261 -0.0009
vn -0.3652 0.8969 -0.2493
vn -0.3317 0.8168 -0.4720
vn -0.2843 0.7040 -0.6508
vn -0.2305 0.5770 -0.7836
vn -0.1732 0.4444 -0.8789
vn -0.1053 0.2898 -0.9513
vn -0.0359 0.1368 -0.9899
vn 0.0371 -0.0414 0.9985
vn -0.2694 -0.0066 0.9630
vn -0.2902 0.1805 0.9398
vn -0.3290 0.3898 0.8601
vn -0.3804 0.5972 0.7062
vn -0.4257 0.7589 0.4928
vn -0.4545 0.8535 0.2549
vn -0.4642 0.8857 0.0004
vn -0.4533 0.8543 -0.2543
vn -0.4259 0.7675 -0.4792
vn -0.3915 0.6446 -0.6566
vn -0.3595 0.5039 -0.7854
vn -0.3352 0.3467 -0.8760
vn -0.3090 0.1563 -0.9381
vn -0.2799 -0.0311 -0.9595
vn 0.1393 0.4184 0.8975
vn 0.2776 0.0449 0.9596
vn 0.2549 0.4452 0.8584
vn 0.2772 0.8254 0.4917
vn 0.2758 0.8338 -0.4782
vn 0.2630 0.5627 -0.7837
vn 0.2712 0.4036 -0.8738
vn 0.2849 0.2115 -0.9349
vn 0.2986 0.0205 -0.9541
vn 0.0240 0.1176 0.9928
vn -0.1427 0.0639 0.9877
vn 0.1359 -0.0834 0.9872
vn 0.0856 0.0852 0.9927
vn -0.0834 0.1338 0.9875
vn 0.0660 -0.1445 0.9873
vn 0.1188 0.0236 0.9926
vn 0.0057 0.1587 0.9873
vn -0.0258 -0.1555 0.9875
vn 0.1117 -0.0459 0.9927
vn 0.0936 0.1291 0.9872
vn -0.1074 -0.1137 0.9877
vn 0.0671 -0.0994 0.9928
vn 0.1495 0.0551 0.9872
vn -0.1516 -0.0343 0.9879
vn 0.0006 -0.1190 0.9929
vn 0.1541 -0.0367 0.9874
vn -0.1448 0.0556 0.9879
vn -0.0658 -0.0980 0.9930
vn 0.1048 -0.1116 0.9882
vn -0.0964 0.1426 0.9851
vn -0.1358 0.0234 0.9905
vn -0.0671 -0.0134 0.9977
vn -0.1165 -0.0736 0.9905
vn -0.0345 -0.1687 0.9851
vn 0.0541 0.1431 0.9882
vn -0.0983 0.0654 0.9930
vn -0.1125 -0.1068 0.9879
vn 0.1283 0.0929 0.9874
vn -0.0450 0.1101 0.9929
vn -0.1531 -0.0263 0.9879
vn 0.1592 0.0063 0.9872
vn 0.1848 0.9259 0.3294
vn 0.2765 0.9124 0.3017
vn 0.6065 0.7357 0.3015
vn 0.7061 -0.7081 -0.0001
vn 0.5872 -0.8041 0.0929
vn -0.3420 0.9351 0.0931
vn -0.1951 0.9808 -0.0000
vn 0.9486 0.0960 0.3015
vn 0.9119 -0.2785 0.3015
vn 0.8725 -0.3610 0.3291
vn 0.8419 -0.4476 0.3015
vn 0.6046 -0.7372 0.3017
vn 0.5251 -0.7847 0.3294
vn 0.4502 -0.8405 0.3015
vn 0.0950 -0.9486 0.3018
vn 0.0006 -0.9441 0.3297
vn 0.9832 -0.1563 -0.0942
vn -0.9049 0.4153 -0.0936
vn -0.5244 -0.7849 0.3299
vn -0.6092 -0.7335 0.3013
vn -0.8457 -0.4416 0.2996
vn -0.8944 -0.3093 0.3231
vn -0.9367 -0.1863 0.2963
vn -0.9447 -0.0565 0.3231
vn -0.9503 0.0843 0.2996
vn -0.8435 0.4446 0.3013
vn -0.7849 0.5245 0.3299
vn -0.6771 -0.7299 -0.0936
vn 0.8486 0.5206 -0.0942
vn 0.9248 0.3804 -0.0002
vn 0.9682 0.2321 0.0931
vn 0.0943 0.9488 0.3015
vn 0.1934 0.9703 0.1453
vn 0.3035 0.9409 0.1502
vn 0.6151 0.7740 0.1501
vn 0.7070 -0.7072 -0.0002
vn 0.6217 -0.7832 0.0115
vn -0.3051 0.9522 0.0116
vn 0.9853 0.0818 0.1501
vn 0.9506 -0.2718 0.1501
vn 0.9142 -0.3784 0.1452
vn 0.8645 -0.4797 0.1501
vn 0.6405 -0.7531 0.1502
vn 0.5500 -0.8224 0.1453
vn 0.4511 -0.8798 0.1502
vn 0.1160 -0.9818 0.1503
vn 0.0004 -0.9894 0.1454
vn 0.9931 -0.1171 -0.0111
vn -0.8917 0.4526 -0.0107
vn -0.5497 -0.8226 0.1456
vn -0.6444 -0.7498 0.1503
vn -0.8667 -0.4756 0.1501
vn -0.9298 -0.3382 0.1450
vn -0.9700 -0.1929 0.1480
vn -0.9885 -0.0433 0.1450
vn -0.9828 0.1077 0.1501
vn -0.8823 0.4461 0.1503
vn -0.8226 0.5497 0.1456
vn -0.6506 -0.7594 -0.0107
vn 0.8726 0.4882 -0.0111
vn 0.9240 0.3824 -0.0004
vn 0.9624 0.2714 0.0109
vn 0.0800 0.9854 0.1502
vn 0.1027 0.5154 0.8508
vn 0.0082 0.3047 0.9524
vn 0.2501 0.1753 0.9522
vn -0.0556 -0.1335 0.9895
vn -0.3492 -0.3489 0.8697
vn -0.4838 -0.0960 0.8699
vn -0.1420 0.0287 0.9894
vn 0.2857 0.1104 0.9519
vn 0.2588 -0.1635 0.9520
vn 0.4858 -0.2010 0.8507
vn 0.2981 -0.0663 0.9522
vn 0.1242 -0.2784 0.9524
vn 0.2921 -0.4369 0.8508
vn 0.2101 -0.2193 0.9528
vn -0.0509 -0.2986 0.9530
vn -0.0005 -0.5241 0.8516
vn 0.3091 0.5789 0.7546
vn 0.0656 0.6515 0.7558
vn -0.2904 -0.4261 0.8568
vn -0.1197 -0.2635 0.9572
vn -0.2902 -0.0421 0.9560
vn -0.5144 -0.1661 0.8413
vn -0.2950 -0.0587 0.9537
vn -0.5388 -0.0434 0.8413
vn -0.2842 -0.0721 0.9560
vn -0.2114 0.1977 0.9572
vn -0.4314 0.2825 0.8568
vn 0.3100 -0.5768 0.7558
vn 0.5071 -0.4165 0.7546
vn 0.0982 -0.1098 0.9891
vn 0.1871 -0.4630 0.8664
vn 0.1101 0.2830 0.9528
vt 0.195801 0.405071
vt 0.197641 0.372267
vt 0.180808 0.395166
vt 0.369064 0.328965
vt 0.341056 0.301783
vt 0.343243 0.329369
vt 0.180978 0.427614
vt 0.168258 0.422600
vt 0.312471 0.305918
vt 0.317827 0.332798
vt 0.168155 0.457387
vt 0.160391 0.456600
vt 0.285868 0.313109
vt 0.294183 0.338691
vt 0.161268 0.499092
vt 0.271991 0.346795
vt 0.261136 0.323408
vt 0.546154 0.383153
vt 0.530711 0.356630
vt 0.521627 0.370838
vt 0.250874 0.357149
vt 0.238250 0.336801
vt 0.461045 0.346500
vt 0.432843 0.312007
vt 0.424265 0.335974
vt 0.231113 0.370285
vt 0.216896 0.352863
vt 0.399967 0.304380
vt 0.395422 0.330829
vt 0.212572 0.386083
vt 0.370253 0.300974
vt 0.179373 0.358426
vt 0.404396 0.274957
vt 0.371526 0.270565
vt 0.163439 0.386175
vt 0.338672 0.270806
vt 0.153895 0.417913
vt 0.306216 0.275575
vt 0.151930 0.455430
vt 0.275705 0.283904
vt 0.247550 0.296936
vt 0.561787 0.358195
vt 0.538559 0.340885
vt 0.221881 0.313689
vt 0.479784 0.302683
vt 0.439191 0.284473
vt 0.198896 0.334132
vt 0.144022 0.456540
vt 0.231952 0.269402
vt 0.548490 0.328057
vt 0.203226 0.290413
vt 0.490543 0.284513
vt 0.448334 0.261168
vt 0.178580 0.316137
vt 0.411237 0.247468
vt 0.158921 0.346299
vt 0.374751 0.240275
vt 0.145926 0.380102
vt 0.337194 0.238210
vt 0.140472 0.416277
vt 0.299400 0.242651
vt 0.264092 0.253510
vt 0.381294 0.198422
vt 0.130808 0.334089
vt 0.121036 0.375589
vt 0.336088 0.195449
vt 0.122147 0.418316
vt 0.290418 0.200519
vt 0.135442 0.460610
vt 0.247803 0.213868
vt 0.209563 0.234797
vt 0.570417 0.346826
vt 0.561971 0.315997
vt 0.176573 0.262359
vt 0.467138 0.232067
vt 0.149777 0.295675
vt 0.424333 0.211032
vt 0.180708 0.193849
vt 0.592026 0.326217
vt 0.574654 0.302448
vt 0.142553 0.230801
vt 0.529535 0.238917
vt 0.486308 0.197055
vt 0.112794 0.274210
vt 0.440351 0.169143
vt 0.096147 0.323648
vt 0.390617 0.151583
vt 0.091235 0.374318
vt 0.336329 0.145099
vt 0.101470 0.422310
vt 0.280200 0.149320
vt 0.125859 0.464857
vt 0.227181 0.165627
vt 0.056308 0.317962
vt 0.062190 0.378622
vt 0.339489 0.085643
vt 0.083762 0.430400
vt 0.268212 0.089875
vt 0.118485 0.471422
vt 0.202326 0.111964
vt 0.145035 0.148191
vt 0.588794 0.293251
vt 0.099333 0.197169
vt 0.551481 0.222294
vt 0.510612 0.169459
vt 0.069652 0.255703
vt 0.463015 0.129547
vt 0.406212 0.101421
vt 0.603434 0.317792
vt 0.606021 0.287869
vt 0.089276 0.086403
vt 0.034282 0.156489
vt 0.556347 0.140437
vt 0.004076 0.237338
vt 0.507039 0.077749
vt 0.000087 0.319726
vt 0.438378 0.024845
vt 0.021809 0.393616
vt 0.347984 0.000087
vt 0.063056 0.449202
vt 0.251821 0.003670
vt 0.113077 0.482098
vt 0.163549 0.034089
vt 0.344427 0.999913
vt 0.402529 0.898733
vt 0.335903 0.913811
vt 0.021985 0.603102
vt 0.083636 0.566982
vt 0.063184 0.548177
vt 0.247636 0.997390
vt 0.264487 0.910087
vt 0.118455 0.526419
vt 0.113134 0.515754
vt 0.156935 0.966337
vt 0.197276 0.888102
vt 0.139783 0.849234
vt 0.081957 0.910556
vt 0.603587 0.714618
vt 0.601375 0.684756
vt 0.586464 0.709030
vt 0.095510 0.798597
vt 0.029108 0.837779
vt 0.552500 0.861041
vt 0.548460 0.779418
vt 0.507194 0.831721
vt 0.066892 0.739927
vt 0.001634 0.756405
vt 0.502881 0.923018
vt 0.459390 0.871121
vt 0.055703 0.678017
vt 0.000087 0.675345
vt 0.434266 0.975224
vt 0.061670 0.618348
vt 0.139161 0.766878
vt 0.483199 0.803984
vt 0.110787 0.722514
vt 0.437092 0.831493
vt 0.093767 0.673344
vt 0.387276 0.848796
vt 0.090834 0.622553
vt 0.332634 0.855394
vt 0.101195 0.575150
vt 0.276251 0.849672
vt 0.125752 0.533008
vt 0.224045 0.831596
vt 0.177517 0.804015
vt 0.590176 0.676140
vt 0.572480 0.699681
vt 0.120196 0.621736
vt 0.121707 0.579308
vt 0.287309 0.798566
vt 0.135265 0.537310
vt 0.244812 0.784575
vt 0.206691 0.763319
vt 0.559978 0.686006
vt 0.173969 0.735433
vt 0.526738 0.762612
vt 0.464381 0.768854
vt 0.147628 0.701733
vt 0.421423 0.789502
vt 0.129138 0.663253
vt 0.378252 0.801781
vt 0.332963 0.804352
vt 0.176549 0.681721
vt 0.445871 0.739599
vt 0.408660 0.752935
vt 0.157524 0.651325
vt 0.372107 0.759770
vt 0.144973 0.617587
vt 0.334520 0.761424
vt 0.139911 0.581513
vt 0.296802 0.756451
vt 0.143783 0.541432
vt 0.261523 0.745535
vt 0.229378 0.728953
vt 0.568766 0.655285
vt 0.546641 0.673810
vt 0.201012 0.707570
vt 0.488274 0.716695
vt 0.153290 0.580019
vt 0.151656 0.542602
vt 0.303873 0.723826
vt 0.273728 0.714458
vt 0.245700 0.701681
vt 0.560255 0.643828
vt 0.536852 0.660884
vt 0.219960 0.684923
vt 0.436964 0.716216
vt 0.197457 0.664003
vt 0.402092 0.725381
vt 0.177909 0.639766
vt 0.369190 0.729442
vt 0.162446 0.611761
vt 0.336343 0.728875
vt 0.397960 0.695915
vt 0.215489 0.645557
vt 0.196407 0.626021
vt 0.368224 0.699008
vt 0.179885 0.602992
vt 0.339067 0.697880
vt 0.167650 0.575489
vt 0.310597 0.693420
vt 0.160102 0.541505
vt 0.284071 0.685840
vt 0.259414 0.675370
vt 0.529175 0.645066
vt 0.236656 0.661826
vt 0.477712 0.698431
vt 0.430897 0.688630
vt 0.316300 0.666618
vt 0.292663 0.660521
vt 0.167853 0.540783
vt 0.270414 0.652099
vt 0.544885 0.618723
vt 0.520245 0.630771
vt 0.249466 0.641566
vt 0.459438 0.654451
vt 0.422569 0.664589
vt 0.229793 0.628304
vt 0.393687 0.669429
vt 0.211524 0.612351
vt 0.367325 0.671004
vt 0.194959 0.593256
vt 0.341540 0.670269
vt 0.180387 0.570610
vt 0.222381 0.600204
vt 0.391682 0.648736
vt 0.367138 0.649379
vt 0.205174 0.584471
vt 0.343542 0.647804
vt 0.189189 0.565149
vt 0.320565 0.644332
vt 0.174088 0.538487
vt 0.299121 0.639044
vt 0.278757 0.632330
vt 0.539350 0.606101
vt 0.514121 0.617053
vt 0.259152 0.623839
vt 0.419182 0.645623
vt 0.240538 0.613016
vt 0.179995 0.534378
vt 0.304768 0.617968
vt 0.285973 0.612320
vt 0.510071 0.601193
vt 0.267766 0.605535
vt 0.454321 0.637909
vt 0.417593 0.623347
vt 0.250026 0.596983
vt 0.390878 0.626002
vt 0.232496 0.586522
vt 0.367853 0.626591
vt 0.215167 0.573697
vt 0.345844 0.625184
vt 0.198107 0.557314
vt 0.324612 0.622267
vt 0.389303 0.604871
vt 0.368049 0.605054
vt 0.223617 0.562680
vt 0.347709 0.604204
vt 0.205975 0.549585
vt 0.327974 0.601932
vt 0.185646 0.530757
vt 0.309429 0.598544
vt 0.291666 0.594177
vt 0.529576 0.579532
vt 0.504476 0.586493
vt 0.274535 0.588541
vt 0.445712 0.598519
vt 0.413354 0.603050
vt 0.257572 0.581662
vt 0.240660 0.573215
vt 0.296048 0.577844
vt 0.526569 0.566581
vt 0.500938 0.572875
vt 0.279516 0.573537
vt 0.412131 0.586823
vt 0.263143 0.568039
vt 0.388731 0.587776
vt 0.246403 0.561496
vt 0.368353 0.587586
vt 0.229202 0.553269
vt 0.349068 0.586288
vt 0.211102 0.542612
vt 0.330378 0.584202
vt 0.189702 0.526582
vt 0.312857 0.581326
vt 0.251543 0.548442
vt 0.234418 0.542064
vt 0.350517 0.567531
vt 0.215845 0.533635
vt 0.332579 0.565923
vt 0.192935 0.521070
vt 0.315760 0.563725
vt 0.299642 0.560955
vt 0.499353 0.557452
vt 0.283794 0.557662
vt 0.443259 0.583608
vt 0.412259 0.567608
vt 0.267893 0.553528
vt 0.388907 0.568521
vt 0.369187 0.568477
vt 0.286905 0.542438
vt 0.439551 0.547569
vt 0.409823 0.549394
vt 0.271376 0.539403
vt 0.388229 0.550049
vt 0.255376 0.535659
vt 0.369404 0.549971
vt 0.238484 0.530829
vt 0.351560 0.549540
vt 0.219881 0.524785
vt 0.334296 0.548441
vt 0.196218 0.515900
vt 0.318030 0.546865
vt 0.302326 0.544952
vt 0.521485 0.539629
vt 0.496029 0.542740
vt 0.240799 0.521337
vt 0.222081 0.517263
vt 0.352171 0.533633
vt 0.335309 0.532700
vt 0.198083 0.510851
vt 0.319457 0.531528
vt 0.304191 0.530204
vt 0.494363 0.529428
vt 0.289049 0.528644
vt 0.409567 0.534564
vt 0.273701 0.526701
vt 0.388104 0.534670
vt 0.257724 0.524317
vt 0.369587 0.534397
vt 0.438556 0.533626
vt 0.410549 0.516823
vt 0.290400 0.513864
vt 0.275213 0.512874
vt 0.388591 0.516981
vt 0.259372 0.511649
vt 0.370135 0.516843
vt 0.242452 0.510108
vt 0.352757 0.516475
vt 0.223449 0.507945
vt 0.336067 0.515972
vt 0.198812 0.504781
vt 0.320388 0.515366
vt 0.305314 0.514670
vt 0.519519 0.526784
vt 0.494633 0.514517
vt 0.353054 0.499928
vt 0.336461 0.499833
vt 0.199590 0.499233
vt 0.320839 0.499747
vt 0.305745 0.499681
vt 0.517616 0.500782
vt 0.493768 0.500662
vt 0.290799 0.499625
vt 0.438252 0.500376
vt 0.409380 0.500227
vt 0.275655 0.499564
vt 0.388318 0.500117
vt 0.259875 0.499498
vt 0.370098 0.500021
vt 0.243067 0.499423
vt 0.224258 0.499338
vt 0.290516 0.485388
vt 0.275316 0.486248
vt 0.388764 0.483260
vt 0.259487 0.487350
vt 0.370309 0.483206
vt 0.242550 0.488734
vt 0.352925 0.483389
vt 0.223525 0.490724
vt 0.336249 0.483678
vt 0.198857 0.493678
vt 0.320554 0.484099
vt 0.305439 0.484685
vt 0.494774 0.486816
vt 0.410720 0.483643
vt 0.198178 0.487600
vt 0.335714 0.466920
vt 0.319795 0.467819
vt 0.304418 0.469128
vt 0.519778 0.474803
vt 0.494656 0.471905
vt 0.289280 0.470637
vt 0.438900 0.467131
vt 0.409920 0.465894
vt 0.273906 0.472391
vt 0.388458 0.465570
vt 0.257964 0.474688
vt 0.369938 0.465661
vt 0.241002 0.477491
vt 0.352514 0.466270
vt 0.222240 0.481391
vt 0.388740 0.450190
vt 0.255729 0.463301
vt 0.369914 0.450075
vt 0.238775 0.467968
vt 0.352066 0.450314
vt 0.220106 0.473845
vt 0.334706 0.451185
vt 0.196354 0.482533
vt 0.318449 0.452538
vt 0.302827 0.454357
vt 0.521870 0.461981
vt 0.496458 0.458613
vt 0.287367 0.456783
vt 0.440038 0.453198
vt 0.410329 0.451067
vt 0.271808 0.459662
vt 0.316377 0.435649
vt 0.193112 0.477333
vt 0.300239 0.438328
vt 0.499934 0.443940
vt 0.284380 0.441533
vt 0.412952 0.432876
vt 0.268414 0.445504
vt 0.389607 0.431725
vt 0.252041 0.450485
vt 0.369886 0.431566
vt 0.234806 0.456678
vt 0.351196 0.432313
vt 0.216145 0.464951
vt 0.333227 0.433666
vt 0.247063 0.437443
vt 0.389627 0.412467
vt 0.369242 0.412461
vt 0.229686 0.445389
vt 0.349948 0.413603
vt 0.211478 0.455923
vt 0.331288 0.415331
vt 0.189921 0.471790
vt 0.313644 0.417863
vt 0.296736 0.421403
vt 0.527212 0.435101
vt 0.501685 0.428537
vt 0.280257 0.425724
vt 0.444121 0.417195
vt 0.413022 0.413658
vt 0.263746 0.430871
vt 0.185895 0.467577
vt 0.292626 0.404993
vt 0.505377 0.414959
vt 0.275376 0.410527
vt 0.446730 0.402307
vt 0.414413 0.397440
vt 0.258381 0.417270
vt 0.390376 0.395370
vt 0.241287 0.425592
vt 0.369118 0.394960
vt 0.224194 0.435967
vt 0.348757 0.395569
vt 0.206410 0.448903
vt 0.328889 0.397613
vt 0.310331 0.400789
vt 0.233297 0.412213
vt 0.215836 0.424870
vt 0.347101 0.374593
vt 0.198605 0.441097
vt 0.325800 0.377202
vt 0.180267 0.463904
vt 0.305885 0.381239
vt 0.287028 0.386781
vt 0.530417 0.422232
vt 0.511134 0.400320
vt 0.268758 0.393469
vt 0.418862 0.377181
vt 0.250916 0.401867
vt 0.392168 0.374251
vt 0.369145 0.373425
vt 0.540485 0.395727
vt 0.515355 0.384498
vt 0.260317 0.375166
vt 0.455752 0.362995
vt 0.420681 0.354914
vt 0.241508 0.385684
vt 0.393203 0.351522
vt 0.223351 0.398490
vt 0.368656 0.350647
vt 0.205949 0.413991
vt 0.345064 0.352060
vt 0.189746 0.433170
vt 0.322082 0.355037
vt 0.174383 0.459740
vt 0.300406 0.359832
vt 0.279906 0.366680
vt 0.453501 0.383833
vt 0.444259 0.435797
vt 0.440473 0.484588
vt 0.440310 0.516186
vt 0.443591 0.565011
vt 0.452287 0.617057
vt 0.470712 0.674454
vt 0.508631 0.736650
vt 0.585293 0.790221
vt 0.588541 0.211846
vt 0.511128 0.264741
vt 0.472531 0.326604
vt 0.649809 0.634616
vt 0.644926 0.626937
vt 0.613127 0.419956
vt 0.590210 0.491876
vt 0.517366 0.488373
vt 0.614570 0.592224
vt 0.551120 0.631972
vt 0.593681 0.519763
vt 0.632176 0.387422
vt 0.580092 0.335288
vt 0.615620 0.410357
vt 0.622911 0.403612
vt 0.630865 0.615338
vt 0.578322 0.666928
vt 0.599225 0.454822
vt 0.593882 0.482563
vt 0.595136 0.473510
vt 0.598723 0.547545
vt 0.601291 0.556385
vt 0.612181 0.582597
vt 0.608144 0.574322
vt 0.651303 0.368424
vt 0.646339 0.376042
vt 0.590110 0.510413
vt 0.591041 0.501149
vt 0.602877 0.436124
vt 0.533964 0.408618
vt 0.627037 0.606448
vt 0.621784 0.599049
vt 0.594081 0.538703
vt 0.594838 0.528825
vt 0.594486 0.463620
vt 0.628247 0.396269
vt 0.602102 0.566315
vt 0.552528 0.369961
vt 0.638799 0.620674
vt 0.532971 0.593157
vt 0.523064 0.448366
vt 0.517242 0.513189
vt 0.522546 0.553262
vt 0.669255 0.506397
vt 0.710644 0.572193
vt 0.705001 0.567501
vt 0.669786 0.501588
vt 0.699122 0.564438
vt 0.669309 0.496774
vt 0.696033 0.558709
vt 0.671504 0.492066
vt 0.691675 0.554003
vt 0.672518 0.486867
vt 0.686868 0.550607
vt 0.672338 0.481693
vt 0.684897 0.545039
vt 0.675255 0.477425
vt 0.681711 0.540143
vt 0.687411 0.452771
vt 0.692254 0.449430
vt 0.677350 0.472373
vt 0.677872 0.536297
vt 0.696662 0.444774
vt 0.601965 0.446039
vt 0.678259 0.466976
vt 0.677023 0.530888
vt 0.699813 0.439082
vt 0.609002 0.428186
vt 0.640177 0.382171
vt 0.685379 0.458315
vt 0.672115 0.521512
vt 0.711412 0.431459
vt 0.672354 0.516340
vt 0.715912 0.425040
vt 0.671398 0.511129
vt 0.715077 0.578664
vt 0.707241 0.499863
vt 0.706984 0.497968
vt 0.726521 0.518048
vt 0.722655 0.517445
vt 0.707404 0.496663
vt 0.719501 0.516044
vt 0.708387 0.495121
vt 0.715721 0.515621
vt 0.709069 0.493414
vt 0.713709 0.514423
vt 0.719656 0.487683
vt 0.722825 0.486317
vt 0.710038 0.492113
vt 0.712056 0.512723
vt 0.726696 0.485756
vt 0.712176 0.490921
vt 0.709931 0.511508
vt 0.733647 0.487770
vt 0.682140 0.463173
vt 0.674985 0.525812
vt 0.705722 0.436085
vt 0.715872 0.488064
vt 0.708313 0.508481
vt 0.747489 0.489460
vt 0.707347 0.506929
vt 0.764228 0.502109
vt 0.706942 0.505619
vt 0.747355 0.514572
vt 0.707220 0.503727
vt 0.739342 0.516360
vt 0.706856 0.501793
vt 0.733494 0.516111
vt 0.615619 0.309709
vt 0.613441 0.692971
vt 0.713848 0.489240
vt 0.708977 0.510196
vt 0.739497 0.487585
s 1
usemtl pumpkin
f 479/1/479 18/2/18 19/3/19
f 2/4/2 12/5/12 476/6/476
f 480/7/480 19/3/19 20/8/20
f 476/6/476 13/9/13 3/10/3
f 481/11/481 20/8/20 21/12/21
f 3/10/3 14/13/14 4/14/4
f 307/15/307 481/11/481 21/12/21
f 5/16/5 14/13/14 15/17/15
f 473/18/473 482/19/482 513/20/513
f 477/21/477 15/17/15 16/22/16
f 474/23/474 9/24/9 1/25/1
f 6/26/6 16/22/16 17/27/17
f 1/25/1 10/28/10 475/29/475
f 478/30/478 17/27/17 18/2/18
f 475/29/475 11/31/11 2/4/2
f 17/27/17 33/32/33 18/2/18
f 11/31/11 25/33/25 26/34/26
f 18/2/18 34/35/34 19/3/19
f 12/5/12 26/34/26 27/36/27
f 19/3/19 35/37/35 20/8/20
f 13/9/13 27/36/27 28/38/28
f 20/8/20 36/39/36 21/12/21
f 14/13/14 28/38/28 29/40/29
f 307/15/307 21/12/21 36/39/36
f 14/13/14 30/41/30 15/17/15
f 482/19/482 22/42/22 483/43/483
f 15/17/15 31/44/31 16/22/16
f 9/24/9 23/45/23 24/46/24
f 16/22/16 32/47/32 17/27/17
f 10/28/10 24/46/24 25/33/25
f 307/15/307 36/39/36 51/48/51
f 29/40/29 45/49/45 30/41/30
f 22/42/22 484/50/484 483/43/483
f 30/41/30 46/51/46 31/44/31
f 24/46/24 38/52/38 39/53/39
f 32/47/32 46/51/46 47/54/47
f 24/46/24 40/55/40 25/33/25
f 32/47/32 48/56/48 33/32/33
f 25/33/25 41/57/41 26/34/26
f 33/32/33 49/58/49 34/35/34
f 26/34/26 42/59/42 27/36/27
f 34/35/34 50/60/50 35/37/35
f 27/36/27 43/61/43 28/38/28
f 35/37/35 51/48/51 36/39/36
f 29/40/29 43/61/43 44/62/44
f 40/55/40 56/63/56 41/57/41
f 49/58/49 63/64/63 64/65/64
f 41/57/41 57/66/57 42/59/42
f 50/60/50 64/65/64 65/67/65
f 42/59/42 58/68/58 43/61/43
f 51/48/51 65/67/65 66/69/66
f 43/61/43 59/70/59 44/62/44
f 307/15/307 51/48/51 66/69/66
f 45/49/45 59/70/59 60/71/60
f 37/72/37 485/73/485 484/50/484
f 46/51/46 60/71/60 61/74/61
f 38/52/38 54/75/54 39/53/39
f 47/54/47 61/74/61 62/76/62
f 39/53/39 55/77/55 40/55/40
f 48/56/48 62/76/62 63/64/63
f 59/70/59 75/78/75 60/71/60
f 485/73/485 67/79/67 486/80/486
f 60/71/60 76/81/76 61/74/61
f 54/75/54 68/82/68 69/83/69
f 61/74/61 77/84/77 62/76/62
f 55/77/55 69/83/69 70/85/70
f 62/76/62 78/86/78 63/64/63
f 56/63/56 70/85/70 71/87/71
f 63/64/63 79/88/79 64/65/64
f 57/66/57 71/87/71 72/89/72
f 64/65/64 80/90/80 65/67/65
f 58/68/58 72/89/72 73/91/73
f 65/67/65 81/92/81 66/69/66
f 59/70/59 73/91/73 74/93/74
f 307/15/307 66/69/66 81/92/81
f 79/88/79 93/94/93 94/95/94
f 71/87/71 87/96/87 72/89/72
f 79/88/79 95/97/95 80/90/80
f 73/91/73 87/96/87 88/98/88
f 80/90/80 96/99/96 81/92/81
f 74/93/74 88/98/88 89/100/89
f 307/15/307 81/92/81 96/99/96
f 74/93/74 90/101/90 75/78/75
f 67/79/67 487/102/487 486/80/486
f 75/78/75 91/103/91 76/81/76
f 69/83/69 83/104/83 84/105/84
f 77/84/77 91/103/91 92/106/92
f 69/83/69 85/107/85 70/85/70
f 77/84/77 93/94/93 78/86/78
f 70/85/70 86/108/86 71/87/71
f 82/109/82 488/110/488 487/102/487
f 91/103/91 105/111/105 106/112/106
f 83/104/83 99/113/99 84/105/84
f 92/106/92 106/112/106 107/114/107
f 84/105/84 100/115/100 85/107/85
f 93/94/93 107/114/107 108/116/108
f 85/107/85 101/117/101 86/108/86
f 94/95/94 108/116/108 109/118/109
f 86/108/86 102/119/102 87/96/87
f 95/97/95 109/118/109 110/120/110
f 87/96/87 103/121/103 88/98/88
f 96/99/96 110/120/110 111/122/111
f 88/98/88 104/123/104 89/100/89
f 307/15/307 96/99/96 111/122/111
f 90/101/90 104/123/104 105/111/105
f 102/124/102 116/125/116 117/126/117
f 109/127/109 125/128/125 110/129/110
f 103/130/103 117/126/117 118/131/118
f 110/129/110 126/132/126 111/133/111
f 104/134/104 118/131/118 119/135/119
f 307/15/307 111/133/111 126/132/126
f 104/134/104 120/136/120 105/137/105
f 488/138/488 112/139/112 489/140/489
f 105/137/105 121/141/121 106/142/106
f 99/143/99 113/144/113 114/145/114
f 106/142/106 122/146/122 107/147/107
f 100/148/100 114/145/114 115/149/115
f 107/147/107 123/150/123 108/151/108
f 101/152/101 115/149/115 116/125/116
f 108/151/108 124/153/124 109/127/109
f 120/136/120 136/154/136 121/141/121
f 113/144/113 129/155/129 114/145/114
f 122/146/122 136/154/136 137/156/137
f 115/149/115 129/155/129 130/157/130
f 122/146/122 138/158/138 123/150/123
f 116/125/116 130/157/130 131/159/131
f 124/153/124 138/158/138 139/160/139
f 117/126/117 131/159/131 132/161/132
f 125/128/125 139/160/139 140/162/140
f 118/131/118 132/161/132 133/163/133
f 126/132/126 140/162/140 141/164/141
f 119/135/119 133/163/133 134/165/134
f 307/15/307 126/132/126 141/164/141
f 119/135/119 135/166/135 120/136/120
f 489/140/489 127/167/127 490/168/490
f 140/162/140 154/169/154 155/170/155
f 132/161/132 148/171/148 133/163/133
f 141/164/141 155/170/155 156/172/156
f 133/163/133 149/173/149 134/165/134
f 307/15/307 141/164/141 156/172/156
f 135/166/135 149/173/149 150/174/150
f 127/167/127 491/175/491 490/168/490
f 136/154/136 150/174/150 151/176/151
f 128/177/128 144/178/144 129/155/129
f 137/156/137 151/176/151 152/179/152
f 129/155/129 145/180/145 130/157/130
f 138/158/138 152/179/152 153/181/153
f 130/157/130 146/182/146 131/159/131
f 139/160/139 153/181/153 154/169/154
f 131/159/131 147/183/147 132/161/132
f 151/176/151 167/184/167 152/179/152
f 145/180/145 159/185/159 160/186/160
f 152/179/152 168/187/168 153/181/153
f 146/182/146 160/186/160 161/188/161
f 153/181/153 169/189/169 154/169/154
f 147/183/147 161/188/161 162/190/162
f 154/169/154 170/191/170 155/170/155
f 148/171/148 162/190/162 163/192/163
f 155/170/155 171/193/171 156/172/156
f 149/173/149 163/192/163 164/194/164
f 307/15/307 156/172/156 171/193/171
f 149/173/149 165/195/165 150/174/150
f 491/175/491 157/196/157 492/197/492
f 150/174/150 166/198/166 151/176/151
f 144/178/144 158/199/158 159/185/159
f 171/193/171 185/200/185 186/201/186
f 164/194/164 178/202/178 179/203/179
f 307/15/307 171/193/171 186/201/186
f 164/194/164 180/204/180 165/195/165
f 492/197/492 172/205/172 493/206/493
f 165/195/165 181/207/181 166/198/166
f 158/199/158 174/208/174 159/185/159
f 167/184/167 181/207/181 182/209/182
f 160/186/160 174/208/174 175/210/175
f 168/187/168 182/209/182 183/211/183
f 161/188/161 175/210/175 176/212/176
f 168/187/168 184/213/184 169/189/169
f 162/190/162 176/212/176 177/214/177
f 170/191/170 184/213/184 185/200/185
f 163/192/163 177/214/177 178/202/178
f 174/208/174 190/215/190 175/210/175
f 183/211/183 197/216/197 198/217/198
f 175/210/175 191/218/191 176/212/176
f 184/213/184 198/217/198 199/219/199
f 176/212/176 192/220/192 177/214/177
f 185/200/185 199/219/199 200/221/200
f 177/214/177 193/222/193 178/202/178
f 186/201/186 200/221/200 201/223/201
f 178/202/178 194/224/194 179/203/179
f 307/15/307 186/201/186 201/223/201
f 180/204/180 194/224/194 195/225/195
f 172/205/172 494/226/494 493/206/493
f 181/207/181 195/225/195 196/227/196
f 173/228/173 189/229/189 174/208/174
f 182/209/182 196/227/196 197/216/197
f 194/224/194 208/230/208 209/231/209
f 307/15/307 201/223/201 216/232/216
f 194/224/194 210/233/210 195/225/195
f 494/226/494 202/234/202 495/235/495
f 195/225/195 211/236/211 196/227/196
f 189/229/189 203/237/203 204/238/204
f 196/227/196 212/239/212 197/216/197
f 190/215/190 204/238/204 205/240/205
f 197/216/197 213/241/213 198/217/198
f 191/218/191 205/240/205 206/242/206
f 198/217/198 214/243/214 199/219/199
f 192/220/192 206/242/206 207/244/207
f 199/219/199 215/245/215 200/221/200
f 193/222/193 207/244/207 208/230/208
f 200/221/200 216/232/216 201/223/201
f 212/239/212 228/246/228 213/241/213
f 206/242/206 220/247/220 221/248/221
f 214/243/214 228/246/228 229/249/229
f 207/244/207 221/248/221 222/250/222
f 215/245/215 229/249/229 230/251/230
f 208/230/208 222/250/222 223/252/223
f 216/232/216 230/251/230 231/253/231
f 209/231/209 223/252/223 224/254/224
f 307/15/307 216/232/216 231/253/231
f 209/231/209 225/255/225 210/233/210
f 495/235/495 217/256/217 496/257/496
f 210/233/210 226/258/226 211/236/211
f 203/237/203 219/259/219 204/238/204
f 212/239/212 226/258/226 227/260/227
f 205/240/205 219/259/219 220/247/220
f 307/15/307 231/253/231 246/261/246
f 225/255/225 239/262/239 240/263/240
f 217/256/217 497/264/497 496/257/496
f 226/258/226 240/263/240 241/265/241
f 218/266/218 234/267/234 219/259/219
f 227/260/227 241/265/241 242/268/242
f 219/259/219 235/269/235 220/247/220
f 228/246/228 242/268/242 243/270/243
f 220/247/220 236/271/236 221/248/221
f 229/249/229 243/270/243 244/272/244
f 221/248/221 237/273/237 222/250/222
f 230/251/230 244/272/244 245/274/245
f 222/250/222 238/275/238 223/252/223
f 231/253/231 245/274/245 246/261/246
f 223/252/223 239/262/239 224/254/224
f 236/271/236 250/276/250 251/277/251
f 243/270/243 259/278/259 244/272/244
f 237/273/237 251/277/251 252/279/252
f 244/272/244 260/280/260 245/274/245
f 238/275/238 252/279/252 253/281/253
f 245/274/245 261/282/261 246/261/246
f 239/262/239 253/281/253 254/283/254
f 307/15/307 246/261/246 261/282/261
f 239/262/239 255/284/255 240/263/240
f 497/264/497 247/285/247 498/286/498
f 240/263/240 256/287/256 241/265/241
f 234/267/234 248/288/248 249/289/249
f 241/265/241 257/290/257 242/268/242
f 235/269/235 249/289/249 250/276/250
f 242/268/242 258/291/258 243/270/243
f 254/283/254 270/292/270 255/284/255
f 498/286/498 262/293/262 499/294/499
f 255/284/255 271/295/271 256/287/256
f 248/288/248 264/296/264 249/289/249
f 257/290/257 271/295/271 272/297/272
f 250/276/250 264/296/264 265/298/265
f 257/290/257 273/299/273 258/291/258
f 251/277/251 265/298/265 266/300/266
f 258/291/258 274/301/274 259/278/259
f 252/279/252 266/300/266 267/302/267
f 260/280/260 274/301/274 275/303/275
f 253/281/253 267/302/267 268/304/268
f 261/282/261 275/303/275 276/305/276
f 254/283/254 268/304/268 269/306/269
f 307/15/307 261/282/261 276/305/276
f 274/301/274 288/307/288 289/308/289
f 266/300/266 282/309/282 267/302/267
f 275/303/275 289/308/289 290/310/290
f 267/302/267 283/311/283 268/304/268
f 276/305/276 290/310/290 291/312/291
f 268/304/268 284/313/284 269/306/269
f 307/15/307 276/305/276 291/312/291
f 270/292/270 284/313/284 285/314/285
f 262/293/262 500/315/500 499/294/499
f 271/295/271 285/314/285 286/316/286
f 263/317/263 279/318/279 264/296/264
f 272/297/272 286/316/286 287/319/287
f 264/296/264 280/320/280 265/298/265
f 273/299/273 287/319/287 288/307/288
f 265/298/265 281/321/281 266/300/266
f 285/314/285 301/322/301 286/316/286
f 279/318/279 293/323/293 294/324/294
f 286/316/286 302/325/302 287/319/287
f 280/320/280 294/324/294 295/326/295
f 287/319/287 303/327/303 288/307/288
f 281/321/281 295/326/295 296/328/296
f 288/307/288 304/329/304 289/308/289
f 282/309/282 296/328/296 297/330/297
f 289/308/289 305/331/305 290/310/290
f 283/311/283 297/330/297 298/332/298
f 290/310/290 306/333/306 291/312/291
f 284/313/284 298/332/298 299/334/299
f 307/15/307 291/312/291 306/333/306
f 284/313/284 300/335/300 285/314/285
f 500/315/500 292/336/292 501/337/501
f 305/331/305 320/338/320 321/339/321
f 298/332/298 313/340/313 314/341/314
f 306/333/306 321/339/321 322/342/322
f 299/334/299 314/341/314 315/343/315
f 307/15/307 306/333/306 322/342/322
f 299/334/299 316/344/316 300/335/300
f 292/336/292 502/345/502 501/337/501
f 300/335/300 317/346/317 301/322/301
f 293/323/293 310/347/310 294/324/294
f 301/322/301 318/348/318 302/325/302
f 295/326/295 310/347/310 311/349/311
f 302/325/302 319/350/319 303/327/303
f 296/328/296 311/349/311 312/351/312
f 304/329/304 319/350/319 320/338/320
f 297/330/297 312/351/312 313/340/313
f 309/352/309 325/353/325 310/347/310
f 318/348/318 332/354/332 333/355/333
f 310/347/310 326/356/326 311/349/311
f 319/350/319 333/355/333 334/357/334
f 311/349/311 327/358/327 312/351/312
f 320/338/320 334/357/334 335/359/335
f 312/351/312 328/360/328 313/340/313
f 321/339/321 335/359/335 336/361/336
f 313/340/313 329/362/329 314/341/314
f 322/342/322 336/361/336 337/363/337
f 314/341/314 330/364/330 315/343/315
f 307/15/307 322/342/322 337/363/337
f 316/344/316 330/364/330 331/365/331
f 308/366/308 503/367/503 502/345/502
f 317/346/317 331/365/331 332/354/332
f 329/362/329 343/368/343 344/369/344
f 336/361/336 352/370/352 337/363/337
f 330/364/330 344/369/344 345/371/345
f 307/15/307 337/363/337 352/370/352
f 330/364/330 346/372/346 331/365/331
f 503/367/503 338/373/338 504/374/504
f 331/365/331 347/375/347 332/354/332
f 325/353/325 339/376/339 340/377/340
f 332/354/332 348/378/348 333/355/333
f 326/356/326 340/377/340 341/379/341
f 333/355/333 349/380/349 334/357/334
f 327/358/327 341/379/341 342/381/342
f 334/357/334 350/382/350 335/359/335
f 328/360/328 342/381/342 343/368/343
f 335/359/335 351/383/351 336/361/336
f 348/378/348 362/384/362 363/385/363
f 340/377/340 356/386/356 341/379/341
f 349/380/349 363/385/363 364/387/364
f 341/379/341 357/388/357 342/381/342
f 350/382/350 364/387/364 365/389/365
f 342/381/342 358/390/358 343/368/343
f 351/383/351 365/389/365 366/391/366
f 343/368/343 359/392/359 344/369/344
f 352/370/352 366/391/366 367/393/367
f 344/369/344 360/394/360 345/371/345
f 307/15/307 352/370/352 367/393/367
f 346/372/346 360/394/360 361/395/361
f 338/373/338 505/396/505 504/374/504
f 347/375/347 361/395/361 362/384/362
f 339/376/339 355/397/355 340/377/340
f 366/391/366 382/398/382 367/393/367
f 360/394/360 374/399/374 375/400/375
f 307/15/307 367/393/367 382/398/382
f 360/394/360 376/401/376 361/395/361
f 505/396/505 368/402/368 506/403/506
f 361/395/361 377/404/377 362/384/362
f 355/397/355 369/405/369 370/406/370
f 362/384/362 378/407/378 363/385/363
f 356/386/356 370/406/370 371/408/371
f 363/385/363 379/409/379 364/387/364
f 357/388/357 371/408/371 372/410/372
f 364/387/364 380/411/380 365/389/365
f 358/390/358 372/410/372 373/412/373
f 365/389/365 381/413/381 366/391/366
f 359/392/359 373/412/373 374/399/374
f 370/406/370 386/414/386 371/408/371
f 378/407/378 394/415/394 379/409/379
f 371/408/371 387/416/387 372/410/372
f 380/411/380 394/415/394 395/417/395
f 372/410/372 388/418/388 373/412/373
f 380/411/380 396/419/396 381/413/381
f 374/399/374 388/418/388 389/420/389
f 381/413/381 397/421/397 382/398/382
f 375/400/375 389/420/389 390/422/390
f 307/15/307 382/398/382 397/421/397
f 375/400/375 391/423/391 376/401/376
f 506/403/506 383/424/383 507/425/507
f 376/401/376 392/426/392 377/404/377
f 370/406/370 384/427/384 385/428/385
f 378/407/378 392/426/392 393/429/393
f 389/420/389 405/430/405 390/422/390
f 307/15/307 397/421/397 412/431/412
f 391/423/391 405/430/405 406/432/406
f 383/424/383 508/433/508 507/425/507
f 392/426/392 406/432/406 407/434/407
f 384/427/384 400/435/400 385/428/385
f 393/429/393 407/434/407 408/436/408
f 385/428/385 401/437/401 386/414/386
f 394/415/394 408/436/408 409/438/409
f 386/414/386 402/439/402 387/416/387
f 395/417/395 409/438/409 410/440/410
f 387/416/387 403/441/403 388/418/388
f 396/419/396 410/440/410 411/442/411
f 388/418/388 404/443/404 389/420/389
f 397/421/397 411/442/411 412/431/412
f 408/436/408 424/444/424 409/438/409
f 402/439/402 416/445/416 417/446/417
f 409/438/409 425/447/425 410/440/410
f 403/441/403 417/446/417 418/448/418
f 410/440/410 426/449/426 411/442/411
f 404/443/404 418/448/418 419/450/419
f 411/442/411 427/451/427 412/431/412
f 405/430/405 419/450/419 420/452/420
f 307/15/307 412/431/412 427/451/427
f 405/430/405 421/453/421 406/432/406
f 508/433/508 413/454/413 509/455/509
f 406/432/406 422/456/422 407/434/407
f 400/435/400 414/457/414 415/458/415
f 407/434/407 423/459/423 408/436/408
f 401/437/401 415/458/415 416/445/416
f 307/15/307 427/451/427 442/460/442
f 420/452/420 436/461/436 421/453/421
f 413/454/413 510/462/510 509/455/509
f 421/453/421 437/463/437 422/456/422
f 415/458/415 429/464/429 430/465/430
f 423/459/423 437/463/437 438/466/438
f 415/458/415 431/467/431 416/445/416
f 423/459/423 439/468/439 424/444/424
f 416/445/416 432/469/432 417/446/417
f 425/447/425 439/468/439 440/470/440
f 417/446/417 433/471/433 418/448/418
f 425/447/425 441/472/441 426/449/426
f 419/450/419 433/471/433 434/473/434
f 426/449/426 442/460/442 427/451/427
f 420/452/420 434/473/434 435/474/435
f 440/470/440 454/475/454 455/476/455
f 432/469/432 448/477/448 433/471/433
f 441/472/441 455/476/455 456/478/456
f 433/471/433 449/479/449 434/473/434
f 442/460/442 456/478/456 457/480/457
f 434/473/434 450/481/450 435/474/435
f 307/15/307 442/460/442 457/480/457
f 436/461/436 450/481/450 451/482/451
f 428/483/428 511/484/511 510/462/510
f 437/463/437 451/482/451 452/485/452
f 429/464/429 445/486/445 430/465/430
f 438/466/438 452/485/452 453/487/453
f 430/465/430 446/488/446 431/467/431
f 439/468/439 453/487/453 454/475/454
f 431/467/431 447/489/447 432/469/432
f 511/484/511 458/490/458 512/491/512
f 451/482/451 467/492/467 452/485/452
f 445/486/445 459/493/459 460/494/460
f 452/485/452 468/495/468 453/487/453
f 446/488/446 460/494/460 461/496/461
f 453/487/453 469/497/469 454/475/454
f 447/489/447 461/496/461 462/498/462
f 454/475/454 470/499/470 455/476/455
f 448/477/448 462/498/462 463/500/463
f 455/476/455 471/501/471 456/478/456
f 449/479/449 463/500/463 464/502/464
f 456/478/456 472/503/472 457/480/457
f 450/481/450 464/502/464 465/504/465
f 307/15/307 457/480/457 472/503/472
f 450/481/450 466/505/466 451/482/451
f 462/498/462 476/6/476 463/500/463
f 470/499/470 480/7/480 471/501/471
f 464/502/464 476/6/476 3/10/3
f 471/501/471 481/11/481 472/503/472
f 465/504/465 3/10/3 4/14/4
f 307/15/307 472/503/472 481/11/481
f 465/504/465 5/16/5 466/505/466
f 458/490/458 513/20/513 512/491/512
f 466/505/466 477/21/477 467/492/467
f 460/494/460 474/23/474 1/25/1
f 467/492/467 6/26/6 468/495/468
f 460/494/460 475/29/475 461/496/461
f 468/495/468 478/30/478 469/497/469
f 461/496/461 2/4/2 462/498/462
f 469/497/469 479/1/479 470/499/470
f 459/493/459 513/20/513 474/23/474
f 444/506/444 512/491/512 459/493/459
f 510/462/510 444/506/444 429/464/429
f 414/457/414 510/462/510 429/464/429
f 399/507/399 509/455/509 414/457/414
f 507/425/507 399/507/399 384/427/384
f 369/405/369 507/425/507 384/427/384
f 354/508/354 506/403/506 369/405/369
f 504/374/504 354/508/354 339/376/339
f 324/509/324 504/374/504 339/376/339
f 502/345/502 324/509/324 309/352/309
f 501/337/501 309/352/309 293/323/293
f 278/510/278 501/337/501 293/323/293
f 499/294/499 278/510/278 263/317/263
f 498/286/498 263/317/263 248/288/248
f 233/511/233 498/286/498 248/288/248
f 496/257/496 233/511/233 218/266/218
f 495/235/495 218/266/218 203/237/203
f 188/512/188 495/235/495 203/237/203
f 493/206/493 188/512/188 173/228/173
f 492/197/492 173/228/173 158/199/158
f 143/513/143 492/197/492 158/199/158
f 490/168/490 143/513/143 128/177/128
f 489/140/489 128/177/128 113/144/113
f 98/514/98 489/140/489 113/144/113
f 487/102/487 98/515/98 83/104/83
f 68/82/68 487/102/487 83/104/83
f 53/516/53 486/80/486 68/82/68
f 484/50/484 53/516/53 38/52/38
f 23/45/23 484/50/484 38/52/38
f 8/517/8 483/43/483 23/45/23
f 513/20/513 8/517/8 474/23/474
f 112/139/112 520/518/520 521/519/521
f 458/490/458 545/520/545 473/18/473
f 338/373/338 537/521/537 353/522/353
f 172/205/172 526/523/526 187/524/187
f 292/336/292 534/525/534 308/366/308
f 67/79/67 517/526/517 52/527/52
f 22/42/22 514/528/514 515/529/515
f 127/167/127 523/530/523 142/531/142
f 428/483/428 541/532/541 413/454/413
f 383/424/383 538/533/538 539/534/539
f 247/285/247 531/535/531 530/536/530
f 217/256/217 527/537/527 528/538/528
f 82/109/82 520/539/520 519/540/519
f 338/373/338 535/541/535 536/542/536
f 458/490/458 543/543/543 443/544/443
f 37/72/37 517/526/517 52/527/52
f 172/205/172 524/545/524 525/546/525
f 292/336/292 532/547/532 533/548/533
f 413/454/413 540/549/540 541/532/541
f 22/42/22 516/550/516 37/72/37
f 202/234/202 526/523/526 527/537/527
f 247/285/247 529/551/529 530/536/530
f 368/402/368 537/521/537 538/533/538
f 473/18/473 514/528/514 7/552/7
f 127/167/127 521/519/521 522/553/522
f 67/79/67 519/540/519 82/109/82
f 428/483/428 543/543/543 443/544/443
f 217/256/217 529/551/529 232/554/232
f 383/424/383 540/549/540 398/555/398
f 308/366/308 535/541/535 323/556/323
f 157/196/157 523/530/523 524/545/524
f 262/293/262 532/547/532 277/557/277
f 534/525/534 567/558/566 535/541/535
f 522/553/522 553/559/552 554/560/553
f 536/542/536 567/558/566 568/561/567
f 522/553/522 555/562/554 523/530/523
f 536/542/536 569/563/568 537/521/537
f 524/545/524 555/562/554 556/564/555
f 538/533/538 569/563/568 570/565/569
f 525/546/525 556/564/555 557/566/556
f 539/534/539 570/565/569 571/567/570
f 525/546/525 558/568/557 526/523/526
f 539/534/539 572/569/571 540/549/540
f 527/537/527 558/568/557 559/570/558
f 541/532/541 572/569/571 573/571/572
f 528/538/528 559/570/558 560/572/559
f 515/529/515 546/573/546 547/574/547
f 541/532/541 574/575/573 573/571/572
f 528/538/528 561/576/560 529/551/529
f 515/529/515 548/577/548 516/550/516
f 542/578/542 575/579/574 543/543/543
f 530/536/530 561/576/560 562/580/561
f 516/550/516 549/581/549 517/526/517
f 544/582/544 575/579/574 543/543/543
f 531/535/531 562/580/561 530/536/530
f 518/583/518 549/581/549 517/526/517
f 544/582/544 577/584/576 545/520/545
f 531/535/531 564/585/563 532/547/532
f 518/583/518 551/586/551 519/540/519
f 545/520/545 546/573/546 514/528/514
f 533/548/533 564/585/563 565/587/564
f 519/540/519 552/588/520 551/586/551
f 533/548/533 566/589/565 534/525/534
f 521/519/521 552/590/520 553/559/552
f 570/565/569 601/591/600 602/592/601
f 557/566/556 588/593/587 589/594/588
f 571/567/570 602/592/601 603/595/602
f 557/566/556 590/596/589 558/568/557
f 571/567/570 604/597/603 572/569/571
f 559/570/558 590/596/589 591/598/590
f 573/571/572 604/597/603 605/599/604
f 560/572/559 591/598/590 592/600/591
f 547/574/547 578/601/577 579/602/578
f 573/571/572 606/603/605 605/599/604
f 560/572/559 593/604/592 561/576/560
f 547/574/547 580/605/579 548/577/548
f 574/575/573 607/606/606 575/579/574
f 562/580/561 593/604/592 594/607/593
f 548/577/548 581/608/580 549/581/549
f 576/609/575 607/606/606 575/579/574
f 563/610/562 594/607/593 562/580/561
f 550/611/550 581/608/580 549/581/549
f 576/609/575 609/612/608 577/584/576
f 563/610/562 596/613/595 564/585/563
f 550/611/550 583/614/582 551/586/551
f 577/584/576 578/601/577 546/573/546
f 565/587/564 596/613/595 597/615/596
f 551/586/551 584/616/583 583/614/582
f 565/587/564 598/617/597 566/589/565
f 553/559/552 584/616/583 585/618/584
f 566/589/565 599/619/598 567/558/566
f 554/560/553 585/618/584 586/620/585
f 568/561/567 599/619/598 600/621/599
f 554/560/553 587/622/586 555/562/554
f 568/561/567 601/591/600 569/563/568
f 556/564/555 587/622/586 588/593/587
f 599/619/598 593/604/592 590/596/589
f 479/1/479 478/30/478 18/2/18
f 2/4/2 11/31/11 12/5/12
f 480/7/480 479/1/479 19/3/19
f 476/6/476 12/5/12 13/9/13
f 481/11/481 480/7/480 20/8/20
f 3/10/3 13/9/13 14/13/14
f 5/16/5 4/14/4 14/13/14
f 473/18/473 7/552/7 482/19/482
f 477/21/477 5/16/5 15/17/15
f 474/23/474 8/517/8 9/24/9
f 6/26/6 477/21/477 16/22/16
f 1/25/1 9/24/9 10/28/10
f 478/30/478 6/26/6 17/27/17
f 475/29/475 10/28/10 11/31/11
f 17/27/17 32/47/32 33/32/33
f 11/31/11 10/28/10 25/33/25
f 18/2/18 33/32/33 34/35/34
f 12/5/12 11/31/11 26/34/26
f 19/3/19 34/35/34 35/37/35
f 13/9/13 12/5/12 27/36/27
f 20/8/20 35/37/35 36/39/36
f 14/13/14 13/9/13 28/38/28
f 14/13/14 29/40/29 30/41/30
f 482/19/482 7/552/7 22/42/22
f 15/17/15 30/41/30 31/44/31
f 9/24/9 8/517/8 23/45/23
f 16/22/16 31/44/31 32/47/32
f 10/28/10 9/24/9 24/46/24
f 29/40/29 44/62/44 45/49/45
f 22/42/22 37/72/37 484/50/484
f 30/41/30 45/49/45 46/51/46
f 24/46/24 23/45/23 38/52/38
f 32/47/32 31/44/31 46/51/46
f 24/46/24 39/53/39 40/55/40
f 32/47/32 47/54/47 48/56/48
f 25/33/25 40/55/40 41/57/41
f 33/32/33 48/56/48 49/58/49
f 26/34/26 41/57/41 42/59/42
f 34/35/34 49/58/49 50/60/50
f 27/36/27 42/59/42 43/61/43
f 35/37/35 50/60/50 51/48/51
f 29/40/29 28/38/28 43/61/43
f 40/55/40 55/77/55 56/63/56
f 49/58/49 48/56/48 63/64/63
f 41/57/41 56/63/56 57/66/57
f 50/60/50 49/58/49 64/65/64
f 42/59/42 57/66/57 58/68/58
f 51/48/51 50/60/50 65/67/65
f 43/61/43 58/68/58 59/70/59
f 45/49/45 44/62/44 59/70/59
f 37/72/37 52/527/52 485/73/485
f 46/51/46 45/49/45 60/71/60
f 38/52/38 53/516/53 54/75/54
f 47/54/47 46/51/46 61/74/61
f 39/53/39 54/75/54 55/77/55
f 48/56/48 47/54/47 62/76/62
f 59/70/59 74/93/74 75/78/75
f 485/73/485 52/527/52 67/79/67
f 60/71/60 75/78/75 76/81/76
f 54/75/54 53/516/53 68/82/68
f 61/74/61 76/81/76 77/84/77
f 55/77/55 54/75/54 69/83/69
f 62/76/62 77/84/77 78/86/78
f 56/63/56 55/77/55 70/85/70
f 63/64/63 78/86/78 79/88/79
f 57/66/57 56/63/56 71/87/71
f 64/65/64 79/88/79 80/90/80
f 58/68/58 57/66/57 72/89/72
f 65/67/65 80/90/80 81/92/81
f 59/70/59 58/68/58 73/91/73
f 79/88/79 78/86/78 93/94/93
f 71/87/71 86/108/86 87/96/87
f 79/88/79 94/95/94 95/97/95
f 73/91/73 72/89/72 87/96/87
f 80/90/80 95/97/95 96/99/96
f 74/93/74 73/91/73 88/98/88
f 74/93/74 89/100/89 90/101/90
f 67/79/67 82/109/82 487/102/487
f 75/78/75 90/101/90 91/103/91
f 69/83/69 68/82/68 83/104/83
f 77/84/77 76/81/76 91/103/91
f 69/83/69 84/105/84 85/107/85
f 77/84/77 92/106/92 93/94/93
f 70/85/70 85/107/85 86/108/86
f 82/109/82 97/623/97 488/110/488
f 91/103/91 90/101/90 105/111/105
f 83/104/83 98/515/98 99/113/99
f 92/106/92 91/103/91 106/112/106
f 84/105/84 99/113/99 100/115/100
f 93/94/93 92/106/92 107/114/107
f 85/107/85 100/115/100 101/117/101
f 94/95/94 93/94/93 108/116/108
f 86/108/86 101/117/101 102/119/102
f 95/97/95 94/95/94 109/118/109
f 87/96/87 102/119/102 103/121/103
f 96/99/96 95/97/95 110/120/110
f 88/98/88 103/121/103 104/123/104
f 90/101/90 89/100/89 104/123/104
f 102/124/102 101/152/101 116/125/116
f 109/127/109 124/153/124 125/128/125
f 103/130/103 102/124/102 117/126/117
f 110/129/110 125/128/125 126/132/126
f 104/134/104 103/130/103 118/131/118
f 104/134/104 119/135/119 120/136/120
f 488/138/488 97/624/97 112/139/112
f 105/137/105 120/136/120 121/141/121
f 99/143/99 98/514/98 113/144/113
f 106/142/106 121/141/121 122/146/122
f 100/148/100 99/143/99 114/145/114
f 107/147/107 122/146/122 123/150/123
f 101/152/101 100/148/100 115/149/115
f 108/151/108 123/150/123 124/153/124
f 120/136/120 135/166/135 136/154/136
f 113/144/113 128/177/128 129/155/129
f 122/146/122 121/141/121 136/154/136
f 115/149/115 114/145/114 129/155/129
f 122/146/122 137/156/137 138/158/138
f 116/125/116 115/149/115 130/157/130
f 124/153/124 123/150/123 138/158/138
f 117/126/117 116/125/116 131/159/131
f 125/128/125 124/153/124 139/160/139
f 118/131/118 117/126/117 132/161/132
f 126/132/126 125/128/125 140/162/140
f 119/135/119 118/131/118 133/163/133
f 119/135/119 134/165/134 135/166/135
f 489/140/489 112/139/112 127/167/127
f 140/162/140 139/160/139 154/169/154
f 132/161/132 147/183/147 148/171/148
f 141/164/141 140/162/140 155/170/155
f 133/163/133 148/171/148 149/173/149
f 135/166/135 134/165/134 149/173/149
f 127/167/127 142/531/142 491/175/491
f 136/154/136 135/166/135 150/174/150
f 128/177/128 143/513/143 144/178/144
f 137/156/137 136/154/136 151/176/151
f 129/155/129 144/178/144 145/180/145
f 138/158/138 137/156/137 152/179/152
f 130/157/130 145/180/145 146/182/146
f 139/160/139 138/158/138 153/181/153
f 131/159/131 146/182/146 147/183/147
f 151/176/151 166/198/166 167/184/167
f 145/180/145 144/178/144 159/185/159
f 152/179/152 167/184/167 168/187/168
f 146/182/146 145/180/145 160/186/160
f 153/181/153 168/187/168 169/189/169
f 147/183/147 146/182/146 161/188/161
f 154/169/154 169/189/169 170/191/170
f 148/171/148 147/183/147 162/190/162
f 155/170/155 170/191/170 171/193/171
f 149/173/149 148/171/148 163/192/163
f 149/173/149 164/194/164 165/195/165
f 491/175/491 142/531/142 157/196/157
f 150/174/150 165/195/165 166/198/166
f 144/178/144 143/513/143 158/199/158
f 171/193/171 170/191/170 185/200/185
f 164/194/164 163/192/163 178/202/178
f 164/194/164 179/203/179 180/204/180
f 492/197/492 157/196/157 172/205/172
f 165/195/165 180/204/180 181/207/181
f 158/199/158 173/228/173 174/208/174
f 167/184/167 166/198/166 181/207/181
f 160/186/160 159/185/159 174/208/174
f 168/187/168 167/184/167 182/209/182
f 161/188/161 160/186/160 175/210/175
f 168/187/168 183/211/183 184/213/184
f 162/190/162 161/188/161 176/212/176
f 170/191/170 169/189/169 184/213/184
f 163/192/163 162/190/162 177/214/177
f 174/208/174 189/229/189 190/215/190
f 183/211/183 182/209/182 197/216/197
f 175/210/175 190/215/190 191/218/191
f 184/213/184 183/211/183 198/217/198
f 176/212/176 191/218/191 192/220/192
f 185/200/185 184/213/184 199/219/199
f 177/214/177 192/220/192 193/222/193
f 186/201/186 185/200/185 200/221/200
f 178/202/178 193/222/193 194/224/194
f 180/204/180 179/203/179 194/224/194
f 172/205/172 187/524/187 494/226/494
f 181/207/181 180/204/180 195/225/195
f 173/228/173 188/512/188 189/229/189
f 182/209/182 181/207/181 196/227/196
f 194/224/194 193/222/193 208/230/208
f 194/224/194 209/231/209 210/233/210
f 494/226/494 187/524/187 202/234/202
f 195/225/195 210/233/210 211/236/211
f 189/229/189 188/512/188 203/237/203
f 196/227/196 211/236/211 212/239/212
f 190/215/190 189/229/189 204/238/204
f 197/216/197 212/239/212 213/241/213
f 191/218/191 190/215/190 205/240/205
f 198/217/198 213/241/213 214/243/214
f 192/220/192 191/218/191 206/242/206
f 199/219/199 214/243/214 215/245/215
f 193/222/193 192/220/192 207/244/207
f 200/221/200 215/245/215 216/232/216
f 212/239/212 227/260/227 228/246/228
f 206/242/206 205/240/205 220/247/220
f 214/243/214 213/241/213 228/246/228
f 207/244/207 206/242/206 221/248/221
f 215/245/215 214/243/214 229/249/229
f 208/230/208 207/244/207 222/250/222
f 216/232/216 215/245/215 230/251/230
f 209/231/209 208/230/208 223/252/223
f 209/231/209 224/254/224 225/255/225
f 495/235/495 202/234/202 217/256/217
f 210/233/210 225/255/225 226/258/226
f 203/237/203 218/266/218 219/259/219
f 212/239/212 211/236/211 226/258/226
f 205/240/205 204/238/204 219/259/219
f 225/255/225 224/254/224 239/262/239
f 217/256/217 232/554/232 497/264/497
f 226/258/226 225/255/225 240/263/240
f 218/266/218 233/511/233 234/267/234
f 227/260/227 226/258/226 241/265/241
f 219/259/219 234/267/234 235/269/235
f 228/246/228 227/260/227 242/268/242
f 220/247/220 235/269/235 236/271/236
f 229/249/229 228/246/228 243/270/243
f 221/248/221 236/271/236 237/273/237
f 230/251/230 229/249/229 244/272/244
f 222/250/222 237/273/237 238/275/238
f 231/253/231 230/251/230 245/274/245
f 223/252/223 238/275/238 239/262/239
f 236/271/236 235/269/235 250/276/250
f 243/270/243 258/291/258 259/278/259
f 237/273/237 236/271/236 251/277/251
f 244/272/244 259/278/259 260/280/260
f 238/275/238 237/273/237 252/279/252
f 245/274/245 260/280/260 261/282/261
f 239/262/239 238/275/238 253/281/253
f 239/262/239 254/283/254 255/284/255
f 497/264/497 232/554/232 247/285/247
f 240/263/240 255/284/255 256/287/256
f 234/267/234 233/511/233 248/288/248
f 241/265/241 256/287/256 257/290/257
f 235/269/235 234/267/234 249/289/249
f 242/268/242 257/290/257 258/291/258
f 254/283/254 269/306/269 270/292/270
f 498/286/498 247/285/247 262/293/262
f 255/284/255 270/292/270 271/295/271
f 248/288/248 263/317/263 264/296/264
f 257/290/257 256/287/256 271/295/271
f 250/276/250 249/289/249 264/296/264
f 257/290/257 272/297/272 273/299/273
f 251/277/251 250/276/250 265/298/265
f 258/291/258 273/299/273 274/301/274
f 252/279/252 251/277/251 266/300/266
f 260/280/260 259/278/259 274/301/274
f 253/281/253 252/279/252 267/302/267
f 261/282/261 260/280/260 275/303/275
f 254/283/254 253/281/253 268/304/268
f 274/301/274 273/299/273 288/307/288
f 266/300/266 281/321/281 282/309/282
f 275/303/275 274/301/274 289/308/289
f 267/302/267 282/309/282 283/311/283
f 276/305/276 275/303/275 290/310/290
f 268/304/268 283/311/283 284/313/284
f 270/292/270 269/306/269 284/313/284
f 262/293/262 277/557/277 500/315/500
f 271/295/271 270/292/270 285/314/285
f 263/317/263 278/510/278 279/318/279
f 272/297/272 271/295/271 286/316/286
f 264/296/264 279/318/279 280/320/280
f 273/299/273 272/297/272 287/319/287
f 265/298/265 280/320/280 281/321/281
f 285/314/285 300/335/300 301/322/301
f 279/318/279 278/510/278 293/323/293
f 286/316/286 301/322/301 302/325/302
f 280/320/280 279/318/279 294/324/294
f 287/319/287 302/325/302 303/327/303
f 281/321/281 280/320/280 295/326/295
f 288/307/288 303/327/303 304/329/304
f 282/309/282 281/321/281 296/328/296
f 289/308/289 304/329/304 305/331/305
f 283/311/283 282/309/282 297/330/297
f 290/310/290 305/331/305 306/333/306
f 284/313/284 283/311/283 298/332/298
f 284/313/284 299/334/299 300/335/300
f 500/315/500 277/557/277 292/336/292
f 305/331/305 304/329/304 320/338/320
f 298/332/298 297/330/297 313/340/313
f 306/333/306 305/331/305 321/339/321
f 299/334/299 298/332/298 314/341/314
f 299/334/299 315/343/315 316/344/316
f 292/336/292 308/366/308 502/345/502
f 300/335/300 316/344/316 317/346/317
f 293/323/293 309/352/309 310/347/310
f 301/322/301 317/346/317 318/348/318
f 295/326/295 294/324/294 310/347/310
f 302/325/302 318/348/318 319/350/319
f 296/328/296 295/326/295 311/349/311
f 304/329/304 303/327/303 319/350/319
f 297/330/297 296/328/296 312/351/312
f 309/352/309 324/509/324 325/353/325
f 318/348/318 317/346/317 332/354/332
f 310/347/310 325/353/325 326/356/326
f 319/350/319 318/348/318 333/355/333
f 311/349/311 326/356/326 327/358/327
f 320/338/320 319/350/319 334/357/334
f 312/351/312 327/358/327 328/360/328
f 321/339/321 320/338/320 335/359/335
f 313/340/313 328/360/328 329/362/329
f 322/342/322 321/339/321 336/361/336
f 314/341/314 329/362/329 330/364/330
f 316/344/316 315/343/315 330/364/330
f 308/366/308 323/556/323 503/367/503
f 317/346/317 316/344/316 331/365/331
f 329/362/329 328/360/328 343/368/343
f 336/361/336 351/383/351 352/370/352
f 330/364/330 329/362/329 344/369/344
f 330/364/330 345/371/345 346/372/346
f 503/367/503 323/556/323 338/373/338
f 331/365/331 346/372/346 347/375/347
f 325/353/325 324/509/324 339/376/339
f 332/354/332 347/375/347 348/378/348
f 326/356/326 325/353/325 340/377/340
f 333/355/333 348/378/348 349/380/349
f 327/358/327 326/356/326 341/379/341
f 334/357/334 349/380/349 350/382/350
f 328/360/328 327/358/327 342/381/342
f 335/359/335 350/382/350 351/383/351
f 348/378/348 347/375/347 362/384/362
f 340/377/340 355/397/355 356/386/356
f 349/380/349 348/378/348 363/385/363
f 341/379/341 356/386/356 357/388/357
f 350/382/350 349/380/349 364/387/364
f 342/381/342 357/388/357 358/390/358
f 351/383/351 350/382/350 365/389/365
f 343/368/343 358/390/358 359/392/359
f 352/370/352 351/383/351 366/391/366
f 344/369/344 359/392/359 360/394/360
f 346/372/346 345/371/345 360/394/360
f 338/373/338 353/522/353 505/396/505
f 347/375/347 346/372/346 361/395/361
f 339/376/339 354/508/354 355/397/355
f 366/391/366 381/413/381 382/398/382
f 360/394/360 359/392/359 374/399/374
f 360/394/360 375/400/375 376/401/376
f 505/396/505 353/522/353 368/402/368
f 361/395/361 376/401/376 377/404/377
f 355/397/355 354/508/354 369/405/369
f 362/384/362 377/404/377 378/407/378
f 356/386/356 355/397/355 370/406/370
f 363/385/363 378/407/378 379/409/379
f 357/388/357 356/386/356 371/408/371
f 364/387/364 379/409/379 380/411/380
f 358/390/358 357/388/357 372/410/372
f 365/389/365 380/411/380 381/413/381
f 359/392/359 358/390/358 373/412/373
f 370/406/370 385/428/385 386/414/386
f 378/407/378 393/429/393 394/415/394
f 371/408/371 386/414/386 387/416/387
f 380/411/380 379/409/379 394/415/394
f 372/410/372 387/416/387 388/418/388
f 380/411/380 395/417/395 396/419/396
f 374/399/374 373/412/373 388/418/388
f 381/413/381 396/419/396 397/421/397
f 375/400/375 374/399/374 389/420/389
f 375/400/375 390/422/390 391/423/391
f 506/403/506 368/402/368 383/424/383
f 376/401/376 391/423/391 392/426/392
f 370/406/370 369/405/369 384/427/384
f 378/407/378 377/404/377 392/426/392
f 389/420/389 404/443/404 405/430/405
f 391/423/391 390/422/390 405/430/405
f 383/424/383 398/555/398 508/433/508
f 392/426/392 391/423/391 406/432/406
f 384/427/384 399/507/399 400/435/400
f 393/429/393 392/426/392 407/434/407
f 385/428/385 400/435/400 401/437/401
f 394/415/394 393/429/393 408/436/408
f 386/414/386 401/437/401 402/439/402
f 395/417/395 394/415/394 409/438/409
f 387/416/387 402/439/402 403/441/403
f 396/419/396 395/417/395 410/440/410
f 388/418/388 403/441/403 404/443/404
f 397/421/397 396/419/396 411/442/411
f 408/436/408 423/459/423 424/444/424
f 402/439/402 401/437/401 416/445/416
f 409/438/409 424/444/424 425/447/425
f 403/441/403 402/439/402 417/446/417
f 410/440/410 425/447/425 426/449/426
f 404/443/404 403/441/403 418/448/418
f 411/442/411 426/449/426 427/451/427
f 405/430/405 404/443/404 419/450/419
f 405/430/405 420/452/420 421/453/421
f 508/433/508 398/555/398 413/454/413
f 406/432/406 421/453/421 422/456/422
f 400/435/400 399/507/399 414/457/414
f 407/434/407 422/456/422 423/459/423
f 401/437/401 400/435/400 415/458/415
f 420/452/420 435/474/435 436/461/436
f 413/454/413 428/483/428 510/462/510
f 421/453/421 436/461/436 437/463/437
f 415/458/415 414/457/414 429/464/429
f 423/459/423 422/456/422 437/463/437
f 415/458/415 430/465/430 431/467/431
f 423/459/423 438/466/438 439/468/439
f 416/445/416 431/467/431 432/469/432
f 425/447/425 424/444/424 439/468/439
f 417/446/417 432/469/432 433/471/433
f 425/447/425 440/470/440 441/472/441
f 419/450/419 418/448/418 433/471/433
f 426/449/426 441/472/441 442/460/442
f 420/452/420 419/450/419 434/473/434
f 440/470/440 439/468/439 454/475/454
f 432/469/432 447/489/447 448/477/448
f 441/472/441 440/470/440 455/476/455
f 433/471/433 448/477/448 449/479/449
f 442/460/442 441/472/441 456/478/456
f 434/473/434 449/479/449 450/481/450
f 436/461/436 435/474/435 450/481/450
f 428/483/428 443/544/443 511/484/511
f 437/463/437 436/461/436 451/482/451
f 429/464/429 444/506/444 445/486/445
f 438/466/438 437/463/437 452/485/452
f 430/465/430 445/486/445 446/488/446
f 439/468/439 438/466/438 453/487/453
f 431/467/431 446/488/446 447/489/447
f 511/484/511 443/544/443 458/490/458
f 451/482/451 466/505/466 467/492/467
f 445/486/445 444/506/444 459/493/459
f 452/485/452 467/492/467 468/495/468
f 446/488/446 445/486/445 460/494/460
f 453/487/453 468/495/468 469/497/469
f 447/489/447 446/488/446 461/496/461
f 454/475/454 469/497/469 470/499/470
f 448/477/448 447/489/447 462/498/462
f 455/476/455 470/499/470 471/501/471
f 449/479/449 448/477/448 463/500/463
f 456/478/456 471/501/471 472/503/472
f 450/481/450 449/479/449 464/502/464
f 450/481/450 465/504/465 466/505/466
f 462/498/462 2/4/2 476/6/476
f 470/499/470 479/1/479 480/7/480
f 464/502/464 463/500/463 476/6/476
f 471/501/471 480/7/480 481/11/481
f 465/504/465 464/502/464 3/10/3
f 465/504/465 4/14/4 5/16/5
f 458/490/458 473/18/473 513/20/513
f 466/505/466 5/16/5 477/21/477
f 460/494/460 459/493/459 474/23/474
f 467/492/467 477/21/477 6/26/6
f 460/494/460 1/25/1 475/29/475
f 468/495/468 6/26/6 478/30/478
f 461/496/461 475/29/475 2/4/2
f 469/497/469 478/30/478 479/1/479
f 459/493/459 512/491/512 513/20/513
f 444/506/444 511/484/511 512/491/512
f 510/462/510 511/484/511 444/506/444
f 414/457/414 509/455/509 510/462/510
f 399/507/399 508/433/508 509/455/509
f 507/425/507 508/433/508 399/507/399
f 369/405/369 506/403/506 507/425/507
f 354/508/354 505/396/505 506/403/506
f 504/374/504 505/396/505 354/508/354
f 324/509/324 503/367/503 504/374/504
f 502/345/502 503/367/503 324/509/324
f 501/337/501 502/345/502 309/352/309
f 278/510/278 500/315/500 501/337/501
f 499/294/499 500/315/500 278/510/278
f 498/286/498 499/294/499 263/317/263
f 233/511/233 497/264/497 498/286/498
f 496/257/496 497/264/497 233/511/233
f 495/235/495 496/257/496 218/266/218
f 188/512/188 494/226/494 495/235/495
f 493/206/493 494/226/494 188/512/188
f 492/197/492 493/206/493 173/228/173
f 143/513/143 491/175/491 492/197/492
f 490/168/490 491/175/491 143/513/143
f 489/140/489 490/168/490 128/177/128
f 98/514/98 488/138/488 489/140/489
f 487/102/487 488/110/488 98/515/98
f 68/82/68 486/80/486 487/102/487
f 53/516/53 485/73/485 486/80/486
f 484/50/484 485/73/485 53/516/53
f 23/45/23 483/43/483 484/50/484
f 8/517/8 482/19/482 483/43/483
f 513/20/513 482/19/482 8/517/8
f 112/139/112 97/624/97 520/518/520
f 458/490/458 544/582/544 545/520/545
f 338/373/338 536/542/536 537/521/537
f 172/205/172 525/546/525 526/523/526
f 292/336/292 533/548/533 534/525/534
f 67/79/67 518/583/518 517/526/517
f 22/42/22 7/552/7 514/528/514
f 127/167/127 522/553/522 523/530/523
f 428/483/428 542/578/542 541/532/541
f 383/424/383 368/402/368 538/533/538
f 247/285/247 262/293/262 531/535/531
f 217/256/217 202/234/202 527/537/527
f 82/109/82 97/623/97 520/539/520
f 338/373/338 323/556/323 535/541/535
f 458/490/458 544/582/544 543/543/543
f 37/72/37 516/550/516 517/526/517
f 172/205/172 157/196/157 524/545/524
f 292/336/292 277/557/277 532/547/532
f 413/454/413 398/555/398 540/549/540
f 22/42/22 515/529/515 516/550/516
f 202/234/202 187/524/187 526/523/526
f 247/285/247 232/554/232 529/551/529
f 368/402/368 353/522/353 537/521/537
f 473/18/473 545/520/545 514/528/514
f 127/167/127 112/139/112 521/519/521
f 67/79/67 518/583/518 519/540/519
f 428/483/428 542/578/542 543/543/543
f 217/256/217 528/538/528 529/551/529
f 383/424/383 539/534/539 540/549/540
f 308/366/308 534/525/534 535/541/535
f 157/196/157 142/531/142 523/530/523
f 262/293/262 531/535/531 532/547/532
f 534/525/534 566/589/565 567/558/566
f 522/553/522 521/519/521 553/559/552
f 536/542/536 535/541/535 567/558/566
f 522/553/522 554/560/553 555/562/554
f 536/542/536 568/561/567 569/563/568
f 524/545/524 523/530/523 555/562/554
f 538/533/538 537/521/537 569/563/568
f 525/546/525 524/545/524 556/564/555
f 539/534/539 538/533/538 570/565/569
f 525/546/525 557/566/556 558/568/557
f 539/534/539 571/567/570 572/569/571
f 527/537/527 526/523/526 558/568/557
f 541/532/541 540/549/540 572/569/571
f 528/538/528 527/537/527 559/570/558
f 515/529/515 514/528/514 546/573/546
f 541/532/541 542/578/542 574/575/573
f 528/538/528 560/572/559 561/576/560
f 515/529/515 547/574/547 548/577/548
f 542/578/542 574/575/573 575/579/574
f 530/536/530 529/551/529 561/576/560
f 516/550/516 548/577/548 549/581/549
f 544/582/544 576/609/575 575/579/574
f 531/535/531 563/610/562 562/580/561
f 518/583/518 550/611/550 549/581/549
f 544/582/544 576/609/575 577/584/576
f 531/535/531 563/610/562 564/585/563
f 518/583/518 550/611/550 551/586/551
f 545/520/545 577/584/576 546/573/546
f 533/548/533 532/547/532 564/585/563
f 519/540/519 520/539/520 552/588/520
f 533/548/533 565/587/564 566/589/565
f 521/519/521 520/518/520 552/590/520
f 570/565/569 569/563/568 601/591/600
f 557/566/556 556/564/555 588/593/587
f 571/567/570 570/565/569 602/592/601
f 557/566/556 589/594/588 590/596/589
f 571/567/570 603/595/602 604/597/603
f 559/570/558 558/568/557 590/596/589
f 573/571/572 572/569/571 604/597/603
f 560/572/559 559/570/558 591/598/590
f 547/574/547 546/573/546 578/601/577
f 573/571/572 574/575/573 606/603/605
f 560/572/559 592/600/591 593/604/592
f 547/574/547 579/602/578 580/605/579
f 574/575/573 606/603/605 607/606/606
f 562/580/561 561/576/560 593/604/592
f 548/577/548 580/605/579 581/608/580
f 576/609/575 608/625/607 607/606/606
f 563/610/562 595/626/594 594/607/593
f 550/611/550 582/627/581 581/608/580
f 576/609/575 608/625/607 609/612/608
f 563/610/562 595/626/594 596/613/595
f 550/611/550 582/627/581 583/614/582
f 577/584/576 609/612/608 578/601/577
f 565/587/564 564/585/563 596/613/595
f 551/586/551 552/588/520 584/616/583
f 565/587/564 597/615/596 598/617/597
f 553/559/552 552/590/520 584/616/583
f 566/589/565 598/617/597 599/619/598
f 554/560/553 553/559/552 585/618/584
f 568/561/567 567/558/566 599/619/598
f 554/560/553 586/620/585 587/622/586
f 568/561/567 600/621/599 601/591/600
f 556/564/555 555/562/554 587/622/586
f 578/601/577 609/612/608 608/625/607
f 607/606/606 606/603/605 605/599/604
f 578/601/577 608/625/607 607/606/606
f 580/605/579 579/602/578 581/608/580
f 579/602/578 578/601/577 581/608/580
f 583/614/582 582/627/581 584/616/583
f 582/627/581 581/608/580 584/616/583
f 578/601/577 607/606/606 601/591/600
f 607/606/606 605/599/604 604/597/603
f 604/597/603 603/595/602 601/591/600
f 603/595/602 602/592/601 601/591/600
f 607/606/606 604/597/603 601/591/600
f 581/608/580 578/601/577 601/591/600
f 584/616/583 581/608/580 601/591/600
f 586/620/585 585/618/584 584/616/583
f 584/616/583 601/591/600 599/619/598
f 601/591/600 600/621/599 599/619/598
f 586/620/585 584/616/583 587/622/586
f 587/622/586 584/616/583 599/619/598
f 589/594/588 588/593/587 587/622/586
f 599/619/598 598/617/597 597/615/596
f 596/613/595 595/626/594 593/604/592
f 595/626/594 594/607/593 593/604/592
f 599/619/598 597/615/596 596/613/595
f 590/596/589 589/594/588 587/622/586
f 592/600/591 591/598/590 590/596/589
f 593/604/592 592/600/591 590/596/589
f 590/596/589 587/622/586 599/619/598
f 599/619/598 596/613/595 593/604/592
