# Blender 4.5.4 LTS
# www.blender.org
mtllib seed.mtl
o spring
v 0.000000 0.064270 0.196192
v 0.000000 0.057285 1.195631
v 0.012538 0.063035 0.196192
v 0.011232 0.056185 1.195741
v 0.024595 0.059377 0.196192
v 0.022032 0.052925 1.196068
v 0.035706 0.053438 0.196192
v 0.031986 0.047631 1.196599
v 0.045445 0.045445 0.196192
v 0.040710 0.040507 1.197314
v 0.053438 0.035706 0.196192
v 0.047870 0.031826 1.198185
v 0.059377 0.024595 0.196192
v 0.053190 0.021922 1.199178
v 0.063035 0.012538 0.196192
v 0.056467 0.011176 1.200257
v 0.064270 -0.000000 0.196192
v 0.057573 -0.000000 1.201378
v 0.063035 -0.012538 0.196192
v 0.056467 -0.011176 1.202499
v 0.059377 -0.024595 0.196192
v 0.053190 -0.021922 1.203577
v 0.053438 -0.035706 0.196192
v 0.047870 -0.031826 1.204571
v 0.045445 -0.045445 0.196192
v 0.040710 -0.040507 1.205441
v 0.035706 -0.053438 0.196192
v 0.031986 -0.047631 1.206156
v 0.024595 -0.059377 0.196192
v 0.022032 -0.052925 1.206687
v 0.012538 -0.063035 0.196192
v 0.011232 -0.056185 1.207014
v 0.000000 -0.064270 0.196192
v 0.000000 -0.057285 1.207125
v -0.012538 -0.063035 0.196192
v -0.011232 -0.056185 1.207014
v -0.024595 -0.059377 0.196192
v -0.022032 -0.052925 1.206687
v -0.035706 -0.053438 0.196192
v -0.031986 -0.047631 1.206156
v -0.045445 -0.045445 0.196192
v -0.040710 -0.040507 1.205441
v -0.053438 -0.035706 0.196192
v -0.047870 -0.031826 1.204571
v -0.059377 -0.024595 0.196192
v -0.053190 -0.021922 1.203577
v -0.063035 -0.012538 0.196192
v -0.056467 -0.011176 1.202499
v -0.064270 -0.000000 0.196192
v -0.057573 -0.000000 1.201378
v -0.063035 0.012538 0.196192
v -0.056467 0.011176 1.200257
v -0.059377 0.024595 0.196192
v -0.053190 0.021922 1.199178
v -0.053438 0.035706 0.196192
v -0.047870 0.031826 1.198185
v -0.045445 0.045445 0.196192
v -0.040710 0.040507 1.197314
v -0.035706 0.053438 0.196192
v -0.031986 0.047631 1.196599
v -0.024595 0.059377 0.196192
v -0.022032 0.052925 1.196068
v -0.012538 0.063035 0.196192
v -0.011232 0.056185 1.195741
v -0.000000 0.115776 0.013647
v 0.022587 0.113551 0.013647
v 0.044305 0.106963 0.013647
v 0.064321 0.096264 0.013647
v 0.081866 0.081866 0.013647
v 0.096264 0.064322 0.013647
v 0.106963 0.044305 0.013647
v 0.113551 0.022587 0.013647
v 0.115776 -0.000000 0.013647
v 0.113551 -0.022587 0.013647
v 0.106963 -0.044305 0.013647
v 0.096264 -0.064322 0.013647
v 0.081866 -0.081866 0.013647
v 0.064321 -0.096264 0.013647
v 0.044305 -0.106963 0.013647
v 0.022587 -0.113551 0.013647
v -0.000000 -0.115776 0.013647
v -0.022587 -0.113551 0.013647
v -0.044306 -0.106963 0.013647
v -0.064322 -0.096264 0.013647
v -0.081866 -0.081866 0.013647
v -0.096264 -0.064322 0.013647
v -0.106963 -0.044305 0.013647
v -0.113551 -0.022587 0.013647
v -0.115776 -0.000000 0.013647
v -0.113551 0.022587 0.013647
v -0.106963 0.044305 0.013647
v -0.096264 0.064322 0.013647
v -0.081866 0.081866 0.013647
v -0.064322 0.096264 0.013647
v -0.044306 0.106963 0.013647
v -0.022587 0.113551 0.013647
v 0.045155 0.067579 0.087135
v 0.031103 0.075090 0.087135
v 0.057471 -0.057471 0.087135
v 0.067579 -0.045155 0.087135
v -0.067579 -0.045155 0.087135
v -0.057471 -0.057471 0.087135
v -0.031103 0.075090 0.087135
v -0.045155 0.067579 0.087135
v 0.081277 -0.000000 0.087135
v 0.079715 0.015856 0.087135
v -0.015856 -0.079715 0.087135
v -0.000000 -0.081277 0.087135
v -0.075090 0.031103 0.087135
v -0.079715 0.015856 0.087135
v 0.057471 0.057471 0.087135
v 0.045155 -0.067579 0.087135
v -0.075090 -0.031103 0.087135
v -0.015856 0.079715 0.087135
v 0.079715 -0.015856 0.087135
v -0.031103 -0.075090 0.087135
v -0.067579 0.045155 0.087135
v 0.067579 0.045155 0.087135
v 0.031103 -0.075090 0.087135
v -0.079715 -0.015856 0.087135
v 0.015856 0.079715 0.087135
v -0.000000 0.081277 0.087135
v 0.075090 -0.031103 0.087135
v -0.045155 -0.067579 0.087135
v -0.057471 0.057471 0.087135
v 0.075090 0.031103 0.087135
v 0.015856 -0.079715 0.087135
v -0.081277 -0.000000 0.087135
v -0.041089 0.008132 1.633991
v -0.007300 0.010871 2.061180
v -0.005028 0.012079 2.061058
v 0.013140 -0.000000 2.062270
v -0.009291 -0.009245 2.063198
v 0.008173 -0.040884 1.638908
v -0.010925 -0.007264 2.062999
v -0.012139 -0.005003 2.062772
v -0.041894 -0.000000 1.634807
v -0.012887 -0.002551 2.062526
v 0.016032 -0.038512 1.638670
v 0.005028 0.012079 2.061058
v 0.023275 -0.034660 1.638284
v -0.002563 0.012823 2.060984
v 0.009291 -0.009245 2.063198
v 0.007300 -0.010871 2.063361
v 0.005028 -0.012079 2.063482
v -0.013140 -0.000000 2.062270
v 0.002563 -0.012823 2.063556
v -0.012887 0.002551 2.062014
v 0.029623 -0.029476 1.637764
v -0.008173 0.040884 1.630705
v 0.016032 0.038512 1.630943
v -0.041089 -0.008132 1.635623
v -0.012139 0.005003 2.061768
v -0.000000 -0.013074 2.063582
v -0.038705 -0.015952 1.636407
v 0.012887 -0.002551 2.062526
v -0.034833 -0.023159 1.637130
v 0.007300 0.010871 2.061180
v -0.010925 0.007263 2.061542
v -0.002563 -0.012823 2.063556
v -0.009291 0.009245 2.061342
v -0.005028 -0.012079 2.063482
v 0.012139 -0.005003 2.062772
v 0.009291 0.009245 2.061342
v -0.029623 -0.029476 1.637764
v 0.010925 0.007263 2.061542
v 0.041894 -0.000000 1.634807
v -0.000000 0.013074 2.060959
v -0.016032 0.038512 1.630943
v 0.012139 0.005003 2.061768
v 0.012887 0.002551 2.062014
v 0.002563 0.012823 2.060984
v 0.010925 -0.007264 2.062999
v -0.007300 -0.010871 2.063361
v -0.023275 0.034659 1.631330
v -0.023275 -0.034660 1.638284
v 0.034833 -0.023159 1.637130
v 0.008173 0.040884 1.630705
v 0.041089 0.008132 1.633991
v 0.038705 0.015952 1.633206
v -0.000000 0.041685 1.630625
v 0.034833 0.023159 1.632483
v 0.029623 0.029475 1.631850
v 0.038705 -0.015952 1.636407
v -0.016032 -0.038512 1.638670
v -0.029623 0.029475 1.631850
v -0.008173 -0.040884 1.638908
v -0.034833 0.023159 1.632483
v 0.023275 0.034659 1.631330
v 0.041089 -0.008132 1.635623
v -0.000000 -0.041685 1.638989
v -0.038705 0.015952 1.633206
vn -0.0000 0.9979 0.0649
vn -0.0000 0.9998 0.0209
vn 0.1947 0.9787 0.0649
vn 0.1938 0.9808 0.0209
vn 0.3818 0.9220 0.0648
vn 0.3804 0.9246 0.0209
vn 0.5543 0.8298 0.0648
vn 0.5527 0.8331 0.0209
vn 0.7056 0.7057 0.0648
vn 0.7043 0.7096 0.0209
vn 0.8297 0.5545 0.0647
vn 0.8291 0.5586 0.0209
vn 0.9219 0.3820 0.0647
vn 0.9223 0.3859 0.0209
vn 0.9787 0.1947 0.0647
vn 0.9800 0.1979 0.0209
vn 0.9979 -0.0000 0.0647
vn 0.9998 0.0020 0.0209
vn 0.9787 -0.1947 0.0647
vn 0.9808 -0.1940 0.0209
vn 0.9219 -0.3819 0.0647
vn 0.9238 -0.3824 0.0210
vn 0.8297 -0.5545 0.0647
vn 0.8310 -0.5558 0.0210
vn 0.7056 -0.7057 0.0647
vn 0.7063 -0.7076 0.0210
vn 0.5543 -0.8298 0.0648
vn 0.5546 -0.8319 0.0210
vn 0.3818 -0.9220 0.0648
vn 0.3818 -0.9240 0.0210
vn 0.1946 -0.9787 0.0648
vn 0.1946 -0.9807 0.0210
vn -0.0000 -0.9979 0.0648
vn -0.0000 -0.9998 0.0210
vn -0.1946 -0.9787 0.0648
vn -0.1946 -0.9807 0.0210
vn -0.3818 -0.9220 0.0648
vn -0.3818 -0.9240 0.0210
vn -0.5543 -0.8298 0.0648
vn -0.5546 -0.8319 0.0210
vn -0.7056 -0.7057 0.0647
vn -0.7063 -0.7076 0.0210
vn -0.8297 -0.5545 0.0647
vn -0.8310 -0.5558 0.0210
vn -0.9219 -0.3819 0.0647
vn -0.9238 -0.3824 0.0210
vn -0.9787 -0.1947 0.0647
vn -0.9808 -0.1940 0.0209
vn -0.9979 -0.0000 0.0647
vn -0.9998 0.0020 0.0209
vn -0.9787 0.1947 0.0647
vn -0.9800 0.1979 0.0209
vn -0.9219 0.3820 0.0647
vn -0.9223 0.3859 0.0209
vn -0.8297 0.5545 0.0647
vn -0.8291 0.5586 0.0209
vn -0.7056 0.7057 0.0648
vn -0.7043 0.7096 0.0209
vn -0.5543 0.8298 0.0648
vn -0.5527 0.8331 0.0209
vn -0.3818 0.9220 0.0648
vn -0.3804 0.9246 0.0209
vn -0.1947 0.9787 0.0649
vn -0.1938 0.9808 0.0209
vn -0.0000 0.9999 -0.0137
vn 0.1951 0.9807 -0.0137
vn 0.3827 0.9238 -0.0137
vn 0.5555 0.8314 -0.0137
vn 0.7070 0.7070 -0.0137
vn 0.8314 0.5555 -0.0137
vn 0.9238 0.3826 -0.0137
vn 0.9807 0.1951 -0.0137
vn 0.9999 -0.0000 -0.0137
vn 0.9807 -0.1951 -0.0137
vn 0.9238 -0.3826 -0.0137
vn 0.8314 -0.5555 -0.0137
vn 0.7070 -0.7070 -0.0137
vn 0.5555 -0.8314 -0.0137
vn 0.3827 -0.9238 -0.0137
vn 0.1951 -0.9807 -0.0137
vn -0.0000 -0.9999 -0.0137
vn -0.1951 -0.9807 -0.0137
vn -0.3826 -0.9238 -0.0137
vn -0.5555 -0.8314 -0.0137
vn -0.7070 -0.7070 -0.0137
vn -0.8314 -0.5555 -0.0137
vn -0.9238 -0.3826 -0.0137
vn -0.9807 -0.1951 -0.0137
vn -0.9999 -0.0000 -0.0137
vn -0.9807 0.1951 -0.0137
vn -0.9238 0.3826 -0.0137
vn -0.8314 0.5555 -0.0137
vn -0.7070 0.7070 -0.0137
vn -0.5555 0.8314 -0.0137
vn -0.3826 0.9238 -0.0137
vn -0.1951 0.9807 -0.0137
vn 0.5385 0.8060 0.2457
vn 0.3710 0.8956 0.2457
vn 0.6854 -0.6854 0.2457
vn 0.8060 -0.5385 0.2457
vn -0.8060 -0.5385 0.2457
vn -0.6854 -0.6854 0.2457
vn -0.3710 0.8956 0.2457
vn -0.5385 0.8060 0.2457
vn 0.9694 -0.0000 0.2457
vn 0.9507 0.1891 0.2457
vn -0.1891 -0.9507 0.2457
vn -0.0000 -0.9694 0.2457
vn -0.8956 0.3710 0.2457
vn -0.9507 0.1891 0.2457
vn 0.6854 0.6854 0.2457
vn 0.5385 -0.8060 0.2457
vn -0.8956 -0.3710 0.2457
vn -0.1891 0.9507 0.2457
vn 0.9507 -0.1891 0.2457
vn -0.3710 -0.8956 0.2457
vn -0.8060 0.5385 0.2457
vn 0.8060 0.5385 0.2457
vn 0.3710 -0.8956 0.2457
vn -0.9507 -0.1891 0.2457
vn 0.1891 0.9507 0.2457
vn -0.0000 0.9694 0.2457
vn 0.8956 -0.3710 0.2457
vn -0.5385 -0.8060 0.2457
vn -0.6854 0.6854 0.2457
vn 0.8956 0.3710 0.2457
vn 0.1891 -0.9507 0.2457
vn -0.9694 -0.0000 0.2457
vn -0.9784 0.2005 0.0505
vn -0.5357 0.8239 0.1849
vn -0.3681 0.9113 0.1846
vn 0.9821 0.0182 0.1875
vn -0.7016 -0.6869 0.1895
vn 0.1949 -0.9795 0.0506
vn -0.8235 -0.5348 0.1891
vn -0.9129 -0.3619 0.1886
vn -0.9987 0.0050 0.0505
vn -0.9664 -0.1751 0.1881
vn 0.3824 -0.9226 0.0506
vn 0.3681 0.9113 0.1846
vn 0.5553 -0.8301 0.0506
vn -0.1874 0.9648 0.1844
vn 0.7016 -0.6869 0.1895
vn 0.5519 -0.8120 0.1898
vn 0.3805 -0.9051 0.1900
vn -0.9821 0.0182 0.1875
vn 0.1941 -0.9624 0.1901
vn -0.9597 0.2099 0.1869
vn 0.7070 -0.7054 0.0506
vn -0.1930 0.9799 0.0500
vn 0.3789 0.9241 0.0501
vn -0.9803 -0.1910 0.0506
vn -0.9005 0.3930 0.1864
vn -0.0000 -0.9817 0.1902
vn -0.9238 -0.3795 0.0506
vn 0.9664 -0.1751 0.1881
vn -0.8314 -0.5533 0.0506
vn 0.5357 0.8239 0.1849
vn -0.8072 0.5602 0.1858
vn -0.1941 -0.9624 0.1901
vn -0.6840 0.7055 0.1853
vn -0.3805 -0.9050 0.1900
vn 0.9129 -0.3619 0.1886
vn 0.6840 0.7055 0.1853
vn -0.7070 -0.7054 0.0506
vn 0.8072 0.5602 0.1858
vn 0.9987 0.0050 0.0505
vn -0.0000 0.9829 0.1843
vn -0.3789 0.9241 0.0501
vn 0.9005 0.3930 0.1864
vn 0.9597 0.2099 0.1869
vn 0.1874 0.9648 0.1844
vn 0.8235 -0.5348 0.1891
vn -0.5519 -0.8120 0.1898
vn -0.5507 0.8332 0.0501
vn -0.5553 -0.8301 0.0506
vn 0.8314 -0.5533 0.0506
vn 0.1930 0.9799 0.0500
vn 0.9784 0.2005 0.0505
vn 0.9203 0.3880 0.0504
vn -0.0000 0.9987 0.0500
vn 0.8269 0.5601 0.0503
vn 0.7020 0.7104 0.0502
vn 0.9238 -0.3795 0.0506
vn -0.3824 -0.9226 0.0506
vn -0.7020 0.7104 0.0502
vn -0.1949 -0.9795 0.0506
vn -0.8269 0.5601 0.0503
vn 0.5507 0.8332 0.0501
vn 0.9803 -0.1910 0.0506
vn -0.0000 -0.9987 0.0506
vn -0.9203 0.3880 0.0504
vt 0.250208 0.867297
vt 0.221878 0.928388
vt 0.217900 0.924007
vt 0.257692 0.870318
vt 0.225894 0.933653
vt 0.265539 0.873577
vt 0.229880 0.939964
vt 0.273820 0.877124
vt 0.233779 0.947548
vt 0.282568 0.881051
vt 0.237500 0.956660
vt 0.291752 0.885476
vt 0.240995 0.967634
vt 0.301269 0.890529
vt 0.244331 0.980700
vt 0.310956 0.896284
vt 0.248757 0.994730
vt 0.069101 0.891898
vt 0.132686 0.968973
vt 0.126667 0.980151
vt 0.077407 0.886355
vt 0.137429 0.958136
vt 0.085659 0.881262
vt 0.141544 0.948685
vt 0.093806 0.876642
vt 0.145437 0.940811
vt 0.101827 0.872475
vt 0.149285 0.934313
vt 0.109717 0.868727
vt 0.153102 0.928961
vt 0.117493 0.865363
vt 0.156877 0.924538
vt 0.125179 0.862360
vt 0.160584 0.920865
vt 0.140218 0.857112
vt 0.164289 0.917848
vt 0.147583 0.854865
vt 0.167929 0.915400
vt 0.154945 0.852974
vt 0.171510 0.913430
vt 0.162336 0.851465
vt 0.175038 0.911864
vt 0.169772 0.850374
vt 0.178535 0.910663
vt 0.177256 0.849743
vt 0.182027 0.909804
vt 0.184772 0.849611
vt 0.185539 0.909270
vt 0.192288 0.850004
vt 0.189103 0.909053
vt 0.199767 0.850924
vt 0.192641 0.909463
vt 0.207169 0.852341
vt 0.196164 0.910196
vt 0.214466 0.854188
vt 0.199674 0.911331
vt 0.221652 0.856379
vt 0.203203 0.912877
vt 0.228752 0.858833
vt 0.206762 0.914868
vt 0.235824 0.861488
vt 0.210374 0.917349
vt 0.242945 0.864311
vt 0.214074 0.920373
vt 0.217285 0.938842
vt 0.208321 0.947044
vt 0.207457 0.942093
vt 0.201662 0.929468
vt 0.202635 0.977455
vt 0.170861 0.933658
vt 0.156419 0.945349
vt 0.170205 0.951658
vt 0.155052 0.952994
vt 0.180004 0.915770
vt 0.179743 0.922124
vt 0.177094 0.916992
vt 0.203307 0.919851
vt 0.200460 0.926566
vt 0.198910 0.924313
vt 0.217292 0.999864
vt 0.221408 0.983098
vt 0.168477 0.923021
vt 0.171974 0.930358
vt 0.165738 0.926022
vt 0.191836 0.914639
vt 0.192943 0.920274
vt 0.190880 0.919743
vt 0.219621 0.944945
vt 0.208520 0.953349
vt 0.158318 0.939092
vt 0.168748 0.946285
vt 0.182934 0.914928
vt 0.181870 0.920935
vt 0.206076 0.922373
vt 0.153455 0.975359
vt 0.188006 0.973157
vt 0.153819 0.991157
vt 0.171303 0.920574
vt 0.173568 0.927651
vt 0.194801 0.915163
vt 0.194860 0.921257
vt 0.221510 0.952236
vt 0.207855 0.960002
vt 0.160579 0.933940
vt 0.168589 0.941358
vt 0.185898 0.914446
vt 0.184056 0.920218
vt 0.211743 0.929228
vt 0.205870 0.937476
vt 0.204089 0.933378
vt 0.208846 0.925485
vt 0.154060 0.962788
vt 0.179442 0.968922
vt 0.174198 0.918598
vt 0.175462 0.925510
vt 0.197641 0.916310
vt 0.197049 0.922572
vt 0.222665 0.960806
vt 0.205720 0.968514
vt 0.163116 0.929640
vt 0.169274 0.937296
vt 0.188885 0.914276
vt 0.186347 0.919998
vt 0.214597 0.933647
vt 0.173345 0.959874
vt 0.177743 0.923867
vt 0.200495 0.917852
vt 0.222833 0.971066
vt 0.188696 0.919652
vt 0.320717 0.902725
vt 0.132811 0.859704
s 1
f 2/1/2 3/2/3 1/3/1
f 4/4/4 5/5/5 3/2/3
f 6/6/6 7/7/7 5/5/5
f 8/8/8 9/9/9 7/7/7
f 10/10/10 11/11/11 9/9/9
f 12/12/12 13/13/13 11/11/11
f 14/14/14 15/15/15 13/13/13
f 16/16/16 17/17/17 15/15/15
f 18/18/18 19/19/19 17/20/17
f 20/21/20 21/22/21 19/19/19
f 22/23/22 23/24/23 21/22/21
f 24/25/24 25/26/25 23/24/23
f 26/27/26 27/28/27 25/26/25
f 28/29/28 29/30/29 27/28/27
f 30/31/30 31/32/31 29/30/29
f 32/33/32 33/34/33 31/32/31
f 33/34/33 36/35/36 35/36/35
f 35/36/35 38/37/38 37/38/37
f 37/38/37 40/39/40 39/40/39
f 39/40/39 42/41/42 41/42/41
f 41/42/41 44/43/44 43/44/43
f 43/44/43 46/45/46 45/46/45
f 45/46/45 48/47/48 47/48/47
f 47/48/47 50/49/50 49/50/49
f 49/50/49 52/51/52 51/52/51
f 51/52/51 54/53/54 53/54/53
f 53/54/53 56/55/56 55/56/55
f 55/56/55 58/57/58 57/58/57
f 57/58/57 60/59/60 59/60/59
f 59/60/59 62/61/62 61/62/61
f 61/62/61 64/63/64 63/64/63
f 63/64/63 2/1/2 1/3/1
f 98/65/98 68/66/68 67/67/67
f 96/68/96 72/69/72 80/70/80
f 99/71/99 76/72/76 100/73/100
f 101/74/101 85/75/85 102/76/102
f 104/77/104 95/78/95 94/79/94
f 105/80/105 72/69/72 106/81/106
f 107/82/107 81/83/81 108/84/108
f 110/85/110 91/86/91 90/87/90
f 97/88/97 69/89/69 68/66/68
f 112/90/112 77/91/77 99/71/99
f 113/92/113 86/93/86 101/74/101
f 103/94/103 96/68/96 95/78/95
f 115/95/115 73/96/73 105/97/105
f 116/98/116 82/99/82 107/82/107
f 109/100/109 92/101/92 91/86/91
f 111/102/111 70/103/70 69/89/69
f 119/104/119 78/105/78 112/90/112
f 120/106/120 87/107/87 113/92/113
f 122/108/122 66/109/66 65/110/65
f 114/111/114 65/110/65 96/68/96
f 123/112/123 74/113/74 115/95/115
f 124/114/124 83/115/83 116/98/116
f 117/116/117 93/117/93 92/101/92
f 118/118/118 71/119/71 70/103/70
f 127/120/127 79/121/79 119/104/119
f 128/122/128 88/123/88 120/106/120
f 121/124/121 67/67/67 66/109/66
f 100/73/100 75/125/75 123/112/123
f 102/76/102 84/126/84 124/114/124
f 125/127/125 94/79/94 93/117/93
f 126/128/126 72/69/72 71/119/71
f 108/84/108 80/70/80 127/120/127
f 128/122/128 90/87/90 89/129/89
f 49/50/49 110/85/110 128/122/128
f 33/34/33 127/120/127 31/32/31
f 13/13/13 106/81/106 126/128/126
f 57/58/57 104/77/104 125/127/125
f 41/42/41 124/114/124 39/40/39
f 23/24/23 123/112/123 21/22/21
f 3/2/3 98/65/98 121/124/121
f 49/50/49 120/106/120 47/48/47
f 31/32/31 119/104/119 29/30/29
f 11/11/11 126/128/126 118/118/118
f 55/56/55 125/127/125 117/116/117
f 39/40/39 116/98/116 37/38/37
f 21/22/21 115/95/115 19/19/19
f 63/64/63 122/108/122 114/111/114
f 1/3/1 121/124/121 122/108/122
f 47/48/47 113/92/113 45/46/45
f 29/30/29 112/90/112 27/28/27
f 9/9/9 118/118/118 111/102/111
f 53/54/53 117/116/117 109/100/109
f 37/38/37 107/82/107 35/36/35
f 19/19/19 105/97/105 17/20/17
f 61/62/61 114/111/114 103/94/103
f 45/46/45 101/74/101 43/44/43
f 27/28/27 99/71/99 25/26/25
f 7/7/7 111/102/111 97/88/97
f 51/52/51 109/100/109 110/85/110
f 35/36/35 108/84/108 33/34/33
f 15/15/15 105/80/105 106/81/106
f 59/60/59 103/94/103 104/77/104
f 43/44/43 102/76/102 41/42/41
f 25/26/25 100/73/100 23/24/23
f 5/5/5 97/88/97 98/65/98
f 161/57/161 159/55/159 135/43/135
f 14/14/14 12/12/12 182/12/182
f 153/53/153 146/49/146 136/45/136
f 140/6/140 172/4/172 147/33/147
f 158/8/158 140/6/140 145/31/145
f 131/61/131 130/59/130 174/39/174
f 16/16/16 14/14/14 180/14/180
f 168/1/168 142/63/142 160/35/160
f 132/130/132 171/16/171 170/14/170
f 164/10/164 173/25/173 166/12/166
f 143/27/143 173/25/173 164/10/164
f 145/31/145 144/29/144 158/8/158
f 154/131/154 147/33/147 172/4/172
f 162/37/162 160/35/160 142/63/142
f 133/41/133 174/39/174 130/59/130
f 136/45/136 135/43/135 159/55/159
f 153/53/153 148/51/148 146/49/146
f 10/10/10 8/8/8 189/8/189
f 24/25/24 22/23/22 184/23/184
f 157/43/157 135/43/135 136/45/136
f 40/39/40 176/39/176 165/41/165
f 151/6/151 178/4/178 172/4/172
f 60/59/60 175/59/175 169/61/169
f 22/23/22 20/21/20 190/21/190
f 58/57/58 186/57/186 175/59/175
f 20/21/20 18/18/18 167/18/167
f 36/35/36 187/35/187 185/37/185
f 62/61/62 169/61/169 150/63/150
f 34/131/34 32/33/32 134/33/134
f 30/31/30 28/29/28 141/29/141
f 184/23/184 190/21/190 156/21/156
f 180/14/180 182/12/182 166/12/166
f 169/61/169 131/61/131 142/63/142
f 155/45/155 136/45/136 138/47/138
f 6/6/6 4/4/4 178/4/178
f 141/29/141 149/27/149 143/27/143
f 167/130/167 179/16/179 171/16/171
f 56/55/56 188/55/188 186/57/186
f 185/37/185 162/37/162 174/39/174
f 176/39/176 174/39/174 133/41/133
f 187/35/187 160/35/160 162/37/162
f 50/49/50 137/49/137 129/51/129
f 129/51/129 153/53/153 192/53/192
f 189/8/189 140/6/140 158/8/158
f 178/4/178 168/1/168 172/4/172
f 175/59/175 131/61/131 169/61/169
f 191/131/191 160/35/160 187/35/187
f 175/59/175 130/59/130 131/61/131
f 191/131/191 147/33/147 154/131/154
f 48/47/48 137/49/137 50/49/50
f 189/8/189 151/6/151 140/6/140
f 137/49/137 148/51/148 129/51/129
f 34/131/34 187/35/187 36/35/36
f 188/55/188 161/57/161 186/57/186
f 176/39/176 133/41/133 165/41/165
f 134/33/134 145/31/145 147/33/147
f 152/47/152 146/49/146 137/49/137
f 185/37/185 174/39/174 176/39/176
f 150/63/150 168/1/168 181/1/181
f 167/130/167 171/16/171 132/130/132
f 179/16/179 170/14/170 171/16/171
f 141/29/141 143/27/143 144/29/144
f 177/25/177 163/23/163 173/25/173
f 6/6/6 178/4/178 151/6/151
f 139/31/139 144/29/144 145/31/145
f 178/4/178 181/1/181 168/1/168
f 155/45/155 138/47/138 152/47/152
f 38/37/38 176/39/176 40/39/40
f 2/1/2 4/4/4 3/2/3
f 4/4/4 6/6/6 5/5/5
f 6/6/6 8/8/8 7/7/7
f 8/8/8 10/10/10 9/9/9
f 10/10/10 12/12/12 11/11/11
f 12/12/12 14/14/14 13/13/13
f 14/14/14 16/16/16 15/15/15
f 16/16/16 18/130/18 17/17/17
f 18/18/18 20/21/20 19/19/19
f 20/21/20 22/23/22 21/22/21
f 22/23/22 24/25/24 23/24/23
f 24/25/24 26/27/26 25/26/25
f 26/27/26 28/29/28 27/28/27
f 28/29/28 30/31/30 29/30/29
f 30/31/30 32/33/32 31/32/31
f 32/33/32 34/131/34 33/34/33
f 33/34/33 34/131/34 36/35/36
f 35/36/35 36/35/36 38/37/38
f 37/38/37 38/37/38 40/39/40
f 39/40/39 40/39/40 42/41/42
f 41/42/41 42/41/42 44/43/44
f 43/44/43 44/43/44 46/45/46
f 45/46/45 46/45/46 48/47/48
f 47/48/47 48/47/48 50/49/50
f 49/50/49 50/49/50 52/51/52
f 51/52/51 52/51/52 54/53/54
f 53/54/53 54/53/54 56/55/56
f 55/56/55 56/55/56 58/57/58
f 57/58/57 58/57/58 60/59/60
f 59/60/59 60/59/60 62/61/62
f 61/62/61 62/61/62 64/63/64
f 63/64/63 64/63/64 2/1/2
f 98/65/98 97/88/97 68/66/68
f 96/68/96 65/110/65 66/109/66
f 66/109/66 67/67/67 68/66/68
f 68/66/68 69/89/69 70/103/70
f 70/103/70 71/119/71 72/69/72
f 72/69/72 73/96/73 74/113/74
f 74/113/74 75/125/75 76/72/76
f 76/72/76 77/91/77 78/105/78
f 78/105/78 79/121/79 80/70/80
f 80/70/80 81/83/81 82/99/82
f 82/99/82 83/115/83 84/126/84
f 84/126/84 85/75/85 86/93/86
f 86/93/86 87/107/87 88/123/88
f 88/123/88 89/129/89 92/101/92
f 89/129/89 90/87/90 92/101/92
f 90/87/90 91/86/91 92/101/92
f 92/101/92 93/117/93 94/79/94
f 94/79/94 95/78/95 92/101/92
f 95/78/95 96/68/96 92/101/92
f 96/68/96 66/109/66 72/69/72
f 66/109/66 68/66/68 72/69/72
f 68/66/68 70/103/70 72/69/72
f 72/69/72 74/113/74 80/70/80
f 74/113/74 76/72/76 80/70/80
f 76/72/76 78/105/78 80/70/80
f 80/70/80 82/99/82 84/126/84
f 84/126/84 86/93/86 88/123/88
f 80/70/80 84/126/84 96/68/96
f 84/126/84 88/123/88 96/68/96
f 88/123/88 92/101/92 96/68/96
f 99/71/99 77/91/77 76/72/76
f 101/74/101 86/93/86 85/75/85
f 104/77/104 103/94/103 95/78/95
f 105/80/105 73/96/73 72/69/72
f 107/82/107 82/99/82 81/83/81
f 110/85/110 109/100/109 91/86/91
f 97/88/97 111/102/111 69/89/69
f 112/90/112 78/105/78 77/91/77
f 113/92/113 87/107/87 86/93/86
f 103/94/103 114/111/114 96/68/96
f 115/95/115 74/113/74 73/96/73
f 116/98/116 83/115/83 82/99/82
f 109/100/109 117/116/117 92/101/92
f 111/102/111 118/118/118 70/103/70
f 119/104/119 79/121/79 78/105/78
f 120/106/120 88/123/88 87/107/87
f 122/108/122 121/124/121 66/109/66
f 114/111/114 122/108/122 65/110/65
f 123/112/123 75/125/75 74/113/74
f 124/114/124 84/126/84 83/115/83
f 117/116/117 125/127/125 93/117/93
f 118/118/118 126/128/126 71/119/71
f 127/120/127 80/70/80 79/121/79
f 128/122/128 89/129/89 88/123/88
f 121/124/121 98/65/98 67/67/67
f 100/73/100 76/72/76 75/125/75
f 102/76/102 85/75/85 84/126/84
f 125/127/125 104/77/104 94/79/94
f 126/128/126 106/81/106 72/69/72
f 108/84/108 81/83/81 80/70/80
f 128/122/128 110/85/110 90/87/90
f 49/50/49 51/52/51 110/85/110
f 33/34/33 108/84/108 127/120/127
f 13/13/13 15/15/15 106/81/106
f 57/58/57 59/60/59 104/77/104
f 41/42/41 102/76/102 124/114/124
f 23/24/23 100/73/100 123/112/123
f 3/2/3 5/5/5 98/65/98
f 49/50/49 128/122/128 120/106/120
f 31/32/31 127/120/127 119/104/119
f 11/11/11 13/13/13 126/128/126
f 55/56/55 57/58/57 125/127/125
f 39/40/39 124/114/124 116/98/116
f 21/22/21 123/112/123 115/95/115
f 63/64/63 1/3/1 122/108/122
f 1/3/1 3/2/3 121/124/121
f 47/48/47 120/106/120 113/92/113
f 29/30/29 119/104/119 112/90/112
f 9/9/9 11/11/11 118/118/118
f 53/54/53 55/56/55 117/116/117
f 37/38/37 116/98/116 107/82/107
f 19/19/19 115/95/115 105/97/105
f 61/62/61 63/64/63 114/111/114
f 45/46/45 113/92/113 101/74/101
f 27/28/27 112/90/112 99/71/99
f 7/7/7 9/9/9 111/102/111
f 51/52/51 53/54/53 109/100/109
f 35/36/35 107/82/107 108/84/108
f 15/15/15 17/17/17 105/80/105
f 59/60/59 61/62/61 103/94/103
f 43/44/43 101/74/101 102/76/102
f 25/26/25 99/71/99 100/73/100
f 5/5/5 7/7/7 97/88/97
f 146/49/146 138/47/138 136/45/136
f 192/53/192 153/53/153 159/55/159
f 18/130/18 16/16/16 179/16/179
f 172/4/172 168/1/168 154/131/154
f 159/55/159 153/53/153 136/45/136
f 130/59/130 161/57/161 133/41/133
f 142/63/142 131/61/131 162/37/162
f 164/10/164 158/8/158 144/29/144
f 170/14/170 166/12/166 163/23/163
f 163/23/163 156/21/156 132/130/132
f 173/25/173 163/23/163 166/12/166
f 144/29/144 143/27/143 164/10/164
f 147/33/147 145/31/145 140/6/140
f 160/35/160 154/131/154 168/1/168
f 174/39/174 162/37/162 131/61/131
f 135/43/135 133/41/133 161/57/161
f 8/8/8 6/6/6 151/6/151
f 32/33/32 30/31/30 139/31/139
f 42/41/42 165/41/165 157/43/157
f 165/41/165 133/41/133 135/43/135
f 183/10/183 189/8/189 158/8/158
f 182/12/182 183/10/183 164/10/164
f 149/27/149 177/25/177 173/25/173
f 12/12/12 10/10/10 183/10/183
f 52/51/52 129/51/129 192/53/192
f 26/27/26 24/25/24 177/25/177
f 54/53/54 192/53/192 188/55/188
f 28/29/28 26/27/26 149/27/149
f 44/43/44 157/43/157 155/45/155
f 64/63/64 150/63/150 181/1/181
f 190/21/190 167/18/167 132/18/132
f 186/57/186 161/57/161 130/59/130
f 38/37/38 185/37/185 176/39/176
f 139/31/139 141/29/141 144/29/144
f 177/25/177 184/23/184 163/23/163
f 179/16/179 180/14/180 170/14/170
f 150/63/150 142/63/142 168/1/168
f 152/47/152 138/47/138 146/49/146
f 134/33/134 139/31/139 145/31/145
f 191/131/191 134/33/134 147/33/147
f 46/45/46 155/45/155 152/47/152
f 188/55/188 159/55/159 161/57/161
f 4/4/4 2/1/2 181/1/181
f 169/61/169 142/63/142 150/63/150
f 186/57/186 130/59/130 175/59/175
f 180/14/180 166/12/166 170/14/170
f 190/21/190 132/18/132 156/21/156
f 184/23/184 156/21/156 163/23/163
f 64/63/64 181/1/181 2/1/2
f 40/39/40 165/41/165 42/41/42
f 34/131/34 191/131/191 187/35/187
f 30/31/30 141/29/141 139/31/139
f 48/47/48 152/47/152 137/49/137
f 129/51/129 148/51/148 153/53/153
f 4/4/4 181/1/181 178/4/178
f 50/49/50 129/51/129 52/51/52
f 137/49/137 146/49/146 148/51/148
f 46/45/46 152/47/152 48/47/48
f 187/35/187 162/37/162 185/37/185
f 56/55/56 186/57/186 58/57/58
f 10/10/10 189/8/189 183/10/183
f 8/8/8 151/6/151 189/8/189
f 34/131/34 134/33/134 191/131/191
f 16/16/16 180/14/180 179/16/179
f 44/43/44 155/45/155 46/45/46
f 62/61/62 150/63/150 64/63/64
f 28/29/28 149/27/149 141/29/141
f 36/35/36 185/37/185 38/37/38
f 54/53/54 188/55/188 56/55/56
f 20/21/20 167/18/167 190/21/190
f 26/27/26 177/25/177 149/27/149
f 58/57/58 175/59/175 60/59/60
f 52/51/52 192/53/192 54/53/54
f 22/23/22 190/21/190 184/23/184
f 12/12/12 183/10/183 182/12/182
f 60/59/60 169/61/169 62/61/62
f 149/27/149 173/25/173 143/27/143
f 151/6/151 172/4/172 140/6/140
f 182/12/182 164/10/164 166/12/166
f 183/10/183 158/8/158 164/10/164
f 157/43/157 136/45/136 155/45/155
f 165/41/165 135/43/135 157/43/157
f 191/131/191 154/131/154 160/35/160
f 24/25/24 184/23/184 177/25/177
f 42/41/42 157/43/157 44/43/44
f 32/33/32 139/31/139 134/33/134
f 163/23/163 132/130/132 170/14/170
f 18/130/18 179/16/179 167/130/167
f 14/14/14 182/12/182 180/14/180
f 192/53/192 159/55/159 188/55/188
